<svg width="60" height="60" viewBox="0 0 60 60" fill="none" xmlns="http://www.w3.org/2000/svg">
<path fill-rule="evenodd" clip-rule="evenodd" d="M0.833496 29.9999C0.833496 13.8999 13.9002 0.833252 30.0002 0.833252C46.1002 0.833252 59.1668 13.8999 59.1668 29.9999C59.1668 46.0999 46.1002 59.1666 30.0002 59.1666C13.9002 59.1666 0.833496 46.0999 0.833496 29.9999ZM11.6252 32.0416L22.096 42.5124C23.2335 43.6499 25.1002 43.6499 26.2085 42.5124L48.346 20.3749C49.4835 19.2374 49.4835 17.3999 48.346 16.2624C47.2085 15.1249 45.371 15.1249 44.2335 16.2624L24.1668 36.3291L15.7377 27.9291C14.6002 26.7916 12.7627 26.7916 11.6252 27.9291C11.079 28.474 10.7721 29.2138 10.7721 29.9853C10.7721 30.7568 11.079 31.4967 11.6252 32.0416Z" fill="#1479FF"/>
</svg>
