<svg width="56" height="50" viewBox="0 0 56 50" fill="none" xmlns="http://www.w3.org/2000/svg">
<path fill-rule="evenodd" clip-rule="evenodd" d="M6.03753 49.8027H49.9625C54.4542 49.8027 57.2542 44.9319 55.0084 41.0527L33.0459 3.10688C30.8 -0.772282 25.2 -0.772282 22.9542 3.10688L0.991695 41.0527C-1.25414 44.9319 1.54586 49.8027 6.03753 49.8027ZM28 29.3861C26.3959 29.3861 25.0834 28.0736 25.0834 26.4694V20.6361C25.0834 19.0319 26.3959 17.7194 28 17.7194C29.6042 17.7194 30.9167 19.0319 30.9167 20.6361V26.4694C30.9167 28.0736 29.6042 29.3861 28 29.3861ZM28 41.0527C29.6109 41.0527 30.9167 39.7469 30.9167 38.1361C30.9167 36.5252 29.6109 35.2194 28 35.2194C26.3892 35.2194 25.0834 36.5252 25.0834 38.1361C25.0834 39.7469 26.3892 41.0527 28 41.0527Z" fill="#FF4B4B"/>
</svg>
