<svg width="50" height="62" viewBox="0 0 50 62" fill="none" xmlns="http://www.w3.org/2000/svg">
<path d="M24.9996 33.0093C34.1074 33.0083 37.385 23.8895 38.2428 16.398C39.2998 7.16956 34.9361 0.224121 24.9996 0.224121C15.0652 0.224121 10.6994 7.16906 11.7564 16.398C12.6153 23.8889 15.8913 33.0103 24.9996 33.0093Z" fill="white"/>
<path d="M49.6376 54.7246C49.5381 51.8177 49.1974 48.8976 48.6901 46.036C48.0756 42.5694 47.2933 37.4872 44.2667 35.2286C42.5164 33.9224 40.2498 33.4938 38.246 32.7062C37.2708 32.323 36.3971 31.9424 35.5772 31.5093C32.8097 34.5441 29.201 36.1317 24.9981 36.1319C20.7968 36.1319 17.1886 34.5443 14.421 31.5093C13.6011 31.9425 12.7274 32.3232 11.7522 32.7062C9.7484 33.4938 7.48183 33.9223 5.73169 35.2286C2.7049 37.4877 1.92276 42.5699 1.30827 46.036C0.800892 48.8976 0.460157 51.8177 0.360692 54.7246C0.283655 56.9761 1.39537 57.2917 3.27896 57.9714C5.63766 58.8221 8.07279 59.4536 10.5242 59.9712C15.2588 60.971 20.1391 61.7394 24.9984 61.7738C29.8578 61.7393 34.7381 60.971 39.4726 59.9712C41.924 59.4538 44.3593 58.8223 46.7178 57.9714C48.6021 57.2919 49.7138 56.9763 49.6367 54.7246H49.6376Z" fill="white"/>
</svg>
