<svg width="27" height="37" viewBox="0 0 27 37" fill="none" xmlns="http://www.w3.org/2000/svg">
<path d="M9.96054 17.8142V22.145C9.96054 22.2969 9.83809 22.4189 9.68681 22.4189C9.53553 22.4189 9.41309 22.2969 9.41309 22.145V17.8142C9.41309 16.0095 10.8799 14.542 12.6836 14.542H26.1927C26.217 14.7237 26.2418 14.9049 26.2625 15.0897H12.6836C11.1819 15.0897 9.96054 16.3118 9.96054 17.8142Z" fill="#1D1D1B"/>
<path d="M7.0853 17.8142V27.0777C7.0853 27.4047 7.22444 27.7186 7.46679 27.9393C7.71218 28.1621 8.03043 28.2699 8.36436 28.2365C8.95228 28.1798 9.41321 27.6442 9.41321 27.0155V24.4059C9.41321 24.2545 9.53565 24.132 9.68694 24.132C9.83822 24.132 9.96066 24.2545 9.96066 24.4059V27.0155C9.96066 27.9231 9.28217 28.6992 8.41597 28.7822C7.93733 28.8242 7.45465 28.6683 7.09845 28.3443C6.74226 28.0208 6.53785 27.5586 6.53785 27.0777V17.8142C6.53785 16.3118 5.31647 15.0897 3.81499 15.0897H0.516602C0.537346 14.9049 0.562038 14.7237 0.586375 14.542H3.81499C5.61853 14.542 7.0853 16.0095 7.0853 17.8142Z" fill="#1D1D1B"/>
<path d="M20.5254 16.1858C20.5254 16.0343 20.6478 15.9116 20.7991 15.9116H26.3404C26.3545 16.092 26.3631 16.2765 26.3738 16.4599H20.7991C20.6478 16.4599 20.5254 16.3373 20.5254 16.1858Z" fill="#1D1D1B"/>
<path d="M5.71605 17.814V19.7473C5.71605 19.8987 5.5936 20.0212 5.44232 20.0212C5.29104 20.0212 5.1686 19.8987 5.1686 19.7473V17.814C5.1686 17.0668 4.56145 16.4594 3.81496 16.4594H0.404297C0.414973 16.2761 0.423471 16.0918 0.437689 15.9116H3.81496C4.8635 15.9116 5.71605 16.7651 5.71605 17.814Z" fill="#1D1D1B"/>
<path d="M12.6825 15.9116H18.54C18.6912 15.9116 18.8137 16.0341 18.8137 16.1855C18.8137 16.3369 18.6912 16.4594 18.54 16.4594H12.6825C11.9357 16.4594 11.3285 17.0668 11.3285 17.814V27.0152C11.3285 28.6215 10.1062 29.9964 8.54476 30.1458C6.71218 30.3077 5.1675 28.8746 5.16699 27.0775V21.6654C5.16699 21.514 5.28943 21.3916 5.44071 21.3916C5.592 21.3916 5.71444 21.514 5.71444 21.6654V27.0775C5.71444 28.5557 6.99451 29.7413 8.49366 29.6001C9.77627 29.4775 10.7811 28.3421 10.7811 27.0152V17.814C10.7811 16.7651 11.6341 15.9116 12.6825 15.9116Z" fill="#1D1D1B"/>
<path d="M12.4249 17.8979C12.5762 17.8979 12.6986 18.0205 12.6986 18.1718V27.0151C12.6986 29.3195 10.9318 31.2938 8.67576 31.5089C7.19634 31.6466 5.81103 31.0695 4.87045 29.973C4.7723 29.8586 4.78545 29.6855 4.9003 29.5868C5.01516 29.4896 5.18718 29.5017 5.28686 29.6161C6.11157 30.5785 7.32485 31.0923 8.62365 30.9637C10.6019 30.7744 12.1512 29.04 12.1512 27.0151V18.1718C12.1512 18.0205 12.2736 17.8979 12.4249 17.8979Z" fill="#1D1D1B"/>
<path d="M13.8174 17.5559C13.8174 17.4044 13.9398 17.2817 14.0911 17.2817H26.4112C26.4162 17.4637 26.4198 17.6461 26.4213 17.83H14.0911C13.9398 17.83 13.8174 17.7074 13.8174 17.5559Z" fill="#1D1D1B"/>
<path d="M4.34434 17.8138V27.0773C4.34434 27.4291 4.3919 27.7784 4.48499 28.115C4.52547 28.2613 4.43997 28.4122 4.29425 28.4522C4.14742 28.4937 3.99761 28.4071 3.95708 28.2618C3.85093 27.8771 3.797 27.4787 3.797 27.0773L3.81237 17.8295H0.355469C0.356885 17.6457 0.360832 17.4635 0.36574 17.2817H3.81237C4.10588 17.2817 4.34434 17.5207 4.34434 17.8138Z" fill="#1D1D1B"/>
<path d="M2.97679 18.9252V27.077C2.97679 29.9853 5.34148 32.3509 8.24821 32.3509C8.41265 32.3509 8.58164 32.3428 8.75468 32.3271C10.3646 32.1727 11.8471 31.2347 12.7214 29.8167C12.8008 29.6882 12.9688 29.6472 13.0983 29.7271C13.2268 29.8066 13.2668 29.9752 13.1879 30.1043C12.2245 31.6675 10.5862 32.7023 8.80628 32.8729C8.61453 32.8906 8.42884 32.8987 8.24821 32.8987C5.03943 32.8987 2.42934 30.287 2.42934 27.077V19.1991H0.359064C0.357698 19.0852 0.352539 18.9733 0.352539 18.8584C0.352539 18.7896 0.353552 18.7202 0.353957 18.6514H2.70307C2.8543 18.6514 2.97679 18.7739 2.97679 18.9252Z" fill="#1D1D1B"/>
<path d="M26.4185 19.1991H14.0676V27.0148C14.0676 27.4268 14.0235 27.8394 13.937 28.2424C13.9056 28.3907 13.7614 28.4823 13.6117 28.4525C13.4639 28.4206 13.3698 28.2753 13.4017 28.127C13.4801 27.762 13.5201 27.3884 13.5201 27.0148V18.9252C13.5201 18.7739 13.6425 18.6514 13.7938 18.6514H26.4235C26.4241 18.7202 26.4251 18.7896 26.4251 18.8584C26.4251 18.9733 26.42 19.0852 26.4185 19.1991Z" fill="#1D1D1B"/>
<path d="M8.88539 33.6918C12.252 33.3693 14.8896 30.4367 14.8896 27.0156V20.9125C14.8896 20.7612 15.012 20.6387 15.1633 20.6387C15.3146 20.6387 15.437 20.7612 15.437 20.9125V27.0156C15.437 30.7162 12.5824 33.8887 8.93699 34.2375C8.70121 34.2593 8.47151 34.2699 8.24838 34.2699C7.57394 34.2699 6.92379 34.1697 6.3045 33.9955C5.96146 33.6938 5.62752 33.3698 5.30371 33.0241C6.19217 33.4665 7.18992 33.7222 8.24838 33.7222C8.45532 33.7222 8.66833 33.7115 8.88539 33.6918Z" fill="#1D1D1B"/>
<path d="M1.60783 20.2958V26.7376C1.40286 26.1448 1.21885 25.5297 1.06038 24.8904V20.5697H0.410328C0.398843 20.388 0.386597 20.2067 0.378906 20.022H1.33411C1.48529 20.022 1.60783 20.1445 1.60783 20.2958Z" fill="#1D1D1B"/>
<path d="M16.8281 20.2961C16.8281 20.1446 16.9506 20.022 17.1018 20.022H26.3978C26.3902 20.2069 26.3781 20.3883 26.3664 20.5702H17.1018C16.9506 20.5702 16.8281 20.4476 16.8281 20.2961Z" fill="#1D1D1B"/>
<path d="M9.01408 35.0547C13.0754 34.6659 16.2569 31.1345 16.2569 27.0148V21.665C16.2569 21.5136 16.3793 21.3911 16.5306 21.3911H26.3017C26.2845 21.5739 26.2698 21.7591 26.2485 21.9388H16.8043V27.0148C16.8043 31.4134 13.4053 35.1848 9.06468 35.6009C8.90986 35.6146 8.76566 35.6156 8.6164 35.6217C8.30372 35.4516 7.99408 35.2663 7.68848 35.0633C7.87366 35.076 8.05833 35.0917 8.24654 35.0917C8.49042 35.0917 8.74896 35.079 9.01408 35.0547Z" fill="#1D1D1B"/>
<path d="M19.501 23.0364C19.501 22.8848 19.6239 22.7622 19.7747 22.7622H26.1402C26.1123 22.9472 26.081 23.1291 26.0491 23.3105H19.7747C19.6239 23.3105 19.501 23.1879 19.501 23.0364Z" fill="#1D1D1B"/>
<path d="M17.6279 27.0147V23.7202C17.6279 23.5688 17.7503 23.4463 17.9016 23.4463C18.0529 23.4463 18.1753 23.5688 18.1753 23.7202V27.0147C18.1753 31.4604 15.1745 35.3523 11.0661 36.5941C10.7322 36.509 10.3998 36.4022 10.0684 36.2802C14.3746 35.4156 17.6279 31.5161 17.6279 27.0147Z" fill="#1D1D1B"/>
<path d="M18.9958 27.0153V24.4057C18.9958 24.2544 19.1182 24.1318 19.2695 24.1318H25.8879C25.8495 24.3156 25.8105 24.4993 25.7675 24.6796H19.5432V27.0153C19.5432 31.1699 17.231 34.8897 13.8142 36.8711C13.6797 36.8761 13.5451 36.8822 13.411 36.8812C13.4029 36.8812 13.3953 36.8812 13.3872 36.8812C13.3796 36.8812 13.3715 36.8812 13.3634 36.8812C13.1302 36.8832 12.8954 36.8721 12.6602 36.8549C16.3916 35.1332 18.9958 31.3188 18.9958 27.0153Z" fill="#1D1D1B"/>
<path d="M20.3665 27.0151V25.7753C20.3665 25.624 20.4895 25.5015 20.6402 25.5015H25.5566C25.505 25.6867 25.4494 25.8685 25.3937 26.0492H20.914V27.0151C20.914 30.5622 19.4108 33.8309 17.0009 36.1697C16.5617 36.3459 16.1195 36.4917 15.6758 36.6026C18.5274 34.3483 20.3665 30.8523 20.3665 27.0151Z" fill="#1D1D1B"/>
<path d="M21.735 27.143C21.7365 26.9926 21.8589 26.8716 22.0087 26.8716H25.1232C25.0579 27.0559 24.9926 27.2402 24.9233 27.4195H22.278C22.2557 28.1765 22.1712 28.934 22.0265 29.6758C21.9966 29.8241 21.8508 29.9214 21.7046 29.8915C21.5563 29.8626 21.4596 29.7183 21.4885 29.57C21.6449 28.7735 21.7274 27.9567 21.735 27.143Z" fill="#1D1D1B"/>
<path d="M21.3103 31.333C21.4525 31.3837 21.5269 31.5406 21.4763 31.6829C21.1707 32.5412 20.7815 33.3529 20.3306 34.121C19.907 34.4831 19.4712 34.8102 19.0264 35.1029C19.8331 34.0203 20.493 32.8116 20.9601 31.4991C21.0112 31.3563 21.1686 31.2819 21.3103 31.333Z" fill="#1D1D1B"/>
<path d="M23.3026 28.2417H24.5821C24.5007 28.427 24.4177 28.6102 24.3322 28.7894H23.548C23.4624 29.5123 23.3223 30.2205 23.1366 30.9125C22.8103 31.4071 22.4652 31.8708 22.1055 32.3067C22.578 31.0953 22.8958 29.814 23.0304 28.4882C23.044 28.348 23.1624 28.2417 23.3026 28.2417Z" fill="#1D1D1B"/>
<path d="M16.9127 12.2128H1.01172C1.05579 12.0276 1.10481 11.8468 1.15303 11.6651H16.9127C18.4144 11.6651 19.6358 10.4431 19.6358 8.94057V7.07564C19.6358 6.92427 19.7582 6.80176 19.9095 6.80176C20.0608 6.80176 20.1832 6.92427 20.1832 7.07564V8.94057C20.1832 10.7453 18.7164 12.2128 16.9127 12.2128Z" fill="#1D1D1B"/>
<path d="M19.909 5.02091C19.7574 5.02091 19.6348 4.89838 19.6348 4.74698V2.23291C19.8198 2.37013 20.0022 2.51394 20.1832 2.66331V4.74698C20.1832 4.89838 20.0605 5.02091 19.909 5.02091Z" fill="#1D1D1B"/>
<path d="M22.5098 8.93923V5.1167C22.6965 5.36323 22.8801 5.61686 23.0572 5.8806V8.93923C23.0572 10.3865 24.1931 11.5615 25.6179 11.6476C25.6675 11.8344 25.718 12.0201 25.7636 12.211C23.9674 12.2019 22.5098 10.7384 22.5098 8.93923Z" fill="#1D1D1B"/>
<path d="M23.8809 8.94018V7.2373C24.0727 7.58922 24.2544 7.9548 24.4284 8.33052V8.94018C24.4284 9.46021 24.726 9.90732 25.1567 10.1342C25.2321 10.3514 25.3045 10.5722 25.3738 10.796C24.5216 10.6081 23.8809 9.84858 23.8809 8.94018Z" fill="#1D1D1B"/>
<path d="M13.5443 10.5691C13.5443 10.7206 13.4219 10.8432 13.2706 10.8432H1.39062C1.44739 10.6593 1.50431 10.4748 1.56538 10.2949H13.2706C13.4219 10.2949 13.5443 10.4181 13.5443 10.5691Z" fill="#1D1D1B"/>
<path d="M16.9132 10.843H15.2552C15.1039 10.843 14.9814 10.7204 14.9814 10.5691C14.9814 10.4182 15.1039 10.2952 15.2552 10.2952H16.9132C17.66 10.2952 18.2671 9.68773 18.2671 8.94105V1.35218C18.2671 1.35117 18.2676 1.35015 18.2676 1.34863C18.4513 1.45089 18.6335 1.55922 18.8146 1.67312V8.94105C18.8146 9.98995 17.9615 10.843 16.9132 10.843Z" fill="#1D1D1B"/>
<path d="M17.4449 8.94044C17.4449 9.23406 17.2061 9.47249 16.9132 9.47249H7.79227C7.64099 9.47249 7.51855 9.34999 7.51855 9.19862C7.51855 9.04726 7.64099 8.92475 7.79227 8.92475L16.8975 8.94044V1.35157C16.8975 1.13643 16.9177 0.925833 16.9476 0.717773C17.1216 0.786621 17.2952 0.859004 17.4682 0.938482C17.454 1.07466 17.4449 1.21236 17.4449 1.35157V8.94044Z" fill="#1D1D1B"/>
<path d="M6.08095 9.19895C6.08095 9.35046 5.9585 9.47309 5.80722 9.47309H1.86328C1.93503 9.28762 2.00895 9.1052 2.08504 8.9248H5.80722C5.9585 8.9248 6.08095 9.04744 6.08095 9.19895Z" fill="#1D1D1B"/>
<path d="M16.0767 7.82909C16.0767 7.98045 15.9543 8.10296 15.803 8.10296H2.4541C2.5434 7.91666 2.6369 7.73544 2.73081 7.55522H15.5293V1.3519C15.5293 0.992474 15.5642 0.640134 15.6274 0.295898C15.805 0.339434 15.9821 0.389052 16.1587 0.443219C16.1071 0.739869 16.0767 1.0431 16.0767 1.3519V7.82909Z" fill="#1D1D1B"/>
<path d="M14.7047 5.2253C14.7047 5.37615 14.5822 5.49866 14.4309 5.49866C14.2797 5.49866 14.1572 5.37615 14.1572 5.2253V1.35062C14.1572 0.914759 14.1997 0.486486 14.2761 0.0688477C14.4568 0.0855532 14.6374 0.107831 14.8185 0.135673C14.7451 0.531544 14.7047 0.93754 14.7047 1.35062V5.2253Z" fill="#1D1D1B"/>
<path d="M13.5417 6.73285H3.18262C3.29271 6.54587 3.40615 6.36446 3.521 6.18457H13.5417C13.693 6.18457 13.8155 6.30719 13.8155 6.45871C13.8155 6.61022 13.693 6.73285 13.5417 6.73285Z" fill="#1D1D1B"/>
<path d="M13.3377 5.08872C13.3377 5.24008 13.2152 5.36259 13.064 5.36259H4.08008C4.21664 5.17478 4.35643 4.99304 4.49861 4.81484H12.7902V1.35123C12.7902 0.906257 12.8338 0.46988 12.9011 0.0400918C13.0559 0.0330046 13.2107 0.0269304 13.365 0.0279428C13.3731 0.0279428 13.3812 0.0279433 13.3888 0.0284496C13.3969 0.0279433 13.4045 0.0279428 13.4126 0.0279428C13.4267 0.0279428 13.4409 0.0289563 13.4546 0.0289563C13.3822 0.461276 13.3377 0.9017 13.3377 1.35123V5.08872Z" fill="#1D1D1B"/>
<path d="M11.9678 3.71888C11.9678 3.87025 11.8453 3.99275 11.6941 3.99275H5.20312C5.37717 3.80342 5.55376 3.62117 5.73337 3.44501H11.4203V1.35176C11.4203 0.969048 11.4492 0.592408 11.4927 0.219318C11.6814 0.179832 11.8706 0.147436 12.0594 0.120605C12.0052 0.525588 11.9678 0.934625 11.9678 1.35176V3.71888Z" fill="#1D1D1B"/>
<path d="M10.5981 2.34906C10.5981 2.50042 10.4751 2.62292 10.3244 2.62292H6.64453C6.8798 2.42904 7.11962 2.24782 7.36198 2.07519H10.0506V1.35179C10.0506 1.10677 10.0699 0.864789 10.0856 0.622812C10.2707 0.554977 10.4559 0.492715 10.6421 0.436523C10.6158 0.739248 10.5981 1.044 10.5981 1.35179V2.34906Z" fill="#1D1D1B"/>
<path d="M8.96201 1.25289H8.67969C8.86469 1.15406 9.05071 1.0613 9.23723 0.974121C9.23723 0.978683 9.23672 0.982738 9.23622 0.986793C9.23216 1.1353 9.11052 1.25289 8.96201 1.25289Z" fill="#1D1D1B"/>
<path d="M21.2339 13.4891C21.1898 13.3904 21.2076 13.275 21.2794 13.1945C21.6614 12.7662 22.0459 12.1653 22.2589 11.6626C22.3024 11.5584 22.4041 11.4961 22.5109 11.4961C22.5463 11.4961 22.5827 11.5032 22.6182 11.5179C22.7568 11.5771 22.8221 11.7381 22.7629 11.8773C22.5974 12.2671 22.3389 12.711 22.0535 13.1029H25.9585C25.9939 13.2831 26.0243 13.4674 26.0556 13.6506H21.4838C21.376 13.6506 21.2779 13.5873 21.2339 13.4891Z" fill="#1D1D1B"/>
<path d="M3.20898 13.3772C3.20898 13.5288 3.08641 13.6514 2.93519 13.6514H0.724609C0.756037 13.468 0.786504 13.2835 0.821879 13.103H2.93519C3.08641 13.103 3.20898 13.2257 3.20898 13.3772Z" fill="#1D1D1B"/>
<path d="M8.52108 27.077C8.52108 27.2278 8.39864 27.3509 8.24736 27.3509C8.09608 27.3509 7.97364 27.2278 7.97364 27.077V16.8891C7.97364 15.3178 6.85395 13.9773 5.31129 13.7019C5.16254 13.6751 5.06387 13.5328 5.09018 13.3835C5.11396 13.2509 5.22932 13.1577 5.35935 13.1577C5.37554 13.1577 5.39224 13.1592 5.40843 13.1618C7.21166 13.4847 8.52108 15.0525 8.52108 16.8891V27.077Z" fill="#1D1D1B"/>
<path d="M9.37625 15.374C9.23256 15.4236 9.07723 15.3492 9.02613 15.2064C8.80856 14.5908 8.44579 14.0264 7.97626 13.5743C7.89632 13.4964 7.87052 13.3779 7.91251 13.2746C7.95451 13.1709 8.05469 13.103 8.1665 13.103H12.1712C12.3224 13.103 12.4449 13.2255 12.4449 13.3769C12.4449 13.5283 12.3224 13.6508 12.1712 13.6508H8.78377C9.1091 14.0628 9.36765 14.5286 9.54321 15.0237C9.5933 15.1664 9.51843 15.3228 9.37625 15.374Z" fill="#1D1D1B"/>
<path d="M17.954 13.6503H13.9534C13.8021 13.6503 13.6797 13.5278 13.6797 13.3765C13.6797 13.2251 13.8021 13.1026 13.9534 13.1026H17.954C19.6738 13.1026 21.0738 11.7024 21.0738 9.98171V3.47363C21.2589 3.65689 21.4421 3.84672 21.6212 4.04365V9.98171C21.6212 12.0046 19.9763 13.6503 17.954 13.6503Z" fill="#1D1D1B"/>
</svg>
