<svg width="104" height="130" viewBox="0 0 104 130" fill="none" xmlns="http://www.w3.org/2000/svg">
<mask id="mask0" mask-type="alpha" maskUnits="userSpaceOnUse" x="0" y="0" width="104" height="130">
<rect width="104" height="130" rx="5" fill="#EFEFEF"/>
</mask>
<g mask="url(#mask0)">
<rect x="94" y="75" width="65" height="65" rx="5" transform="rotate(180 94 75)" fill="#C4C4C4"/>
<g opacity="0.3">
<path fill-rule="evenodd" clip-rule="evenodd" d="M60.4483 60.3157L60.4424 60.3161C60.2649 60.3226 60.1431 60.2289 60.0482 60.0801C59.8759 59.8065 59.7805 59.4045 59.7141 58.9134C59.4859 57.2013 59.7027 54.5304 59.6235 51.9861C59.5435 49.3857 58.5297 29.5979 57.3372 20.7405C57.1253 19.1601 56.9045 17.9221 56.685 17.1785C56.5706 16.7896 56.4446 16.516 56.3283 16.3625C54.5763 14.0582 51.9126 14.4129 50.5162 15.0575C49.1686 15.6914 47.9275 17.7138 47.7458 20.434C47.5916 22.9351 47.6538 58.3002 47.7478 59.0939C47.8004 59.5139 47.8053 60.3973 47.7015 61.0685C47.5855 60.7003 47.4753 60.2173 47.3704 59.6402C46.3027 53.7914 45.7839 38.6024 45.6897 32.9152C45.6461 30.2222 45.5319 27.5032 44.9346 25.3533C44.511 23.8282 43.8396 22.582 42.8211 21.7833C41.8736 21.0415 40.1866 20.4795 37.3302 22.1597C35.9419 22.9814 35.1638 24.0053 34.7525 25.7319C34.3727 27.3324 34.322 29.5795 34.3779 32.931C34.4916 39.6728 35.6895 58.811 36.0197 62.5385C36.198 64.5452 36.6244 69.7666 36.1488 75.2433C35.8371 78.8275 34.9482 80.1157 34.2495 80.8848C34.0878 80.8227 33.7446 80.6819 33.4476 80.5146C30.6069 78.9057 24.0016 73.6941 19.5307 71.9019C16.6823 70.7587 14.2488 70.1457 12.2508 70.0807C10.1334 70.0104 8.4841 70.5491 7.31104 71.6869C6.55926 72.4112 6.21295 73.0911 6.11358 73.7287C5.99551 74.483 6.22278 75.1934 6.62079 75.879C6.96954 76.4816 7.45349 77.0662 7.89194 77.6542C8.38762 78.3259 10.4568 79.9073 12.933 81.7603C16.5206 84.4439 20.977 87.7291 22.413 89.6217C24.8746 92.8521 28.8954 98.1384 31.5477 99.9165C34.1798 101.672 45.6899 108.653 46.8035 109.413C47.6427 109.985 48.5979 110.357 49.0843 110.524L51.2424 124.774C51.2675 124.935 51.374 125.076 51.5273 125.149C51.5273 125.149 55.9579 127.259 61.7859 127.893C67.6561 128.531 74.9274 127.673 80.5531 121.74C80.6547 121.635 80.7022 121.492 80.6849 121.35L79.2342 109.213C79.5682 108.132 82.5224 98.3987 83.616 88.389C84.7593 77.9284 83.6491 64.0848 83.6174 63.6991C83.2212 56.2986 84.0948 44.9476 84.0589 40.2831C84.0415 37.8937 83.7248 34.9648 82.5907 32.9538C81.7699 31.4983 80.5331 30.5043 78.7309 30.4085C76.8059 30.307 75.4985 31.3232 74.6723 32.698C73.899 33.9855 73.5624 35.5911 73.521 36.7672C73.3348 42.0449 73.2424 49.1442 73.3117 52.0119C73.4459 57.5697 73.5151 61.4742 73.5201 61.7632C73.5093 61.7751 73.4732 61.8126 73.4467 61.8304C73.3824 61.8712 73.3024 61.9003 73.2174 61.9144C72.8338 61.9768 72.4711 61.6763 72.4703 60.832C72.4707 58.6164 71.5754 33.0432 71.2753 25.4109C71.2249 24.1238 70.9138 22.5955 70.1833 21.3775C69.4072 20.0836 68.1746 19.1286 66.3136 19.0853C64.9994 19.0562 63.5991 19.4836 62.5178 20.4847C59.9269 22.8656 60.1725 24.9936 60.3009 28.1435C60.5466 34.1745 60.2489 45.8393 60.3756 48.5685C60.5416 52.1114 61.0553 56.6641 60.7948 59.0767C60.7457 59.5321 60.6733 59.901 60.5534 60.1565C60.5295 60.2065 60.5041 60.2508 60.4751 60.287C60.4681 60.2961 60.4562 60.3078 60.4483 60.3157ZM52.2394 124.366L50.0757 110.079C50.0464 109.888 49.9031 109.729 49.7082 109.674C49.7082 109.674 48.4579 109.314 47.4132 108.6C46.2996 107.84 34.7829 100.857 32.1498 99.0996C29.5623 97.3655 25.6636 92.1883 23.2621 89.0366C21.7937 87.1005 17.2504 83.7203 13.5797 80.974C11.217 79.2071 9.22095 77.7203 8.74691 77.0774C8.38715 76.5946 7.99441 76.1166 7.67943 75.6269C7.36061 75.1312 7.11671 74.6279 7.13056 74.0881C7.14455 73.5559 7.41759 73.0038 8.05698 72.3883C9.0422 71.433 10.4384 71.0195 12.2143 71.078C14.1109 71.1409 16.4196 71.7369 19.1241 72.8223C23.5567 74.5989 30.0956 79.7785 32.9117 81.3724C33.499 81.705 33.9583 81.886 34.2365 81.9135C34.5481 81.9427 34.7613 81.8403 34.8957 81.6955C35.6821 80.8652 36.8271 79.5436 37.1928 75.3251C37.6741 69.7776 37.244 64.4875 37.0646 62.4542C36.7343 58.7356 35.5399 39.6418 35.4254 32.9153C35.3819 30.3093 35.399 28.3907 35.5976 26.9305C35.8719 24.9081 36.4969 23.8275 37.8826 23.0077C40.1121 21.6968 41.4146 21.9744 42.1556 22.5542C43.0222 23.2336 43.5608 24.3111 43.9217 25.6086C44.5002 27.6903 44.6002 30.3239 44.6423 32.9308C44.7368 38.6512 45.2648 53.9293 46.3374 59.8106C46.5401 60.9221 46.7768 61.7195 47.0172 62.0991C47.2401 62.4535 47.5227 62.5717 47.7607 62.5713C48.0367 62.5721 48.327 62.4182 48.5102 62.0415C48.8311 61.3795 48.873 59.6597 48.7896 58.9796C48.6951 58.1902 48.6387 22.9833 48.7913 20.4951C48.8852 19.0941 49.2793 17.8971 49.8337 17.0481C50.17 16.5332 50.5608 16.1502 50.9768 15.9541C52.0559 15.4568 54.1237 15.1635 55.4782 16.9464C55.5786 17.0793 55.6626 17.3656 55.7635 17.7694C55.9444 18.4985 56.1233 19.562 56.2984 20.8672C57.4863 29.6977 58.4957 49.4223 58.5766 52.0151C58.6703 55.0508 58.3739 58.2605 58.8456 59.8859C59.1252 60.8502 59.6731 61.3432 60.4798 61.3133C60.8408 61.3088 61.1513 61.1419 61.386 60.7867C61.6036 60.4559 61.759 59.902 61.8373 59.1782C62.1009 56.7329 61.5909 52.1169 61.4232 48.5243C61.2953 45.796 61.5937 34.1346 61.3477 28.1058C61.233 25.2756 60.9193 23.342 63.2467 21.2018C64.1138 20.3987 65.237 20.0595 66.2884 20.0839C67.728 20.1169 68.6727 20.8705 69.2742 21.873C69.9202 22.9511 70.1845 24.3076 70.2285 25.4487C70.5274 33.0721 71.4227 58.6188 71.4226 60.8323C71.4223 61.8437 71.811 62.3972 72.2472 62.6745C72.742 62.9907 73.3513 62.977 73.8095 62.777C74.2787 62.5718 74.568 62.1779 74.5679 61.7805C74.5683 61.7773 74.5686 61.7751 74.5679 61.7717C74.5679 61.7717 74.4989 57.777 74.3589 51.9896C74.2905 49.1319 74.3829 42.059 74.5677 36.801C74.6044 35.7586 74.8965 34.3349 75.5813 33.1943C76.2144 32.14 77.1972 31.3275 78.6725 31.4054C80.0824 31.48 81.0257 32.2885 81.6684 33.4268C82.7294 35.308 82.9947 38.0548 83.0115 40.29C83.0461 44.9642 82.1738 56.3407 82.5715 63.7557C82.5721 63.7602 82.5727 63.7646 82.5721 63.769C82.5721 63.769 83.7251 77.7541 82.5738 88.2853C81.4235 98.8089 78.1996 109.024 78.1996 109.024C78.1794 109.09 78.1729 109.157 78.1815 109.225L79.6173 121.237C74.2842 126.733 67.4357 127.502 61.9049 126.901C57.0645 126.374 53.2215 124.797 52.2394 124.366Z" fill="#4F4F4F"/>
<path fill-rule="evenodd" clip-rule="evenodd" d="M52.2179 124.386L50.0556 110.099C50.0253 109.908 49.8821 109.748 49.6868 109.693C49.6868 109.693 48.4379 109.334 47.3925 108.621C46.2783 107.861 34.7622 100.875 32.1294 99.1184C29.5407 97.3856 25.6424 92.2083 23.2407 89.0548C21.7716 87.1202 17.2296 83.7386 13.5596 80.994C11.1964 79.2272 9.20195 77.7382 8.72601 77.096C8.36562 76.6136 7.97212 76.1366 7.65849 75.6464C7.33937 75.1509 7.09734 74.6476 7.1111 74.1076C7.12485 73.5755 7.39717 73.0223 8.03542 72.4063C9.02031 71.4521 10.4179 71.038 12.1951 71.0982C14.0906 71.1612 16.3987 71.7562 19.103 72.8414C23.535 74.6188 30.0744 79.796 32.8915 81.3925C33.4775 81.7228 33.9369 81.9063 34.2148 81.9325C34.5284 81.9613 34.7402 81.8591 34.875 81.7149C35.6618 80.8839 36.8063 79.5626 37.1722 75.3448C37.6536 69.798 37.2244 64.5055 37.0428 62.4739C36.7127 58.7541 35.5188 39.6599 35.406 32.9334C35.362 30.3278 35.3784 28.4088 35.5765 26.9513C35.8516 24.9276 36.4761 23.8477 37.8627 23.0272C40.091 21.7165 41.3951 21.9944 42.1352 22.5737C43.0018 23.2526 43.541 24.33 43.9014 25.6276C44.4791 27.709 44.5782 30.3434 44.6222 32.949C44.7157 38.6715 45.2438 53.949 46.3167 59.8288C46.5203 60.9429 46.757 61.7373 46.9963 62.12C47.2192 62.4712 47.5026 62.5918 47.7392 62.5918C48.017 62.5918 48.3059 62.4372 48.4902 62.0597C48.8093 61.3991 48.8533 59.6794 48.768 58.9979C48.6745 58.2088 48.6168 23.0009 48.7708 20.5159C48.8644 19.1134 49.2576 17.918 49.8134 17.0661C50.149 16.5523 50.5398 16.1696 50.9552 15.973C52.0336 15.4749 54.1023 15.1839 55.4586 16.9665C55.5576 17.1002 55.643 17.3859 55.742 17.7896C55.9236 18.5184 56.1023 19.5799 56.2784 20.8854C57.4669 29.7169 58.4739 49.4429 58.5564 52.0354C58.6499 55.071 58.3527 58.2796 58.8232 59.9048C59.1038 60.8695 59.654 61.3624 60.4601 61.3336C60.8205 61.3283 61.1286 61.1605 61.3652 60.8066C61.5826 60.4737 61.7394 59.9207 61.8164 59.1972C62.0806 56.7514 61.5688 52.1351 61.401 48.5438C61.2744 45.8149 61.5715 34.1549 61.3267 28.1257C61.2111 25.2946 60.8975 23.3601 63.2249 21.221C64.0915 20.4189 65.2167 20.0781 66.2676 20.1017C67.7064 20.1357 68.6528 20.8907 69.2526 21.8921C69.8991 22.9721 70.1632 24.3274 70.2073 25.4677C70.5071 33.0907 71.4012 58.6388 71.4012 60.8513C71.4012 61.8631 71.7891 62.4162 72.2265 62.694C72.7217 63.0086 73.3297 62.9955 73.7892 62.7963C74.2569 62.5918 74.5484 62.1959 74.5484 61.8001C74.5484 61.7975 74.5485 61.7949 74.5457 61.7923C74.5457 61.7923 74.4769 57.7973 74.3394 52.0093C74.2706 49.152 74.3614 42.0794 74.5457 36.8208C74.5842 35.7775 74.8758 34.3542 75.5609 33.2139C76.1936 32.1601 77.1757 31.3475 78.6503 31.4261C80.0616 31.4995 81.0053 32.3069 81.6463 33.4472C82.7082 35.3268 82.9722 38.0739 82.9915 40.3099C83.0245 44.9839 82.1524 56.3608 82.5513 63.7741C82.5513 63.7793 82.5513 63.7845 82.5513 63.7871C82.5513 63.7871 83.704 77.7724 82.5541 88.3051C81.4014 98.8274 78.1799 109.043 78.1799 109.043C78.1579 109.108 78.1523 109.177 78.1606 109.245L79.5967 121.256C74.2623 126.753 67.4148 127.521 61.8824 126.921C57.0432 126.394 53.2 124.816 52.2179 124.386Z" fill="#BDBDBD"/>
<path fill-rule="evenodd" clip-rule="evenodd" d="M7.139 73.7145C7.10323 73.8482 7.08399 73.9792 7.08123 74.1077C7.06748 74.6477 7.3095 75.151 7.62863 75.6465C7.94225 76.1367 8.33576 76.6137 8.69615 77.096C9.17209 77.7383 11.1666 79.2273 13.5298 80.9941C17.1997 83.7387 21.7417 87.1203 23.2108 89.0549C25.6125 92.2084 29.5108 97.3857 32.0996 99.1184C34.7324 100.875 46.2484 107.861 47.3626 108.621C48.408 109.334 49.657 109.693 49.657 109.693C49.8523 109.748 49.9954 109.908 50.0257 110.099L52.188 124.386C53.1702 124.816 57.0134 126.394 61.8526 126.921C66.7412 127.45 72.6561 126.913 77.6466 122.989C74.1197 124.195 68.6395 125.859 64.6202 126.119C58.2074 126.528 55.0574 124.396 54.2568 122.643C53.4453 120.886 52.1633 110.883 52.1633 110.883C52.1633 110.883 53.957 110.805 53.968 110.907C53.9818 111.009 56.9612 110.406 56.9887 110.498C57.0162 110.603 60.4853 108.776 60.4853 108.776L62.7246 107.082C62.7246 107.082 63.7399 106.272 64.0095 105.714C64.2819 105.155 64.5128 103.069 64.5128 103.069C64.5128 103.069 60.2708 106.676 58.5541 107.292C56.8401 107.905 51.2637 107.268 47.1838 106.005C43.0985 104.757 36.493 99.8 34.6746 98.3661C32.8699 96.9322 27.4667 91.4298 26.0307 89.4009C24.5974 87.3562 18.7348 81.9509 18.7348 81.9509C18.7348 81.9509 13.351 80.5459 10.9025 78.0818C9.31515 76.4827 7.92031 74.7394 7.139 73.7145ZM37.2166 65.1949C37.3735 67.7927 37.4752 71.5072 37.1424 75.3449C36.782 79.5024 35.665 80.8446 34.8782 81.6782C35.1203 81.7333 35.4312 81.7909 35.8301 81.8486C37.3432 82.0767 40.639 81.2745 40.639 81.2745C40.639 81.2745 41.6073 77.914 40.3143 72.6712C39.5055 69.4049 38.1328 66.7363 37.2166 65.1949ZM81.4761 33.2087C80.8406 32.1968 79.9327 31.4944 78.6205 31.4262C78.2986 31.4079 77.9987 31.434 77.7209 31.4943C76.9588 31.8089 76.3481 32.2257 75.8529 32.7422C75.7373 32.8916 75.6301 33.0488 75.531 33.214C74.846 34.3543 74.5544 35.7776 74.5159 36.8209C74.3316 42.0794 74.2408 49.1521 74.3095 52.0094C74.4471 57.7974 74.5159 61.7924 74.5159 61.7924C74.5186 61.795 74.5186 61.7976 74.5186 61.8002C74.5186 61.8972 74.4993 61.9942 74.4663 62.0886C74.4746 62.2327 74.4828 62.3769 74.491 62.5211L77.8007 64.0153C77.8007 64.0153 75.6328 60.0832 75.5502 57.4959C75.4759 54.8928 76.0482 53.5926 76.0482 53.5926C76.0482 53.5926 75.044 51.6764 74.8349 48.9371C74.6176 46.0981 75.5502 43.8096 75.5502 43.8096C75.5502 43.8096 75.2422 40.0165 76.1775 35.4789C76.725 32.8339 78.8873 32.0265 81.4761 33.2087ZM42.3694 22.8017C42.2841 22.7231 42.1961 22.6472 42.1053 22.5738C41.3653 21.9944 40.0612 21.7166 37.8328 23.0273C36.4463 23.8478 35.8218 24.9277 35.5466 26.9514C35.3486 28.4089 35.3322 30.3278 35.3762 32.9335C35.4862 39.5185 36.6333 57.9573 36.991 62.2196L38.7049 62.3377C38.7049 62.3377 37.2332 54.9008 37.1809 52.3816C37.1314 49.8467 37.1809 45.7364 37.1809 45.7364C37.1809 45.7364 36.2235 41.7624 36.317 39.0938C36.4161 36.2365 37.0681 34.5142 37.0681 34.5142C37.0681 34.5142 36.0254 32.3462 37.0928 28.2909C37.7668 25.7455 39.8907 22.571 42.3694 22.8017ZM54.8758 16.3793C53.5581 15.26 51.8662 15.5405 50.9253 15.973C50.5099 16.1696 50.1191 16.5524 49.7835 17.0661C49.2278 17.9181 48.8345 19.1135 48.741 20.5159C48.5869 23.001 48.6446 58.2089 48.7382 58.9979C48.8152 59.6166 48.7876 61.0925 48.54 61.8527L50.6364 62.0545C50.6364 62.0545 49.2828 53.784 49.2278 51.2648C49.181 48.7326 49.6488 42.9236 49.6488 42.9236C49.6488 42.9236 49.1013 39.7385 48.928 37.0726C48.7464 34.3122 49.6488 29.9189 49.6488 29.9189C49.6488 29.9189 48.6199 25.625 49.5608 21.2001C50.0945 18.6914 52.3724 16.1119 54.8758 16.3793ZM68.9449 21.4805C68.3424 20.6889 67.473 20.1306 66.2378 20.1017C65.1869 20.0781 64.0616 20.4189 63.1951 21.2211C60.8676 23.3601 61.1813 25.2947 61.2968 28.1258C61.5417 34.155 61.2446 45.815 61.3711 48.5439C61.5389 52.1352 62.0507 56.7515 61.7866 59.1972C61.7481 59.5642 61.6875 59.8866 61.6105 60.1593L64.8788 61.6351C64.8788 61.6351 63.2061 57.475 63.1236 54.8877C63.0466 52.2846 63.1236 44.9577 63.1236 44.9577C63.1236 44.9577 62.5184 41.5133 62.3093 38.7714C62.0919 35.935 62.9887 31.5991 62.9887 31.5991C62.9887 31.5991 62.1882 30.915 63.1236 26.3773C63.6546 23.8005 66.2324 21.1686 68.9449 21.4805Z" fill="#828282"/>
<path d="M82.2133 43.3307C82.3469 43.3185 82.4504 43.2123 82.4426 43.0972C82.4301 42.971 82.3186 42.8723 82.1858 42.8832L75.4713 43.2224C75.3471 43.2184 75.2436 43.3246 75.2549 43.4512C75.2542 43.5811 75.3622 43.6682 75.4997 43.6686L82.2133 43.3307Z" fill="#4F4F4F"/>
<path d="M82.09 53.2183C82.2189 53.2083 82.3082 53.1045 82.2983 52.9826C82.2989 52.854 82.1832 52.7575 82.0554 52.7669L75.6184 53.2257C75.4895 53.2357 75.4002 53.3395 75.4107 53.4623C75.4222 53.5846 75.5362 53.6808 75.6651 53.6708L82.09 53.2183Z" fill="#4F4F4F"/>
<path d="M82.1678 64.5975C82.2506 64.6209 82.3337 64.4916 82.3536 64.3423C82.3705 64.1774 82.3042 64.0399 82.2124 64.0232C82.2124 64.0232 80.0598 63.7513 78.0497 63.5091C76.083 63.2866 74.7084 62.323 74.7056 62.3087C74.6281 62.2638 74.5251 62.3397 74.4942 62.4808C74.4542 62.6287 74.4887 62.8059 74.5663 62.8509C74.5773 62.859 75.9868 63.8473 78.0052 64.0834C79.9832 64.3153 82.1588 64.6042 82.1678 64.5975Z" fill="#4F4F4F"/>
<path d="M70.2215 62.3007C70.3592 62.3021 70.4719 62.1594 70.4736 62.0002C70.4609 61.8409 70.3522 61.7281 70.2145 61.7267C70.2 61.7265 66.8879 61.9324 65.1829 61.4378C63.4502 60.9262 62.0796 60.2269 62.0796 60.2269C61.9559 60.1614 61.8042 60.2241 61.7471 60.3674C61.69 60.5107 61.7569 60.6859 61.8806 60.7514C61.8806 60.7514 63.2931 61.4818 65.0535 61.9951C66.8404 62.5226 70.2215 62.3007 70.2215 62.3007Z" fill="#4F4F4F"/>
<path d="M70.8231 45.562C70.9567 45.5633 71.0657 45.4552 71.0803 45.2998C71.082 45.1443 70.9898 45.0028 70.8563 45.0015C70.8434 45.0013 67.288 44.7175 66.3785 44.6293C64.534 44.4404 63.1298 44.4892 63.1298 44.4892C62.9962 44.4878 62.8871 44.6109 62.8982 44.7666C62.8965 44.9222 63.0029 45.0488 63.1365 45.0501C63.1365 45.0501 64.5277 45.0162 66.3326 45.1898C68.952 45.4506 70.8103 45.5619 70.8231 45.562Z" fill="#4F4F4F"/>
<path d="M70.195 31.7607C70.3432 31.7488 70.4628 31.6244 70.45 31.4854C70.4358 31.3598 70.3188 31.2477 70.1706 31.2596C70.1563 31.2595 66.9797 31.4374 65.7183 31.5638C64.4856 31.677 62.9891 31.5646 62.9891 31.5646C62.8412 31.5485 62.7063 31.6447 62.6892 31.7834C62.6877 31.9223 62.7902 32.0488 62.9396 32.0503C62.9539 32.0504 64.4944 32.1779 65.7868 32.0653C67.0339 31.9388 70.195 31.7607 70.195 31.7607Z" fill="#4F4F4F"/>
<path d="M56.6188 29.6335C56.7567 29.6133 56.8464 29.4911 56.8208 29.3668C56.794 29.2423 56.6549 29.1578 56.5173 29.1769C56.5173 29.1769 53.7838 29.6188 51.7619 29.5335C49.6542 29.4416 49.5063 29.4457 49.5063 29.4457C49.3603 29.4376 49.2457 29.5413 49.2447 29.6592C49.2536 29.7933 49.3594 29.8963 49.5042 29.9041C49.5042 29.9041 49.7523 29.9111 51.7598 29.9919C53.8409 30.0775 56.6042 29.63 56.6188 29.6335Z" fill="#4F4F4F"/>
<path d="M57.4766 41.9794C57.6075 41.9108 57.6632 41.7292 57.6096 41.5882C57.5511 41.4631 57.4074 41.4006 57.275 41.4703C57.275 41.4703 56.2031 42.1168 53.1603 42.2868C50.1031 42.4537 49.9591 42.3263 49.9591 42.3263C49.842 42.2694 49.683 42.3335 49.62 42.4812C49.5569 42.6288 49.6083 42.7849 49.7254 42.8418C49.7254 42.8418 49.9869 43.0248 53.1466 42.8468C56.3195 42.6716 57.4766 41.9794 57.4766 41.9794Z" fill="#4F4F4F"/>
<path d="M57.9622 60.7915C58.022 60.6406 57.9837 60.4716 57.8503 60.4145C57.7187 60.342 57.5732 60.4133 57.5033 60.5453C57.5033 60.5453 57.1068 61.4296 54.6846 61.6335C52.1005 61.839 49.2501 61.72 49.2354 61.7173C49.0923 61.7081 48.9656 61.8311 48.9488 61.9899C48.9441 62.1509 49.0483 62.2836 49.1912 62.2943C49.1912 62.2943 52.0995 62.4224 54.6856 62.2003C57.4147 61.9888 57.9487 60.789 57.9622 60.7915Z" fill="#4F4F4F"/>
<path d="M46.5318 61.2683C46.6554 61.2255 46.7181 61.0905 46.6875 60.9686C46.657 60.8467 46.5365 60.7849 46.4119 60.8271C46.4119 60.8271 43.8275 61.7581 41.7525 61.8609C39.6619 61.969 37.3993 61.702 37.3993 61.702C37.2696 61.6806 37.1484 61.7696 37.1148 61.9037C37.0877 62.0265 37.1574 62.1539 37.295 62.1635C37.295 62.1635 39.6075 62.4414 41.7281 62.3328C43.8763 62.2238 46.5148 61.2741 46.5318 61.2683Z" fill="#4F4F4F"/>
<path d="M45.0106 45.9495C45.1374 45.9135 45.2185 45.7959 45.1864 45.6644C45.1606 45.5501 45.0255 45.4668 44.8987 45.5028C44.8863 45.4965 42.8024 45.9847 40.6979 46.0011C38.5636 46.0161 37.0095 45.8096 37.0095 45.8096C36.8721 45.7821 36.7436 45.8753 36.734 46.0005C36.7126 46.1184 36.8104 46.2419 36.9359 46.2621C36.942 46.2514 38.5194 46.4685 40.7019 46.4504C42.8789 46.4422 44.9993 45.9437 45.0106 45.9495Z" fill="#4F4F4F"/>
<path d="M44.6016 33.3615C44.7507 33.3325 44.8359 33.2099 44.8113 33.0772C44.7879 32.9451 44.6411 32.8552 44.4988 32.8719C44.4925 32.8832 41.2684 33.3991 39.5569 33.4246C37.8268 33.455 36.3686 33.2647 36.3686 33.2647C36.2274 33.2516 36.0977 33.3354 36.0826 33.4795C36.0751 33.6102 36.176 33.7227 36.3097 33.7465C36.3231 33.7534 37.8123 33.9451 39.5826 33.905C41.3454 33.8755 44.5893 33.3552 44.6016 33.3615Z" fill="#4F4F4F"/>
<path d="M75.1692 91.907C75.2485 91.9968 75.41 92.0072 75.5041 91.9317C75.5983 91.8562 75.6174 91.7175 75.5304 91.6116C75.5091 91.5925 66.682 81.5363 60.3457 77.0114C54.0091 72.4877 44.5359 68.3766 44.5108 68.3689C44.3902 68.3194 44.2498 68.3681 44.1977 68.4829C44.1457 68.5978 44.1968 68.7316 44.3042 68.7772C44.3424 68.7889 53.7775 72.8882 60.0596 77.3701C66.3552 81.8549 75.1388 91.8725 75.1692 91.907Z" fill="#4F4F4F"/>
<path d="M63.9834 102.981C64.0111 103.11 64.1497 103.189 64.2856 103.18C64.4356 103.172 64.5393 103.059 64.5116 102.93C64.5023 102.892 62.163 88.7902 58.4584 82.4066C54.7447 75.9724 41.3319 70.663 41.2896 70.6459C41.1477 70.5917 40.9929 70.6361 40.933 70.7545C40.8734 70.8608 40.9445 71.0068 41.0723 71.0594C41.1161 71.0645 54.3573 76.3161 57.9861 82.5895C61.6535 88.918 63.9729 102.941 63.9834 102.981Z" fill="#4F4F4F"/>
<path d="M41.077 81.4588C41.1809 81.3709 41.185 81.2327 41.0928 81.1338C41.0114 81.0493 40.8666 81.0442 40.7642 81.1201C40.4073 81.4301 39.1138 81.6411 37.747 81.7048C36.3246 81.7884 34.8579 81.7148 34.3361 81.4647C34.2255 81.401 34.0877 81.4474 34.022 81.553C33.9676 81.6599 34.0022 81.8016 34.127 81.8549C34.7088 82.1495 36.2785 82.2474 37.7799 82.1611C39.2284 82.0818 40.6319 81.8331 41.077 81.4588Z" fill="#4F4F4F"/>
<path d="M24.3745 76.2278C24.4522 76.1368 24.4314 75.9957 24.3348 75.9215C24.2257 75.8458 24.0787 75.8658 24.0008 75.9579L19.3585 81.817C19.2791 81.921 19.3001 82.0611 19.4092 82.1367C19.5047 82.2108 19.6528 82.1909 19.7322 82.0869L24.3745 76.2278Z" fill="#4F4F4F"/>
<path d="M79.647 104.162C79.7722 104.114 79.8286 103.983 79.7768 103.875C79.7265 103.756 79.6016 103.704 79.4764 103.752C79.4639 103.75 76.7976 104.779 73.439 105.148C70.0943 105.506 68.5997 104.939 68.5997 104.939C68.4732 104.899 68.3327 104.958 68.2904 105.078C68.2508 105.187 68.3121 105.319 68.4385 105.36C68.4385 105.36 70.0482 105.965 73.4859 105.593C76.911 105.22 79.647 104.162 79.647 104.162Z" fill="#4F4F4F"/>
<path d="M64.394 106.138C64.4853 106.048 64.4895 105.91 64.3956 105.824C64.3019 105.737 64.1553 105.745 64.065 105.834C64.0514 105.833 60.7097 109.108 57.1268 109.575C53.5018 110.063 49.5555 109.784 49.5429 109.782C49.4117 109.779 49.294 109.866 49.2916 109.991C49.2754 110.115 49.3797 110.227 49.511 110.231C49.5235 110.232 53.5097 110.516 57.2011 110.024C60.93 109.535 64.3923 106.151 64.394 106.138Z" fill="#4F4F4F"/>
<path d="M80.5411 78.2556C80.6736 78.2581 80.7796 78.1451 80.769 78.0316C80.7714 77.9064 80.6669 77.8049 80.5344 77.8024C80.4941 77.8097 69.3463 78.1356 60.9876 73.7651C52.6272 69.4066 48.8873 63.5086 48.8752 63.4951C48.8107 63.3873 48.6706 63.3453 48.5558 63.4198C48.4415 63.4811 48.4112 63.6162 48.4757 63.724C48.4878 63.7375 52.2808 69.742 60.7643 74.1657C69.2353 78.588 80.516 78.2526 80.5411 78.2556Z" fill="#4F4F4F"/>
</g>
<mask id="mask1" mask-type="alpha" maskUnits="userSpaceOnUse" x="29" y="10" width="65" height="65">
<rect x="29" y="10" width="65" height="65" rx="5" fill="#C4C4C4"/>
</mask>
<g mask="url(#mask1)">
<path fill-rule="evenodd" clip-rule="evenodd" d="M60.45 60.1832L60.4442 60.1836C60.2666 60.19 60.1447 60.0966 60.0497 59.9481C59.8773 59.6753 59.7817 59.2744 59.715 58.7848C59.4861 57.0776 59.702 54.4146 59.6218 51.8779C59.5408 49.2851 58.5191 29.5553 57.3227 20.7236C57.1101 19.1478 56.8888 17.9134 56.6689 17.1719C56.5543 16.7841 56.4281 16.5113 56.3118 16.3581C54.5582 14.06 51.8935 14.4127 50.4969 15.055C49.149 15.6866 47.9082 17.7026 47.7274 20.4147C47.574 22.9084 47.6497 58.1692 47.744 58.9606C47.7968 59.3794 47.802 60.2601 47.6985 60.9293C47.5823 60.5622 47.4718 60.0806 47.3667 59.5052C46.2964 53.6732 45.7716 38.5289 45.6753 32.8583C45.6306 30.1733 45.5153 27.4623 44.9169 25.3185C44.4926 23.7978 43.8205 22.555 42.8012 21.7583C41.8531 21.0184 40.1652 20.4574 37.3083 22.1317C35.9198 22.9505 35.1417 23.9711 34.7309 25.6925C34.3516 27.2882 34.3017 29.5286 34.3589 32.8702C34.4752 39.5922 35.6808 58.6744 36.0126 62.391C36.1917 64.3918 36.6202 69.598 36.1466 75.0584C35.836 78.632 34.9473 79.916 34.2486 80.6826C34.0868 80.6207 33.7434 80.4801 33.4463 80.3133C30.6038 78.7081 23.9939 73.5096 19.5206 71.7211C16.6706 70.5804 14.2359 69.9683 12.2371 69.9028C10.1188 69.832 8.46902 70.3686 7.29593 71.5026C6.54412 72.2245 6.19793 72.9023 6.09876 73.538C5.98093 74.29 6.20856 74.9984 6.60699 75.6821C6.95611 76.2831 7.44047 76.8661 7.87932 77.4524C8.37545 78.1224 10.4461 79.6998 12.924 81.5482C16.514 84.2252 20.9734 87.5021 22.4107 89.3897C24.8745 92.6115 28.8989 97.8835 31.5529 99.6573C34.1868 101.409 45.7041 108.373 46.8185 109.131C47.6581 109.701 48.6139 110.072 49.1006 110.24L51.2649 124.448C51.2901 124.609 51.3967 124.749 51.5501 124.822C51.5501 124.822 55.9832 126.927 61.8138 127.562C67.6865 128.2 74.9605 127.347 80.5862 121.434C80.6878 121.328 80.7353 121.186 80.7179 121.044L79.262 108.943C79.5957 107.865 82.5474 98.1615 83.6377 88.1817C84.7774 77.7523 83.6615 63.9491 83.6297 63.5646C83.2305 56.1858 84.1002 44.8685 84.0625 40.2178C84.0442 37.8354 83.7263 34.915 82.5909 32.9095C81.7693 31.4581 80.5316 30.4665 78.7287 30.3705C76.8028 30.2686 75.4953 31.2814 74.6692 32.6518C73.8961 33.9353 73.56 35.536 73.519 36.7086C73.3348 41.9706 73.245 49.049 73.3155 51.9083C73.4518 57.4497 73.5225 61.3428 73.5277 61.6309C73.5169 61.6428 73.4808 61.6802 73.4542 61.6979C73.39 61.7386 73.3099 61.7675 73.2249 61.7816C72.8412 61.8437 72.4781 61.5439 72.4771 60.7021C72.4766 58.493 71.5713 32.995 71.2682 25.385C71.2173 24.1017 70.9055 22.5778 70.1742 21.3631C69.3973 20.0728 68.1639 19.1202 66.3021 19.0764C64.9874 19.0469 63.5866 19.4725 62.5053 20.4704C59.9143 22.8433 60.1607 24.9652 60.2904 28.1058C60.5385 34.1191 60.2451 45.7494 60.3728 48.4706C60.5403 52.0031 61.0559 56.5426 60.7962 58.9479C60.7473 59.402 60.675 59.7698 60.5551 60.0245C60.5313 60.0743 60.5059 60.1185 60.4769 60.1546C60.4699 60.1636 60.458 60.1754 60.45 60.1832ZM52.2621 124.042L50.0922 109.797C50.0628 109.605 49.9194 109.447 49.7244 109.392C49.7244 109.392 48.4734 109.033 47.4281 108.321C46.3137 107.563 34.7898 100.596 32.155 98.843C29.5657 97.1131 25.6635 91.9499 23.26 88.8066C21.7902 86.8757 17.2438 83.5039 13.5706 80.7645C11.2063 79.002 9.20888 77.5188 8.73441 76.8777C8.37432 76.3961 7.98125 75.9194 7.66596 75.4311C7.34682 74.9368 7.10263 74.4349 7.11628 73.8966C7.13008 73.366 7.40302 72.8156 8.04243 72.2022C9.02768 71.25 10.4243 70.8382 12.2009 70.8972C14.0983 70.9605 16.4081 71.5556 19.1142 72.6387C23.5491 74.4116 30.0927 79.5781 32.9105 81.1683C33.4982 81.5002 33.9576 81.6808 34.236 81.7083C34.5477 81.7375 34.7609 81.6354 34.8953 81.4911C35.6817 80.6636 36.8268 79.3462 37.191 75.1404C37.6704 69.6094 37.2381 64.3347 37.0578 62.3074C36.726 58.5996 35.5239 39.5617 35.4068 32.8549C35.3623 30.2566 35.3786 28.3436 35.5768 26.8879C35.8504 24.8715 36.4753 23.7943 37.8612 22.9774C40.0911 21.6711 41.3943 21.9484 42.1358 22.5267C43.003 23.2044 43.5422 24.2789 43.9038 25.5727C44.4833 27.6485 44.5842 30.2743 44.6274 32.8736C44.7241 38.5771 45.2581 53.8103 46.3334 59.6747C46.5365 60.783 46.7736 61.5781 47.0143 61.9567C47.2374 62.3101 47.5201 62.4281 47.7582 62.4278C48.0343 62.4286 48.3248 62.2754 48.5078 61.8998C48.8286 61.2398 48.8699 59.5252 48.7862 58.847C48.6914 58.0599 48.6217 22.9568 48.7733 20.476C48.8667 19.0791 49.2606 17.8858 49.8148 17.0395C50.1511 16.5262 50.5419 16.1445 50.958 15.9491C52.0373 15.4536 54.1058 15.1619 55.4615 16.94C55.5621 17.0726 55.6462 17.358 55.7473 17.7607C55.9286 18.4877 56.1079 19.5482 56.2835 20.8496C57.4753 29.6544 58.4925 49.3212 58.5745 51.9064C58.6693 54.9332 58.374 58.1333 58.8466 59.7541C59.1267 60.7156 59.675 61.2074 60.482 61.1779C60.8431 61.1735 61.1537 61.0072 61.3883 60.6531C61.6059 60.3233 61.7612 59.7711 61.8392 59.0495C62.102 56.6116 61.59 52.0089 61.4209 48.4269C61.2919 45.7066 61.586 34.0797 61.3377 28.0685C61.2219 25.2466 60.9073 23.3186 63.2347 21.1855C64.1019 20.3851 65.2254 20.0473 66.2773 20.072C67.7174 20.1054 68.6628 20.8571 69.265 21.8568C69.9116 22.932 70.1765 24.2846 70.2209 25.4223C70.5229 33.0233 71.4282 58.4951 71.429 60.702C71.429 61.7105 71.8181 62.2624 72.2546 62.5391C72.7497 62.8545 73.3593 62.8411 73.8175 62.6419C74.2868 62.4374 74.5761 62.0447 74.5758 61.6486C74.5763 61.6453 74.5765 61.6432 74.5758 61.6398C74.5758 61.6398 74.5053 57.6568 74.363 51.8864C74.2936 49.0371 74.3833 41.9851 74.5662 36.7427C74.6025 35.7034 74.8942 34.2839 75.5788 33.1469C76.2118 32.096 77.1946 31.2862 78.6706 31.3644C80.0811 31.4392 81.0251 32.2457 81.6685 33.3808C82.7306 35.2569 82.9971 37.9956 83.0147 40.2243C83.0511 44.8847 82.1827 56.2274 82.5834 63.6206C82.584 63.6251 82.5846 63.6296 82.584 63.6339C82.584 63.6339 83.7427 77.5782 82.595 88.0779C81.4482 98.5701 78.2269 108.754 78.2269 108.754C78.2068 108.82 78.2003 108.887 78.2089 108.954L79.6499 120.931C74.3167 126.41 67.4657 127.174 61.9325 126.573C57.0899 126.045 53.2449 124.472 52.2621 124.042Z" fill="#EF413D"/>
<path fill-rule="evenodd" clip-rule="evenodd" d="M52.2008 124.038L50.0374 109.795C50.0072 109.604 49.8639 109.445 49.6685 109.39C49.6685 109.39 48.419 109.032 47.373 108.321C46.2583 107.563 34.7366 100.598 32.1025 98.8474C29.5125 97.1199 25.6123 91.9584 23.2094 88.8144C21.7396 86.8857 17.1954 83.5144 13.5236 80.7781C11.1593 79.0167 9.16381 77.5322 8.68764 76.8919C8.32707 76.4111 7.93337 75.9355 7.61959 75.4468C7.30031 74.9528 7.05816 74.451 7.07193 73.9127C7.08569 73.3821 7.35814 72.8306 7.99671 72.2165C8.98208 71.2652 10.3803 70.8523 12.1584 70.9125C14.0548 70.9752 16.3641 71.5684 19.0697 72.6504C23.5039 74.4223 30.0465 79.5838 32.865 81.1754C33.4512 81.5047 33.9109 81.6876 34.1889 81.7138C34.5027 81.7425 34.7146 81.6406 34.8495 81.4968C35.6367 80.6684 36.7817 79.3511 37.1478 75.1461C37.6294 69.6161 37.2 64.3397 37.0183 62.3143C36.6881 58.6059 35.4936 39.5697 35.3807 32.8636C35.3367 30.2659 35.3531 28.3528 35.5513 26.8997C35.8265 24.8822 36.4513 23.8055 37.8386 22.9875C40.068 21.6808 41.3728 21.9578 42.1132 22.5354C42.9802 23.2123 43.5196 24.2863 43.8802 25.58C44.4582 27.655 44.5573 30.2815 44.6014 32.8792C44.695 38.5843 45.2233 53.8154 46.2968 59.6773C46.5005 60.788 46.7372 61.5799 46.9767 61.9615C47.1996 62.3117 47.4832 62.4318 47.7199 62.4318C47.9979 62.4318 48.2869 62.2777 48.4713 61.9014C48.7906 61.2428 48.8346 59.5283 48.7492 58.8488C48.6557 58.0622 48.5979 22.9613 48.7521 20.4838C48.8457 19.0856 49.2391 17.8939 49.7951 17.0445C50.1309 16.5323 50.5219 16.1507 50.9375 15.9547C52.0164 15.4582 54.0862 15.1681 55.4431 16.9452C55.5422 17.0785 55.6276 17.3634 55.7267 17.7659C55.9084 18.4924 56.0872 19.5507 56.2633 20.8522C57.4524 29.6568 58.4599 49.3229 58.5424 51.9076C58.636 54.9339 58.3387 58.1328 58.8093 59.7531C59.0901 60.7148 59.6406 61.2062 60.4471 61.1774C60.8077 61.1722 61.1159 61.0049 61.3526 60.6521C61.5701 60.3202 61.727 59.7688 61.8041 59.0475C62.0683 56.6092 61.5563 52.0069 61.3884 48.4265C61.2618 45.706 61.559 34.0814 61.3141 28.0705C61.1985 25.248 60.8847 23.3194 63.2132 21.1868C64.0802 20.3871 65.206 20.0473 66.2574 20.0709C67.697 20.1048 68.6438 20.8575 69.2439 21.8559C69.8907 22.9326 70.155 24.2838 70.199 25.4206C70.499 33.0204 71.3935 58.4909 71.3935 60.6966C71.3935 61.7054 71.7816 62.2568 72.2192 62.5338C72.7147 62.8474 73.323 62.8344 73.7827 62.6358C74.2506 62.4319 74.5423 62.0372 74.5423 61.6426C74.5423 61.64 74.5423 61.6374 74.5396 61.6348C74.5396 61.6348 74.4708 57.652 74.3332 51.8815C74.2644 49.0329 74.3552 41.9818 74.5396 36.7392C74.5781 35.6991 74.8699 34.2801 75.5552 33.1432C76.1883 32.0926 77.1709 31.2825 78.6462 31.3609C80.0582 31.4341 81.0023 32.239 81.6436 33.3759C82.7061 35.2497 82.9702 37.9885 82.9895 40.2177C83.0225 44.8775 82.15 56.2198 82.5491 63.6106C82.5491 63.6158 82.5491 63.621 82.5491 63.6236C82.5491 63.6236 83.7024 77.5663 82.5519 88.067C81.3986 98.5573 78.1755 108.742 78.1755 108.742C78.1535 108.807 78.1479 108.875 78.1562 108.943L79.593 120.918C74.2561 126.398 67.4052 127.164 61.8701 126.565C57.0285 126.04 53.1834 124.467 52.2008 124.038Z" fill="#FCCFCF"/>
<path fill-rule="evenodd" clip-rule="evenodd" d="M7.09964 73.5207C7.06386 73.654 7.04461 73.7847 7.04185 73.9127C7.02809 74.4511 7.27024 74.9529 7.58952 75.4469C7.9033 75.9356 8.297 76.4112 8.65756 76.892C9.13374 77.5323 11.1292 79.0168 13.4935 80.7782C17.1653 83.5145 21.7095 86.8858 23.1793 88.8145C25.5822 91.9585 29.4824 97.12 32.0725 98.8475C34.7065 100.598 46.2282 107.563 47.343 108.321C48.3889 109.032 49.6385 109.39 49.6385 109.39C49.8339 109.445 49.9771 109.604 50.0074 109.795L52.1707 124.038C53.1534 124.467 56.9985 126.04 61.84 126.565C66.7311 127.093 72.6489 126.558 77.6418 122.645C74.1132 123.847 68.6303 125.507 64.609 125.766C58.1931 126.173 55.0415 124.049 54.2406 122.3C53.4286 120.549 52.146 110.577 52.146 110.577C52.146 110.577 53.9406 110.498 53.9516 110.6C53.9654 110.702 56.9463 110.101 56.9738 110.192C57.0013 110.297 60.4721 108.475 60.4721 108.475L62.7125 106.787C62.7125 106.787 63.7283 105.979 63.998 105.423C64.2705 104.866 64.5016 102.786 64.5016 102.786C64.5016 102.786 60.2574 106.382 58.5399 106.996C56.8251 107.608 51.2459 106.973 47.1641 105.713C43.0767 104.469 36.4681 99.5269 34.6487 98.0974C32.8431 96.6679 27.4374 91.1822 26.0006 89.1594C24.5666 87.121 18.7011 81.7321 18.7011 81.7321C18.7011 81.7321 13.3147 80.3314 10.865 77.8747C9.27687 76.2806 7.88133 74.5426 7.09964 73.5207ZM37.192 65.0271C37.3489 67.617 37.4507 71.3202 37.1177 75.1462C36.7571 79.2911 35.6397 80.6292 34.8525 81.4603C35.0947 81.5152 35.4057 81.5726 35.8048 81.6301C37.3186 81.8575 40.616 81.0578 40.616 81.0578C40.616 81.0578 41.5848 77.7074 40.2912 72.4806C39.482 69.2243 38.1086 66.5638 37.192 65.0271ZM81.4731 33.1381C80.8373 32.1293 79.9291 31.4289 78.6162 31.361C78.2941 31.3427 77.9941 31.3688 77.7161 31.4289C76.9537 31.7425 76.3426 32.1581 75.8472 32.6729C75.7316 32.8219 75.6243 32.9787 75.5252 33.1433C74.8398 34.2801 74.5481 35.6992 74.5095 36.7393C74.3251 41.9819 74.2343 49.033 74.3031 51.8816C74.4407 57.6521 74.5095 61.6349 74.5095 61.6349C74.5123 61.6375 74.5122 61.6401 74.5122 61.6427C74.5122 61.7394 74.493 61.8361 74.4599 61.9302C74.4682 62.0739 74.4764 62.2176 74.4847 62.3614L77.7959 63.8511C77.7959 63.8511 75.627 59.9309 75.5444 57.3514C75.4701 54.7563 76.0426 53.46 76.0426 53.46C76.0426 53.46 75.0379 51.5497 74.8287 48.8186C74.6113 45.9883 75.5444 43.7068 75.5444 43.7068C75.5444 43.7068 75.2362 39.9252 76.172 35.4013C76.7198 32.7644 78.8831 31.9594 81.4731 33.1381ZM42.3473 22.7627C42.262 22.6843 42.1739 22.6086 42.0831 22.5355C41.3427 21.9579 40.038 21.6809 37.8085 22.9876C36.4213 23.8056 35.7965 24.8822 35.5212 26.8998C35.323 28.3529 35.3066 30.266 35.3507 32.8637C35.4608 39.4286 36.6084 57.8114 36.9662 62.0608L38.681 62.1785C38.681 62.1785 37.2086 54.7642 37.1563 52.2527C37.1067 49.7255 37.1563 45.6276 37.1563 45.6276C37.1563 45.6276 36.1984 41.6657 36.292 39.0053C36.3911 36.1566 37.0434 34.4396 37.0434 34.4396C37.0434 34.4396 36.0002 32.2782 37.0681 28.2352C37.7425 25.6976 39.8674 22.5327 42.3473 22.7627ZM54.8599 16.3598C53.5415 15.2439 51.8488 15.5236 50.9074 15.9548C50.4918 16.1508 50.1009 16.5323 49.7651 17.0446C49.2091 17.8939 48.8156 19.0857 48.722 20.4839C48.5679 22.9614 48.6256 58.0623 48.7192 58.8489C48.7963 59.4657 48.7687 60.9371 48.5209 61.695L50.6183 61.8962C50.6183 61.8962 49.2641 53.6508 49.2091 51.1393C49.1623 48.6148 49.6303 42.8234 49.6303 42.8234C49.6303 42.8234 49.0825 39.6481 48.9091 36.9902C48.7274 34.2383 49.6303 29.8583 49.6303 29.8583C49.6303 29.8583 48.6009 25.5774 49.5422 21.166C50.0762 18.6649 52.3552 16.0933 54.8599 16.3598ZM68.9359 21.4455C68.3331 20.6563 67.4632 20.0997 66.2274 20.0709C65.1759 20.0474 64.0502 20.3872 63.1832 21.1869C60.8546 23.3194 61.1684 25.2481 61.284 28.0706C61.529 34.0815 61.2317 45.706 61.3583 48.4266C61.5262 52.007 62.0383 56.6093 61.774 59.0476C61.7355 59.4135 61.6749 59.7349 61.5978 60.0067L64.8677 61.478C64.8677 61.478 63.1942 57.3306 63.1117 54.7512C63.0346 52.156 63.1117 44.8514 63.1117 44.8514C63.1117 44.8514 62.5061 41.4175 62.297 38.6838C62.0795 35.8561 62.9767 31.5334 62.9767 31.5334C62.9767 31.5334 62.1758 30.8513 63.1117 26.3275C63.6429 23.7585 66.222 21.1345 68.9359 21.4455Z" fill="#F57070"/>
<path d="M82.2109 43.2295C82.3446 43.2174 82.4481 43.1114 82.4403 42.9967C82.4278 42.8709 82.3162 42.7725 82.1833 42.7834L75.4656 43.1216C75.3413 43.1175 75.2377 43.2235 75.2491 43.3496C75.2484 43.4792 75.3564 43.566 75.494 43.5664L82.2109 43.2295Z" fill="#EF413D"/>
<path d="M82.088 53.0869C82.2169 53.077 82.3062 52.9734 82.2963 52.8519C82.2969 52.7237 82.1812 52.6275 82.0533 52.6369L75.6132 53.0942C75.4842 53.1042 75.3949 53.2077 75.4054 53.3302C75.4168 53.4521 75.531 53.5479 75.6599 53.538L82.088 53.0869Z" fill="#EF413D"/>
<path d="M82.1668 64.4318C82.2495 64.4551 82.3327 64.3261 82.3526 64.1773C82.3695 64.0129 82.3031 63.8758 82.2113 63.8592C82.2113 63.8592 80.0577 63.5881 78.0466 63.3466C76.0789 63.1249 74.7036 62.1641 74.7008 62.15C74.6233 62.1051 74.5203 62.1808 74.4893 62.3215C74.4493 62.4689 74.4839 62.6456 74.5614 62.6905C74.5725 62.6986 75.9826 63.6838 78.002 63.9192C79.981 64.1504 82.1577 64.4384 82.1668 64.4318Z" fill="#EF413D"/>
<path d="M70.2139 62.1417C70.3517 62.1431 70.4644 62.0008 70.4662 61.8421C70.4534 61.6833 70.3447 61.5708 70.2069 61.5695C70.1924 61.5693 66.8787 61.7745 65.1729 61.2814C63.4394 60.7714 62.0681 60.0742 62.0681 60.0742C61.9443 60.0089 61.7926 60.0715 61.7354 60.2143C61.6782 60.3571 61.7452 60.5318 61.8689 60.5971C61.8689 60.5971 63.2822 61.3253 65.0435 61.837C66.8312 62.3629 70.2139 62.1417 70.2139 62.1417Z" fill="#EF413D"/>
<path d="M70.8153 45.454C70.9489 45.4553 71.058 45.3475 71.0726 45.1926C71.0743 45.0375 70.9821 44.8964 70.8484 44.8951C70.8355 44.895 67.2784 44.6121 66.3685 44.5241C64.5231 44.3357 63.1182 44.3844 63.1182 44.3844C62.9845 44.3831 62.8753 44.5058 62.8865 44.661C62.8848 44.8161 62.9913 44.9423 63.1249 44.9436C63.1249 44.9436 64.5168 44.9098 66.3225 45.0829C68.9432 45.3429 70.8024 45.4538 70.8153 45.454Z" fill="#EF413D"/>
<path d="M70.1874 31.6945C70.3357 31.6826 70.4553 31.5587 70.4426 31.42C70.4284 31.2948 70.3113 31.1831 70.163 31.195C70.1487 31.1948 66.9705 31.3722 65.7085 31.4982C64.4752 31.6111 62.978 31.499 62.978 31.499C62.83 31.483 62.6951 31.5788 62.678 31.7171C62.6765 31.8556 62.7791 31.9817 62.9285 31.9832C62.9428 31.9834 64.484 32.1104 65.7771 31.9981C67.0248 31.872 70.1874 31.6945 70.1874 31.6945Z" fill="#EF413D"/>
<path d="M56.604 29.5735C56.742 29.5534 56.8318 29.4315 56.8062 29.3077C56.7793 29.1835 56.6402 29.0993 56.5025 29.1183C56.5025 29.1183 53.7677 29.5588 51.7449 29.4738C49.6361 29.3822 49.4881 29.3863 49.4881 29.3863C49.342 29.3782 49.2274 29.4816 49.2263 29.5992C49.2352 29.7328 49.3411 29.8355 49.486 29.8433C49.486 29.8433 49.7342 29.8503 51.7427 29.9308C53.8248 30.0161 56.5895 29.5701 56.604 29.5735Z" fill="#EF413D"/>
<path d="M57.4626 41.8821C57.5935 41.8137 57.6493 41.6327 57.5957 41.4921C57.5372 41.3674 57.3934 41.3051 57.2609 41.3746C57.2609 41.3746 56.1884 42.0191 53.1442 42.1886C50.0855 42.355 49.9414 42.228 49.9414 42.228C49.8242 42.1712 49.6652 42.2352 49.6021 42.3824C49.539 42.5296 49.5904 42.6851 49.7076 42.7419C49.7076 42.7419 49.9692 42.9243 53.1304 42.7469C56.3049 42.5722 57.4626 41.8821 57.4626 41.8821Z" fill="#EF413D"/>
<path d="M57.9483 60.6372C58.0081 60.4868 57.9697 60.3184 57.8362 60.2614C57.7046 60.1891 57.5591 60.2602 57.4891 60.3918C57.4891 60.3918 57.0925 61.2734 54.669 61.4767C52.0837 61.6816 49.2319 61.563 49.2172 61.5603C49.074 61.551 48.9473 61.6737 48.9304 61.832C48.9258 61.9925 49.03 62.1249 49.1729 62.1355C49.1729 62.1355 52.0826 62.2632 54.6701 62.0418C57.4004 61.831 57.9348 60.6348 57.9483 60.6372Z" fill="#EF413D"/>
<path d="M46.5122 61.1122C46.6359 61.0696 46.6986 60.9349 46.668 60.8134C46.6374 60.6919 46.5169 60.6303 46.3922 60.6724C46.3922 60.6724 43.8066 61.6005 41.7305 61.703C39.639 61.8107 37.3752 61.5446 37.3752 61.5446C37.2455 61.5232 37.1242 61.612 37.0906 61.7457C37.0635 61.8681 37.1332 61.9951 37.2709 62.0046C37.2709 62.0046 39.5845 62.2817 41.7061 62.1735C43.8554 62.0648 46.4952 61.118 46.5122 61.1122Z" fill="#EF413D"/>
<path d="M44.9897 45.8403C45.1166 45.8044 45.1977 45.6871 45.1656 45.5561C45.1398 45.4421 45.0046 45.3591 44.8777 45.395C44.8654 45.3886 42.7804 45.8753 40.6749 45.8917C38.5396 45.9067 36.9847 45.7008 36.9847 45.7008C36.8473 45.6734 36.7187 45.7663 36.7091 45.8911C36.6876 46.0087 36.7855 46.1318 36.9111 46.152C36.9172 46.1412 38.4953 46.3577 40.6789 46.3397C42.857 46.3315 44.9784 45.8344 44.9897 45.8403Z" fill="#EF413D"/>
<path d="M44.5817 33.2905C44.731 33.2616 44.8162 33.1394 44.7916 33.0071C44.7682 32.8754 44.6212 32.7858 44.4789 32.8024C44.4726 32.8137 41.2469 33.328 39.5346 33.3534C37.8036 33.3837 36.3447 33.194 36.3447 33.194C36.2034 33.1809 36.0737 33.2645 36.0586 33.4081C36.051 33.5385 36.152 33.6507 36.2858 33.6744C36.2992 33.6812 37.7891 33.8723 39.5603 33.8323C41.3239 33.803 44.5694 33.2842 44.5817 33.2905Z" fill="#EF413D"/>
<path d="M75.1644 91.658C75.2437 91.7475 75.4052 91.7579 75.4994 91.6826C75.5936 91.6073 75.6128 91.469 75.5257 91.3635C75.5044 91.3444 66.6729 81.3188 60.3336 76.8077C53.9939 72.2977 44.516 68.1991 44.4909 68.1915C44.3703 68.142 44.2297 68.1906 44.1777 68.3051C44.1256 68.4196 44.1767 68.5531 44.2842 68.5985C44.3224 68.6102 53.7621 72.697 60.0473 77.1652C66.346 81.6364 75.1339 91.6235 75.1644 91.658Z" fill="#EF413D"/>
<path d="M63.9727 102.698C64.0004 102.827 64.1391 102.905 64.2751 102.896C64.4252 102.889 64.5289 102.776 64.5012 102.648C64.4919 102.609 62.1514 88.5505 58.445 82.1863C54.7295 75.7717 41.3101 70.4785 41.2678 70.4615C41.1258 70.4074 40.9709 70.4516 40.911 70.5697C40.8513 70.6756 40.9225 70.8212 41.0504 70.8736C41.0942 70.8788 54.3419 76.1144 57.9725 82.3687C61.6416 88.678 63.9622 102.659 63.9727 102.698Z" fill="#EF413D"/>
<path d="M80.5382 78.0479C80.6708 78.0504 80.7768 77.9378 80.7662 77.8247C80.7687 77.6999 80.6641 77.5986 80.5315 77.5961C80.4913 77.6034 69.338 77.9283 60.9751 73.5711C52.6107 69.2258 48.8689 63.3458 48.8568 63.3323C48.7923 63.2248 48.6522 63.183 48.5373 63.2573C48.423 63.3184 48.3926 63.4531 48.4571 63.5605C48.4692 63.574 52.2641 69.5602 60.7518 73.9705C69.2269 78.3793 80.5132 78.045 80.5382 78.0479Z" fill="#EF413D"/>
</g>
</g>
</svg>
