<svg width="104" height="130" viewBox="0 0 104 130" fill="none" xmlns="http://www.w3.org/2000/svg">
<mask id="mask0" mask-type="alpha" maskUnits="userSpaceOnUse" x="0" y="0" width="104" height="130">
<rect width="104" height="130" rx="5" transform="matrix(-1 0 0 1 104 0)" fill="#EFEFEF"/>
</mask>
<g mask="url(#mask0)">
<rect width="65" height="65" rx="5" transform="matrix(1 0 0 -1 10 75)" fill="#C4C4C4"/>
<g opacity="0.3">
<path fill-rule="evenodd" clip-rule="evenodd" d="M43.5517 60.3157L43.5576 60.3161C43.7351 60.3226 43.8569 60.2289 43.9518 60.0801C44.1241 59.8065 44.2195 59.4045 44.2859 58.9134C44.5142 57.2013 44.2973 54.5304 44.3765 51.9861C44.4565 49.3857 45.4703 29.5979 46.6628 20.7405C46.8747 19.1601 47.0955 17.9221 47.315 17.1785C47.4294 16.7896 47.5554 16.516 47.6717 16.3625C49.4237 14.0582 52.0874 14.4129 53.4838 15.0575C54.8314 15.6914 56.0725 17.7138 56.2542 20.434C56.4084 22.9351 56.3462 58.3002 56.2522 59.0939C56.1996 59.5139 56.1947 60.3973 56.2985 61.0685C56.4145 60.7003 56.5247 60.2173 56.6296 59.6402C57.6973 53.7914 58.2161 38.6024 58.3103 32.9152C58.3539 30.2222 58.4681 27.5032 59.0654 25.3533C59.489 23.8282 60.1604 22.582 61.1789 21.7833C62.1264 21.0415 63.8134 20.4795 66.6698 22.1597C68.0581 22.9814 68.8362 24.0053 69.2475 25.7319C69.6273 27.3324 69.678 29.5795 69.6221 32.931C69.5084 39.6728 68.3105 58.811 67.9803 62.5385C67.802 64.5452 67.3756 69.7666 67.8512 75.2433C68.1629 78.8275 69.0518 80.1157 69.7505 80.8848C69.9122 80.8227 70.2554 80.6819 70.5524 80.5146C73.3931 78.9057 79.9984 73.6941 84.4693 71.9019C87.3177 70.7587 89.7512 70.1457 91.7492 70.0807C93.8666 70.0104 95.5159 70.5491 96.689 71.6869C97.4407 72.4112 97.787 73.0911 97.8864 73.7287C98.0045 74.483 97.7772 75.1934 97.3792 75.879C97.0305 76.4816 96.5465 77.0662 96.1081 77.6542C95.6124 78.3259 93.5432 79.9073 91.067 81.7603C87.4794 84.4439 83.023 87.729 81.587 89.6217C79.1254 92.8521 75.1046 98.1384 72.4523 99.9165C69.8202 101.672 58.3101 108.653 57.1965 109.413C56.3573 109.985 55.4021 110.357 54.9157 110.524L52.7576 124.774C52.7325 124.935 52.626 125.076 52.4727 125.149C52.4727 125.149 48.0421 127.259 42.2141 127.893C36.3439 128.531 29.0726 127.673 23.4469 121.74C23.3453 121.635 23.2978 121.492 23.3151 121.35L24.7658 109.213C24.4318 108.132 21.4776 98.3987 20.384 88.389C19.2407 77.9284 20.3509 64.0848 20.3826 63.6991C20.7788 56.2986 19.9052 44.9476 19.9411 40.2831C19.9585 37.8937 20.2752 34.9648 21.4093 32.9538C22.2301 31.4983 23.4669 30.5043 25.2691 30.4085C27.1941 30.307 28.5015 31.3232 29.3277 32.698C30.101 33.9855 30.4376 35.5911 30.479 36.7672C30.6652 42.0449 30.7576 49.1442 30.6883 52.0119C30.5541 57.5697 30.4849 61.4742 30.4799 61.7632C30.4907 61.7751 30.5267 61.8126 30.5533 61.8304C30.6176 61.8712 30.6976 61.9003 30.7826 61.9144C31.1662 61.9768 31.5289 61.6763 31.5297 60.832C31.5293 58.6164 32.4246 33.0432 32.7247 25.4109C32.7751 24.1238 33.0862 22.5955 33.8167 21.3775C34.5928 20.0836 35.8254 19.1286 37.6864 19.0853C39.0006 19.0562 40.4009 19.4836 41.4822 20.4847C44.0731 22.8656 43.8275 24.9936 43.6991 28.1435C43.4534 34.1745 43.7512 45.8393 43.6245 48.5685C43.4584 52.1114 42.9447 56.6641 43.2052 59.0767C43.2543 59.5321 43.3267 59.901 43.4466 60.1565C43.4705 60.2065 43.4959 60.2508 43.5249 60.287C43.5319 60.2961 43.5438 60.3078 43.5517 60.3157ZM51.7606 124.366L53.9243 110.079C53.9536 109.888 54.0969 109.729 54.2918 109.674C54.2918 109.674 55.5421 109.314 56.5868 108.6C57.7004 107.84 69.2171 100.857 71.8502 99.0996C74.4377 97.3655 78.3364 92.1884 80.7379 89.0366C82.2063 87.1005 86.7496 83.7203 90.4203 80.974C92.783 79.2071 94.7791 77.7203 95.2531 77.0774C95.6129 76.5946 96.0056 76.1166 96.3206 75.6269C96.6394 75.1312 96.8833 74.6279 96.8694 74.0881C96.8554 73.5559 96.5824 73.0038 95.943 72.3883C94.9578 71.433 93.5616 71.0195 91.7857 71.078C89.8891 71.1409 87.5804 71.7369 84.8759 72.8223C80.4433 74.5989 73.9044 79.7785 71.0883 81.3724C70.501 81.705 70.0417 81.886 69.7635 81.9135C69.4519 81.9427 69.2387 81.8403 69.1043 81.6955C68.3179 80.8652 67.1729 79.5436 66.8072 75.3251C66.3259 69.7776 66.756 64.4875 66.9354 62.4542C67.2657 58.7356 68.4601 39.6418 68.5746 32.9153C68.6181 30.3093 68.601 28.3907 68.4024 26.9305C68.1281 24.9081 67.5031 23.8275 66.1174 23.0077C63.8879 21.6968 62.5854 21.9744 61.8444 22.5542C60.9778 23.2336 60.4392 24.3111 60.0783 25.6086C59.4998 27.6903 59.3998 30.3239 59.3577 32.9308C59.2632 38.6512 58.7352 53.9293 57.6626 59.8106C57.4599 60.9221 57.2232 61.7195 56.9828 62.0991C56.7599 62.4535 56.4773 62.5717 56.2393 62.5713C55.9633 62.5721 55.673 62.4182 55.4898 62.0415C55.1689 61.3795 55.127 59.6597 55.2104 58.9796C55.3049 58.1902 55.3613 22.9833 55.2087 20.4951C55.1148 19.0941 54.7207 17.8971 54.1663 17.0481C53.83 16.5332 53.4392 16.1502 53.0232 15.9541C51.9441 15.4568 49.8763 15.1635 48.5218 16.9464C48.4214 17.0793 48.3374 17.3656 48.2365 17.7694C48.0556 18.4985 47.8767 19.562 47.7016 20.8672C46.5137 29.6977 45.5043 49.4223 45.4234 52.0151C45.3297 55.0508 45.6261 58.2605 45.1544 59.8859C44.8748 60.8502 44.3269 61.3432 43.5202 61.3133C43.1592 61.3088 42.8487 61.1419 42.614 60.7867C42.3964 60.4559 42.241 59.902 42.1627 59.1782C41.8991 56.7329 42.4091 52.1169 42.5768 48.5243C42.7047 45.796 42.4063 34.1346 42.6523 28.1058C42.767 25.2756 43.0807 23.342 40.7534 21.2018C39.8862 20.3987 38.763 20.0595 37.7116 20.0839C36.272 20.1169 35.3273 20.8705 34.7258 21.873C34.0798 22.9511 33.8155 24.3076 33.7715 25.4487C33.4726 33.0721 32.5773 58.6188 32.5774 60.8323C32.5777 61.8437 32.189 62.3972 31.7528 62.6745C31.258 62.9907 30.6487 62.977 30.1905 62.777C29.7213 62.5718 29.432 62.1779 29.4321 61.7805C29.4317 61.7773 29.4314 61.7751 29.4321 61.7717C29.4321 61.7717 29.5011 57.777 29.6412 51.9896C29.7095 49.1319 29.6171 42.059 29.4323 36.801C29.3956 35.7586 29.1035 34.3349 28.4187 33.1943C27.7856 32.14 26.8028 31.3275 25.3275 31.4054C23.9176 31.48 22.9743 32.2885 22.3316 33.4267C21.2706 35.308 21.0053 38.0548 20.9885 40.29C20.9539 44.9642 21.8262 56.3407 21.4285 63.7557C21.4279 63.7602 21.4273 63.7646 21.4279 63.769C21.4279 63.769 20.2749 77.7541 21.4262 88.2853C22.5765 98.8089 25.8004 109.024 25.8004 109.024C25.8206 109.09 25.8271 109.157 25.8185 109.225L24.3827 121.237C29.7158 126.733 36.5643 127.502 42.0951 126.901C46.9355 126.374 50.7785 124.797 51.7606 124.366Z" fill="#4F4F4F"/>
<path fill-rule="evenodd" clip-rule="evenodd" d="M51.7821 124.386L53.9444 110.099C53.9747 109.908 54.1179 109.748 54.3132 109.693C54.3132 109.693 55.5621 109.334 56.6075 108.621C57.7217 107.861 69.2378 100.875 71.8706 99.1184C74.4593 97.3856 78.3576 92.2083 80.7593 89.0548C82.2284 87.1202 86.7704 83.7386 90.4404 80.994C92.8036 79.2272 94.798 77.7382 95.274 77.096C95.6344 76.6136 96.0279 76.1366 96.3415 75.6464C96.6606 75.1509 96.9027 74.6476 96.8889 74.1076C96.8752 73.5755 96.6028 73.0223 95.9646 72.4063C94.9797 71.4521 93.5821 71.038 91.8049 71.0982C89.9094 71.1612 87.6013 71.7562 84.897 72.8414C80.465 74.6188 73.9256 79.796 71.1085 81.3925C70.5225 81.7228 70.0631 81.9063 69.7852 81.9325C69.4716 81.9613 69.2598 81.8591 69.125 81.7149C68.3382 80.8839 67.1937 79.5626 66.8278 75.3448C66.3464 69.798 66.7756 64.5055 66.9571 62.4739C67.2873 58.7541 68.4812 39.6599 68.594 32.9334C68.638 30.3278 68.6216 28.4088 68.4235 26.9513C68.1484 24.9276 67.5239 23.8477 66.1373 23.0272C63.909 21.7165 62.6049 21.9944 61.8648 22.5737C60.9982 23.2526 60.459 24.33 60.0986 25.6276C59.5209 27.709 59.4218 30.3434 59.3778 32.949C59.2843 38.6715 58.7562 53.949 57.6833 59.8288C57.4797 60.9429 57.243 61.7373 57.0037 62.12C56.7808 62.4712 56.4974 62.5918 56.2608 62.5918C55.983 62.5918 55.6941 62.4372 55.5098 62.0597C55.1907 61.3991 55.1467 59.6794 55.232 58.9979C55.3255 58.2088 55.3832 23.0009 55.2292 20.5159C55.1356 19.1134 54.7424 17.918 54.1866 17.0661C53.851 16.5523 53.4602 16.1696 53.0448 15.973C51.9664 15.4749 49.8977 15.1839 48.5414 16.9665C48.4424 17.1002 48.357 17.3859 48.258 17.7896C48.0764 18.5184 47.8977 19.5799 47.7216 20.8854C46.5331 29.7169 45.5261 49.4429 45.4436 52.0354C45.3501 55.071 45.6473 58.2796 45.1768 59.9049C44.8962 60.8695 44.346 61.3624 43.5399 61.3336C43.1795 61.3283 42.8714 61.1605 42.6348 60.8066C42.4174 60.4737 42.2606 59.9207 42.1836 59.1972C41.9194 56.7514 42.4312 52.1351 42.599 48.5438C42.7256 45.8149 42.4285 34.1549 42.6733 28.1257C42.7889 25.2946 43.1025 23.3601 40.7751 21.221C39.9085 20.4189 38.7833 20.0781 37.7324 20.1017C36.2936 20.1357 35.3472 20.8907 34.7474 21.8921C34.1009 22.9721 33.8368 24.3274 33.7927 25.4677C33.4929 33.0907 32.5988 58.6388 32.5988 60.8513C32.5988 61.8631 32.2109 62.4162 31.7735 62.694C31.2783 63.0086 30.6703 62.9955 30.2108 62.7963C29.7431 62.5919 29.4516 62.1959 29.4516 61.8001C29.4516 61.7975 29.4515 61.7949 29.4543 61.7923C29.4543 61.7923 29.5231 57.7973 29.6606 52.0093C29.7294 49.152 29.6386 42.0794 29.4543 36.8208C29.4158 35.7775 29.1242 34.3542 28.4391 33.2139C27.8064 32.1601 26.8243 31.3475 25.3497 31.4261C23.9384 31.4995 22.9947 32.3069 22.3537 33.4472C21.2918 35.3268 21.0278 38.0739 21.0085 40.3099C20.9755 44.9839 21.8476 56.3608 21.4487 63.7741C21.4487 63.7793 21.4487 63.7845 21.4487 63.7871C21.4487 63.7871 20.296 77.7724 21.4459 88.3051C22.5986 98.8274 25.8201 109.043 25.8201 109.043C25.8421 109.108 25.8477 109.177 25.8394 109.245L24.4033 121.256C29.7377 126.753 36.5852 127.521 42.1176 126.921C46.9568 126.394 50.8 124.816 51.7821 124.386Z" fill="#BDBDBD"/>
<path fill-rule="evenodd" clip-rule="evenodd" d="M96.8615 73.7145C96.8973 73.8482 96.9165 73.9792 96.9193 74.1077C96.933 74.6477 96.691 75.151 96.3719 75.6465C96.0582 76.1367 95.6647 76.6137 95.3043 77.096C94.8284 77.7383 92.8339 79.2273 90.4707 80.9941C86.8008 83.7387 82.2588 87.1203 80.7897 89.0549C78.388 92.2084 74.4897 97.3857 71.9009 99.1184C69.2681 100.875 57.7521 107.861 56.6379 108.621C55.5925 109.334 54.3435 109.693 54.3435 109.693C54.1482 109.748 54.005 109.908 53.9748 110.099L51.8125 124.386C50.8303 124.816 46.9871 126.394 42.1479 126.921C37.2593 127.45 31.3444 126.913 26.3539 122.989C29.8808 124.195 35.361 125.859 39.3803 126.119C45.7931 126.528 48.9431 124.396 49.7436 122.643C50.5552 120.886 51.8372 110.883 51.8372 110.883C51.8372 110.883 50.0435 110.805 50.0325 110.907C50.0187 111.009 47.0393 110.406 47.0118 110.498C46.9843 110.603 43.5151 108.776 43.5151 108.776L41.2759 107.082C41.2759 107.082 40.2606 106.272 39.991 105.714C39.7186 105.155 39.4877 103.069 39.4877 103.069C39.4877 103.069 43.7297 106.676 45.4464 107.292C47.1603 107.905 52.7368 107.268 56.8167 106.005C60.902 104.757 67.5075 99.8 69.3259 98.3661C71.1306 96.9322 76.5337 91.4298 77.9698 89.4009C79.4031 87.3562 85.2657 81.9509 85.2657 81.9509C85.2657 81.9509 90.6495 80.5459 93.098 78.0818C94.6853 76.4827 96.0802 74.7394 96.8615 73.7145ZM66.7838 65.195C66.627 67.7927 66.5253 71.5072 66.8581 75.3449C67.2185 79.5024 68.3355 80.8446 69.1223 81.6782C68.8802 81.7333 68.5693 81.7909 68.1704 81.8486C66.6573 82.0767 63.3615 81.2745 63.3615 81.2745C63.3615 81.2745 62.3932 77.914 63.6862 72.6712C64.495 69.4049 65.8677 66.7363 66.7838 65.195ZM22.5244 33.2087C23.1599 32.1968 24.0677 31.4944 25.38 31.4262C25.7019 31.4079 26.0018 31.434 26.2796 31.4943C27.0417 31.8089 27.6524 32.2257 28.1476 32.7422C28.2632 32.8916 28.3704 33.0488 28.4695 33.214C29.1545 34.3543 29.4461 35.7776 29.4846 36.8209C29.6689 42.0794 29.7597 49.1521 29.6909 52.0094C29.5534 57.7974 29.4846 61.7924 29.4846 61.7924C29.4819 61.795 29.4819 61.7976 29.4819 61.8002C29.4819 61.8972 29.5012 61.9942 29.5342 62.0886C29.5259 62.2327 29.5177 62.3769 29.5095 62.5211L26.1998 64.0153C26.1998 64.0153 28.3677 60.0832 28.4503 57.4959C28.5245 54.8928 27.9523 53.5926 27.9523 53.5926C27.9523 53.5926 28.9565 51.6764 29.1656 48.9371C29.3829 46.0981 28.4503 43.8096 28.4503 43.8096C28.4503 43.8096 28.7583 40.0165 27.8229 35.4789C27.2755 32.8339 25.1132 32.0265 22.5244 33.2087ZM61.6311 22.8017C61.7164 22.7231 61.8044 22.6472 61.8952 22.5738C62.6352 21.9944 63.9393 21.7166 66.1677 23.0273C67.5542 23.8477 68.1787 24.9277 68.4538 26.9514C68.6519 28.4089 68.6683 30.3278 68.6243 32.9335C68.5143 39.5184 67.3672 57.9573 67.0095 62.2196L65.2956 62.3377C65.2956 62.3377 66.7673 54.9008 66.8196 52.3816C66.8691 49.8467 66.8196 45.7364 66.8196 45.7364C66.8196 45.7364 67.777 41.7624 67.6835 39.0938C67.5844 36.2365 66.9324 34.5142 66.9324 34.5142C66.9324 34.5142 67.9751 32.3462 66.9077 28.2909C66.2337 25.7455 64.1098 22.571 61.6311 22.8017ZM49.1246 16.3793C50.4424 15.26 52.1343 15.5405 53.0752 15.973C53.4906 16.1696 53.8813 16.5524 54.217 17.0661C54.7727 17.9181 55.166 19.1135 55.2595 20.5159C55.4136 23.001 55.3559 58.2089 55.2623 58.9979C55.1853 59.6166 55.2129 61.0925 55.4605 61.8527L53.3641 62.0545C53.3641 62.0545 54.7177 53.784 54.7727 51.2648C54.8195 48.7326 54.3517 42.9236 54.3517 42.9236C54.3517 42.9236 54.8992 39.7385 55.0725 37.0726C55.2541 34.3122 54.3517 29.9189 54.3517 29.9189C54.3517 29.9189 55.3806 25.625 54.4397 21.2001C53.906 18.6914 51.6281 16.1119 49.1246 16.3793ZM35.0556 21.4805C35.658 20.6889 36.5275 20.1306 37.7627 20.1017C38.8136 20.0781 39.9388 20.4189 40.8054 21.2211C43.1329 23.3601 42.8192 25.2947 42.7037 28.1258C42.4588 34.155 42.7559 45.815 42.6294 48.5439C42.4616 52.1352 41.9498 56.7515 42.2139 59.1972C42.2524 59.5642 42.313 59.8866 42.39 60.1593L39.1217 61.6351C39.1217 61.6351 40.7944 57.475 40.8769 54.8877C40.9539 52.2846 40.8769 44.9577 40.8769 44.9577C40.8769 44.9577 41.4821 41.5133 41.6912 38.7714C41.9085 35.935 41.0118 31.5991 41.0118 31.5991C41.0118 31.5991 41.8123 30.915 40.8769 26.3773C40.3459 23.8005 37.7681 21.1686 35.0556 21.4805Z" fill="#828282"/>
<path d="M21.7862 43.3307C21.6526 43.3185 21.5491 43.2123 21.5569 43.0972C21.5694 42.971 21.6809 42.8723 21.8138 42.8832L28.5282 43.2224C28.6524 43.2184 28.756 43.3246 28.7446 43.4512C28.7453 43.5811 28.6373 43.6682 28.4998 43.6686L21.7862 43.3307Z" fill="#4F4F4F"/>
<path d="M21.9095 53.2181C21.7806 53.2081 21.6913 53.1042 21.7012 52.9824C21.7006 52.8538 21.8163 52.7572 21.9441 52.7667L28.3811 53.2254C28.51 53.2354 28.5993 53.3393 28.5888 53.4621C28.5773 53.5844 28.4633 53.6805 28.3344 53.6705L21.9095 53.2181Z" fill="#4F4F4F"/>
<path d="M21.8322 64.5975C21.7494 64.6209 21.6663 64.4916 21.6464 64.3423C21.6295 64.1774 21.6958 64.0399 21.7876 64.0232C21.7876 64.0232 23.9402 63.7513 25.9503 63.5091C27.917 63.2866 29.2916 62.323 29.2944 62.3087C29.3719 62.2638 29.4749 62.3397 29.5058 62.4808C29.5458 62.6287 29.5113 62.8059 29.4337 62.8509C29.4227 62.859 28.0132 63.8473 25.9948 64.0834C24.0168 64.3153 21.8412 64.6042 21.8322 64.5975Z" fill="#4F4F4F"/>
<path d="M33.7785 62.3005C33.6408 62.3018 33.5281 62.1591 33.5264 61.9999C33.5391 61.8406 33.6478 61.7278 33.7855 61.7264C33.8 61.7263 37.1121 61.9321 38.8171 61.4376C40.5498 60.926 41.9204 60.2266 41.9204 60.2266C42.0441 60.1612 42.1958 60.2239 42.2529 60.3672C42.31 60.5104 42.2431 60.6857 42.1194 60.7511C42.1194 60.7511 40.7069 61.4816 38.9465 61.9948C37.1596 62.5223 33.7785 62.3005 33.7785 62.3005Z" fill="#4F4F4F"/>
<path d="M33.1769 45.562C33.0433 45.5633 32.9343 45.4552 32.9197 45.2998C32.918 45.1443 33.0102 45.0028 33.1437 45.0015C33.1566 45.0013 36.712 44.7175 37.6215 44.6293C39.466 44.4404 40.8702 44.4892 40.8702 44.4892C41.0038 44.4878 41.1129 44.6109 41.1018 44.7666C41.1035 44.9222 40.9971 45.0488 40.8635 45.0501C40.8635 45.0501 39.4723 45.0162 37.6674 45.1898C35.048 45.4506 33.1897 45.5619 33.1769 45.562Z" fill="#4F4F4F"/>
<path d="M33.8055 31.7607C33.6573 31.7488 33.5377 31.6244 33.5505 31.4854C33.5647 31.3598 33.6817 31.2477 33.8299 31.2596C33.8442 31.2595 37.0208 31.4374 38.2822 31.5638C39.5149 31.677 41.0114 31.5646 41.0114 31.5646C41.1593 31.5485 41.2942 31.6447 41.3113 31.7834C41.3128 31.9223 41.2102 32.0488 41.0609 32.0503C41.0466 32.0504 39.5061 32.1779 38.2137 32.0653C36.9666 31.9388 33.8055 31.7607 33.8055 31.7607Z" fill="#4F4F4F"/>
<path d="M47.3808 29.6335C47.2428 29.6133 47.1531 29.4911 47.1787 29.3668C47.2055 29.2423 47.3446 29.1578 47.4822 29.1769C47.4822 29.1769 50.2157 29.6188 52.2376 29.5335C54.3453 29.4416 54.4932 29.4457 54.4932 29.4457C54.6392 29.4376 54.7538 29.5413 54.7549 29.6592C54.746 29.7933 54.6401 29.8963 54.4953 29.9041C54.4953 29.9041 54.2473 29.9111 52.2397 29.9919C50.1586 30.0775 47.3953 29.63 47.3808 29.6335Z" fill="#4F4F4F"/>
<path d="M46.5234 41.9792C46.3925 41.9106 46.3368 41.7289 46.3904 41.588C46.4489 41.4629 46.5926 41.4004 46.725 41.4701C46.725 41.4701 47.7969 42.1166 50.8397 42.2865C53.8969 42.4535 54.0409 42.326 54.0409 42.326C54.158 42.2691 54.317 42.3333 54.38 42.4809C54.4431 42.6286 54.3917 42.7846 54.2746 42.8415C54.2746 42.8415 54.0131 43.0245 50.8534 42.8466C47.6805 42.6714 46.5234 41.9792 46.5234 41.9792Z" fill="#4F4F4F"/>
<path d="M46.0378 60.7915C45.978 60.6406 46.0163 60.4716 46.1497 60.4145C46.2813 60.342 46.4268 60.4133 46.4967 60.5453C46.4967 60.5453 46.8932 61.4296 49.3154 61.6335C51.8995 61.839 54.7499 61.72 54.7646 61.7173C54.9077 61.7081 55.0344 61.8311 55.0512 61.9899C55.0559 62.1509 54.9517 62.2836 54.8088 62.2943C54.8088 62.2943 51.9005 62.4224 49.3144 62.2003C46.5853 61.9888 46.0513 60.789 46.0378 60.7915Z" fill="#4F4F4F"/>
<path d="M57.4677 61.2683C57.3441 61.2255 57.2814 61.0905 57.312 60.9686C57.3425 60.8467 57.463 60.7849 57.5876 60.8271C57.5876 60.8271 60.172 61.7581 62.2471 61.8609C64.3376 61.969 66.6003 61.702 66.6003 61.702C66.7299 61.6806 66.8511 61.7696 66.8847 61.9037C66.9118 62.0265 66.8421 62.1539 66.7045 62.1635C66.7045 62.1635 64.392 62.4414 62.2714 62.3328C60.1232 62.2238 57.4847 61.2741 57.4677 61.2683Z" fill="#4F4F4F"/>
<path d="M58.9894 45.9495C58.8626 45.9135 58.7815 45.7959 58.8136 45.6644C58.8394 45.5501 58.9745 45.4668 59.1013 45.5028C59.1137 45.4965 61.1976 45.9847 63.3021 46.0011C65.4364 46.0161 66.9905 45.8096 66.9905 45.8096C67.1279 45.7821 67.2564 45.8753 67.266 46.0005C67.2874 46.1184 67.1896 46.2419 67.0641 46.2621C67.058 46.2514 65.4806 46.4685 63.2981 46.4504C61.1211 46.4422 59.0007 45.9437 58.9894 45.9495Z" fill="#4F4F4F"/>
<path d="M59.398 33.3615C59.2488 33.3325 59.1636 33.2099 59.1882 33.0772C59.2116 32.9451 59.3585 32.8552 59.5007 32.8719C59.507 32.8832 62.7311 33.3991 64.4426 33.4246C66.1728 33.455 67.6309 33.2647 67.6309 33.2647C67.7721 33.2516 67.9018 33.3354 67.9169 33.4795C67.9244 33.6102 67.8235 33.7227 67.6898 33.7465C67.6764 33.7534 66.1872 33.9451 64.4169 33.905C62.6541 33.8755 59.4103 33.3552 59.398 33.3615Z" fill="#4F4F4F"/>
<path d="M28.8303 91.9068C28.751 91.9965 28.5896 92.007 28.4954 91.9315C28.4013 91.8559 28.3821 91.7172 28.4692 91.6114C28.4904 91.5922 37.3175 81.536 43.6538 77.0112C49.9904 72.4874 59.4637 68.3764 59.4887 68.3687C59.6093 68.3191 59.7498 68.3678 59.8018 68.4827C59.8538 68.5975 59.8027 68.7314 59.6953 68.777C59.6571 68.7887 50.2221 72.888 43.9399 77.3698C37.6443 81.8546 28.8607 91.8722 28.8303 91.9068Z" fill="#4F4F4F"/>
<path d="M40.0161 102.981C39.9885 103.109 39.8498 103.189 39.7139 103.179C39.5639 103.172 39.4602 103.059 39.4879 102.93C39.4972 102.891 41.8365 88.7899 45.5411 82.4063C49.2548 75.9721 62.6677 70.6628 62.7099 70.6457C62.8518 70.5915 63.0066 70.6358 63.0665 70.7542C63.1262 70.8605 63.055 71.0065 62.9272 71.0591C62.8835 71.0643 49.6422 76.3159 46.0134 82.5892C42.3461 88.9178 40.0266 102.941 40.0161 102.981Z" fill="#4F4F4F"/>
<path d="M62.923 81.4588C62.8191 81.3709 62.815 81.2327 62.9072 81.1338C62.9886 81.0493 63.1334 81.0442 63.2358 81.1201C63.5927 81.4301 64.8862 81.6411 66.253 81.7048C67.6754 81.7884 69.1421 81.7148 69.6639 81.4647C69.7745 81.401 69.9123 81.4474 69.978 81.553C70.0324 81.6599 69.9978 81.8016 69.873 81.8549C69.2912 82.1495 67.7215 82.2474 66.2201 82.1611C64.7716 82.0818 63.3681 81.8331 62.923 81.4588Z" fill="#4F4F4F"/>
<path d="M79.625 76.2275C79.5473 76.1366 79.5682 75.9954 79.6647 75.9213C79.7739 75.8456 79.9209 75.8656 79.9987 75.9576L84.641 81.8168C84.7204 81.9207 84.6994 82.0608 84.5903 82.1365C84.4948 82.2105 84.3467 82.1906 84.2673 82.0867L79.625 76.2275Z" fill="#4F4F4F"/>
<path d="M24.3525 104.162C24.2273 104.114 24.1709 103.983 24.2227 103.875C24.273 103.756 24.3979 103.704 24.5231 103.752C24.5356 103.75 27.2019 104.779 30.5605 105.148C33.9052 105.506 35.3998 104.939 35.3998 104.939C35.5264 104.899 35.6668 104.958 35.7091 105.078C35.7487 105.187 35.6874 105.319 35.561 105.36C35.561 105.36 33.9513 105.965 30.5136 105.593C27.0885 105.22 24.3525 104.162 24.3525 104.162Z" fill="#4F4F4F"/>
<path d="M39.606 106.138C39.5147 106.048 39.5105 105.91 39.6044 105.824C39.6981 105.737 39.8447 105.745 39.9349 105.834C39.9486 105.833 43.2903 109.108 46.8732 109.575C50.4982 110.063 54.4445 109.784 54.4571 109.782C54.5883 109.779 54.706 109.866 54.7084 109.991C54.7246 110.115 54.6203 110.227 54.489 110.231C54.4765 110.232 50.4903 110.516 46.7989 110.024C43.07 109.535 39.6077 106.151 39.606 106.138Z" fill="#4F4F4F"/>
<path d="M23.4594 78.2558C23.3269 78.2583 23.2209 78.1454 23.2315 78.0319C23.229 77.9067 23.3336 77.8051 23.4661 77.8026C23.5063 77.81 34.6542 78.1358 43.0129 73.7654C51.3733 69.4068 55.1132 63.5089 55.1253 63.4953C55.1898 63.3875 55.3299 63.3456 55.4447 63.42C55.559 63.4813 55.5893 63.6164 55.5248 63.7242C55.5127 63.7378 51.7197 69.7422 43.2362 74.166C34.7652 78.5882 23.4844 78.2528 23.4594 78.2558Z" fill="#4F4F4F"/>
</g>
</g>
</svg>
