<svg width="104" height="130" viewBox="0 0 104 130" fill="none" xmlns="http://www.w3.org/2000/svg">
<mask id="mask0" mask-type="alpha" maskUnits="userSpaceOnUse" x="0" y="0" width="104" height="130">
<rect width="104" height="130" rx="5" transform="matrix(-1 0 0 1 104 0)" fill="#EFEFEF"/>
</mask>
<g mask="url(#mask0)">
<rect width="65" height="65" rx="5" transform="matrix(1 0 0 -1 10 75)" fill="#C4C4C4"/>
<g opacity="0.3">
<path fill-rule="evenodd" clip-rule="evenodd" d="M43.5517 60.3157L43.5576 60.3161C43.7351 60.3226 43.8569 60.2289 43.9518 60.0801C44.1241 59.8065 44.2195 59.4045 44.2859 58.9134C44.5141 57.2013 44.2973 54.5304 44.3765 51.9861C44.4565 49.3857 45.4703 29.5979 46.6628 20.7405C46.8747 19.1601 47.0955 17.9221 47.315 17.1785C47.4294 16.7896 47.5554 16.516 47.6717 16.3625C49.4237 14.0582 52.0874 14.4129 53.4838 15.0575C54.8314 15.6914 56.0725 17.7138 56.2542 20.434C56.4084 22.9351 56.3462 58.3002 56.2522 59.0939C56.1996 59.5139 56.1947 60.3973 56.2985 61.0685C56.4145 60.7003 56.5247 60.2173 56.6296 59.6402C57.6973 53.7914 58.2161 38.6024 58.3103 32.9152C58.3539 30.2222 58.4681 27.5032 59.0654 25.3533C59.489 23.8282 60.1604 22.582 61.1789 21.7833C62.1264 21.0415 63.8134 20.4795 66.6698 22.1597C68.0581 22.9814 68.8362 24.0053 69.2475 25.7319C69.6273 27.3324 69.678 29.5795 69.6221 32.931C69.5084 39.6728 68.3105 58.811 67.9803 62.5385C67.802 64.5452 67.3756 69.7666 67.8512 75.2433C68.1629 78.8275 69.0518 80.1157 69.7505 80.8848C69.9122 80.8227 70.2554 80.6819 70.5524 80.5146C73.3931 78.9057 79.9984 73.6941 84.4693 71.9019C87.3177 70.7587 89.7512 70.1457 91.7492 70.0807C93.8666 70.0104 95.5159 70.5491 96.689 71.6869C97.4407 72.4112 97.787 73.0911 97.8864 73.7287C98.0045 74.483 97.7772 75.1934 97.3792 75.879C97.0305 76.4816 96.5465 77.0662 96.1081 77.6542C95.6124 78.3259 93.5432 79.9073 91.067 81.7603C87.4794 84.4439 83.023 87.7291 81.587 89.6217C79.1254 92.8521 75.1046 98.1384 72.4523 99.9165C69.8202 101.672 58.3101 108.653 57.1965 109.413C56.3573 109.985 55.4021 110.357 54.9157 110.524L52.7576 124.774C52.7325 124.935 52.626 125.076 52.4727 125.149C52.4727 125.149 48.0421 127.259 42.2141 127.893C36.3439 128.531 29.0726 127.673 23.4469 121.74C23.3453 121.635 23.2978 121.492 23.3151 121.35L24.7658 109.213C24.4318 108.132 21.4776 98.3987 20.384 88.389C19.2407 77.9284 20.3509 64.0848 20.3826 63.6991C20.7788 56.2986 19.9052 44.9476 19.9411 40.2831C19.9585 37.8937 20.2752 34.9648 21.4093 32.9538C22.2301 31.4983 23.4669 30.5043 25.2691 30.4085C27.1941 30.307 28.5015 31.3232 29.3277 32.698C30.101 33.9855 30.4376 35.5911 30.479 36.7672C30.6652 42.0449 30.7576 49.1442 30.6883 52.0119C30.5541 57.5697 30.4849 61.4742 30.4799 61.7632C30.4907 61.7751 30.5268 61.8126 30.5533 61.8304C30.6176 61.8712 30.6976 61.9003 30.7826 61.9144C31.1662 61.9768 31.5289 61.6763 31.5297 60.832C31.5293 58.6164 32.4246 33.0432 32.7247 25.4109C32.7751 24.1238 33.0862 22.5955 33.8167 21.3775C34.5928 20.0836 35.8254 19.1286 37.6864 19.0853C39.0006 19.0562 40.4009 19.4836 41.4822 20.4847C44.0731 22.8656 43.8275 24.9936 43.6991 28.1435C43.4534 34.1745 43.7511 45.8393 43.6244 48.5685C43.4584 52.1114 42.9447 56.6641 43.2052 59.0767C43.2543 59.5321 43.3267 59.901 43.4466 60.1565C43.4705 60.2065 43.4959 60.2508 43.5249 60.287C43.5319 60.2961 43.5438 60.3078 43.5517 60.3157ZM51.7606 124.366L53.9243 110.079C53.9536 109.888 54.0969 109.729 54.2918 109.674C54.2918 109.674 55.5421 109.314 56.5868 108.6C57.7004 107.84 69.2171 100.857 71.8502 99.0996C74.4377 97.3655 78.3364 92.1883 80.7379 89.0366C82.2063 87.1005 86.7496 83.7203 90.4203 80.974C92.783 79.2071 94.7791 77.7203 95.2531 77.0774C95.6129 76.5946 96.0056 76.1166 96.3206 75.6269C96.6394 75.1312 96.8833 74.6279 96.8694 74.0881C96.8554 73.5559 96.5824 73.0038 95.943 72.3883C94.9578 71.433 93.5616 71.0195 91.7857 71.078C89.8891 71.1409 87.5804 71.7369 84.8759 72.8223C80.4433 74.5989 73.9044 79.7785 71.0883 81.3724C70.501 81.705 70.0417 81.886 69.7635 81.9135C69.4519 81.9427 69.2387 81.8403 69.1043 81.6955C68.3179 80.8652 67.1729 79.5436 66.8072 75.3251C66.3259 69.7776 66.756 64.4875 66.9354 62.4542C67.2657 58.7356 68.4601 39.6418 68.5746 32.9153C68.6181 30.3093 68.601 28.3907 68.4024 26.9305C68.1281 24.9081 67.5031 23.8275 66.1174 23.0077C63.8879 21.6968 62.5854 21.9744 61.8444 22.5542C60.9778 23.2336 60.4392 24.3111 60.0783 25.6086C59.4998 27.6903 59.3998 30.3239 59.3577 32.9308C59.2632 38.6512 58.7352 53.9293 57.6626 59.8106C57.4599 60.9221 57.2232 61.7195 56.9828 62.0991C56.7599 62.4535 56.4773 62.5717 56.2393 62.5713C55.9633 62.5721 55.673 62.4182 55.4898 62.0415C55.1689 61.3795 55.127 59.6597 55.2104 58.9796C55.3049 58.1902 55.3613 22.9833 55.2087 20.4951C55.1148 19.0941 54.7207 17.8971 54.1663 17.0481C53.83 16.5332 53.4392 16.1502 53.0232 15.9541C51.9441 15.4568 49.8763 15.1635 48.5218 16.9464C48.4214 17.0793 48.3374 17.3656 48.2365 17.7694C48.0556 18.4985 47.8767 19.562 47.7016 20.8672C46.5137 29.6977 45.5043 49.4223 45.4234 52.0151C45.3297 55.0508 45.6261 58.2605 45.1544 59.8859C44.8748 60.8502 44.3269 61.3432 43.5202 61.3133C43.1592 61.3088 42.8487 61.1419 42.614 60.7867C42.3964 60.4559 42.241 59.902 42.1627 59.1782C41.8991 56.7329 42.4091 52.1169 42.5768 48.5243C42.7047 45.796 42.4063 34.1346 42.6523 28.1058C42.767 25.2756 43.0807 23.342 40.7533 21.2018C39.8862 20.3987 38.763 20.0595 37.7116 20.0839C36.272 20.1169 35.3273 20.8705 34.7258 21.873C34.0798 22.9511 33.8155 24.3076 33.7715 25.4487C33.4726 33.0721 32.5773 58.6188 32.5774 60.8323C32.5777 61.8437 32.189 62.3972 31.7528 62.6745C31.258 62.9907 30.6487 62.977 30.1905 62.777C29.7213 62.5718 29.432 62.1779 29.4321 61.7805C29.4317 61.7773 29.4314 61.7751 29.4321 61.7717C29.4321 61.7717 29.5011 57.777 29.6411 51.9896C29.7095 49.1319 29.6171 42.059 29.4323 36.801C29.3956 35.7586 29.1035 34.3349 28.4187 33.1943C27.7856 32.14 26.8028 31.3275 25.3275 31.4054C23.9176 31.48 22.9743 32.2885 22.3316 33.4268C21.2706 35.308 21.0053 38.0548 20.9885 40.29C20.9539 44.9642 21.8262 56.3407 21.4285 63.7557C21.4279 63.7602 21.4273 63.7646 21.4279 63.769C21.4279 63.769 20.2749 77.7541 21.4262 88.2853C22.5765 98.8089 25.8004 109.024 25.8004 109.024C25.8206 109.09 25.8271 109.157 25.8185 109.225L24.3827 121.237C29.7158 126.733 36.5643 127.502 42.0951 126.901C46.9355 126.374 50.7785 124.797 51.7606 124.366Z" fill="#4F4F4F"/>
<path fill-rule="evenodd" clip-rule="evenodd" d="M51.7821 124.386L53.9444 110.099C53.9747 109.908 54.1179 109.748 54.3132 109.693C54.3132 109.693 55.5621 109.334 56.6075 108.621C57.7217 107.861 69.2378 100.875 71.8706 99.1184C74.4593 97.3856 78.3576 92.2083 80.7593 89.0548C82.2284 87.1202 86.7704 83.7386 90.4404 80.994C92.8036 79.2272 94.798 77.7382 95.274 77.096C95.6344 76.6136 96.0279 76.1366 96.3415 75.6464C96.6606 75.1509 96.9027 74.6476 96.8889 74.1076C96.8751 73.5755 96.6028 73.0223 95.9646 72.4063C94.9797 71.4521 93.5821 71.038 91.8049 71.0982C89.9094 71.1612 87.6013 71.7562 84.897 72.8414C80.465 74.6188 73.9256 79.796 71.1085 81.3925C70.5225 81.7228 70.0631 81.9063 69.7852 81.9325C69.4716 81.9613 69.2598 81.8591 69.125 81.7149C68.3382 80.8839 67.1937 79.5626 66.8278 75.3448C66.3464 69.798 66.7756 64.5055 66.9572 62.4739C67.2873 58.7541 68.4812 39.6599 68.594 32.9334C68.638 30.3278 68.6216 28.4088 68.4235 26.9513C68.1484 24.9276 67.5239 23.8477 66.1373 23.0272C63.909 21.7165 62.6049 21.9944 61.8648 22.5737C60.9982 23.2526 60.459 24.33 60.0986 25.6276C59.5209 27.709 59.4218 30.3434 59.3778 32.949C59.2843 38.6715 58.7562 53.949 57.6833 59.8288C57.4797 60.9429 57.243 61.7373 57.0037 62.12C56.7808 62.4712 56.4974 62.5918 56.2608 62.5918C55.983 62.5918 55.6941 62.4372 55.5098 62.0597C55.1907 61.3991 55.1467 59.6794 55.232 58.9979C55.3255 58.2088 55.3832 23.0009 55.2292 20.5159C55.1356 19.1134 54.7424 17.918 54.1866 17.0661C53.851 16.5523 53.4602 16.1696 53.0448 15.973C51.9664 15.4749 49.8977 15.1839 48.5414 16.9665C48.4424 17.1002 48.357 17.3859 48.258 17.7896C48.0764 18.5184 47.8977 19.5799 47.7216 20.8854C46.5331 29.7169 45.5261 49.4429 45.4436 52.0354C45.3501 55.071 45.6473 58.2796 45.1768 59.9048C44.8962 60.8695 44.346 61.3624 43.5399 61.3336C43.1795 61.3283 42.8714 61.1605 42.6348 60.8066C42.4174 60.4737 42.2606 59.9207 42.1836 59.1972C41.9194 56.7514 42.4312 52.1351 42.599 48.5438C42.7256 45.8149 42.4285 34.1549 42.6733 28.1257C42.7889 25.2946 43.1025 23.3601 40.7751 21.221C39.9085 20.4189 38.7833 20.0781 37.7324 20.1017C36.2936 20.1357 35.3472 20.8907 34.7474 21.8921C34.1009 22.9721 33.8368 24.3274 33.7927 25.4677C33.4929 33.0907 32.5988 58.6388 32.5988 60.8513C32.5988 61.8631 32.2109 62.4162 31.7735 62.694C31.2783 63.0086 30.6703 62.9955 30.2108 62.7963C29.7431 62.5918 29.4516 62.1959 29.4516 61.8001C29.4516 61.7975 29.4515 61.7949 29.4543 61.7923C29.4543 61.7923 29.5231 57.7973 29.6606 52.0093C29.7294 49.152 29.6386 42.0794 29.4543 36.8208C29.4158 35.7775 29.1242 34.3542 28.4391 33.2139C27.8064 32.1601 26.8243 31.3475 25.3497 31.4261C23.9384 31.4995 22.9947 32.3069 22.3537 33.4472C21.2918 35.3268 21.0278 38.0739 21.0085 40.3099C20.9755 44.9839 21.8476 56.3608 21.4487 63.7741C21.4487 63.7793 21.4487 63.7845 21.4487 63.7871C21.4487 63.7871 20.296 77.7724 21.4459 88.3051C22.5986 98.8274 25.8201 109.043 25.8201 109.043C25.8421 109.108 25.8477 109.177 25.8394 109.245L24.4033 121.256C29.7377 126.753 36.5852 127.521 42.1176 126.921C46.9568 126.394 50.8 124.816 51.7821 124.386Z" fill="#BDBDBD"/>
<path fill-rule="evenodd" clip-rule="evenodd" d="M96.8615 73.7145C96.8973 73.8482 96.9165 73.9792 96.9193 74.1077C96.933 74.6477 96.691 75.151 96.3719 75.6465C96.0582 76.1367 95.6647 76.6137 95.3043 77.096C94.8284 77.7383 92.8339 79.2273 90.4707 80.9941C86.8008 83.7387 82.2587 87.1203 80.7897 89.0549C78.388 92.2084 74.4897 97.3857 71.9009 99.1184C69.2681 100.875 57.7521 107.861 56.6379 108.621C55.5925 109.334 54.3435 109.693 54.3435 109.693C54.1482 109.748 54.005 109.908 53.9748 110.099L51.8125 124.386C50.8303 124.816 46.9871 126.394 42.1479 126.921C37.2593 127.45 31.3444 126.913 26.3539 122.989C29.8808 124.195 35.361 125.859 39.3803 126.119C45.7931 126.528 48.9431 124.396 49.7436 122.643C50.5552 120.886 51.8372 110.883 51.8372 110.883C51.8372 110.883 50.0435 110.805 50.0325 110.907C50.0187 111.009 47.0393 110.406 47.0118 110.498C46.9843 110.603 43.5151 108.776 43.5151 108.776L41.2759 107.082C41.2759 107.082 40.2606 106.272 39.991 105.714C39.7186 105.155 39.4877 103.069 39.4877 103.069C39.4877 103.069 43.7297 106.676 45.4464 107.292C47.1603 107.905 52.7368 107.268 56.8167 106.005C60.902 104.757 67.5074 99.8 69.3259 98.3661C71.1306 96.9322 76.5337 91.4298 77.9698 89.4009C79.4031 87.3562 85.2657 81.9509 85.2657 81.9509C85.2657 81.9509 90.6495 80.5459 93.098 78.0818C94.6853 76.4827 96.0802 74.7394 96.8615 73.7145ZM66.7838 65.1949C66.627 67.7927 66.5253 71.5072 66.8581 75.3449C67.2185 79.5024 68.3355 80.8446 69.1223 81.6782C68.8802 81.7333 68.5693 81.7909 68.1704 81.8486C66.6573 82.0767 63.3615 81.2745 63.3615 81.2745C63.3615 81.2745 62.3932 77.914 63.6862 72.6712C64.495 69.4049 65.8677 66.7363 66.7838 65.1949ZM22.5244 33.2087C23.1599 32.1968 24.0677 31.4944 25.38 31.4262C25.7019 31.4079 26.0018 31.434 26.2796 31.4943C27.0417 31.8089 27.6524 32.2257 28.1476 32.7422C28.2632 32.8916 28.3704 33.0488 28.4695 33.214C29.1545 34.3543 29.4461 35.7776 29.4846 36.8209C29.6689 42.0794 29.7597 49.1521 29.6909 52.0094C29.5534 57.7974 29.4846 61.7924 29.4846 61.7924C29.4819 61.795 29.4819 61.7976 29.4819 61.8002C29.4819 61.8972 29.5012 61.9942 29.5342 62.0886C29.5259 62.2327 29.5177 62.3769 29.5095 62.5211L26.1998 64.0153C26.1998 64.0153 28.3677 60.0832 28.4503 57.4959C28.5245 54.8928 27.9523 53.5926 27.9523 53.5926C27.9523 53.5926 28.9565 51.6764 29.1656 48.9371C29.3829 46.0981 28.4503 43.8096 28.4503 43.8096C28.4503 43.8096 28.7583 40.0165 27.8229 35.4789C27.2755 32.8339 25.1132 32.0265 22.5244 33.2087ZM61.6311 22.8017C61.7164 22.7231 61.8044 22.6472 61.8952 22.5738C62.6352 21.9944 63.9393 21.7166 66.1677 23.0273C67.5542 23.8478 68.1787 24.9277 68.4538 26.9514C68.6519 28.4089 68.6683 30.3278 68.6243 32.9335C68.5143 39.5185 67.3672 57.9573 67.0095 62.2196L65.2956 62.3377C65.2956 62.3377 66.7673 54.9008 66.8196 52.3816C66.8691 49.8467 66.8196 45.7364 66.8196 45.7364C66.8196 45.7364 67.777 41.7624 67.6835 39.0938C67.5844 36.2365 66.9324 34.5142 66.9324 34.5142C66.9324 34.5142 67.9751 32.3462 66.9077 28.2909C66.2337 25.7455 64.1098 22.571 61.6311 22.8017ZM49.1246 16.3793C50.4424 15.26 52.1343 15.5405 53.0752 15.973C53.4906 16.1696 53.8813 16.5524 54.217 17.0661C54.7727 17.9181 55.166 19.1135 55.2595 20.5159C55.4136 23.001 55.3559 58.2089 55.2623 58.9979C55.1853 59.6166 55.2129 61.0925 55.4605 61.8527L53.3641 62.0545C53.3641 62.0545 54.7177 53.784 54.7727 51.2648C54.8195 48.7326 54.3517 42.9236 54.3517 42.9236C54.3517 42.9236 54.8992 39.7385 55.0725 37.0726C55.2541 34.3122 54.3517 29.9189 54.3517 29.9189C54.3517 29.9189 55.3806 25.625 54.4397 21.2001C53.906 18.6914 51.6281 16.1119 49.1246 16.3793ZM35.0556 21.4805C35.658 20.6889 36.5275 20.1306 37.7627 20.1017C38.8136 20.0781 39.9388 20.4189 40.8054 21.2211C43.1329 23.3601 42.8192 25.2947 42.7037 28.1258C42.4588 34.155 42.7559 45.815 42.6294 48.5439C42.4616 52.1352 41.9498 56.7515 42.2139 59.1972C42.2524 59.5642 42.313 59.8866 42.39 60.1593L39.1217 61.6351C39.1217 61.6351 40.7944 57.475 40.8769 54.8877C40.9539 52.2846 40.8769 44.9577 40.8769 44.9577C40.8769 44.9577 41.4821 41.5133 41.6912 38.7714C41.9085 35.935 41.0118 31.5991 41.0118 31.5991C41.0118 31.5991 41.8123 30.915 40.8769 26.3773C40.3459 23.8005 37.7681 21.1686 35.0556 21.4805Z" fill="#828282"/>
<path d="M21.7862 43.3307C21.6526 43.3185 21.5491 43.2123 21.5569 43.0972C21.5694 42.971 21.6809 42.8723 21.8138 42.8832L28.5282 43.2224C28.6524 43.2184 28.756 43.3246 28.7446 43.4512C28.7453 43.5811 28.6373 43.6682 28.4998 43.6686L21.7862 43.3307Z" fill="#4F4F4F"/>
<path d="M21.9095 53.2183C21.7806 53.2083 21.6913 53.1045 21.7012 52.9826C21.7006 52.854 21.8163 52.7575 21.9441 52.7669L28.3811 53.2257C28.51 53.2357 28.5993 53.3395 28.5888 53.4623C28.5773 53.5846 28.4633 53.6808 28.3344 53.6708L21.9095 53.2183Z" fill="#4F4F4F"/>
<path d="M21.8322 64.5975C21.7494 64.6209 21.6663 64.4916 21.6464 64.3423C21.6295 64.1774 21.6958 64.0399 21.7876 64.0232C21.7876 64.0232 23.9402 63.7513 25.9503 63.5091C27.917 63.2866 29.2916 62.323 29.2944 62.3087C29.3719 62.2638 29.4749 62.3397 29.5058 62.4808C29.5458 62.6287 29.5113 62.8059 29.4337 62.8509C29.4227 62.859 28.0132 63.8473 25.9948 64.0834C24.0168 64.3153 21.8412 64.6042 21.8322 64.5975Z" fill="#4F4F4F"/>
<path d="M33.7785 62.3007C33.6408 62.3021 33.5281 62.1594 33.5264 62.0002C33.5391 61.8409 33.6478 61.7281 33.7855 61.7267C33.8 61.7265 37.1121 61.9324 38.8171 61.4378C40.5498 60.9262 41.9204 60.2269 41.9204 60.2269C42.0441 60.1614 42.1958 60.2241 42.2529 60.3674C42.31 60.5107 42.2431 60.6859 42.1194 60.7514C42.1194 60.7514 40.7069 61.4818 38.9465 61.9951C37.1596 62.5226 33.7785 62.3007 33.7785 62.3007Z" fill="#4F4F4F"/>
<path d="M33.1769 45.562C33.0433 45.5633 32.9343 45.4552 32.9197 45.2998C32.918 45.1443 33.0102 45.0028 33.1437 45.0015C33.1566 45.0013 36.712 44.7175 37.6215 44.6293C39.466 44.4404 40.8702 44.4892 40.8702 44.4892C41.0038 44.4878 41.1129 44.6109 41.1018 44.7666C41.1035 44.9222 40.9971 45.0488 40.8635 45.0501C40.8635 45.0501 39.4723 45.0162 37.6674 45.1898C35.048 45.4506 33.1897 45.5619 33.1769 45.562Z" fill="#4F4F4F"/>
<path d="M33.8055 31.7607C33.6573 31.7488 33.5377 31.6244 33.5505 31.4854C33.5647 31.3598 33.6817 31.2477 33.8299 31.2596C33.8442 31.2595 37.0208 31.4374 38.2822 31.5638C39.5149 31.677 41.0114 31.5646 41.0114 31.5646C41.1593 31.5485 41.2942 31.6447 41.3113 31.7834C41.3128 31.9223 41.2102 32.0488 41.0609 32.0503C41.0466 32.0504 39.5061 32.1779 38.2137 32.0653C36.9666 31.9388 33.8055 31.7607 33.8055 31.7607Z" fill="#4F4F4F"/>
<path d="M47.3808 29.6335C47.2428 29.6133 47.1531 29.4911 47.1787 29.3668C47.2055 29.2423 47.3446 29.1578 47.4822 29.1769C47.4822 29.1769 50.2157 29.6188 52.2376 29.5335C54.3453 29.4416 54.4932 29.4457 54.4932 29.4457C54.6392 29.4376 54.7538 29.5413 54.7549 29.6592C54.746 29.7933 54.6401 29.8963 54.4953 29.9041C54.4953 29.9041 54.2473 29.9111 52.2397 29.9919C50.1586 30.0775 47.3953 29.63 47.3808 29.6335Z" fill="#4F4F4F"/>
<path d="M46.5234 41.9794C46.3925 41.9108 46.3368 41.7292 46.3904 41.5882C46.4489 41.4631 46.5926 41.4006 46.725 41.4703C46.725 41.4703 47.7969 42.1168 50.8397 42.2868C53.8969 42.4537 54.0409 42.3263 54.0409 42.3263C54.158 42.2694 54.317 42.3335 54.38 42.4812C54.4431 42.6288 54.3917 42.7849 54.2746 42.8418C54.2746 42.8418 54.0131 43.0248 50.8534 42.8468C47.6805 42.6716 46.5234 41.9794 46.5234 41.9794Z" fill="#4F4F4F"/>
<path d="M46.0378 60.7915C45.978 60.6406 46.0163 60.4716 46.1497 60.4145C46.2813 60.342 46.4268 60.4133 46.4967 60.5453C46.4967 60.5453 46.8932 61.4296 49.3154 61.6335C51.8995 61.839 54.7499 61.72 54.7646 61.7173C54.9077 61.7081 55.0344 61.8311 55.0512 61.9899C55.0559 62.1509 54.9517 62.2836 54.8088 62.2943C54.8088 62.2943 51.9005 62.4224 49.3144 62.2003C46.5853 61.9888 46.0513 60.789 46.0378 60.7915Z" fill="#4F4F4F"/>
<path d="M57.4677 61.2683C57.3441 61.2255 57.2814 61.0905 57.312 60.9686C57.3425 60.8467 57.463 60.7849 57.5876 60.8271C57.5876 60.8271 60.172 61.7581 62.2471 61.8609C64.3376 61.969 66.6003 61.702 66.6003 61.702C66.7299 61.6806 66.8511 61.7696 66.8847 61.9037C66.9118 62.0265 66.8421 62.1539 66.7045 62.1635C66.7045 62.1635 64.392 62.4414 62.2714 62.3328C60.1232 62.2238 57.4847 61.2741 57.4677 61.2683Z" fill="#4F4F4F"/>
<path d="M58.9894 45.9495C58.8626 45.9135 58.7815 45.7959 58.8136 45.6644C58.8394 45.5501 58.9745 45.4668 59.1013 45.5028C59.1137 45.4965 61.1976 45.9847 63.3021 46.0011C65.4364 46.0161 66.9905 45.8096 66.9905 45.8096C67.1279 45.7821 67.2564 45.8753 67.266 46.0005C67.2874 46.1184 67.1896 46.2419 67.0641 46.2621C67.058 46.2514 65.4806 46.4685 63.2981 46.4504C61.1211 46.4422 59.0007 45.9437 58.9894 45.9495Z" fill="#4F4F4F"/>
<path d="M59.398 33.3615C59.2488 33.3325 59.1636 33.2099 59.1882 33.0772C59.2116 32.9451 59.3585 32.8552 59.5007 32.8719C59.507 32.8832 62.7311 33.3991 64.4426 33.4246C66.1728 33.455 67.6309 33.2647 67.6309 33.2647C67.7721 33.2516 67.9018 33.3354 67.9169 33.4795C67.9244 33.6102 67.8235 33.7227 67.6898 33.7465C67.6764 33.7534 66.1872 33.9451 64.4169 33.905C62.6541 33.8755 59.4103 33.3552 59.398 33.3615Z" fill="#4F4F4F"/>
<path d="M28.8303 91.907C28.751 91.9968 28.5896 92.0072 28.4954 91.9317C28.4013 91.8562 28.3821 91.7175 28.4692 91.6116C28.4904 91.5925 37.3175 81.5363 43.6538 77.0114C49.9904 72.4877 59.4637 68.3766 59.4887 68.3689C59.6093 68.3194 59.7498 68.3681 59.8018 68.4829C59.8538 68.5978 59.8027 68.7316 59.6953 68.7772C59.6571 68.7889 50.2221 72.8882 43.9399 77.3701C37.6443 81.8549 28.8607 91.8725 28.8303 91.907Z" fill="#4F4F4F"/>
<path d="M40.0161 102.981C39.9885 103.11 39.8498 103.189 39.7139 103.18C39.5639 103.172 39.4602 103.059 39.4879 102.93C39.4972 102.892 41.8365 88.7902 45.5411 82.4066C49.2548 75.9724 62.6677 70.663 62.7099 70.6459C62.8518 70.5917 63.0066 70.6361 63.0665 70.7545C63.1262 70.8608 63.055 71.0068 62.9272 71.0594C62.8835 71.0645 49.6422 76.3161 46.0134 82.5895C42.3461 88.918 40.0266 102.941 40.0161 102.981Z" fill="#4F4F4F"/>
<path d="M62.923 81.4588C62.8191 81.3709 62.815 81.2327 62.9072 81.1338C62.9886 81.0493 63.1334 81.0442 63.2358 81.1201C63.5927 81.4301 64.8862 81.6411 66.253 81.7048C67.6754 81.7884 69.1421 81.7148 69.6639 81.4647C69.7745 81.401 69.9123 81.4474 69.978 81.553C70.0324 81.6599 69.9978 81.8016 69.873 81.8549C69.2912 82.1495 67.7215 82.2474 66.2201 82.1611C64.7716 82.0818 63.3681 81.8331 62.923 81.4588Z" fill="#4F4F4F"/>
<path d="M79.625 76.2278C79.5473 76.1368 79.5682 75.9957 79.6647 75.9215C79.7739 75.8458 79.9209 75.8658 79.9987 75.9579L84.641 81.817C84.7204 81.921 84.6994 82.0611 84.5903 82.1367C84.4948 82.2108 84.3467 82.1909 84.2673 82.0869L79.625 76.2278Z" fill="#4F4F4F"/>
<path d="M24.3525 104.162C24.2273 104.114 24.1709 103.983 24.2227 103.875C24.273 103.756 24.3979 103.704 24.5231 103.752C24.5356 103.75 27.2019 104.779 30.5605 105.148C33.9052 105.506 35.3998 104.939 35.3998 104.939C35.5264 104.899 35.6668 104.958 35.7091 105.078C35.7487 105.187 35.6874 105.319 35.561 105.36C35.561 105.36 33.9513 105.965 30.5136 105.593C27.0885 105.22 24.3525 104.162 24.3525 104.162Z" fill="#4F4F4F"/>
<path d="M39.606 106.138C39.5147 106.048 39.5105 105.91 39.6044 105.824C39.6981 105.737 39.8447 105.745 39.935 105.834C39.9486 105.833 43.2903 109.108 46.8732 109.575C50.4982 110.063 54.4445 109.784 54.4571 109.782C54.5883 109.779 54.706 109.866 54.7084 109.991C54.7246 110.115 54.6203 110.227 54.489 110.231C54.4765 110.232 50.4903 110.516 46.7989 110.024C43.07 109.535 39.6077 106.151 39.606 106.138Z" fill="#4F4F4F"/>
<path d="M23.4594 78.2556C23.3269 78.2581 23.2209 78.1451 23.2315 78.0316C23.229 77.9064 23.3336 77.8049 23.4661 77.8024C23.5063 77.8097 34.6542 78.1356 43.0129 73.7651C51.3733 69.4066 55.1132 63.5086 55.1253 63.4951C55.1898 63.3873 55.3299 63.3453 55.4447 63.4198C55.559 63.4811 55.5893 63.6162 55.5248 63.724C55.5127 63.7375 51.7197 69.742 43.2362 74.1657C34.7652 78.588 23.4844 78.2526 23.4594 78.2556Z" fill="#4F4F4F"/>
</g>
<mask id="mask1" mask-type="alpha" maskUnits="userSpaceOnUse" x="10" y="10" width="65" height="65">
<rect width="65" height="65" rx="5" transform="matrix(-1 0 0 1 75 10)" fill="#C4C4C4"/>
</mask>
<g mask="url(#mask1)">
<path fill-rule="evenodd" clip-rule="evenodd" d="M43.5495 60.1832L43.5553 60.1836C43.733 60.19 43.8548 60.0966 43.9498 59.9481C44.1222 59.6753 44.2178 59.2744 44.2845 58.7848C44.5135 57.0776 44.2975 54.4146 44.3777 51.8779C44.4587 49.2851 45.4804 29.5553 46.6768 20.7236C46.8894 19.1478 47.1108 17.9134 47.3306 17.1719C47.4452 16.7841 47.5714 16.5113 47.6877 16.3581C49.4413 14.06 52.106 14.4127 53.5026 15.055C54.8505 15.6866 56.0914 17.7026 56.2721 20.4147C56.4255 22.9084 56.3498 58.1692 56.2555 58.9606C56.2027 59.3794 56.1975 60.2601 56.301 60.9293C56.4172 60.5622 56.5277 60.0806 56.6328 59.5052C57.7031 53.6732 58.2279 38.5289 58.3243 32.8583C58.3689 30.1733 58.4842 27.4623 59.0826 25.3185C59.5069 23.7978 60.179 22.555 61.1983 21.7583C62.1464 21.0184 63.8343 20.4574 66.6912 22.1317C68.0797 22.9505 68.8578 23.9711 69.2686 25.6925C69.648 27.2882 69.6978 29.5286 69.6406 32.8702C69.5243 39.5922 68.3187 58.6744 67.9869 62.391C67.8078 64.3918 67.3793 69.598 67.8529 75.0584C68.1635 78.632 69.0522 79.916 69.7509 80.6826C69.9127 80.6207 70.2561 80.4801 70.5532 80.3133C73.3957 78.7081 80.0056 73.5096 84.479 71.7211C87.3289 70.5804 89.7636 69.9683 91.7624 69.9028C93.8807 69.832 95.5305 70.3686 96.7036 71.5026C97.4554 72.2245 97.8016 72.9023 97.9008 73.538C98.0186 74.29 97.7909 74.9984 97.3925 75.6821C97.0434 76.2831 96.559 76.8661 96.1202 77.4524C95.6241 78.1224 93.5534 79.6998 91.0755 81.5482C87.4855 84.2252 83.0261 87.5021 81.5888 89.3897C79.125 92.6115 75.1006 97.8835 72.4466 99.6573C69.8128 101.409 58.2954 108.373 57.181 109.131C56.3414 109.701 55.3856 110.072 54.8989 110.24L52.7346 124.448C52.7094 124.609 52.6029 124.749 52.4495 124.822C52.4495 124.822 48.0163 126.927 42.1857 127.562C36.313 128.2 29.039 127.347 23.4133 121.434C23.3118 121.328 23.2643 121.186 23.2816 121.044L24.7375 108.943C24.4038 107.865 21.4521 98.1615 20.3618 88.1817C19.2221 77.7523 20.338 63.9491 20.3698 63.5646C20.769 56.1858 19.8993 44.8685 19.937 40.2178C19.9553 37.8354 20.2732 34.915 21.4086 32.9095C22.2302 31.4581 23.4679 30.4665 25.2709 30.3705C27.1967 30.2686 28.5042 31.2814 29.3303 32.6518C30.1034 33.9353 30.4395 35.536 30.4805 36.7086C30.6648 41.9706 30.7545 49.049 30.684 51.9083C30.5477 57.4497 30.477 61.3428 30.4718 61.6309C30.4826 61.6428 30.5187 61.6802 30.5453 61.6979C30.6096 61.7386 30.6896 61.7675 30.7746 61.7816C31.1583 61.8437 31.5214 61.5439 31.5224 60.7021C31.5229 58.493 32.4282 32.995 32.7314 25.385C32.7822 24.1017 33.0941 22.5778 33.8253 21.3631C34.6022 20.0728 35.8356 19.1202 37.6974 19.0764C39.0122 19.0469 40.4129 19.4725 41.4942 20.4704C44.0852 22.8433 43.8388 24.9652 43.7091 28.1058C43.461 34.1191 43.7545 45.7494 43.6267 48.4706C43.4592 52.0031 42.9436 56.5426 43.2033 58.9479C43.2522 59.402 43.3245 59.7698 43.4444 60.0245C43.4682 60.0743 43.4937 60.1185 43.5226 60.1546C43.5296 60.1636 43.5415 60.1754 43.5495 60.1832ZM51.7374 124.042L53.9073 109.797C53.9367 109.605 54.0801 109.447 54.2751 109.392C54.2751 109.392 55.5261 109.033 56.5714 108.321C57.6858 107.563 69.2097 100.596 71.8445 98.843C74.4338 97.1131 78.336 91.9499 80.7396 88.8066C82.2094 86.8757 86.7557 83.5039 90.4289 80.7645C92.7932 79.002 94.7906 77.5188 95.2651 76.8777C95.6252 76.3961 96.0183 75.9194 96.3336 75.4311C96.6527 74.9368 96.8969 74.4349 96.8832 73.8966C96.8694 73.366 96.5965 72.8156 95.9571 72.2022C94.9718 71.25 93.5752 70.8382 91.7986 70.8972C89.9013 70.9605 87.5914 71.5556 84.8853 72.6387C80.4504 74.4116 73.9068 79.5781 71.089 81.1683C70.5013 81.5002 70.0419 81.6808 69.7635 81.7083C69.4518 81.7375 69.2386 81.6354 69.1042 81.4911C68.3178 80.6636 67.1728 79.3462 66.8086 75.1404C66.3291 69.6094 66.7615 64.3347 66.9417 62.3074C67.2735 58.5996 68.4756 39.5617 68.5927 32.8549C68.6372 30.2566 68.6209 28.3436 68.4227 26.8879C68.1491 24.8715 67.5242 23.7943 66.1383 22.9774C63.9084 21.6711 62.6053 21.9484 61.8637 22.5267C60.9965 23.2044 60.4573 24.2789 60.0958 25.5727C59.5162 27.6485 59.4153 30.2743 59.3721 32.8736C59.2754 38.5771 58.7414 53.8103 57.6661 59.6747C57.463 60.783 57.2259 61.5781 56.9852 61.9567C56.7621 62.3101 56.4794 62.4281 56.2413 62.4278C55.9652 62.4286 55.6747 62.2754 55.4917 61.8998C55.1709 61.2398 55.1296 59.5252 55.2133 58.847C55.3082 58.0599 55.3779 22.9568 55.2262 20.476C55.1328 19.0791 54.7389 17.8858 54.1847 17.0395C53.8484 16.5262 53.4577 16.1445 53.0415 15.9491C51.9622 15.4536 49.8937 15.1619 48.538 16.94C48.4374 17.0726 48.3533 17.358 48.2522 17.7607C48.0709 18.4877 47.8916 19.5482 47.716 20.8496C46.5242 29.6544 45.507 49.3212 45.425 51.9064C45.3302 54.9332 45.6255 58.1333 45.1529 59.7541C44.8728 60.7156 44.3246 61.2074 43.5175 61.1779C43.1564 61.1735 42.8458 61.0072 42.6112 60.6531C42.3937 60.3233 42.2384 59.7711 42.1603 59.0495C41.8975 56.6116 42.4095 52.0089 42.5786 48.4269C42.7076 45.7066 42.4135 34.0797 42.6619 28.0685C42.7777 25.2466 43.0922 23.3186 40.7648 21.1855C39.8976 20.3851 38.7741 20.0473 37.7223 20.072C36.2821 20.1054 35.3367 20.8571 34.7345 21.8568C34.0879 22.932 33.823 24.2846 33.7786 25.4223C33.4766 33.0233 32.5713 58.4951 32.5705 60.702C32.5705 61.7105 32.1814 62.2624 31.7449 62.5391C31.2499 62.8545 30.6402 62.8411 30.182 62.6419C29.7127 62.4374 29.4234 62.0447 29.4237 61.6486C29.4233 61.6453 29.423 61.6432 29.4237 61.6398C29.4237 61.6398 29.4942 57.6568 29.6365 51.8864C29.706 49.0371 29.6162 41.9851 29.4333 36.7427C29.397 35.7034 29.1054 34.2839 28.4207 33.1469C27.7877 32.096 26.8049 31.2862 25.329 31.3644C23.9185 31.4392 22.9744 32.2457 22.331 33.3808C21.2689 35.2569 21.0025 37.9956 20.9849 40.2243C20.9485 44.8847 21.8168 56.2274 21.4161 63.6206C21.4155 63.6251 21.4149 63.6296 21.4155 63.6339C21.4155 63.6339 20.2568 77.5782 21.4045 88.0779C22.5513 98.5701 25.7726 108.754 25.7726 108.754C25.7927 108.82 25.7992 108.887 25.7906 108.954L24.3497 120.931C29.6828 126.41 36.5338 127.174 42.067 126.573C46.9096 126.045 50.7547 124.472 51.7374 124.042Z" fill="#EF413D"/>
<path fill-rule="evenodd" clip-rule="evenodd" d="M51.7992 124.038L53.9626 109.795C53.9928 109.604 54.1361 109.445 54.3315 109.39C54.3315 109.39 55.581 109.032 56.627 108.321C57.7417 107.563 69.2634 100.598 71.8975 98.8474C74.4875 97.1199 78.3877 91.9584 80.7906 88.8144C82.2604 86.8857 86.8046 83.5144 90.4764 80.7781C92.8407 79.0167 94.8362 77.5322 95.3124 76.8919C95.6729 76.4111 96.0666 75.9355 96.3804 75.4468C96.6997 74.9528 96.9418 74.451 96.9281 73.9127C96.9143 73.3821 96.6419 72.8306 96.0033 72.2165C95.0179 71.2652 93.6197 70.8523 91.8416 70.9125C89.9452 70.9752 87.6359 71.5684 84.9303 72.6504C80.4961 74.4223 73.9535 79.5838 71.135 81.1754C70.5488 81.5047 70.0891 81.6876 69.8111 81.7138C69.4973 81.7425 69.2854 81.6406 69.1505 81.4968C68.3633 80.6684 67.2183 79.3511 66.8522 75.1461C66.3706 69.6161 66.8 64.3397 66.9817 62.3143C67.3119 58.6059 68.5064 39.5697 68.6193 32.8636C68.6633 30.2659 68.6469 28.3528 68.4487 26.8997C68.1735 24.8822 67.5487 23.8055 66.1614 22.9875C63.932 21.6808 62.6272 21.9578 61.8868 22.5354C61.0198 23.2123 60.4804 24.2863 60.1198 25.58C59.5418 27.655 59.4427 30.2815 59.3986 32.8792C59.305 38.5843 58.7767 53.8154 57.7032 59.6773C57.4995 60.788 57.2628 61.5799 57.0233 61.9615C56.8004 62.3117 56.5168 62.4318 56.2801 62.4318C56.0021 62.4318 55.7131 62.2777 55.5287 61.9014C55.2094 61.2428 55.1654 59.5283 55.2508 58.8488C55.3443 58.0622 55.4021 22.9613 55.2479 20.4838C55.1543 19.0856 54.7609 17.8939 54.2049 17.0445C53.8691 16.5323 53.4781 16.1507 53.0625 15.9547C51.9836 15.4582 49.9138 15.1681 48.5569 16.9452C48.4578 17.0785 48.3724 17.3634 48.2733 17.7659C48.0916 18.4924 47.9128 19.5507 47.7367 20.8522C46.5476 29.6568 45.5401 49.3229 45.4576 51.9076C45.364 54.9339 45.6613 58.1328 45.1907 59.7531C44.9099 60.7148 44.3594 61.2062 43.5529 61.1774C43.1923 61.1722 42.8841 61.0049 42.6474 60.6521C42.4299 60.3202 42.273 59.7688 42.1959 59.0475C41.9317 56.6092 42.4437 52.0069 42.6116 48.4265C42.7382 45.706 42.441 34.0814 42.6859 28.0705C42.8015 25.248 43.1153 23.3194 40.7868 21.1868C39.9198 20.3871 38.794 20.0473 37.7426 20.0709C36.303 20.1048 35.3562 20.8575 34.7561 21.8559C34.1093 22.9326 33.845 24.2838 33.801 25.4206C33.501 33.0204 32.6065 58.4909 32.6065 60.6966C32.6065 61.7054 32.2184 62.2568 31.7808 62.5338C31.2853 62.8474 30.677 62.8344 30.2173 62.6358C29.7494 62.4319 29.4577 62.0372 29.4577 61.6426C29.4577 61.64 29.4577 61.6374 29.4604 61.6348C29.4604 61.6348 29.5292 57.652 29.6668 51.8815C29.7356 49.0329 29.6448 41.9818 29.4604 36.7392C29.4219 35.6991 29.1301 34.2801 28.4448 33.1432C27.8117 32.0926 26.8291 31.2825 25.3538 31.3609C23.9418 31.4341 22.9977 32.239 22.3564 33.3759C21.2939 35.2497 21.0298 37.9885 21.0105 40.2177C20.9775 44.8775 21.85 56.2198 21.4509 63.6106C21.4509 63.6158 21.4509 63.621 21.4509 63.6236C21.4509 63.6236 20.2976 77.5663 21.4481 88.067C22.6014 98.5573 25.8245 108.742 25.8245 108.742C25.8465 108.807 25.8521 108.875 25.8438 108.943L24.407 120.918C29.7439 126.398 36.5948 127.164 42.1299 126.565C46.9715 126.04 50.8166 124.467 51.7992 124.038Z" fill="#FCCFCF"/>
<path fill-rule="evenodd" clip-rule="evenodd" d="M96.8999 73.5207C96.9356 73.654 96.9549 73.7847 96.9577 73.9127C96.9714 74.4511 96.7293 74.9529 96.41 75.4469C96.0962 75.9356 95.7025 76.4112 95.3419 76.892C94.8658 77.5323 92.8703 79.0168 90.506 80.7782C86.8342 83.5145 82.29 86.8858 80.8202 88.8145C78.4173 91.9585 74.5171 97.12 71.927 98.8475C69.293 100.598 57.7713 107.563 56.6565 108.321C55.6106 109.032 54.3611 109.39 54.3611 109.39C54.1656 109.445 54.0224 109.604 53.9921 109.795L51.8288 124.038C50.8461 124.467 47.001 126.04 42.1595 126.565C37.2684 127.093 31.3506 126.558 26.3577 122.645C29.8864 123.847 35.3692 125.507 39.3905 125.766C45.8065 126.173 48.958 124.049 49.7589 122.3C50.5709 120.549 51.8535 110.577 51.8535 110.577C51.8535 110.577 50.0589 110.498 50.0479 110.6C50.0341 110.702 47.0532 110.101 47.0257 110.192C46.9982 110.297 43.5274 108.475 43.5274 108.475L41.287 106.787C41.287 106.787 40.2712 105.979 40.0015 105.423C39.729 104.866 39.4979 102.786 39.4979 102.786C39.4979 102.786 43.7421 106.382 45.4596 106.996C47.1744 107.608 52.7536 106.973 56.8354 105.713C60.9228 104.469 67.5314 99.5269 69.3508 98.0974C71.1564 96.6679 76.5622 91.1822 77.9989 89.1594C79.4329 87.121 85.2984 81.7321 85.2984 81.7321C85.2984 81.7321 90.6848 80.3314 93.1345 77.8747C94.7226 76.2806 96.1182 74.5426 96.8999 73.5207ZM66.8075 65.0271C66.6506 67.617 66.5488 71.3202 66.8818 75.1462C67.2424 79.2911 68.3599 80.6292 69.1471 81.4603C68.9048 81.5152 68.5938 81.5726 68.1947 81.6301C66.6809 81.8575 63.3835 81.0578 63.3835 81.0578C63.3835 81.0578 62.4147 77.7074 63.7083 72.4806C64.5175 69.2243 65.8909 66.5638 66.8075 65.0271ZM22.5264 33.1381C23.1622 32.1293 24.0705 31.4289 25.3834 31.361C25.7054 31.3427 26.0054 31.3688 26.2834 31.4289C27.0458 31.7425 27.6569 32.1581 28.1523 32.6729C28.2679 32.8219 28.3753 32.9787 28.4743 33.1433C29.1597 34.2801 29.4514 35.6992 29.49 36.7393C29.6744 41.9819 29.7652 49.033 29.6964 51.8816C29.5588 57.6521 29.49 61.6349 29.49 61.6349C29.4872 61.6375 29.4873 61.6401 29.4873 61.6427C29.4873 61.7394 29.5065 61.8361 29.5396 61.9302C29.5313 62.0739 29.5231 62.2176 29.5148 62.3614L26.2036 63.8511C26.2036 63.8511 28.3725 59.9309 28.4551 57.3514C28.5294 54.7563 27.9569 53.46 27.9569 53.46C27.9569 53.46 28.9616 51.5497 29.1708 48.8186C29.3882 45.9883 28.4551 43.7068 28.4551 43.7068C28.4551 43.7068 28.7633 39.9252 27.8275 35.4013C27.2798 32.7644 25.1164 31.9594 22.5264 33.1381ZM61.6522 22.7627C61.7375 22.6843 61.8256 22.6086 61.9164 22.5355C62.6568 21.9579 63.9615 21.6809 66.191 22.9876C67.5782 23.8056 68.2031 24.8822 68.4783 26.8998C68.6765 28.3529 68.6929 30.266 68.6489 32.8637C68.5388 39.4286 67.3911 57.8114 67.0333 62.0608L65.3185 62.1785C65.3185 62.1785 66.7909 54.7642 66.8432 52.2527C66.8928 49.7255 66.8432 45.6276 66.8432 45.6276C66.8432 45.6276 67.8011 41.6657 67.7075 39.0053C67.6085 36.1566 66.9561 34.4396 66.9561 34.4396C66.9561 34.4396 67.9993 32.2782 66.9314 28.2352C66.2571 25.6976 64.1321 22.5327 61.6522 22.7627ZM49.1396 16.3598C50.458 15.2439 52.1508 15.5236 53.0921 15.9548C53.5077 16.1508 53.8987 16.5323 54.2345 17.0446C54.7904 17.8939 55.1839 19.0857 55.2775 20.4839C55.4316 22.9614 55.3739 58.0623 55.2803 58.8489C55.2033 59.4657 55.2308 60.9371 55.4786 61.695L53.3812 61.8962C53.3812 61.8962 54.7354 53.6508 54.7905 51.1393C54.8372 48.6148 54.3693 42.8234 54.3693 42.8234C54.3693 42.8234 54.917 39.6481 55.0904 36.9902C55.2721 34.2383 54.3693 29.8583 54.3693 29.8583C54.3693 29.8583 55.3986 25.5774 54.4573 21.166C53.9233 18.6649 51.6443 16.0933 49.1396 16.3598ZM35.0636 21.4455C35.6664 20.6563 36.5363 20.0997 37.7721 20.0709C38.8236 20.0474 39.9493 20.3872 40.8163 21.1869C43.1449 23.3194 42.8311 25.2481 42.7155 28.0706C42.4705 34.0815 42.7678 45.706 42.6412 48.4266C42.4733 52.007 41.9613 56.6093 42.2255 59.0476C42.264 59.4135 42.3246 59.7349 42.4017 60.0067L39.1318 61.478C39.1318 61.478 40.8053 57.3306 40.8878 54.7512C40.9649 52.156 40.8878 44.8514 40.8878 44.8514C40.8878 44.8514 41.4934 41.4175 41.7026 38.6838C41.92 35.8561 41.0228 31.5334 41.0228 31.5334C41.0228 31.5334 41.8237 30.8513 40.8878 26.3275C40.3566 23.7585 37.7775 21.1345 35.0636 21.4455Z" fill="#F57070"/>
<path d="M21.7886 43.2295C21.6549 43.2174 21.5514 43.1114 21.5592 42.9967C21.5717 42.8709 21.6833 42.7725 21.8162 42.7834L28.5339 43.1216C28.6582 43.1175 28.7618 43.2235 28.7504 43.3496C28.7511 43.4792 28.6431 43.566 28.5055 43.5664L21.7886 43.2295Z" fill="#EF413D"/>
<path d="M21.9111 53.0869C21.7821 53.077 21.6928 52.9734 21.7027 52.8519C21.7021 52.7237 21.8178 52.6275 21.9457 52.6369L28.3858 53.0942C28.5148 53.1042 28.6041 53.2077 28.5937 53.3302C28.5822 53.4521 28.4681 53.5479 28.3391 53.538L21.9111 53.0869Z" fill="#EF413D"/>
<path d="M21.8332 64.4318C21.7505 64.4551 21.6673 64.3261 21.6474 64.1773C21.6305 64.0129 21.6969 63.8758 21.7887 63.8592C21.7887 63.8592 23.9423 63.5881 25.9534 63.3466C27.9211 63.1249 29.2964 62.1641 29.2992 62.15C29.3767 62.1051 29.4797 62.1808 29.5107 62.3215C29.5507 62.4689 29.5161 62.6456 29.4386 62.6905C29.4275 62.6986 28.0174 63.6838 25.998 63.9192C24.019 64.1504 21.8423 64.4384 21.8332 64.4318Z" fill="#EF413D"/>
<path d="M33.7851 62.1417C33.6473 62.1431 33.5346 62.0008 33.5328 61.8421C33.5456 61.6833 33.6543 61.5708 33.7921 61.5695C33.8066 61.5693 37.1203 61.7745 38.8262 61.2814C40.5597 60.7714 41.9309 60.0742 41.9309 60.0742C42.0547 60.0089 42.2065 60.0715 42.2636 60.2143C42.3208 60.3571 42.2538 60.5318 42.1301 60.5971C42.1301 60.5971 40.7168 61.3253 38.9556 61.837C37.1679 62.3629 33.7851 62.1417 33.7851 62.1417Z" fill="#EF413D"/>
<path d="M33.1837 45.454C33.0501 45.4553 32.941 45.3475 32.9264 45.1926C32.9247 45.0375 33.017 44.8964 33.1506 44.8951C33.1635 44.895 36.7206 44.6121 37.6305 44.5241C39.4759 44.3357 40.8808 44.3844 40.8808 44.3844C41.0145 44.3831 41.1237 44.5058 41.1125 44.661C41.1142 44.8161 41.0078 44.9423 40.8741 44.9436C40.8741 44.9436 39.4823 44.9098 37.6765 45.0829C35.0558 45.3429 33.1966 45.4538 33.1837 45.454Z" fill="#EF413D"/>
<path d="M33.8126 31.6945C33.6643 31.6826 33.5447 31.5587 33.5574 31.42C33.5716 31.2948 33.6887 31.1831 33.837 31.195C33.8513 31.1948 37.0295 31.3722 38.2915 31.4982C39.5248 31.6111 41.022 31.499 41.022 31.499C41.17 31.483 41.3049 31.5788 41.322 31.7171C41.3235 31.8556 41.2209 31.9817 41.0715 31.9832C41.0572 31.9834 39.516 32.1104 38.2229 31.9981C36.9752 31.872 33.8126 31.6945 33.8126 31.6945Z" fill="#EF413D"/>
<path d="M47.396 29.5735C47.258 29.5534 47.1682 29.4315 47.1938 29.3077C47.2207 29.1835 47.3598 29.0993 47.4975 29.1183C47.4975 29.1183 50.2323 29.5588 52.2551 29.4738C54.3639 29.3822 54.5119 29.3863 54.5119 29.3863C54.658 29.3782 54.7726 29.4816 54.7737 29.5992C54.7648 29.7328 54.6589 29.8355 54.514 29.8433C54.514 29.8433 54.2658 29.8503 52.2573 29.9308C50.1752 30.0161 47.4105 29.5701 47.396 29.5735Z" fill="#EF413D"/>
<path d="M46.5364 41.8821C46.4055 41.8137 46.3498 41.6327 46.4033 41.4921C46.4619 41.3674 46.6057 41.3051 46.7381 41.3746C46.7381 41.3746 47.8106 42.0191 50.8548 42.1886C53.9136 42.355 54.0576 42.228 54.0576 42.228C54.1748 42.1712 54.3338 42.2352 54.3969 42.3824C54.46 42.5296 54.4086 42.6851 54.2914 42.7419C54.2914 42.7419 54.0298 42.9243 50.8686 42.7469C47.6941 42.5722 46.5364 41.8821 46.5364 41.8821Z" fill="#EF413D"/>
<path d="M46.0513 60.6372C45.9914 60.4868 46.0298 60.3184 46.1633 60.2614C46.2949 60.1891 46.4404 60.2602 46.5104 60.3918C46.5104 60.3918 46.9071 61.2734 49.3305 61.4767C51.9158 61.6816 54.7676 61.563 54.7823 61.5603C54.9255 61.551 55.0523 61.6737 55.0691 61.832C55.0737 61.9925 54.9695 62.1249 54.8266 62.1355C54.8266 62.1355 51.9169 62.2632 49.3294 62.0418C46.5991 61.831 46.0647 60.6348 46.0513 60.6372Z" fill="#EF413D"/>
<path d="M57.4878 61.1122C57.3641 61.0696 57.3014 60.9349 57.332 60.8134C57.3626 60.6919 57.4831 60.6303 57.6078 60.6724C57.6078 60.6724 60.1934 61.6005 62.2695 61.703C64.361 61.8107 66.6248 61.5446 66.6248 61.5446C66.7545 61.5232 66.8758 61.612 66.9094 61.7457C66.9365 61.8681 66.8668 61.9951 66.7291 62.0046C66.7291 62.0046 64.4155 62.2817 62.2939 62.1735C60.1446 62.0648 57.5048 61.118 57.4878 61.1122Z" fill="#EF413D"/>
<path d="M59.0098 45.8403C58.8829 45.8044 58.8018 45.6871 58.8339 45.5561C58.8597 45.4421 58.9949 45.3591 59.1218 45.395C59.1342 45.3886 61.2191 45.8753 63.3246 45.8917C65.4599 45.9067 67.0148 45.7008 67.0148 45.7008C67.1522 45.6734 67.2808 45.7663 67.2905 45.8911C67.3119 46.0087 67.2141 46.1318 67.0884 46.152C67.0823 46.1412 65.5042 46.3577 63.3206 46.3397C61.1425 46.3315 59.0211 45.8344 59.0098 45.8403Z" fill="#EF413D"/>
<path d="M59.4173 33.2905C59.2681 33.2616 59.1829 33.1394 59.2074 33.0071C59.2308 32.8754 59.3778 32.7858 59.5201 32.8024C59.5264 32.8137 62.7521 33.328 64.4644 33.3534C66.1954 33.3837 67.6543 33.194 67.6543 33.194C67.7956 33.1809 67.9254 33.2645 67.9404 33.4081C67.948 33.5385 67.847 33.6507 67.7132 33.6744C67.6998 33.6812 66.2099 33.8723 64.4388 33.8323C62.6751 33.803 59.4296 33.2842 59.4173 33.2905Z" fill="#EF413D"/>
<path d="M28.8356 91.658C28.7563 91.7475 28.5948 91.7579 28.5006 91.6826C28.4064 91.6073 28.3872 91.469 28.4743 91.3635C28.4956 91.3444 37.3271 81.3188 43.6664 76.8077C50.0061 72.2977 59.484 68.1991 59.5091 68.1915C59.6297 68.142 59.7703 68.1906 59.8223 68.3051C59.8744 68.4196 59.8233 68.5531 59.7158 68.5985C59.6776 68.6102 50.2379 72.697 43.9527 77.1652C37.654 81.6364 28.8661 91.6235 28.8356 91.658Z" fill="#EF413D"/>
<path d="M40.0273 102.698C39.9996 102.827 39.8609 102.905 39.7249 102.896C39.5748 102.889 39.4711 102.776 39.4988 102.648C39.5081 102.609 41.8486 88.5505 45.555 82.1863C49.2705 75.7717 62.6899 70.4785 62.7322 70.4615C62.8742 70.4074 63.0291 70.4516 63.089 70.5697C63.1487 70.6756 63.0775 70.8212 62.9496 70.8736C62.9058 70.8788 49.6581 76.1144 46.0275 82.3687C42.3584 88.678 40.0378 102.659 40.0273 102.698Z" fill="#EF413D"/>
<path d="M23.4613 78.0479C23.3287 78.0504 23.2227 77.9378 23.2333 77.8247C23.2308 77.6999 23.3354 77.5986 23.468 77.5961C23.5082 77.6034 34.6615 77.9283 43.0244 73.5711C51.3888 69.2258 55.1306 63.3458 55.1427 63.3323C55.2072 63.2248 55.3473 63.183 55.4622 63.2573C55.5765 63.3184 55.6069 63.4531 55.5424 63.5605C55.5303 63.574 51.7354 69.5602 43.2477 73.9705C34.7726 78.3793 23.4863 78.045 23.4613 78.0479Z" fill="#EF413D"/>
</g>
</g>
</svg>
