<svg width="104" height="130" viewBox="0 0 104 130" fill="none" xmlns="http://www.w3.org/2000/svg">
<mask id="mask0" mask-type="alpha" maskUnits="userSpaceOnUse" x="0" y="0" width="104" height="130">
<rect width="104" height="130" rx="5" fill="#EFEFEF"/>
</mask>
<g mask="url(#mask0)">
<rect x="94" y="75" width="65" height="65" rx="5" transform="rotate(180 94 75)" fill="#C4C4C4"/>
<g opacity="0.3">
<path fill-rule="evenodd" clip-rule="evenodd" d="M60.4483 60.3157L60.4424 60.3161C60.2649 60.3226 60.1431 60.2289 60.0482 60.0801C59.8759 59.8065 59.7805 59.4045 59.7141 58.9134C59.4858 57.2013 59.7027 54.5304 59.6235 51.9861C59.5435 49.3857 58.5297 29.5979 57.3372 20.7405C57.1253 19.1601 56.9045 17.9221 56.685 17.1785C56.5706 16.7896 56.4446 16.516 56.3283 16.3625C54.5763 14.0582 51.9126 14.4129 50.5162 15.0575C49.1686 15.6914 47.9275 17.7138 47.7458 20.434C47.5916 22.9351 47.6538 58.3002 47.7478 59.0939C47.8004 59.5139 47.8053 60.3973 47.7015 61.0685C47.5855 60.7003 47.4753 60.2173 47.3704 59.6402C46.3027 53.7914 45.7839 38.6024 45.6897 32.9152C45.6461 30.2222 45.5319 27.5032 44.9346 25.3533C44.511 23.8282 43.8396 22.582 42.8211 21.7833C41.8736 21.0415 40.1866 20.4795 37.3302 22.1597C35.9419 22.9814 35.1638 24.0053 34.7525 25.7319C34.3727 27.3324 34.322 29.5795 34.3779 32.931C34.4916 39.6728 35.6895 58.811 36.0197 62.5385C36.198 64.5452 36.6244 69.7666 36.1488 75.2433C35.8371 78.8275 34.9482 80.1157 34.2495 80.8848C34.0878 80.8227 33.7446 80.6819 33.4476 80.5146C30.6069 78.9057 24.0016 73.6941 19.5307 71.9019C16.6823 70.7587 14.2488 70.1457 12.2508 70.0807C10.1334 70.0104 8.4841 70.5491 7.31104 71.6869C6.55926 72.4112 6.21295 73.0911 6.11358 73.7287C5.99551 74.483 6.22278 75.1934 6.62079 75.879C6.96954 76.4816 7.45349 77.0662 7.89194 77.6542C8.38762 78.3259 10.4568 79.9073 12.933 81.7603C16.5206 84.4439 20.977 87.729 22.413 89.6217C24.8746 92.8521 28.8954 98.1384 31.5477 99.9165C34.1798 101.672 45.6899 108.653 46.8035 109.413C47.6427 109.985 48.5979 110.357 49.0843 110.524L51.2424 124.774C51.2675 124.935 51.374 125.076 51.5273 125.149C51.5273 125.149 55.9579 127.259 61.7859 127.893C67.6561 128.531 74.9274 127.673 80.5531 121.74C80.6547 121.635 80.7022 121.492 80.6849 121.35L79.2342 109.213C79.5682 108.132 82.5224 98.3987 83.616 88.389C84.7593 77.9284 83.6491 64.0848 83.6174 63.6991C83.2212 56.2986 84.0948 44.9476 84.0589 40.2831C84.0415 37.8937 83.7248 34.9648 82.5907 32.9538C81.7699 31.4983 80.5331 30.5043 78.7309 30.4085C76.8059 30.307 75.4985 31.3232 74.6723 32.698C73.899 33.9855 73.5624 35.5911 73.521 36.7672C73.3348 42.0449 73.2424 49.1442 73.3117 52.0119C73.4459 57.5697 73.5151 61.4742 73.5201 61.7632C73.5093 61.7751 73.4733 61.8126 73.4467 61.8304C73.3824 61.8712 73.3024 61.9003 73.2174 61.9144C72.8338 61.9768 72.4711 61.6763 72.4703 60.832C72.4707 58.6164 71.5754 33.0432 71.2753 25.4109C71.2249 24.1238 70.9138 22.5955 70.1833 21.3775C69.4072 20.0836 68.1746 19.1286 66.3136 19.0853C64.9994 19.0562 63.5991 19.4836 62.5178 20.4847C59.9269 22.8656 60.1725 24.9936 60.3009 28.1435C60.5466 34.1745 60.2488 45.8393 60.3755 48.5685C60.5416 52.1114 61.0553 56.6641 60.7948 59.0767C60.7457 59.5321 60.6733 59.901 60.5534 60.1565C60.5295 60.2065 60.5041 60.2508 60.4751 60.287C60.4681 60.2961 60.4562 60.3078 60.4483 60.3157ZM52.2394 124.366L50.0757 110.079C50.0464 109.888 49.9031 109.729 49.7082 109.674C49.7082 109.674 48.4579 109.314 47.4132 108.6C46.2996 107.84 34.7829 100.857 32.1498 99.0996C29.5623 97.3655 25.6636 92.1884 23.2621 89.0366C21.7937 87.1005 17.2504 83.7203 13.5797 80.974C11.217 79.2071 9.22095 77.7203 8.74691 77.0774C8.38715 76.5946 7.99441 76.1166 7.67943 75.6269C7.36061 75.1312 7.11671 74.6279 7.13056 74.0881C7.14455 73.5559 7.41759 73.0038 8.05698 72.3883C9.0422 71.433 10.4384 71.0195 12.2143 71.078C14.1109 71.1409 16.4196 71.7369 19.1241 72.8223C23.5567 74.5989 30.0956 79.7785 32.9117 81.3724C33.499 81.705 33.9583 81.886 34.2365 81.9135C34.5481 81.9427 34.7613 81.8403 34.8957 81.6955C35.6821 80.8652 36.8271 79.5436 37.1928 75.3251C37.6741 69.7776 37.244 64.4875 37.0646 62.4542C36.7343 58.7356 35.5399 39.6418 35.4254 32.9153C35.3819 30.3093 35.399 28.3907 35.5976 26.9305C35.8719 24.9081 36.4969 23.8275 37.8826 23.0077C40.1121 21.6968 41.4146 21.9744 42.1556 22.5542C43.0222 23.2336 43.5608 24.3111 43.9217 25.6086C44.5002 27.6903 44.6002 30.3239 44.6423 32.9308C44.7368 38.6512 45.2648 53.9293 46.3374 59.8106C46.5401 60.9221 46.7768 61.7195 47.0172 62.0991C47.2401 62.4535 47.5227 62.5717 47.7607 62.5713C48.0367 62.5721 48.327 62.4182 48.5102 62.0415C48.8311 61.3795 48.873 59.6597 48.7896 58.9796C48.6951 58.1902 48.6387 22.9833 48.7913 20.4951C48.8852 19.0941 49.2793 17.8971 49.8337 17.0481C50.17 16.5332 50.5608 16.1502 50.9768 15.9541C52.0559 15.4568 54.1237 15.1635 55.4782 16.9464C55.5786 17.0793 55.6626 17.3656 55.7635 17.7694C55.9444 18.4985 56.1233 19.562 56.2984 20.8672C57.4863 29.6977 58.4957 49.4223 58.5766 52.0151C58.6703 55.0508 58.3739 58.2605 58.8456 59.8859C59.1252 60.8502 59.6731 61.3432 60.4798 61.3133C60.8408 61.3088 61.1513 61.1419 61.386 60.7867C61.6036 60.4559 61.759 59.902 61.8373 59.1782C62.1009 56.7329 61.5909 52.1169 61.4232 48.5243C61.2953 45.796 61.5937 34.1346 61.3477 28.1058C61.233 25.2756 60.9193 23.342 63.2466 21.2018C64.1138 20.3987 65.237 20.0595 66.2884 20.0839C67.728 20.1169 68.6727 20.8705 69.2742 21.873C69.9202 22.9511 70.1845 24.3076 70.2285 25.4487C70.5274 33.0721 71.4227 58.6188 71.4226 60.8323C71.4223 61.8437 71.811 62.3972 72.2472 62.6745C72.742 62.9907 73.3513 62.977 73.8095 62.777C74.2787 62.5718 74.568 62.1779 74.5679 61.7805C74.5683 61.7773 74.5686 61.7751 74.5679 61.7717C74.5679 61.7717 74.4989 57.777 74.3588 51.9896C74.2905 49.1319 74.3829 42.059 74.5677 36.801C74.6044 35.7586 74.8965 34.3349 75.5813 33.1943C76.2144 32.14 77.1972 31.3275 78.6725 31.4054C80.0824 31.48 81.0257 32.2885 81.6684 33.4267C82.7294 35.308 82.9947 38.0548 83.0115 40.29C83.0461 44.9642 82.1738 56.3407 82.5715 63.7557C82.5721 63.7602 82.5727 63.7646 82.5721 63.769C82.5721 63.769 83.7251 77.7541 82.5738 88.2853C81.4235 98.8089 78.1996 109.024 78.1996 109.024C78.1794 109.09 78.1729 109.157 78.1815 109.225L79.6173 121.237C74.2842 126.733 67.4357 127.502 61.9049 126.901C57.0645 126.374 53.2215 124.797 52.2394 124.366Z" fill="#4F4F4F"/>
<path fill-rule="evenodd" clip-rule="evenodd" d="M52.2179 124.386L50.0556 110.099C50.0253 109.908 49.8821 109.748 49.6868 109.693C49.6868 109.693 48.4379 109.334 47.3925 108.621C46.2783 107.861 34.7622 100.875 32.1294 99.1184C29.5407 97.3856 25.6424 92.2083 23.2407 89.0548C21.7716 87.1202 17.2296 83.7386 13.5596 80.994C11.1964 79.2272 9.20195 77.7382 8.72601 77.096C8.36562 76.6136 7.97211 76.1366 7.65849 75.6464C7.33936 75.1509 7.09734 74.6476 7.11109 74.1076C7.12485 73.5755 7.39717 73.0223 8.03542 72.4063C9.02031 71.4521 10.4179 71.038 12.1951 71.0982C14.0906 71.1612 16.3987 71.7562 19.103 72.8414C23.535 74.6188 30.0744 79.796 32.8915 81.3925C33.4775 81.7228 33.9369 81.9063 34.2148 81.9325C34.5284 81.9613 34.7402 81.8591 34.875 81.7149C35.6618 80.8839 36.8063 79.5626 37.1722 75.3448C37.6536 69.798 37.2244 64.5055 37.0429 62.4739C36.7127 58.7541 35.5188 39.6599 35.406 32.9334C35.362 30.3278 35.3784 28.4088 35.5765 26.9513C35.8516 24.9276 36.4761 23.8477 37.8627 23.0272C40.091 21.7165 41.3951 21.9944 42.1352 22.5737C43.0018 23.2526 43.541 24.33 43.9014 25.6276C44.4791 27.709 44.5782 30.3434 44.6222 32.949C44.7157 38.6715 45.2438 53.949 46.3167 59.8288C46.5203 60.9429 46.757 61.7373 46.9963 62.12C47.2192 62.4712 47.5026 62.5918 47.7392 62.5918C48.017 62.5918 48.3059 62.4372 48.4902 62.0597C48.8093 61.3991 48.8533 59.6794 48.768 58.9979C48.6745 58.2088 48.6168 23.0009 48.7708 20.5159C48.8644 19.1134 49.2576 17.918 49.8134 17.0661C50.149 16.5523 50.5398 16.1696 50.9552 15.973C52.0336 15.4749 54.1023 15.1839 55.4586 16.9665C55.5576 17.1002 55.643 17.3859 55.742 17.7896C55.9236 18.5184 56.1023 19.5799 56.2784 20.8854C57.4669 29.7169 58.4739 49.4429 58.5564 52.0354C58.6499 55.071 58.3527 58.2796 58.8232 59.9049C59.1038 60.8695 59.654 61.3624 60.4601 61.3336C60.8205 61.3283 61.1286 61.1605 61.3652 60.8066C61.5826 60.4737 61.7394 59.9207 61.8164 59.1972C62.0806 56.7514 61.5688 52.1351 61.401 48.5438C61.2744 45.8149 61.5715 34.1549 61.3267 28.1257C61.2111 25.2946 60.8975 23.3601 63.2249 21.221C64.0915 20.4189 65.2167 20.0781 66.2676 20.1017C67.7064 20.1357 68.6528 20.8907 69.2526 21.8921C69.8991 22.9721 70.1632 24.3274 70.2073 25.4677C70.5071 33.0907 71.4012 58.6388 71.4012 60.8513C71.4012 61.8631 71.7891 62.4162 72.2265 62.694C72.7217 63.0086 73.3297 62.9955 73.7892 62.7963C74.2569 62.5919 74.5484 62.1959 74.5484 61.8001C74.5484 61.7975 74.5485 61.7949 74.5457 61.7923C74.5457 61.7923 74.4769 57.7973 74.3394 52.0093C74.2706 49.152 74.3614 42.0794 74.5457 36.8208C74.5842 35.7775 74.8758 34.3542 75.5609 33.2139C76.1936 32.1601 77.1757 31.3475 78.6503 31.4261C80.0616 31.4995 81.0053 32.3069 81.6463 33.4472C82.7082 35.3268 82.9722 38.0739 82.9915 40.3099C83.0245 44.9839 82.1524 56.3608 82.5513 63.7741C82.5513 63.7793 82.5513 63.7845 82.5513 63.7871C82.5513 63.7871 83.704 77.7724 82.5541 88.3051C81.4014 98.8274 78.1799 109.043 78.1799 109.043C78.1579 109.108 78.1523 109.177 78.1606 109.245L79.5967 121.256C74.2623 126.753 67.4148 127.521 61.8824 126.921C57.0432 126.394 53.2 124.816 52.2179 124.386Z" fill="#BDBDBD"/>
<path fill-rule="evenodd" clip-rule="evenodd" d="M7.13851 73.7145C7.10275 73.8482 7.0835 73.9792 7.08075 74.1077C7.06699 74.6477 7.30901 75.151 7.62814 75.6465C7.94176 76.1367 8.33527 76.6137 8.69566 77.096C9.1716 77.7383 11.1661 79.2273 13.5293 80.9941C17.1992 83.7387 21.7412 87.1203 23.2103 89.0549C25.612 92.2084 29.5103 97.3857 32.0991 99.1184C34.7319 100.875 46.2479 107.861 47.3621 108.621C48.4075 109.334 49.6565 109.693 49.6565 109.693C49.8518 109.748 49.995 109.908 50.0252 110.099L52.1875 124.386C53.1697 124.816 57.0129 126.394 61.8521 126.921C66.7407 127.45 72.6556 126.913 77.6461 122.989C74.1192 124.195 68.639 125.859 64.6197 126.119C58.2069 126.528 55.0569 124.396 54.2564 122.643C53.4448 120.886 52.1628 110.883 52.1628 110.883C52.1628 110.883 53.9565 110.805 53.9675 110.907C53.9813 111.009 56.9607 110.406 56.9882 110.498C57.0157 110.603 60.4849 108.776 60.4849 108.776L62.7241 107.082C62.7241 107.082 63.7394 106.272 64.009 105.714C64.2814 105.155 64.5123 103.069 64.5123 103.069C64.5123 103.069 60.2703 106.676 58.5536 107.292C56.8397 107.905 51.2632 107.268 47.1833 106.005C43.098 104.757 36.4925 99.8 34.6741 98.3661C32.8694 96.9322 27.4663 91.4298 26.0302 89.4009C24.5969 87.3562 18.7343 81.9509 18.7343 81.9509C18.7343 81.9509 13.3505 80.5459 10.902 78.0818C9.31467 76.4827 7.91982 74.7394 7.13851 73.7145ZM37.2162 65.195C37.373 67.7927 37.4747 71.5072 37.1419 75.3449C36.7815 79.5024 35.6645 80.8446 34.8777 81.6782C35.1198 81.7333 35.4307 81.7909 35.8296 81.8486C37.3427 82.0767 40.6385 81.2745 40.6385 81.2745C40.6385 81.2745 41.6068 77.914 40.3138 72.6712C39.505 69.4049 38.1323 66.7363 37.2162 65.195ZM81.4756 33.2087C80.8401 32.1968 79.9323 31.4944 78.62 31.4262C78.2981 31.4079 77.9982 31.434 77.7204 31.4943C76.9583 31.8089 76.3476 32.2257 75.8524 32.7422C75.7368 32.8916 75.6296 33.0488 75.5305 33.214C74.8455 34.3543 74.5539 35.7776 74.5154 36.8209C74.3311 42.0794 74.2403 49.1521 74.3091 52.0094C74.4466 57.7974 74.5154 61.7924 74.5154 61.7924C74.5181 61.795 74.5181 61.7976 74.5181 61.8002C74.5181 61.8972 74.4988 61.9942 74.4658 62.0886C74.4741 62.2327 74.4823 62.3769 74.4905 62.5211L77.8002 64.0153C77.8002 64.0153 75.6323 60.0832 75.5497 57.4959C75.4755 54.8928 76.0477 53.5926 76.0477 53.5926C76.0477 53.5926 75.0435 51.6764 74.8344 48.9371C74.6171 46.0981 75.5497 43.8096 75.5497 43.8096C75.5497 43.8096 75.2417 40.0165 76.1771 35.4789C76.7245 32.8339 78.8868 32.0265 81.4756 33.2087ZM42.3689 22.8017C42.2836 22.7231 42.1956 22.6472 42.1048 22.5738C41.3648 21.9944 40.0607 21.7166 37.8323 23.0273C36.4458 23.8477 35.8213 24.9277 35.5462 26.9514C35.3481 28.4089 35.3317 30.3278 35.3757 32.9335C35.4857 39.5184 36.6328 57.9573 36.9905 62.2196L38.7044 62.3377C38.7044 62.3377 37.2327 54.9008 37.1804 52.3816C37.1309 49.8467 37.1804 45.7364 37.1804 45.7364C37.1804 45.7364 36.223 41.7624 36.3165 39.0938C36.4156 36.2365 37.0676 34.5142 37.0676 34.5142C37.0676 34.5142 36.0249 32.3462 37.0923 28.2909C37.7663 25.7455 39.8902 22.571 42.3689 22.8017ZM54.8754 16.3793C53.5576 15.26 51.8657 15.5405 50.9248 15.973C50.5094 16.1696 50.1187 16.5524 49.783 17.0661C49.2273 17.9181 48.834 19.1135 48.7405 20.5159C48.5864 23.001 48.6441 58.2089 48.7377 58.9979C48.8147 59.6166 48.7871 61.0925 48.5395 61.8527L50.6359 62.0545C50.6359 62.0545 49.2823 53.784 49.2273 51.2648C49.1805 48.7326 49.6483 42.9236 49.6483 42.9236C49.6483 42.9236 49.1008 39.7385 48.9275 37.0726C48.7459 34.3122 49.6483 29.9189 49.6483 29.9189C49.6483 29.9189 48.6194 25.625 49.5603 21.2001C50.094 18.6914 52.3719 16.1119 54.8754 16.3793ZM68.9444 21.4805C68.342 20.6889 67.4725 20.1306 66.2373 20.1017C65.1864 20.0781 64.0612 20.4189 63.1946 21.2211C60.8671 23.3601 61.1808 25.2947 61.2963 28.1258C61.5412 34.155 61.2441 45.815 61.3706 48.5439C61.5384 52.1352 62.0502 56.7515 61.7861 59.1972C61.7476 59.5642 61.687 59.8866 61.61 60.1593L64.8783 61.6351C64.8783 61.6351 63.2056 57.475 63.1231 54.8877C63.0461 52.2846 63.1231 44.9577 63.1231 44.9577C63.1231 44.9577 62.5179 41.5133 62.3088 38.7714C62.0915 35.935 62.9882 31.5991 62.9882 31.5991C62.9882 31.5991 62.1877 30.915 63.1231 26.3773C63.6541 23.8005 66.2319 21.1686 68.9444 21.4805Z" fill="#828282"/>
<path d="M82.2138 43.3307C82.3474 43.3185 82.4509 43.2123 82.4431 43.0972C82.4306 42.971 82.3191 42.8723 82.1862 42.8832L75.4718 43.2224C75.3476 43.2184 75.244 43.3246 75.2554 43.4512C75.2547 43.5811 75.3627 43.6682 75.5002 43.6686L82.2138 43.3307Z" fill="#4F4F4F"/>
<path d="M82.0905 53.2181C82.2194 53.2081 82.3087 53.1042 82.2988 52.9824C82.2994 52.8538 82.1837 52.7572 82.0559 52.7667L75.6189 53.2254C75.49 53.2354 75.4007 53.3393 75.4112 53.4621C75.4227 53.5844 75.5367 53.6805 75.6656 53.6705L82.0905 53.2181Z" fill="#4F4F4F"/>
<path d="M82.1678 64.5975C82.2506 64.6209 82.3337 64.4916 82.3536 64.3423C82.3705 64.1774 82.3042 64.0399 82.2124 64.0232C82.2124 64.0232 80.0598 63.7513 78.0497 63.5091C76.083 63.2866 74.7084 62.323 74.7056 62.3087C74.6281 62.2638 74.5251 62.3397 74.4942 62.4808C74.4542 62.6287 74.4887 62.8059 74.5663 62.8509C74.5773 62.859 75.9868 63.8473 78.0052 64.0834C79.9832 64.3153 82.1588 64.6042 82.1678 64.5975Z" fill="#4F4F4F"/>
<path d="M70.2215 62.3005C70.3592 62.3018 70.4719 62.1591 70.4736 61.9999C70.4609 61.8406 70.3522 61.7278 70.2145 61.7264C70.2 61.7263 66.8879 61.9321 65.1829 61.4376C63.4502 60.926 62.0796 60.2266 62.0796 60.2266C61.9559 60.1612 61.8042 60.2239 61.7471 60.3672C61.69 60.5104 61.7569 60.6857 61.8806 60.7511C61.8806 60.7511 63.2931 61.4816 65.0535 61.9948C66.8404 62.5223 70.2215 62.3005 70.2215 62.3005Z" fill="#4F4F4F"/>
<path d="M70.8231 45.562C70.9567 45.5633 71.0657 45.4552 71.0803 45.2998C71.082 45.1443 70.9898 45.0028 70.8563 45.0015C70.8434 45.0013 67.288 44.7175 66.3785 44.6293C64.534 44.4404 63.1298 44.4892 63.1298 44.4892C62.9962 44.4878 62.8871 44.6109 62.8982 44.7666C62.8965 44.9222 63.0029 45.0488 63.1365 45.0501C63.1365 45.0501 64.5277 45.0162 66.3326 45.1898C68.952 45.4506 70.8103 45.5619 70.8231 45.562Z" fill="#4F4F4F"/>
<path d="M70.1945 31.7607C70.3427 31.7488 70.4623 31.6244 70.4495 31.4854C70.4353 31.3598 70.3183 31.2477 70.1701 31.2596C70.1558 31.2595 66.9792 31.4374 65.7178 31.5638C64.4851 31.677 62.9886 31.5646 62.9886 31.5646C62.8407 31.5485 62.7058 31.6447 62.6887 31.7834C62.6872 31.9223 62.7898 32.0488 62.9391 32.0503C62.9534 32.0504 64.4939 32.1779 65.7863 32.0653C67.0334 31.9388 70.1945 31.7607 70.1945 31.7607Z" fill="#4F4F4F"/>
<path d="M56.6192 29.6335C56.7572 29.6133 56.8469 29.4911 56.8213 29.3668C56.7945 29.2423 56.6554 29.1578 56.5178 29.1769C56.5178 29.1769 53.7843 29.6188 51.7624 29.5335C49.6547 29.4416 49.5068 29.4457 49.5068 29.4457C49.3608 29.4376 49.2462 29.5413 49.2451 29.6592C49.254 29.7933 49.3599 29.8963 49.5047 29.9041C49.5047 29.9041 49.7527 29.9111 51.7603 29.9919C53.8414 30.0775 56.6047 29.63 56.6192 29.6335Z" fill="#4F4F4F"/>
<path d="M57.4766 41.9792C57.6075 41.9106 57.6632 41.7289 57.6096 41.588C57.5511 41.4629 57.4074 41.4004 57.275 41.4701C57.275 41.4701 56.2031 42.1166 53.1603 42.2865C50.1031 42.4535 49.9591 42.326 49.9591 42.326C49.842 42.2691 49.683 42.3333 49.62 42.4809C49.5569 42.6286 49.6083 42.7846 49.7254 42.8415C49.7254 42.8415 49.9869 43.0245 53.1466 42.8466C56.3195 42.6714 57.4766 41.9792 57.4766 41.9792Z" fill="#4F4F4F"/>
<path d="M57.9622 60.7915C58.022 60.6406 57.9837 60.4716 57.8503 60.4145C57.7187 60.342 57.5732 60.4133 57.5033 60.5453C57.5033 60.5453 57.1068 61.4296 54.6846 61.6335C52.1005 61.839 49.2501 61.72 49.2354 61.7173C49.0923 61.7081 48.9656 61.8311 48.9488 61.9899C48.9441 62.1509 49.0483 62.2836 49.1912 62.2943C49.1912 62.2943 52.0995 62.4224 54.6856 62.2003C57.4147 61.9888 57.9487 60.789 57.9622 60.7915Z" fill="#4F4F4F"/>
<path d="M46.5323 61.2683C46.6559 61.2255 46.7186 61.0905 46.688 60.9686C46.6575 60.8467 46.537 60.7849 46.4124 60.8271C46.4124 60.8271 43.828 61.7581 41.7529 61.8609C39.6624 61.969 37.3997 61.702 37.3997 61.702C37.2701 61.6806 37.1489 61.7696 37.1153 61.9037C37.0882 62.0265 37.1579 62.1539 37.2955 62.1635C37.2955 62.1635 39.608 62.4414 41.7286 62.3328C43.8768 62.2238 46.5153 61.2741 46.5323 61.2683Z" fill="#4F4F4F"/>
<path d="M45.0106 45.9495C45.1374 45.9135 45.2185 45.7959 45.1864 45.6644C45.1606 45.5501 45.0255 45.4668 44.8987 45.5028C44.8863 45.4965 42.8024 45.9847 40.6979 46.0011C38.5636 46.0161 37.0095 45.8096 37.0095 45.8096C36.8721 45.7821 36.7436 45.8753 36.734 46.0005C36.7126 46.1184 36.8104 46.2419 36.9359 46.2621C36.942 46.2514 38.5194 46.4685 40.7019 46.4504C42.8789 46.4422 44.9993 45.9437 45.0106 45.9495Z" fill="#4F4F4F"/>
<path d="M44.602 33.3615C44.7512 33.3325 44.8364 33.2099 44.8118 33.0772C44.7884 32.9451 44.6415 32.8552 44.4993 32.8719C44.493 32.8832 41.2689 33.3991 39.5574 33.4246C37.8272 33.455 36.3691 33.2647 36.3691 33.2647C36.2279 33.2516 36.0982 33.3354 36.0831 33.4795C36.0756 33.6102 36.1765 33.7227 36.3102 33.7465C36.3236 33.7534 37.8128 33.9451 39.5831 33.905C41.3459 33.8755 44.5897 33.3552 44.602 33.3615Z" fill="#4F4F4F"/>
<path d="M75.1697 91.9068C75.249 91.9965 75.4104 92.007 75.5046 91.9315C75.5987 91.8559 75.6179 91.7172 75.5308 91.6114C75.5096 91.5922 66.6825 81.536 60.3462 77.0112C54.0096 72.4874 44.5363 68.3764 44.5113 68.3687C44.3907 68.3191 44.2502 68.3678 44.1982 68.4827C44.1462 68.5975 44.1973 68.7314 44.3047 68.777C44.3429 68.7887 53.7779 72.888 60.0601 77.3698C66.3557 81.8546 75.1393 91.8722 75.1697 91.9068Z" fill="#4F4F4F"/>
<path d="M63.9839 102.981C64.0115 103.109 64.1502 103.189 64.2861 103.179C64.4361 103.172 64.5398 103.059 64.5121 102.93C64.5028 102.891 62.1635 88.7899 58.4589 82.4063C54.7452 75.9721 41.3323 70.6628 41.2901 70.6457C41.1482 70.5915 40.9934 70.6358 40.9335 70.7542C40.8738 70.8605 40.945 71.0065 41.0728 71.0591C41.1165 71.0643 54.3578 76.3159 57.9866 82.5892C61.6539 88.9178 63.9734 102.941 63.9839 102.981Z" fill="#4F4F4F"/>
<path d="M41.077 81.4588C41.1809 81.3709 41.185 81.2327 41.0928 81.1338C41.0114 81.0493 40.8666 81.0442 40.7642 81.1201C40.4073 81.4301 39.1138 81.6411 37.747 81.7048C36.3246 81.7884 34.8579 81.7148 34.3361 81.4647C34.2255 81.401 34.0877 81.4474 34.022 81.553C33.9676 81.6599 34.0022 81.8016 34.127 81.8549C34.7088 82.1495 36.2785 82.2474 37.7799 82.1611C39.2284 82.0818 40.6319 81.8331 41.077 81.4588Z" fill="#4F4F4F"/>
<path d="M24.375 76.2275C24.4527 76.1366 24.4318 75.9954 24.3353 75.9213C24.2261 75.8456 24.0791 75.8656 24.0013 75.9576L19.359 81.8168C19.2796 81.9207 19.3006 82.0608 19.4097 82.1365C19.5052 82.2105 19.6533 82.1906 19.7327 82.0867L24.375 76.2275Z" fill="#4F4F4F"/>
<path d="M79.6475 104.162C79.7727 104.114 79.8291 103.983 79.7773 103.875C79.727 103.756 79.6021 103.704 79.4769 103.752C79.4644 103.75 76.7981 104.779 73.4395 105.148C70.0948 105.506 68.6002 104.939 68.6002 104.939C68.4736 104.899 68.3332 104.958 68.2909 105.078C68.2513 105.187 68.3126 105.319 68.439 105.36C68.439 105.36 70.0487 105.965 73.4864 105.593C76.9115 105.22 79.6475 104.162 79.6475 104.162Z" fill="#4F4F4F"/>
<path d="M64.394 106.138C64.4853 106.048 64.4895 105.91 64.3956 105.824C64.3019 105.737 64.1553 105.745 64.0651 105.834C64.0514 105.833 60.7097 109.108 57.1268 109.575C53.5018 110.063 49.5555 109.784 49.5429 109.782C49.4117 109.779 49.294 109.866 49.2916 109.991C49.2754 110.115 49.3797 110.227 49.511 110.231C49.5235 110.232 53.5097 110.516 57.2011 110.024C60.93 109.535 64.3923 106.151 64.394 106.138Z" fill="#4F4F4F"/>
<path d="M80.5406 78.2558C80.6731 78.2583 80.7791 78.1454 80.7685 78.0319C80.771 77.9067 80.6664 77.8051 80.5339 77.8026C80.4937 77.81 69.3458 78.1358 60.9871 73.7654C52.6267 69.4068 48.8868 63.5089 48.8747 63.4953C48.8102 63.3875 48.6701 63.3456 48.5553 63.42C48.441 63.4813 48.4107 63.6164 48.4752 63.7242C48.4873 63.7378 52.2803 69.7422 60.7638 74.166C69.2348 78.5882 80.5156 78.2528 80.5406 78.2558Z" fill="#4F4F4F"/>
</g>
</g>
</svg>
