<svg width="104" height="130" viewBox="0 0 104 130" fill="none" xmlns="http://www.w3.org/2000/svg">
<mask id="mask0" mask-type="alpha" maskUnits="userSpaceOnUse" x="0" y="0" width="104" height="130">
<rect width="104" height="130" rx="5" fill="#EFEFEF"/>
</mask>
<g mask="url(#mask0)">
<rect x="94" y="75" width="65" height="65" rx="5" transform="rotate(180 94 75)" fill="#C4C4C4"/>
<g opacity="0.3">
<path fill-rule="evenodd" clip-rule="evenodd" d="M60.4483 60.3157L60.4424 60.3161C60.2649 60.3226 60.1431 60.2289 60.0482 60.0801C59.8759 59.8065 59.7805 59.4045 59.7141 58.9134C59.4858 57.2013 59.7027 54.5304 59.6235 51.9861C59.5435 49.3857 58.5297 29.5979 57.3372 20.7405C57.1253 19.1601 56.9045 17.9221 56.685 17.1785C56.5706 16.7896 56.4446 16.516 56.3283 16.3625C54.5763 14.0582 51.9126 14.4129 50.5162 15.0575C49.1686 15.6914 47.9275 17.7138 47.7458 20.434C47.5916 22.9351 47.6538 58.3002 47.7478 59.0939C47.8004 59.5139 47.8053 60.3973 47.7015 61.0685C47.5855 60.7003 47.4753 60.2173 47.3704 59.6402C46.3027 53.7914 45.7839 38.6024 45.6897 32.9152C45.6461 30.2222 45.5319 27.5032 44.9346 25.3533C44.511 23.8282 43.8396 22.582 42.8211 21.7833C41.8736 21.0415 40.1866 20.4795 37.3302 22.1597C35.9419 22.9814 35.1638 24.0053 34.7525 25.7319C34.3727 27.3324 34.322 29.5795 34.3779 32.931C34.4916 39.6728 35.6895 58.811 36.0197 62.5385C36.198 64.5452 36.6244 69.7666 36.1488 75.2433C35.8371 78.8275 34.9482 80.1157 34.2495 80.8848C34.0878 80.8227 33.7446 80.6819 33.4476 80.5146C30.6069 78.9057 24.0016 73.6941 19.5307 71.9019C16.6823 70.7587 14.2488 70.1457 12.2508 70.0807C10.1334 70.0104 8.4841 70.5491 7.31104 71.6869C6.55926 72.4112 6.21295 73.0911 6.11358 73.7287C5.99551 74.483 6.22278 75.1934 6.62079 75.879C6.96954 76.4816 7.45349 77.0662 7.89194 77.6542C8.38762 78.3259 10.4568 79.9073 12.933 81.7603C16.5206 84.4439 20.977 87.729 22.413 89.6217C24.8746 92.8521 28.8954 98.1384 31.5477 99.9165C34.1798 101.672 45.6899 108.653 46.8035 109.413C47.6427 109.985 48.5979 110.357 49.0843 110.524L51.2424 124.774C51.2675 124.935 51.374 125.076 51.5273 125.149C51.5273 125.149 55.9579 127.259 61.7859 127.893C67.6561 128.531 74.9274 127.673 80.5531 121.74C80.6547 121.635 80.7022 121.492 80.6849 121.35L79.2342 109.213C79.5682 108.132 82.5224 98.3987 83.616 88.389C84.7593 77.9284 83.6491 64.0848 83.6174 63.6991C83.2212 56.2986 84.0948 44.9476 84.0589 40.2831C84.0415 37.8937 83.7248 34.9648 82.5907 32.9538C81.7699 31.4983 80.5331 30.5043 78.7309 30.4085C76.8059 30.307 75.4985 31.3232 74.6723 32.698C73.899 33.9855 73.5624 35.5911 73.521 36.7672C73.3348 42.0449 73.2424 49.1442 73.3117 52.0119C73.4459 57.5697 73.5151 61.4742 73.5201 61.7632C73.5093 61.7751 73.4733 61.8126 73.4467 61.8304C73.3824 61.8712 73.3024 61.9003 73.2174 61.9144C72.8338 61.9768 72.4711 61.6763 72.4703 60.832C72.4707 58.6164 71.5754 33.0432 71.2753 25.4109C71.2249 24.1238 70.9138 22.5955 70.1833 21.3775C69.4072 20.0836 68.1746 19.1286 66.3136 19.0853C64.9994 19.0562 63.5991 19.4836 62.5178 20.4847C59.9269 22.8656 60.1725 24.9936 60.3009 28.1435C60.5466 34.1745 60.2488 45.8393 60.3755 48.5685C60.5416 52.1114 61.0553 56.6641 60.7948 59.0767C60.7457 59.5321 60.6733 59.901 60.5534 60.1565C60.5295 60.2065 60.5041 60.2508 60.4751 60.287C60.4681 60.2961 60.4562 60.3078 60.4483 60.3157ZM52.2394 124.366L50.0757 110.079C50.0464 109.888 49.9031 109.729 49.7082 109.674C49.7082 109.674 48.4579 109.314 47.4132 108.6C46.2996 107.84 34.7829 100.857 32.1498 99.0996C29.5623 97.3655 25.6636 92.1884 23.2621 89.0366C21.7937 87.1005 17.2504 83.7203 13.5797 80.974C11.217 79.2071 9.22095 77.7203 8.74691 77.0774C8.38715 76.5946 7.99441 76.1166 7.67943 75.6269C7.36061 75.1312 7.11671 74.6279 7.13056 74.0881C7.14455 73.5559 7.41759 73.0038 8.05698 72.3883C9.0422 71.433 10.4384 71.0195 12.2143 71.078C14.1109 71.1409 16.4196 71.7369 19.1241 72.8223C23.5567 74.5989 30.0956 79.7785 32.9117 81.3724C33.499 81.705 33.9583 81.886 34.2365 81.9135C34.5481 81.9427 34.7613 81.8403 34.8957 81.6955C35.6821 80.8652 36.8271 79.5436 37.1928 75.3251C37.6741 69.7776 37.244 64.4875 37.0646 62.4542C36.7343 58.7356 35.5399 39.6418 35.4254 32.9153C35.3819 30.3093 35.399 28.3907 35.5976 26.9305C35.8719 24.9081 36.4969 23.8275 37.8826 23.0077C40.1121 21.6968 41.4146 21.9744 42.1556 22.5542C43.0222 23.2336 43.5608 24.3111 43.9217 25.6086C44.5002 27.6903 44.6002 30.3239 44.6423 32.9308C44.7368 38.6512 45.2648 53.9293 46.3374 59.8106C46.5401 60.9221 46.7768 61.7195 47.0172 62.0991C47.2401 62.4535 47.5227 62.5717 47.7607 62.5713C48.0367 62.5721 48.327 62.4182 48.5102 62.0415C48.8311 61.3795 48.873 59.6597 48.7896 58.9796C48.6951 58.1902 48.6387 22.9833 48.7913 20.4951C48.8852 19.0941 49.2793 17.8971 49.8337 17.0481C50.17 16.5332 50.5608 16.1502 50.9768 15.9541C52.0559 15.4568 54.1237 15.1635 55.4782 16.9464C55.5786 17.0793 55.6626 17.3656 55.7635 17.7694C55.9444 18.4985 56.1233 19.562 56.2984 20.8672C57.4863 29.6977 58.4957 49.4223 58.5766 52.0151C58.6703 55.0508 58.3739 58.2605 58.8456 59.8859C59.1252 60.8502 59.6731 61.3432 60.4798 61.3133C60.8408 61.3088 61.1513 61.1419 61.386 60.7867C61.6036 60.4559 61.759 59.902 61.8373 59.1782C62.1009 56.7329 61.5909 52.1169 61.4232 48.5243C61.2953 45.796 61.5937 34.1346 61.3477 28.1058C61.233 25.2756 60.9193 23.342 63.2466 21.2018C64.1138 20.3987 65.237 20.0595 66.2884 20.0839C67.728 20.1169 68.6727 20.8705 69.2742 21.873C69.9202 22.9511 70.1845 24.3076 70.2285 25.4487C70.5274 33.0721 71.4227 58.6188 71.4226 60.8323C71.4223 61.8437 71.811 62.3972 72.2472 62.6745C72.742 62.9907 73.3513 62.977 73.8095 62.777C74.2787 62.5718 74.568 62.1779 74.5679 61.7805C74.5683 61.7773 74.5686 61.7751 74.5679 61.7717C74.5679 61.7717 74.4989 57.777 74.3588 51.9896C74.2905 49.1319 74.3829 42.059 74.5677 36.801C74.6044 35.7586 74.8965 34.3349 75.5813 33.1943C76.2144 32.14 77.1972 31.3275 78.6725 31.4054C80.0824 31.48 81.0257 32.2885 81.6684 33.4267C82.7294 35.308 82.9947 38.0548 83.0115 40.29C83.0461 44.9642 82.1738 56.3407 82.5715 63.7557C82.5721 63.7602 82.5727 63.7646 82.5721 63.769C82.5721 63.769 83.7251 77.7541 82.5738 88.2853C81.4235 98.8089 78.1996 109.024 78.1996 109.024C78.1794 109.09 78.1729 109.157 78.1815 109.225L79.6173 121.237C74.2842 126.733 67.4357 127.502 61.9049 126.901C57.0645 126.374 53.2215 124.797 52.2394 124.366Z" fill="#4F4F4F"/>
<path fill-rule="evenodd" clip-rule="evenodd" d="M52.2179 124.386L50.0556 110.099C50.0253 109.908 49.8821 109.748 49.6868 109.693C49.6868 109.693 48.4379 109.334 47.3925 108.621C46.2783 107.861 34.7622 100.875 32.1294 99.1184C29.5407 97.3856 25.6424 92.2083 23.2407 89.0548C21.7716 87.1202 17.2296 83.7386 13.5596 80.994C11.1964 79.2272 9.20195 77.7382 8.72601 77.096C8.36562 76.6136 7.97211 76.1366 7.65849 75.6464C7.33936 75.1509 7.09734 74.6476 7.11109 74.1076C7.12485 73.5755 7.39717 73.0223 8.03542 72.4063C9.02031 71.4521 10.4179 71.038 12.1951 71.0982C14.0906 71.1612 16.3987 71.7562 19.103 72.8414C23.535 74.6188 30.0744 79.796 32.8915 81.3925C33.4775 81.7228 33.9369 81.9063 34.2148 81.9325C34.5284 81.9613 34.7402 81.8591 34.875 81.7149C35.6618 80.8839 36.8063 79.5626 37.1722 75.3448C37.6536 69.798 37.2244 64.5055 37.0429 62.4739C36.7127 58.7541 35.5188 39.6599 35.406 32.9334C35.362 30.3278 35.3784 28.4088 35.5765 26.9513C35.8516 24.9276 36.4761 23.8477 37.8627 23.0272C40.091 21.7165 41.3951 21.9944 42.1352 22.5737C43.0018 23.2526 43.541 24.33 43.9014 25.6276C44.4791 27.709 44.5782 30.3434 44.6222 32.949C44.7157 38.6715 45.2438 53.949 46.3167 59.8288C46.5203 60.9429 46.757 61.7373 46.9963 62.12C47.2192 62.4712 47.5026 62.5918 47.7392 62.5918C48.017 62.5918 48.3059 62.4372 48.4902 62.0597C48.8093 61.3991 48.8533 59.6794 48.768 58.9979C48.6745 58.2088 48.6168 23.0009 48.7708 20.5159C48.8644 19.1134 49.2576 17.918 49.8134 17.0661C50.149 16.5523 50.5398 16.1696 50.9552 15.973C52.0336 15.4749 54.1023 15.1839 55.4586 16.9665C55.5576 17.1002 55.643 17.3859 55.742 17.7896C55.9236 18.5184 56.1023 19.5799 56.2784 20.8854C57.4669 29.7169 58.4739 49.4429 58.5564 52.0354C58.6499 55.071 58.3527 58.2796 58.8232 59.9049C59.1038 60.8695 59.654 61.3624 60.4601 61.3336C60.8205 61.3283 61.1286 61.1605 61.3652 60.8066C61.5826 60.4737 61.7394 59.9207 61.8164 59.1972C62.0806 56.7514 61.5688 52.1351 61.401 48.5438C61.2744 45.8149 61.5715 34.1549 61.3267 28.1257C61.2111 25.2946 60.8975 23.3601 63.2249 21.221C64.0915 20.4189 65.2167 20.0781 66.2676 20.1017C67.7064 20.1357 68.6528 20.8907 69.2526 21.8921C69.8991 22.9721 70.1632 24.3274 70.2073 25.4677C70.5071 33.0907 71.4012 58.6388 71.4012 60.8513C71.4012 61.8631 71.7891 62.4162 72.2265 62.694C72.7217 63.0086 73.3297 62.9955 73.7892 62.7963C74.2569 62.5919 74.5484 62.1959 74.5484 61.8001C74.5484 61.7975 74.5485 61.7949 74.5457 61.7923C74.5457 61.7923 74.4769 57.7973 74.3394 52.0093C74.2706 49.152 74.3614 42.0794 74.5457 36.8208C74.5842 35.7775 74.8758 34.3542 75.5609 33.2139C76.1936 32.1601 77.1757 31.3475 78.6503 31.4261C80.0616 31.4995 81.0053 32.3069 81.6463 33.4472C82.7082 35.3268 82.9722 38.0739 82.9915 40.3099C83.0245 44.9839 82.1524 56.3608 82.5513 63.7741C82.5513 63.7793 82.5513 63.7845 82.5513 63.7871C82.5513 63.7871 83.704 77.7724 82.5541 88.3051C81.4014 98.8274 78.1799 109.043 78.1799 109.043C78.1579 109.108 78.1523 109.177 78.1606 109.245L79.5967 121.256C74.2623 126.753 67.4148 127.521 61.8824 126.921C57.0432 126.394 53.2 124.816 52.2179 124.386Z" fill="#BDBDBD"/>
<path fill-rule="evenodd" clip-rule="evenodd" d="M7.13851 73.7145C7.10275 73.8482 7.0835 73.9792 7.08075 74.1077C7.06699 74.6477 7.30901 75.151 7.62814 75.6465C7.94176 76.1367 8.33527 76.6137 8.69566 77.096C9.1716 77.7383 11.1661 79.2273 13.5293 80.9941C17.1992 83.7387 21.7412 87.1203 23.2103 89.0549C25.612 92.2084 29.5103 97.3857 32.0991 99.1184C34.7319 100.875 46.2479 107.861 47.3621 108.621C48.4075 109.334 49.6565 109.693 49.6565 109.693C49.8518 109.748 49.995 109.908 50.0252 110.099L52.1875 124.386C53.1697 124.816 57.0129 126.394 61.8521 126.921C66.7407 127.45 72.6556 126.913 77.6461 122.989C74.1192 124.195 68.639 125.859 64.6197 126.119C58.2069 126.528 55.0569 124.396 54.2564 122.643C53.4448 120.886 52.1628 110.883 52.1628 110.883C52.1628 110.883 53.9565 110.805 53.9675 110.907C53.9813 111.009 56.9607 110.406 56.9882 110.498C57.0157 110.603 60.4849 108.776 60.4849 108.776L62.7241 107.082C62.7241 107.082 63.7394 106.272 64.009 105.714C64.2814 105.155 64.5123 103.069 64.5123 103.069C64.5123 103.069 60.2703 106.676 58.5536 107.292C56.8397 107.905 51.2632 107.268 47.1833 106.005C43.098 104.757 36.4925 99.8 34.6741 98.3661C32.8694 96.9322 27.4663 91.4298 26.0302 89.4009C24.5969 87.3562 18.7343 81.9509 18.7343 81.9509C18.7343 81.9509 13.3505 80.5459 10.902 78.0818C9.31467 76.4827 7.91982 74.7394 7.13851 73.7145ZM37.2162 65.195C37.373 67.7927 37.4747 71.5072 37.1419 75.3449C36.7815 79.5024 35.6645 80.8446 34.8777 81.6782C35.1198 81.7333 35.4307 81.7909 35.8296 81.8486C37.3427 82.0767 40.6385 81.2745 40.6385 81.2745C40.6385 81.2745 41.6068 77.914 40.3138 72.6712C39.505 69.4049 38.1323 66.7363 37.2162 65.195ZM81.4756 33.2087C80.8401 32.1968 79.9323 31.4944 78.62 31.4262C78.2981 31.4079 77.9982 31.434 77.7204 31.4943C76.9583 31.8089 76.3476 32.2257 75.8524 32.7422C75.7368 32.8916 75.6296 33.0488 75.5305 33.214C74.8455 34.3543 74.5539 35.7776 74.5154 36.8209C74.3311 42.0794 74.2403 49.1521 74.3091 52.0094C74.4466 57.7974 74.5154 61.7924 74.5154 61.7924C74.5181 61.795 74.5181 61.7976 74.5181 61.8002C74.5181 61.8972 74.4988 61.9942 74.4658 62.0886C74.4741 62.2327 74.4823 62.3769 74.4905 62.5211L77.8002 64.0153C77.8002 64.0153 75.6323 60.0832 75.5497 57.4959C75.4755 54.8928 76.0477 53.5926 76.0477 53.5926C76.0477 53.5926 75.0435 51.6764 74.8344 48.9371C74.6171 46.0981 75.5497 43.8096 75.5497 43.8096C75.5497 43.8096 75.2417 40.0165 76.1771 35.4789C76.7245 32.8339 78.8868 32.0265 81.4756 33.2087ZM42.3689 22.8017C42.2836 22.7231 42.1956 22.6472 42.1048 22.5738C41.3648 21.9944 40.0607 21.7166 37.8323 23.0273C36.4458 23.8477 35.8213 24.9277 35.5462 26.9514C35.3481 28.4089 35.3317 30.3278 35.3757 32.9335C35.4857 39.5184 36.6328 57.9573 36.9905 62.2196L38.7044 62.3377C38.7044 62.3377 37.2327 54.9008 37.1804 52.3816C37.1309 49.8467 37.1804 45.7364 37.1804 45.7364C37.1804 45.7364 36.223 41.7624 36.3165 39.0938C36.4156 36.2365 37.0676 34.5142 37.0676 34.5142C37.0676 34.5142 36.0249 32.3462 37.0923 28.2909C37.7663 25.7455 39.8902 22.571 42.3689 22.8017ZM54.8754 16.3793C53.5576 15.26 51.8657 15.5405 50.9248 15.973C50.5094 16.1696 50.1187 16.5524 49.783 17.0661C49.2273 17.9181 48.834 19.1135 48.7405 20.5159C48.5864 23.001 48.6441 58.2089 48.7377 58.9979C48.8147 59.6166 48.7871 61.0925 48.5395 61.8527L50.6359 62.0545C50.6359 62.0545 49.2823 53.784 49.2273 51.2648C49.1805 48.7326 49.6483 42.9236 49.6483 42.9236C49.6483 42.9236 49.1008 39.7385 48.9275 37.0726C48.7459 34.3122 49.6483 29.9189 49.6483 29.9189C49.6483 29.9189 48.6194 25.625 49.5603 21.2001C50.094 18.6914 52.3719 16.1119 54.8754 16.3793ZM68.9444 21.4805C68.342 20.6889 67.4725 20.1306 66.2373 20.1017C65.1864 20.0781 64.0612 20.4189 63.1946 21.2211C60.8671 23.3601 61.1808 25.2947 61.2963 28.1258C61.5412 34.155 61.2441 45.815 61.3706 48.5439C61.5384 52.1352 62.0502 56.7515 61.7861 59.1972C61.7476 59.5642 61.687 59.8866 61.61 60.1593L64.8783 61.6351C64.8783 61.6351 63.2056 57.475 63.1231 54.8877C63.0461 52.2846 63.1231 44.9577 63.1231 44.9577C63.1231 44.9577 62.5179 41.5133 62.3088 38.7714C62.0915 35.935 62.9882 31.5991 62.9882 31.5991C62.9882 31.5991 62.1877 30.915 63.1231 26.3773C63.6541 23.8005 66.2319 21.1686 68.9444 21.4805Z" fill="#828282"/>
<path d="M82.2138 43.3307C82.3474 43.3185 82.4509 43.2123 82.4431 43.0972C82.4306 42.971 82.3191 42.8723 82.1862 42.8832L75.4718 43.2224C75.3476 43.2184 75.244 43.3246 75.2554 43.4512C75.2547 43.5811 75.3627 43.6682 75.5002 43.6686L82.2138 43.3307Z" fill="#4F4F4F"/>
<path d="M82.0905 53.2181C82.2194 53.2081 82.3087 53.1042 82.2988 52.9824C82.2994 52.8538 82.1837 52.7572 82.0559 52.7667L75.6189 53.2254C75.49 53.2354 75.4007 53.3393 75.4112 53.4621C75.4227 53.5844 75.5367 53.6805 75.6656 53.6705L82.0905 53.2181Z" fill="#4F4F4F"/>
<path d="M82.1678 64.5975C82.2506 64.6209 82.3337 64.4916 82.3536 64.3423C82.3705 64.1774 82.3042 64.0399 82.2124 64.0232C82.2124 64.0232 80.0598 63.7513 78.0497 63.5091C76.083 63.2866 74.7084 62.323 74.7056 62.3087C74.6281 62.2638 74.5251 62.3397 74.4942 62.4808C74.4542 62.6287 74.4887 62.8059 74.5663 62.8509C74.5773 62.859 75.9868 63.8473 78.0052 64.0834C79.9832 64.3153 82.1588 64.6042 82.1678 64.5975Z" fill="#4F4F4F"/>
<path d="M70.2215 62.3005C70.3592 62.3018 70.4719 62.1591 70.4736 61.9999C70.4609 61.8406 70.3522 61.7278 70.2145 61.7264C70.2 61.7263 66.8879 61.9321 65.1829 61.4376C63.4502 60.926 62.0796 60.2266 62.0796 60.2266C61.9559 60.1612 61.8042 60.2239 61.7471 60.3672C61.69 60.5104 61.7569 60.6857 61.8806 60.7511C61.8806 60.7511 63.2931 61.4816 65.0535 61.9948C66.8404 62.5223 70.2215 62.3005 70.2215 62.3005Z" fill="#4F4F4F"/>
<path d="M70.8231 45.562C70.9567 45.5633 71.0657 45.4552 71.0803 45.2998C71.082 45.1443 70.9898 45.0028 70.8563 45.0015C70.8434 45.0013 67.288 44.7175 66.3785 44.6293C64.534 44.4404 63.1298 44.4892 63.1298 44.4892C62.9962 44.4878 62.8871 44.6109 62.8982 44.7666C62.8965 44.9222 63.0029 45.0488 63.1365 45.0501C63.1365 45.0501 64.5277 45.0162 66.3326 45.1898C68.952 45.4506 70.8103 45.5619 70.8231 45.562Z" fill="#4F4F4F"/>
<path d="M70.1945 31.7607C70.3427 31.7488 70.4623 31.6244 70.4495 31.4854C70.4353 31.3598 70.3183 31.2477 70.1701 31.2596C70.1558 31.2595 66.9792 31.4374 65.7178 31.5638C64.4851 31.677 62.9886 31.5646 62.9886 31.5646C62.8407 31.5485 62.7058 31.6447 62.6887 31.7834C62.6872 31.9223 62.7898 32.0488 62.9391 32.0503C62.9534 32.0504 64.4939 32.1779 65.7863 32.0653C67.0334 31.9388 70.1945 31.7607 70.1945 31.7607Z" fill="#4F4F4F"/>
<path d="M56.6192 29.6335C56.7572 29.6133 56.8469 29.4911 56.8213 29.3668C56.7945 29.2423 56.6554 29.1578 56.5178 29.1769C56.5178 29.1769 53.7843 29.6188 51.7624 29.5335C49.6547 29.4416 49.5068 29.4457 49.5068 29.4457C49.3608 29.4376 49.2462 29.5413 49.2451 29.6592C49.254 29.7933 49.3599 29.8963 49.5047 29.9041C49.5047 29.9041 49.7527 29.9111 51.7603 29.9919C53.8414 30.0775 56.6047 29.63 56.6192 29.6335Z" fill="#4F4F4F"/>
<path d="M57.4766 41.9792C57.6075 41.9106 57.6632 41.7289 57.6096 41.588C57.5511 41.4629 57.4074 41.4004 57.275 41.4701C57.275 41.4701 56.2031 42.1166 53.1603 42.2865C50.1031 42.4535 49.9591 42.326 49.9591 42.326C49.842 42.2691 49.683 42.3333 49.62 42.4809C49.5569 42.6286 49.6083 42.7846 49.7254 42.8415C49.7254 42.8415 49.9869 43.0245 53.1466 42.8466C56.3195 42.6714 57.4766 41.9792 57.4766 41.9792Z" fill="#4F4F4F"/>
<path d="M57.9622 60.7915C58.022 60.6406 57.9837 60.4716 57.8503 60.4145C57.7187 60.342 57.5732 60.4133 57.5033 60.5453C57.5033 60.5453 57.1068 61.4296 54.6846 61.6335C52.1005 61.839 49.2501 61.72 49.2354 61.7173C49.0923 61.7081 48.9656 61.8311 48.9488 61.9899C48.9441 62.1509 49.0483 62.2836 49.1912 62.2943C49.1912 62.2943 52.0995 62.4224 54.6856 62.2003C57.4147 61.9888 57.9487 60.789 57.9622 60.7915Z" fill="#4F4F4F"/>
<path d="M46.5323 61.2683C46.6559 61.2255 46.7186 61.0905 46.688 60.9686C46.6575 60.8467 46.537 60.7849 46.4124 60.8271C46.4124 60.8271 43.828 61.7581 41.7529 61.8609C39.6624 61.969 37.3997 61.702 37.3997 61.702C37.2701 61.6806 37.1489 61.7696 37.1153 61.9037C37.0882 62.0265 37.1579 62.1539 37.2955 62.1635C37.2955 62.1635 39.608 62.4414 41.7286 62.3328C43.8768 62.2238 46.5153 61.2741 46.5323 61.2683Z" fill="#4F4F4F"/>
<path d="M45.0106 45.9495C45.1374 45.9135 45.2185 45.7959 45.1864 45.6644C45.1606 45.5501 45.0255 45.4668 44.8987 45.5028C44.8863 45.4965 42.8024 45.9847 40.6979 46.0011C38.5636 46.0161 37.0095 45.8096 37.0095 45.8096C36.8721 45.7821 36.7436 45.8753 36.734 46.0005C36.7126 46.1184 36.8104 46.2419 36.9359 46.2621C36.942 46.2514 38.5194 46.4685 40.7019 46.4504C42.8789 46.4422 44.9993 45.9437 45.0106 45.9495Z" fill="#4F4F4F"/>
<path d="M44.602 33.3615C44.7512 33.3325 44.8364 33.2099 44.8118 33.0772C44.7884 32.9451 44.6415 32.8552 44.4993 32.8719C44.493 32.8832 41.2689 33.3991 39.5574 33.4246C37.8272 33.455 36.3691 33.2647 36.3691 33.2647C36.2279 33.2516 36.0982 33.3354 36.0831 33.4795C36.0756 33.6102 36.1765 33.7227 36.3102 33.7465C36.3236 33.7534 37.8128 33.9451 39.5831 33.905C41.3459 33.8755 44.5897 33.3552 44.602 33.3615Z" fill="#4F4F4F"/>
<path d="M75.1697 91.9068C75.249 91.9965 75.4104 92.007 75.5046 91.9315C75.5987 91.8559 75.6179 91.7172 75.5308 91.6114C75.5096 91.5922 66.6825 81.536 60.3462 77.0112C54.0096 72.4874 44.5363 68.3764 44.5113 68.3687C44.3907 68.3191 44.2502 68.3678 44.1982 68.4827C44.1462 68.5975 44.1973 68.7314 44.3047 68.777C44.3429 68.7887 53.7779 72.888 60.0601 77.3698C66.3557 81.8546 75.1393 91.8722 75.1697 91.9068Z" fill="#4F4F4F"/>
<path d="M63.9839 102.981C64.0115 103.109 64.1502 103.189 64.2861 103.179C64.4361 103.172 64.5398 103.059 64.5121 102.93C64.5028 102.891 62.1635 88.7899 58.4589 82.4063C54.7452 75.9721 41.3323 70.6628 41.2901 70.6457C41.1482 70.5915 40.9934 70.6358 40.9335 70.7542C40.8738 70.8605 40.945 71.0065 41.0728 71.0591C41.1165 71.0643 54.3578 76.3159 57.9866 82.5892C61.6539 88.9178 63.9734 102.941 63.9839 102.981Z" fill="#4F4F4F"/>
<path d="M41.077 81.4588C41.1809 81.3709 41.185 81.2327 41.0928 81.1338C41.0114 81.0493 40.8666 81.0442 40.7642 81.1201C40.4073 81.4301 39.1138 81.6411 37.747 81.7048C36.3246 81.7884 34.8579 81.7148 34.3361 81.4647C34.2255 81.401 34.0877 81.4474 34.022 81.553C33.9676 81.6599 34.0022 81.8016 34.127 81.8549C34.7088 82.1495 36.2785 82.2474 37.7799 82.1611C39.2284 82.0818 40.6319 81.8331 41.077 81.4588Z" fill="#4F4F4F"/>
<path d="M24.375 76.2275C24.4527 76.1366 24.4318 75.9954 24.3353 75.9213C24.2261 75.8456 24.0791 75.8656 24.0013 75.9576L19.359 81.8168C19.2796 81.9207 19.3006 82.0608 19.4097 82.1365C19.5052 82.2105 19.6533 82.1906 19.7327 82.0867L24.375 76.2275Z" fill="#4F4F4F"/>
<path d="M79.6475 104.162C79.7727 104.114 79.8291 103.983 79.7773 103.875C79.727 103.756 79.6021 103.704 79.4769 103.752C79.4644 103.75 76.7981 104.779 73.4395 105.148C70.0948 105.506 68.6002 104.939 68.6002 104.939C68.4736 104.899 68.3332 104.958 68.2909 105.078C68.2513 105.187 68.3126 105.319 68.439 105.36C68.439 105.36 70.0487 105.965 73.4864 105.593C76.9115 105.22 79.6475 104.162 79.6475 104.162Z" fill="#4F4F4F"/>
<path d="M64.394 106.138C64.4853 106.048 64.4895 105.91 64.3956 105.824C64.3019 105.737 64.1553 105.745 64.0651 105.834C64.0514 105.833 60.7097 109.108 57.1268 109.575C53.5018 110.063 49.5555 109.784 49.5429 109.782C49.4117 109.779 49.294 109.866 49.2916 109.991C49.2754 110.115 49.3797 110.227 49.511 110.231C49.5235 110.232 53.5097 110.516 57.2011 110.024C60.93 109.535 64.3923 106.151 64.394 106.138Z" fill="#4F4F4F"/>
<path d="M80.5406 78.2558C80.6731 78.2583 80.7791 78.1454 80.7685 78.0319C80.771 77.9067 80.6664 77.8051 80.5339 77.8026C80.4937 77.81 69.3458 78.1358 60.9871 73.7654C52.6267 69.4068 48.8868 63.5089 48.8747 63.4953C48.8102 63.3875 48.6701 63.3456 48.5553 63.42C48.441 63.4813 48.4107 63.6164 48.4752 63.7242C48.4873 63.7378 52.2803 69.7422 60.7638 74.166C69.2348 78.5882 80.5156 78.2528 80.5406 78.2558Z" fill="#4F4F4F"/>
</g>
<mask id="mask1" mask-type="alpha" maskUnits="userSpaceOnUse" x="29" y="10" width="65" height="65">
<rect x="29" y="10" width="65" height="65" rx="5" fill="#C4C4C4"/>
</mask>
<g mask="url(#mask1)">
<path fill-rule="evenodd" clip-rule="evenodd" d="M60.4505 60.1832L60.4447 60.1836C60.2671 60.19 60.1452 60.0966 60.0502 59.9481C59.8778 59.6753 59.7822 59.2744 59.7155 58.7848C59.4865 57.0776 59.7025 54.4146 59.6223 51.8779C59.5413 49.2851 58.5196 29.5553 57.3232 20.7236C57.1106 19.1478 56.8892 17.9134 56.6694 17.1719C56.5548 16.7841 56.4286 16.5113 56.3123 16.3581C54.5587 14.06 51.894 14.4127 50.4974 15.055C49.1495 15.6866 47.9086 17.7026 47.7279 20.4147C47.5745 22.9084 47.6502 58.1692 47.7445 58.9606C47.7973 59.3794 47.8025 60.2601 47.699 60.9293C47.5828 60.5622 47.4723 60.0806 47.3672 59.5052C46.2969 53.6732 45.7721 38.5289 45.6757 32.8583C45.6311 30.1733 45.5158 27.4623 44.9174 25.3185C44.4931 23.7978 43.821 22.555 42.8017 21.7583C41.8536 21.0184 40.1657 20.4574 37.3088 22.1317C35.9203 22.9505 35.1422 23.9711 34.7314 25.6925C34.352 27.2882 34.3022 29.5286 34.3594 32.8702C34.4757 39.5922 35.6813 58.6744 36.0131 62.391C36.1922 64.3918 36.6207 69.598 36.1471 75.0584C35.8365 78.632 34.9478 79.916 34.2491 80.6826C34.0873 80.6207 33.7439 80.4801 33.4468 80.3133C30.6043 78.7081 23.9944 73.5096 19.521 71.7211C16.6711 70.5804 14.2364 69.9683 12.2376 69.9028C10.1193 69.832 8.46951 70.3686 7.29642 71.5026C6.54461 72.2245 6.19842 72.9023 6.09925 73.538C5.98142 74.29 6.20905 74.9984 6.60748 75.6821C6.95659 76.2831 7.44096 76.8661 7.87981 77.4524C8.37594 78.1224 10.4466 79.6998 12.9245 81.5482C16.5145 84.2252 20.9739 87.5021 22.4112 89.3897C24.875 92.6115 28.8994 97.8835 31.5534 99.6573C34.1872 101.409 45.7046 108.373 46.819 109.131C47.6586 109.701 48.6144 110.072 49.1011 110.24L51.2654 124.448C51.2906 124.609 51.3971 124.749 51.5505 124.822C51.5505 124.822 55.9837 126.927 61.8143 127.562C67.687 128.2 74.961 127.347 80.5867 121.434C80.6882 121.328 80.7358 121.186 80.7184 121.044L79.2625 108.943C79.5962 107.865 82.5479 98.1615 83.6382 88.1817C84.7779 77.7523 83.662 63.9491 83.6302 63.5646C83.231 56.1858 84.1007 44.8685 84.063 40.2178C84.0447 37.8354 83.7268 34.915 82.5914 32.9095C81.7698 31.4581 80.5321 30.4665 78.7291 30.3705C76.8033 30.2686 75.4958 31.2814 74.6697 32.6518C73.8966 33.9353 73.5605 35.536 73.5195 36.7086C73.3352 41.9706 73.2455 49.049 73.316 51.9083C73.4523 57.4497 73.523 61.3428 73.5282 61.6309C73.5174 61.6428 73.4813 61.6802 73.4547 61.6979C73.3904 61.7386 73.3104 61.7675 73.2254 61.7816C72.8417 61.8437 72.4786 61.5439 72.4776 60.7021C72.4771 58.493 71.5718 32.995 71.2686 25.385C71.2178 24.1017 70.9059 22.5778 70.1747 21.3631C69.3978 20.0728 68.1643 19.1202 66.3026 19.0764C64.9878 19.0469 63.5871 19.4725 62.5058 20.4704C59.9148 22.8433 60.1612 24.9652 60.2909 28.1058C60.539 34.1191 60.2456 45.7494 60.3733 48.4706C60.5408 52.0031 61.0564 56.5426 60.7967 58.9479C60.7478 59.402 60.6755 59.7698 60.5556 60.0245C60.5318 60.0743 60.5063 60.1185 60.4774 60.1546C60.4704 60.1636 60.4585 60.1754 60.4505 60.1832ZM52.2626 124.042L50.0927 109.797C50.0633 109.605 49.9199 109.447 49.7249 109.392C49.7249 109.392 48.4739 109.033 47.4286 108.321C46.3142 107.563 34.7903 100.596 32.1555 98.843C29.5662 97.1131 25.664 91.9499 23.2604 88.8066C21.7906 86.8757 17.2443 83.5039 13.5711 80.7645C11.2068 79.002 9.20937 77.5188 8.7349 76.8777C8.37481 76.3961 7.98173 75.9194 7.66644 75.4311C7.34731 74.9368 7.10312 74.4349 7.11677 73.8966C7.13057 73.366 7.4035 72.8156 8.04292 72.2022C9.02817 71.25 10.4248 70.8382 12.2014 70.8972C14.0987 70.9605 16.4086 71.5556 19.1147 72.6387C23.5496 74.4116 30.0932 79.5781 32.911 81.1683C33.4987 81.5002 33.9581 81.6808 34.2365 81.7083C34.5482 81.7375 34.7614 81.6354 34.8958 81.4911C35.6822 80.6636 36.8272 79.3462 37.1914 75.1404C37.6709 69.6094 37.2385 64.3347 37.0583 62.3074C36.7265 58.5996 35.5243 39.5617 35.4073 32.8549C35.3628 30.2566 35.3791 28.3436 35.5773 26.8879C35.8509 24.8715 36.4758 23.7943 37.8617 22.9774C40.0916 21.6711 41.3947 21.9484 42.1363 22.5267C43.0035 23.2044 43.5427 24.2789 43.9042 25.5727C44.4838 27.6485 44.5847 30.2743 44.6279 32.8736C44.7246 38.5771 45.2586 53.8103 46.3339 59.6747C46.537 60.783 46.7741 61.5781 47.0148 61.9567C47.2379 62.3101 47.5206 62.4281 47.7587 62.4278C48.0348 62.4286 48.3252 62.2754 48.5083 61.8998C48.8291 61.2398 48.8704 59.5252 48.7867 58.847C48.6918 58.0599 48.6221 22.9568 48.7738 20.476C48.8672 19.0791 49.2611 17.8858 49.8153 17.0395C50.1516 16.5262 50.5423 16.1445 50.9585 15.9491C52.0378 15.4536 54.1063 15.1619 55.462 16.94C55.5626 17.0726 55.6467 17.358 55.7478 17.7607C55.9291 18.4877 56.1084 19.5482 56.284 20.8496C57.4758 29.6544 58.493 49.3212 58.575 51.9064C58.6698 54.9332 58.3745 58.1333 58.8471 59.7541C59.1272 60.7156 59.6754 61.2074 60.4825 61.1779C60.8436 61.1735 61.1542 61.0072 61.3888 60.6531C61.6063 60.3233 61.7616 59.7711 61.8397 59.0495C62.1025 56.6116 61.5905 52.0089 61.4214 48.4269C61.2924 45.7066 61.5865 34.0797 61.3381 28.0685C61.2223 25.2466 60.9078 23.3186 63.2352 21.1855C64.1024 20.3851 65.2259 20.0473 66.2777 20.072C67.7179 20.1054 68.6633 20.8571 69.2655 21.8568C69.9121 22.932 70.177 24.2846 70.2214 25.4223C70.5234 33.0233 71.4287 58.4951 71.4295 60.702C71.4295 61.7105 71.8186 62.2624 72.2551 62.5391C72.7501 62.8545 73.3598 62.8411 73.818 62.6419C74.2873 62.4374 74.5766 62.0447 74.5763 61.6486C74.5767 61.6453 74.577 61.6432 74.5763 61.6398C74.5763 61.6398 74.5058 57.6568 74.3635 51.8864C74.294 49.0371 74.3838 41.9851 74.5667 36.7427C74.603 35.7034 74.8946 34.2839 75.5793 33.1469C76.2123 32.096 77.1951 31.2862 78.671 31.3644C80.0815 31.4392 81.0256 32.2457 81.669 33.3808C82.7311 35.2569 82.9975 37.9956 83.0151 40.2243C83.0515 44.8847 82.1832 56.2274 82.5839 63.6206C82.5845 63.6251 82.5851 63.6296 82.5845 63.6339C82.5845 63.6339 83.7432 77.5782 82.5955 88.0779C81.4487 98.5701 78.2274 108.754 78.2274 108.754C78.2073 108.82 78.2008 108.887 78.2094 108.954L79.6503 120.931C74.3172 126.41 67.4662 127.174 61.933 126.573C57.0904 126.045 53.2453 124.472 52.2626 124.042Z" fill="#EE7869"/>
<path fill-rule="evenodd" clip-rule="evenodd" d="M52.2008 124.038L50.0374 109.795C50.0072 109.604 49.8639 109.445 49.6685 109.39C49.6685 109.39 48.419 109.032 47.373 108.321C46.2583 107.563 34.7366 100.598 32.1025 98.8474C29.5125 97.1199 25.6123 91.9584 23.2094 88.8144C21.7396 86.8857 17.1954 83.5144 13.5236 80.7781C11.1593 79.0167 9.16381 77.5322 8.68764 76.8919C8.32707 76.4111 7.93337 75.9355 7.61959 75.4468C7.30031 74.9528 7.05817 74.451 7.07193 73.9127C7.08569 73.3821 7.35814 72.8306 7.9967 72.2165C8.98208 71.2652 10.3803 70.8523 12.1584 70.9125C14.0548 70.9752 16.3641 71.5684 19.0697 72.6504C23.5039 74.4223 30.0465 79.5838 32.865 81.1754C33.4512 81.5047 33.9109 81.6876 34.1889 81.7138C34.5027 81.7425 34.7146 81.6406 34.8495 81.4968C35.6367 80.6684 36.7817 79.3511 37.1478 75.1461C37.6294 69.6161 37.2 64.3397 37.0183 62.3143C36.6881 58.6059 35.4936 39.5697 35.3807 32.8636C35.3367 30.2659 35.3531 28.3528 35.5513 26.8997C35.8265 24.8822 36.4513 23.8055 37.8386 22.9875C40.068 21.6808 41.3728 21.9578 42.1132 22.5354C42.9802 23.2123 43.5196 24.2863 43.8802 25.58C44.4582 27.655 44.5573 30.2815 44.6014 32.8792C44.695 38.5843 45.2233 53.8154 46.2968 59.6773C46.5005 60.788 46.7372 61.5799 46.9767 61.9615C47.1996 62.3117 47.4832 62.4318 47.7199 62.4318C47.9979 62.4318 48.2869 62.2777 48.4713 61.9014C48.7906 61.2428 48.8346 59.5283 48.7492 58.8488C48.6557 58.0622 48.5979 22.9613 48.7521 20.4838C48.8456 19.0856 49.2391 17.8939 49.7951 17.0445C50.1309 16.5323 50.5219 16.1507 50.9375 15.9547C52.0164 15.4582 54.0862 15.1681 55.4431 16.9452C55.5422 17.0785 55.6276 17.3634 55.7267 17.7659C55.9083 18.4924 56.0872 19.5507 56.2633 20.8522C57.4524 29.6568 58.4599 49.3229 58.5424 51.9076C58.636 54.9339 58.3387 58.1328 58.8093 59.7531C59.0901 60.7148 59.6406 61.2062 60.4471 61.1774C60.8077 61.1722 61.1159 61.0049 61.3526 60.6521C61.5701 60.3202 61.727 59.7688 61.8041 59.0475C62.0683 56.6092 61.5563 52.0069 61.3884 48.4265C61.2618 45.706 61.559 34.0814 61.3141 28.0705C61.1985 25.248 60.8847 23.3194 63.2132 21.1868C64.0802 20.3871 65.206 20.0473 66.2574 20.0709C67.697 20.1048 68.6438 20.8575 69.2439 21.8559C69.8907 22.9326 70.155 24.2838 70.199 25.4206C70.499 33.0204 71.3935 58.4909 71.3935 60.6966C71.3935 61.7054 71.7816 62.2568 72.2192 62.5338C72.7147 62.8474 73.323 62.8344 73.7827 62.6358C74.2506 62.4319 74.5423 62.0372 74.5423 61.6426C74.5423 61.64 74.5423 61.6374 74.5396 61.6348C74.5396 61.6348 74.4708 57.652 74.3332 51.8815C74.2644 49.0329 74.3552 41.9818 74.5396 36.7392C74.5781 35.6991 74.8699 34.2801 75.5552 33.1432C76.1883 32.0926 77.1709 31.2825 78.6462 31.3609C80.0582 31.4341 81.0023 32.239 81.6436 33.3759C82.7061 35.2497 82.9702 37.9885 82.9895 40.2177C83.0225 44.8775 82.15 56.2198 82.5491 63.6106C82.5491 63.6158 82.5491 63.621 82.5491 63.6236C82.5491 63.6236 83.7024 77.5663 82.5519 88.067C81.3986 98.5573 78.1755 108.742 78.1755 108.742C78.1535 108.807 78.1479 108.875 78.1562 108.943L79.593 120.918C74.2561 126.398 67.4052 127.164 61.8701 126.565C57.0285 126.04 53.1834 124.467 52.2008 124.038Z" fill="#FBCD9A"/>
<path fill-rule="evenodd" clip-rule="evenodd" d="M7.10014 73.5207C7.06435 73.654 7.0451 73.7847 7.04234 73.9128C7.02858 74.4511 7.27072 74.9529 7.59 75.4469C7.90379 75.9356 8.29749 76.4112 8.65805 76.892C9.13422 77.5323 11.1297 79.0168 13.494 80.7782C17.1658 83.5145 21.71 86.8858 23.1798 88.8145C25.5827 91.9585 29.4829 97.12 32.073 98.8475C34.707 100.598 46.2287 107.563 47.3435 108.321C48.3894 109.032 49.6389 109.39 49.6389 109.39C49.8344 109.445 49.9776 109.604 50.0079 109.795L52.1712 124.038C53.1539 124.467 56.999 126.04 61.8405 126.565C66.7316 127.093 72.6494 126.558 77.6423 122.645C74.1136 123.847 68.6308 125.507 64.6095 125.766C58.1935 126.173 55.042 124.049 54.2411 122.3C53.4291 120.549 52.1465 110.577 52.1465 110.577C52.1465 110.577 53.9411 110.498 53.9521 110.6C53.9659 110.702 56.9468 110.101 56.9743 110.192C57.0018 110.297 60.4726 108.475 60.4726 108.475L62.713 106.787C62.713 106.787 63.7288 105.979 63.9985 105.423C64.271 104.866 64.5021 102.786 64.5021 102.786C64.5021 102.786 60.2579 106.382 58.5404 106.996C56.8256 107.608 51.2464 106.973 47.1646 105.713C43.0772 104.469 36.4686 99.5269 34.6492 98.0974C32.8436 96.6679 27.4378 91.1822 26.0011 89.1594C24.5671 87.121 18.7016 81.7321 18.7016 81.7321C18.7016 81.7321 13.3152 80.3314 10.8655 77.8747C9.27736 76.2806 7.88182 74.5426 7.10014 73.5207ZM37.1925 65.0271C37.3494 67.617 37.4512 71.3202 37.1182 75.1462C36.7576 79.2911 35.6401 80.6292 34.8529 81.4603C35.0952 81.5152 35.4062 81.5726 35.8053 81.6301C37.3191 81.8575 40.6165 81.0578 40.6165 81.0578C40.6165 81.0578 41.5853 77.7074 40.2917 72.4806C39.4825 69.2243 38.1091 66.5638 37.1925 65.0271ZM81.4736 33.1381C80.8378 32.1293 79.9295 31.4289 78.6166 31.361C78.2946 31.3427 77.9946 31.3688 77.7166 31.4289C76.9542 31.7425 76.3431 32.1581 75.8477 32.6729C75.7321 32.8219 75.6247 32.9787 75.5257 33.1433C74.8403 34.2801 74.5486 35.6992 74.51 36.7393C74.3256 41.9819 74.2348 49.033 74.3036 51.8816C74.4412 57.6521 74.51 61.6349 74.51 61.6349C74.5128 61.6375 74.5127 61.64 74.5127 61.6427C74.5127 61.7394 74.4935 61.8361 74.4604 61.9302C74.4687 62.0739 74.4769 62.2176 74.4852 62.3614L77.7964 63.8511C77.7964 63.8511 75.6275 59.9309 75.5449 57.3514C75.4706 54.7563 76.0431 53.46 76.0431 53.46C76.0431 53.46 75.0384 51.5497 74.8292 48.8186C74.6118 45.9883 75.5449 43.7068 75.5449 43.7068C75.5449 43.7068 75.2367 39.9252 76.1725 35.4013C76.7202 32.7644 78.8836 31.9594 81.4736 33.1381ZM42.3478 22.7627C42.2625 22.6843 42.1744 22.6086 42.0836 22.5355C41.3432 21.9579 40.0385 21.6809 37.809 22.9876C36.4218 23.8056 35.7969 24.8822 35.5217 26.8998C35.3235 28.3529 35.3071 30.266 35.3512 32.8637C35.4612 39.4286 36.6089 57.8114 36.9667 62.0608L38.6815 62.1785C38.6815 62.1785 37.2091 54.7642 37.1568 52.2527C37.1072 49.7255 37.1568 45.6276 37.1568 45.6276C37.1568 45.6276 36.1989 41.6657 36.2925 39.0053C36.3915 36.1566 37.0439 34.4396 37.0439 34.4396C37.0439 34.4396 36.0007 32.2782 37.0686 28.2352C37.7429 25.6976 39.8679 22.5327 42.3478 22.7627ZM54.8604 16.3598C53.542 15.2439 51.8492 15.5236 50.9079 15.9548C50.4923 16.1508 50.1013 16.5323 49.7655 17.0446C49.2096 17.8939 48.8161 19.0857 48.7225 20.4839C48.5684 22.9614 48.6261 58.0623 48.7197 58.8489C48.7967 59.4657 48.7692 60.9371 48.5214 61.695L50.6188 61.8962C50.6188 61.8962 49.2646 53.6508 49.2095 51.1393C49.1628 48.6147 49.6307 42.8234 49.6307 42.8234C49.6307 42.8234 49.083 39.6481 48.9096 36.9902C48.7279 34.2383 49.6307 29.8583 49.6307 29.8583C49.6307 29.8583 48.6014 25.5774 49.5427 21.166C50.0767 18.6649 52.3557 16.0933 54.8604 16.3598ZM68.9364 21.4455C68.3336 20.6563 67.4637 20.0997 66.2279 20.0709C65.1764 20.0474 64.0507 20.3872 63.1837 21.1869C60.8551 23.3194 61.1689 25.2481 61.2845 28.0706C61.5295 34.0815 61.2322 45.706 61.3588 48.4266C61.5267 52.007 62.0387 56.6093 61.7745 59.0476C61.736 59.4135 61.6754 59.7349 61.5983 60.0067L64.8682 61.4781C64.8682 61.4781 63.1947 57.3306 63.1122 54.7512C63.0351 52.156 63.1122 44.8514 63.1122 44.8514C63.1122 44.8514 62.5066 41.4175 62.2974 38.6838C62.08 35.8561 62.9772 31.5334 62.9772 31.5334C62.9772 31.5334 62.1763 30.8513 63.1122 26.3275C63.6434 23.7585 66.2225 21.1345 68.9364 21.4455Z" fill="#FAB88F"/>
<path d="M82.2114 43.2295C82.3451 43.2174 82.4486 43.1114 82.4408 42.9967C82.4283 42.8709 82.3167 42.7725 82.1838 42.7834L75.4661 43.1216C75.3418 43.1175 75.2382 43.2235 75.2496 43.3496C75.2489 43.4792 75.3569 43.566 75.4945 43.5664L82.2114 43.2295Z" fill="#EF8870"/>
<path d="M82.0889 53.0867C82.2179 53.0767 82.3072 52.9731 82.2973 52.8517C82.2979 52.7235 82.1822 52.6272 82.0543 52.6366L75.6142 53.094C75.4852 53.1039 75.3959 53.2075 75.4063 53.3299C75.4178 53.4518 75.5319 53.5477 75.6609 53.5378L82.0889 53.0867Z" fill="#EF8870"/>
<path d="M82.1668 64.4318C82.2495 64.4551 82.3327 64.3261 82.3526 64.1773C82.3695 64.0129 82.3031 63.8758 82.2113 63.8592C82.2113 63.8592 80.0577 63.5881 78.0466 63.3466C76.0789 63.1249 74.7036 62.1641 74.7008 62.15C74.6233 62.1051 74.5203 62.1808 74.4893 62.3215C74.4493 62.4689 74.4839 62.6456 74.5614 62.6905C74.5725 62.6986 75.9826 63.6838 78.002 63.9192C79.981 64.1504 82.1577 64.4384 82.1668 64.4318Z" fill="#EF8870"/>
<path d="M70.2149 62.1417C70.3527 62.1431 70.4654 62.0008 70.4672 61.8421C70.4544 61.6833 70.3457 61.5708 70.2079 61.5695C70.1934 61.5693 66.8797 61.7745 65.1738 61.2814C63.4403 60.7714 62.0691 60.0742 62.0691 60.0742C61.9453 60.0089 61.7935 60.0715 61.7364 60.2143C61.6792 60.3571 61.7462 60.5318 61.8699 60.5971C61.8699 60.5971 63.2832 61.3253 65.0444 61.837C66.8321 62.3629 70.2149 62.1417 70.2149 62.1417Z" fill="#EF8870"/>
<path d="M70.8163 45.4542C70.9499 45.4555 71.059 45.3478 71.0736 45.1928C71.0753 45.0377 70.983 44.8967 70.8494 44.8954C70.8365 44.8952 67.2794 44.6123 66.3695 44.5244C64.5241 44.336 63.1192 44.3846 63.1192 44.3846C62.9855 44.3833 62.8763 44.506 62.8875 44.6612C62.8858 44.8163 62.9922 44.9425 63.1259 44.9439C63.1259 44.9439 64.5177 44.9101 66.3235 45.0831C68.9442 45.3431 70.8034 45.4541 70.8163 45.4542Z" fill="#EF8870"/>
<path d="M70.1874 31.6945C70.3357 31.6826 70.4553 31.5587 70.4426 31.42C70.4284 31.2948 70.3113 31.1831 70.163 31.195C70.1487 31.1948 66.9705 31.3722 65.7085 31.4982C64.4752 31.6111 62.978 31.499 62.978 31.499C62.83 31.483 62.6951 31.5788 62.678 31.7171C62.6765 31.8556 62.7791 31.9817 62.9285 31.9832C62.9428 31.9834 64.484 32.1104 65.7771 31.9981C67.0248 31.872 70.1874 31.6945 70.1874 31.6945Z" fill="#EF8870"/>
<path d="M56.604 29.5735C56.742 29.5534 56.8318 29.4315 56.8062 29.3077C56.7793 29.1835 56.6402 29.0993 56.5025 29.1183C56.5025 29.1183 53.7677 29.5588 51.7449 29.4738C49.6361 29.3822 49.4881 29.3863 49.4881 29.3863C49.342 29.3782 49.2274 29.4816 49.2263 29.5992C49.2352 29.7328 49.3411 29.8355 49.486 29.8433C49.486 29.8433 49.7342 29.8503 51.7427 29.9308C53.8248 30.0161 56.5895 29.5701 56.604 29.5735Z" fill="#EF8870"/>
<path d="M57.4636 41.8821C57.5945 41.8137 57.6502 41.6327 57.5967 41.4921C57.5381 41.3674 57.3943 41.3051 57.2619 41.3746C57.2619 41.3746 56.1894 42.0191 53.1452 42.1886C50.0864 42.355 49.9424 42.228 49.9424 42.228C49.8252 42.1712 49.6662 42.2352 49.6031 42.3824C49.54 42.5296 49.5914 42.6851 49.7086 42.7419C49.7086 42.7419 49.9702 42.9243 53.1314 42.7469C56.3059 42.5722 57.4636 41.8821 57.4636 41.8821Z" fill="#EF8870"/>
<path d="M57.9487 60.6372C58.0086 60.4868 57.9702 60.3184 57.8367 60.2614C57.7051 60.1891 57.5596 60.2602 57.4896 60.3918C57.4896 60.3918 57.0929 61.2734 54.6695 61.4767C52.0842 61.6816 49.2324 61.563 49.2177 61.5603C49.0745 61.551 48.9477 61.6737 48.9309 61.832C48.9263 61.9925 49.0305 62.1249 49.1734 62.1355C49.1734 62.1355 52.0831 62.2632 54.6706 62.0418C57.4009 61.831 57.9353 60.6348 57.9487 60.6372Z" fill="#EF8870"/>
<path d="M46.5122 61.1122C46.6359 61.0696 46.6986 60.9349 46.668 60.8134C46.6374 60.6919 46.5169 60.6303 46.3922 60.6724C46.3922 60.6724 43.8066 61.6005 41.7305 61.703C39.639 61.8107 37.3752 61.5446 37.3752 61.5446C37.2455 61.5232 37.1242 61.612 37.0906 61.7457C37.0635 61.8681 37.1332 61.9951 37.2709 62.0046C37.2709 62.0046 39.5845 62.2817 41.7061 62.1735C43.8554 62.0648 46.4952 61.118 46.5122 61.1122Z" fill="#EF8870"/>
<path d="M44.9902 45.8403C45.1171 45.8044 45.1982 45.6871 45.1661 45.5561C45.1403 45.4421 45.0051 45.3591 44.8782 45.395C44.8658 45.3886 42.7809 45.8753 40.6754 45.8917C38.5401 45.9067 36.9852 45.7008 36.9852 45.7008C36.8478 45.6734 36.7192 45.7663 36.7095 45.8911C36.6881 46.0087 36.7859 46.1318 36.9116 46.152C36.9177 46.1412 38.4958 46.3577 40.6794 46.3397C42.8575 46.3315 44.9789 45.8344 44.9902 45.8403Z" fill="#EF8870"/>
<path d="M44.5827 33.2905C44.7319 33.2616 44.8171 33.1394 44.7926 33.0071C44.7692 32.8754 44.6222 32.7858 44.4799 32.8024C44.4736 32.8137 41.2479 33.328 39.5356 33.3534C37.8046 33.3837 36.3457 33.194 36.3457 33.194C36.2044 33.1809 36.0746 33.2645 36.0596 33.4081C36.052 33.5385 36.153 33.6507 36.2868 33.6744C36.3002 33.6812 37.7901 33.8723 39.5612 33.8323C41.3249 33.803 44.5704 33.2842 44.5827 33.2905Z" fill="#EF8870"/>
<path d="M75.1644 91.6583C75.2437 91.7477 75.4052 91.7582 75.4994 91.6829C75.5936 91.6075 75.6128 91.4693 75.5257 91.3637C75.5044 91.3446 66.6729 81.319 60.3336 76.8079C53.9939 72.2979 44.516 68.1994 44.4909 68.1917C44.3703 68.1423 44.2297 68.1908 44.1777 68.3053C44.1256 68.4198 44.1767 68.5533 44.2842 68.5987C44.3224 68.6104 53.7621 72.6973 60.0473 77.1655C66.346 81.6366 75.1339 91.6238 75.1644 91.6583Z" fill="#EF8870"/>
<path d="M63.9727 102.698C64.0004 102.827 64.1391 102.905 64.2751 102.896C64.4252 102.889 64.5289 102.776 64.5012 102.648C64.4919 102.609 62.1514 88.5505 58.445 82.1863C54.7295 75.7717 41.3101 70.4785 41.2678 70.4615C41.1258 70.4074 40.9709 70.4516 40.911 70.5697C40.8513 70.6756 40.9225 70.8212 41.0504 70.8736C41.0942 70.8788 54.3419 76.1144 57.9725 82.3687C61.6416 88.678 63.9622 102.659 63.9727 102.698Z" fill="#EF8870"/>
<path d="M80.5387 78.0479C80.6713 78.0504 80.7773 77.9378 80.7667 77.8247C80.7692 77.6999 80.6646 77.5986 80.532 77.5961C80.4918 77.6034 69.3385 77.9283 60.9756 73.5711C52.6112 69.2258 48.8694 63.3458 48.8573 63.3323C48.7928 63.2248 48.6527 63.183 48.5378 63.2573C48.4235 63.3184 48.3931 63.4531 48.4576 63.5605C48.4697 63.574 52.2646 69.5602 60.7523 73.9705C69.2274 78.3793 80.5137 78.045 80.5387 78.0479Z" fill="#EF8870"/>
</g>
</g>
</svg>
