<svg width="185" height="139" viewBox="0 0 185 139" fill="none" xmlns="http://www.w3.org/2000/svg">
<mask id="mask0" mask-type="alpha" maskUnits="userSpaceOnUse" x="0" y="0" width="185" height="139">
<path d="M185 0H5C2.23857 0 0 2.23858 0 5V133.94C0 136.701 2.23857 138.94 5 138.94H185V0Z" fill="#EB5757"/>
</mask>
<g mask="url(#mask0)">
<path d="M152.577 76.4982C152.577 76.4982 130.943 41.7863 95.8782 41.9843C60.8109 42.1797 33.3775 70.8379 33.3775 70.8379C33.3775 70.8379 62.9935 99.0868 94.4142 99.0684C125.835 99.0472 152.577 76.4982 152.577 76.4982Z" fill="white"/>
<path d="M120.506 68.631C121.207 84.0834 109.708 97.2047 94.8243 97.9334C79.9353 98.6594 67.3019 86.7209 66.6001 71.2658C65.8982 55.816 77.3975 42.6947 92.2814 41.9661C107.17 41.2348 119.806 53.1759 120.506 68.631Z" fill="#8DD0C5"/>
<path d="M83.9009 91.8643C78.4996 87.9358 74.8479 81.5442 74.5122 74.1784C73.9401 61.5429 83.3414 50.8188 95.5044 50.2248C95.8553 50.209 96.2087 50.1984 96.5571 50.1984C98.9373 50.1984 101.236 50.5944 103.393 51.3257C99.8019 48.712 95.4357 47.1887 90.7592 47.1887C90.4083 47.1887 90.0573 47.1965 89.7039 47.215C77.5384 47.8064 68.137 58.5304 68.7118 71.1633C69.1542 80.9395 75.4404 88.9971 83.9009 91.8643Z" fill="#C7EBE2"/>
<path d="M96.531 96.002C96.8794 96.002 97.2303 95.9914 97.5838 95.9755C109.749 95.3815 119.148 84.6575 118.578 72.022C118.136 62.2484 111.852 54.1962 103.392 51.3264C108.793 55.2549 112.442 61.6439 112.775 69.0097C113.348 81.6452 103.946 92.3693 91.7833 92.9633C91.4299 92.9791 91.0764 92.9897 90.728 92.9897C88.3503 92.9897 86.0566 92.5963 83.9002 91.865C87.4908 94.476 91.8545 96.002 96.531 96.002Z" fill="#8FC39B"/>
<path d="M90.7286 92.9883C91.077 92.9883 91.4304 92.9777 91.7839 92.9619C103.947 92.3678 113.348 81.6438 112.776 69.0083C112.443 61.6425 108.794 55.2535 103.392 51.325C101.236 50.5937 98.9372 50.1977 96.557 50.1977C96.2086 50.1977 95.8552 50.2083 95.5043 50.2241C83.3413 50.8181 73.94 61.5422 74.5122 74.1776C74.8478 81.5435 78.4995 87.9351 83.9008 91.8635C86.0572 92.5948 88.3509 92.9883 90.7286 92.9883Z" fill="#B7D4AB"/>
<path d="M107.076 69.1048C107.432 76.9643 101.584 83.6332 94.0132 84.0001C86.4428 84.375 80.0193 78.3029 79.6633 70.446C79.3048 62.5838 85.1536 55.9148 92.7214 55.5426C100.292 55.173 106.718 61.2452 107.076 69.1048Z" fill="#373031"/>
<path d="M104.5 75.085C104.647 78.3112 102.249 81.0489 99.1444 81.1993L95.8284 81.3605C92.726 81.5136 90.0865 79.0239 89.939 75.7977L89.8983 74.8764C89.7508 71.6555 92.1564 68.915 95.2588 68.7672L98.5697 68.6009C101.677 68.4478 104.314 70.94 104.464 74.1662L104.5 75.085Z" fill="white"/>
<path d="M94.6725 63.2266C94.7691 65.3149 93.2154 67.0837 91.2039 67.1867L86.3494 67.4216C84.3379 67.5192 82.6316 65.9089 82.5375 63.8206C82.4434 61.7349 83.9946 59.9608 86.0061 59.8604L90.8581 59.6254C92.8721 59.5251 94.5733 61.1409 94.6725 63.2266Z" fill="white"/>
<path d="M152.578 76.4971C152.578 76.4971 151.876 74.2424 150.004 70.5727C148.13 66.9162 145.099 61.7997 140.387 56.472C138.04 53.8028 135.306 51.0518 132.089 48.52C128.893 45.9723 125.297 43.4985 121.264 41.529C117.246 39.549 112.892 37.8197 108.287 36.798C103.692 35.7578 98.9162 35.2007 94.1532 35.1981C92.9631 35.2007 91.7756 35.3037 90.5905 35.3565L89.7005 35.4041L88.7825 35.4912L87.1118 35.6654C84.7799 35.9294 82.3488 36.3254 80.0907 36.8244C75.4854 37.8013 71.0683 39.4962 67.0453 41.5713C62.9919 43.5989 59.4444 46.2178 56.342 48.8447C53.2091 51.4505 50.5695 54.1645 48.1639 56.6198C45.743 59.0487 43.5942 61.2849 41.5929 63.1515C39.5738 64.989 37.7632 66.5413 36.1688 67.6898C34.5743 68.8329 33.2749 69.7041 32.3569 70.2427C31.4338 70.7866 30.9404 71.077 30.9404 71.077C30.9404 71.077 31.4948 70.9423 32.5323 70.6914C33.5597 70.401 35.0855 69.9682 36.9469 69.1682C40.7054 67.666 45.7557 64.5295 51.1824 60.3291C53.9288 58.283 56.8354 56.0601 59.9327 53.9374C63.0529 51.8333 66.4299 49.9193 70.0435 48.33C73.6519 46.701 77.5935 45.6767 81.6419 44.816C83.7195 44.412 85.6979 44.1295 87.8187 43.9315L89.492 43.7969L90.2473 43.7388L91.0381 43.7151L94.2041 43.6279C98.4254 43.5355 102.631 43.9394 106.69 44.7631C110.738 45.6132 114.693 46.7195 118.365 48.293C122.027 49.8717 125.505 51.6485 128.648 53.6656C131.776 55.6984 134.655 57.8211 137.195 59.9622C142.263 64.2682 146.111 68.4554 148.679 71.5126C151.25 74.5778 152.578 76.4971 152.578 76.4971Z" fill="#092A17"/>
<path d="M35.2611 72.3059C35.2611 72.3059 36.4817 73.7818 38.9026 76.076C40.1206 77.2139 41.621 78.5788 43.4138 80.0493C45.2015 81.5304 47.2587 83.1646 49.6414 84.7302C50.8112 85.5539 52.0598 86.3564 53.3796 87.1458C54.6816 87.9695 56.0472 88.7828 57.4941 89.5405C58.9258 90.3351 60.4007 91.1429 61.9646 91.8478C63.5133 92.595 65.1026 93.3421 66.7784 93.9441C70.0868 95.2773 73.5961 96.4285 77.2325 97.3129C79.066 97.6851 80.8918 98.1841 82.766 98.4561C84.6427 98.7069 86.527 98.9576 88.4139 99.2111C90.3135 99.285 92.2131 99.3615 94.105 99.4381C96.1445 99.4645 97.8559 99.2586 99.7326 99.1794C103.402 98.918 106.985 98.8943 110.517 98.0891C114.019 97.3947 117.472 96.9961 120.537 95.845C123.639 94.8365 126.614 94.063 129.18 92.7799C130.479 92.2043 131.726 91.6525 132.911 91.1271C134.078 90.5648 135.11 89.8599 136.115 89.2896C137.106 88.6877 138.055 88.1729 138.886 87.6106C139.698 87.0192 140.443 86.4727 141.114 85.9816C142.492 85.055 143.398 84.0701 144.077 83.4999C144.733 82.8953 145.043 82.531 145.043 82.531C145.043 82.531 144.69 82.8557 143.972 83.3706C143.235 83.8643 142.223 84.6694 140.789 85.4746C140.087 85.897 139.311 86.3618 138.464 86.8687C137.602 87.3386 136.621 87.761 135.601 88.2573C134.566 88.7193 133.511 89.3107 132.321 89.7516C131.13 90.1925 129.882 90.6546 128.577 91.1351C126.024 92.2439 123.059 92.83 119.995 93.6379C116.951 94.591 113.61 94.7361 110.243 95.3513C106.911 96.0614 103.224 95.9109 99.5749 96.167C97.7847 96.2251 95.8012 96.4178 94.133 96.365C92.3148 96.2779 90.4864 96.1882 88.6631 96.0984C86.8474 95.874 85.0292 95.6497 83.2237 95.4252C81.4157 95.1824 79.6509 94.7151 77.8784 94.3745C74.3692 93.5323 70.9286 92.5871 67.6888 91.3674C66.041 90.842 64.4923 90.1238 62.9411 89.5061C61.3797 88.9094 59.9023 88.2046 58.4655 87.5103C57.0135 86.8502 55.6352 86.1321 54.3179 85.3982C52.9829 84.6986 51.7165 83.9831 50.5289 83.2386C48.1233 81.805 45.9593 80.4004 44.0699 79.1147C42.1754 77.8316 40.5784 76.6251 39.2764 75.6113C36.6673 73.5863 35.2611 72.3059 35.2611 72.3059Z" fill="#092A17"/>
<path d="M145.116 75.7741C145.187 75.3675 145.276 74.9636 145.312 74.5359C145.452 72.9809 145.032 71.8958 144.389 70.5176C143.878 69.4247 142.174 69.6438 141.716 70.6497C141.314 71.5341 140.669 72.2786 140.216 73.1499C139.71 74.1188 139.14 75.0666 138.606 76.0197C137.93 77.2262 138.212 79.1086 139.28 79.9851C140.579 81.0491 142.255 81.5955 143.857 80.8959C145.701 80.0906 146.652 77.2156 145.116 75.7741Z" fill="#092A17" fill-opacity="0.3"/>
</g>
</svg>
