<svg width="104" height="130" viewBox="0 0 104 130" fill="none" xmlns="http://www.w3.org/2000/svg">
<mask id="mask0" mask-type="alpha" maskUnits="userSpaceOnUse" x="0" y="0" width="104" height="130">
<rect width="104" height="130" rx="5" fill="#EFEFEF"/>
</mask>
<g mask="url(#mask0)">
<rect x="88" y="105" width="65" height="65" rx="5" transform="rotate(-180 88 105)" fill="#C4C4C4"/>
<g opacity="0.3">
<path fill-rule="evenodd" clip-rule="evenodd" d="M54.4483 50.3157L54.4424 50.3161C54.2649 50.3226 54.1431 50.2289 54.0482 50.0801C53.8759 49.8065 53.7805 49.4045 53.7141 48.9134C53.4858 47.2013 53.7027 44.5304 53.6235 41.9861C53.5435 39.3857 52.5297 19.5979 51.3372 10.7405C51.1253 9.16013 50.9045 7.92214 50.685 7.17851C50.5706 6.78962 50.4446 6.51604 50.3283 6.36248C48.5763 4.05815 45.9126 4.41286 44.5162 5.05752C43.1686 5.69144 41.9275 7.71379 41.7458 10.434C41.5916 12.9351 41.6538 48.3002 41.7478 49.0939C41.8004 49.5139 41.8053 50.3973 41.7015 51.0685C41.5855 50.7003 41.4753 50.2173 41.3704 49.6402C40.3027 43.7914 39.7839 28.6024 39.6897 22.9152C39.6461 20.2222 39.5319 17.5032 38.9346 15.3533C38.511 13.8282 37.8396 12.582 36.8211 11.7833C35.8736 11.0415 34.1866 10.4795 31.3302 12.1597C29.9419 12.9814 29.1638 14.0053 28.7525 15.7319C28.3727 17.3324 28.322 19.5795 28.3779 22.931C28.4916 29.6728 29.6895 48.811 30.0197 52.5385C30.198 54.5452 30.6244 59.7666 30.1488 65.2433C29.8371 68.8275 28.9482 70.1157 28.2495 70.8848C28.0878 70.8227 27.7446 70.6819 27.4476 70.5146C24.6069 68.9057 18.0016 63.6941 13.5307 61.9019C10.6823 60.7587 8.24879 60.1457 6.25084 60.0807C4.13345 60.0104 2.4841 60.5491 1.31104 61.6869C0.559261 62.4112 0.21295 63.0911 0.113576 63.7287C-0.00448658 64.483 0.222783 65.1934 0.620786 65.879C0.969539 66.4816 1.45349 67.0662 1.89194 67.6542C2.38762 68.3259 4.45685 69.9073 6.93304 71.7603C10.5206 74.4439 14.977 77.729 16.413 79.6217C18.8746 82.8521 22.8954 88.1384 25.5477 89.9165C28.1798 91.6724 39.6899 98.6528 40.8035 99.4132C41.6427 99.9848 42.5979 100.357 43.0843 100.524L45.2424 114.774C45.2675 114.935 45.374 115.076 45.5273 115.149C45.5273 115.149 49.9579 117.259 55.7859 117.893C61.6561 118.531 68.9274 117.673 74.5531 111.74C74.6547 111.635 74.7022 111.492 74.6849 111.35L73.2342 99.2128C73.5682 98.1318 76.5224 88.3987 77.616 78.389C78.7593 67.9284 77.6491 54.0848 77.6174 53.6991C77.2212 46.2986 78.0948 34.9476 78.0589 30.2831C78.0415 27.8937 77.7248 24.9648 76.5907 22.9538C75.7699 21.4983 74.5331 20.5043 72.7309 20.4085C70.8059 20.307 69.4985 21.3232 68.6723 22.698C67.899 23.9855 67.5624 25.5911 67.521 26.7672C67.3348 32.0449 67.2424 39.1442 67.3117 42.0119C67.4459 47.5697 67.5151 51.4742 67.5201 51.7632C67.5093 51.7751 67.4733 51.8126 67.4467 51.8304C67.3824 51.8712 67.3024 51.9003 67.2174 51.9144C66.8338 51.9768 66.4711 51.6763 66.4703 50.832C66.4707 48.6164 65.5754 23.0432 65.2753 15.4109C65.2249 14.1238 64.9138 12.5955 64.1833 11.3775C63.4072 10.0836 62.1746 9.12862 60.3136 9.08533C58.9994 9.05621 57.5991 9.48356 56.5178 10.4847C53.9269 12.8656 54.1725 14.9936 54.3009 18.1435C54.5466 24.1745 54.2488 35.8393 54.3755 38.5685C54.5416 42.1114 55.0553 46.6641 54.7948 49.0767C54.7457 49.5321 54.6733 49.901 54.5534 50.1565C54.5295 50.2065 54.5041 50.2508 54.4751 50.287C54.4681 50.2961 54.4562 50.3078 54.4483 50.3157ZM46.2394 114.366L44.0757 100.079C44.0464 99.8877 43.9031 99.7287 43.7082 99.6737C43.7082 99.6737 42.4579 99.3142 41.4132 98.6005C40.2996 97.8401 28.7829 90.8567 26.1498 89.0996C23.5623 87.3655 19.6636 82.1884 17.2621 79.0366C15.7937 77.1005 11.2504 73.7203 7.5797 70.974C5.21702 69.2071 3.22095 67.7203 2.74691 67.0774C2.38715 66.5946 1.99441 66.1166 1.67943 65.6269C1.36061 65.1312 1.11671 64.6279 1.13056 64.0881C1.14455 63.5559 1.41759 63.0038 2.05698 62.3883C3.0422 61.433 4.43841 61.0195 6.21428 61.078C8.11086 61.1409 10.4196 61.7369 13.1241 62.8223C17.5567 64.5989 24.0956 69.7785 26.9117 71.3724C27.499 71.705 27.9583 71.886 28.2365 71.9135C28.5481 71.9427 28.7613 71.8403 28.8957 71.6955C29.6821 70.8652 30.8271 69.5436 31.1928 65.3251C31.6741 59.7776 31.244 54.4875 31.0646 52.4542C30.7343 48.7356 29.5399 29.6418 29.4254 22.9153C29.3819 20.3093 29.399 18.3907 29.5976 16.9305C29.8719 14.9081 30.4969 13.8275 31.8826 13.0077C34.1121 11.6968 35.4146 11.9744 36.1556 12.5542C37.0222 13.2336 37.5608 14.3111 37.9217 15.6086C38.5002 17.6903 38.6002 20.3239 38.6423 22.9308C38.7368 28.6512 39.2648 43.9293 40.3374 49.8106C40.5401 50.9221 40.7768 51.7195 41.0172 52.0991C41.2401 52.4535 41.5227 52.5717 41.7607 52.5713C42.0367 52.5721 42.327 52.4182 42.5102 52.0415C42.8311 51.3795 42.873 49.6597 42.7896 48.9796C42.6951 48.1902 42.6387 12.9833 42.7913 10.4951C42.8852 9.09411 43.2793 7.89706 43.8337 7.04809C44.17 6.5332 44.5608 6.15024 44.9768 5.95409C46.0559 5.45676 48.1237 5.16352 49.4782 6.94637C49.5786 7.07935 49.6626 7.36556 49.7635 7.76936C49.9444 8.49852 50.1233 9.56203 50.2984 10.8672C51.4863 19.6977 52.4957 39.4223 52.5766 42.0151C52.6703 45.0508 52.3739 48.2605 52.8456 49.8859C53.1252 50.8502 53.6731 51.3432 54.4798 51.3133C54.8408 51.3088 55.1513 51.1419 55.386 50.7867C55.6036 50.4559 55.759 49.902 55.8373 49.1782C56.1009 46.7329 55.5909 42.1169 55.4232 38.5243C55.2953 35.796 55.5937 24.1346 55.3477 18.1058C55.233 15.2756 54.9193 13.342 57.2466 11.2018C58.1138 10.3987 59.237 10.0595 60.2884 10.0839C61.728 10.1169 62.6727 10.8705 63.2742 11.873C63.9202 12.9511 64.1845 14.3076 64.2285 15.4487C64.5274 23.0721 65.4227 48.6188 65.4226 50.8323C65.4223 51.8437 65.811 52.3972 66.2472 52.6745C66.742 52.9907 67.3513 52.977 67.8095 52.777C68.2787 52.5718 68.568 52.1779 68.5679 51.7805C68.5683 51.7773 68.5686 51.7751 68.5679 51.7717C68.5679 51.7717 68.4989 47.777 68.3588 41.9896C68.2905 39.1319 68.3829 32.059 68.5677 26.801C68.6044 25.7586 68.8965 24.3349 69.5813 23.1943C70.2144 22.14 71.1972 21.3275 72.6725 21.4054C74.0824 21.48 75.0257 22.2885 75.6684 23.4267C76.7294 25.308 76.9947 28.0548 77.0115 30.29C77.0461 34.9642 76.1738 46.3407 76.5715 53.7557C76.5721 53.7602 76.5727 53.7646 76.5721 53.769C76.5721 53.769 77.7251 67.7541 76.5738 78.2853C75.4235 88.8089 72.1996 99.0241 72.1996 99.0241C72.1794 99.09 72.1729 99.1575 72.1815 99.2245L73.6173 111.237C68.2842 116.733 61.4357 117.502 55.9049 116.901C51.0645 116.374 47.2215 114.797 46.2394 114.366Z" fill="#4F4F4F"/>
<path fill-rule="evenodd" clip-rule="evenodd" d="M46.2179 114.386L44.0556 100.099C44.0253 99.9079 43.8821 99.7481 43.6868 99.693C43.6868 99.693 42.4379 99.3339 41.3925 98.6209C40.2783 97.8607 28.7622 90.8747 26.1294 89.1184C23.5407 87.3856 19.6424 82.2083 17.2407 79.0548C15.7716 77.1202 11.2296 73.7386 7.55962 70.994C5.19644 69.2272 3.20195 67.7382 2.72601 67.096C2.36562 66.6136 1.97211 66.1366 1.65849 65.6464C1.33936 65.1509 1.09734 64.6476 1.11109 64.1076C1.12485 63.5755 1.39717 63.0223 2.03542 62.4063C3.02031 61.4521 4.41789 61.038 6.19509 61.0982C8.09059 61.1612 10.3987 61.7562 13.103 62.8414C17.535 64.6188 24.0744 69.796 26.8915 71.3925C27.4775 71.7228 27.9369 71.9063 28.2148 71.9325C28.5284 71.9613 28.7402 71.8591 28.875 71.7149C29.6618 70.8839 30.8063 69.5626 31.1722 65.3448C31.6536 59.798 31.2244 54.5055 31.0429 52.4739C30.7127 48.7541 29.5188 29.6599 29.406 22.9334C29.362 20.3278 29.3784 18.4088 29.5765 16.9513C29.8516 14.9276 30.4761 13.8477 31.8627 13.0272C34.091 11.7165 35.3951 11.9944 36.1352 12.5737C37.0018 13.2526 37.541 14.33 37.9014 15.6276C38.4791 17.709 38.5782 20.3434 38.6222 22.949C38.7157 28.6715 39.2438 43.949 40.3167 49.8288C40.5203 50.9429 40.757 51.7373 40.9963 52.12C41.2192 52.4712 41.5026 52.5918 41.7392 52.5918C42.017 52.5918 42.3059 52.4372 42.4902 52.0597C42.8093 51.3991 42.8533 49.6794 42.768 48.9979C42.6745 48.2088 42.6168 13.0009 42.7708 10.5159C42.8644 9.11342 43.2576 7.91802 43.8134 7.06607C44.149 6.55227 44.5398 6.16957 44.9552 5.97297C46.0336 5.4749 48.1023 5.18394 49.4586 6.96649C49.5576 7.10018 49.643 7.38594 49.742 7.78964C49.9236 8.51839 50.1023 9.57994 50.2784 10.8854C51.4669 19.7169 52.4739 39.4429 52.5564 42.0354C52.6499 45.071 52.3527 48.2796 52.8232 49.9049C53.1038 50.8695 53.654 51.3624 54.4601 51.3336C54.8205 51.3283 55.1286 51.1605 55.3652 50.8066C55.5826 50.4737 55.7394 49.9207 55.8164 49.1972C56.0806 46.7514 55.5688 42.1351 55.401 38.5438C55.2744 35.8149 55.5715 24.1549 55.3267 18.1257C55.2111 15.2946 54.8975 13.3601 57.2249 11.221C58.0915 10.4189 59.2167 10.0781 60.2676 10.1017C61.7064 10.1357 62.6528 10.8907 63.2526 11.8921C63.8991 12.9721 64.1632 14.3274 64.2073 15.4677C64.5071 23.0907 65.4012 48.6388 65.4012 50.8513C65.4012 51.8631 65.7891 52.4162 66.2265 52.694C66.7217 53.0086 67.3297 52.9955 67.7892 52.7963C68.2569 52.5919 68.5484 52.1959 68.5484 51.8001C68.5484 51.7975 68.5485 51.7949 68.5457 51.7923C68.5457 51.7923 68.4769 47.7973 68.3394 42.0093C68.2706 39.152 68.3614 32.0794 68.5457 26.8208C68.5842 25.7775 68.8758 24.3542 69.5609 23.2139C70.1936 22.1601 71.1757 21.3475 72.6503 21.4261C74.0616 21.4995 75.0053 22.3069 75.6463 23.4472C76.7082 25.3268 76.9722 28.0739 76.9915 30.3099C77.0245 34.9839 76.1524 46.3608 76.5513 53.7741C76.5513 53.7793 76.5513 53.7845 76.5513 53.7871C76.5513 53.7871 77.704 67.7724 76.5541 78.3051C75.4014 88.8274 72.1799 99.0429 72.1799 99.0429C72.1579 99.1084 72.1523 99.1766 72.1606 99.2448L73.5967 111.256C68.2623 116.753 61.4148 117.521 55.8824 116.921C51.0432 116.394 47.2 114.816 46.2179 114.386Z" fill="#BDBDBD"/>
<path fill-rule="evenodd" clip-rule="evenodd" d="M1.13851 63.7145C1.10275 63.8482 1.0835 63.9792 1.08075 64.1077C1.06699 64.6477 1.30901 65.151 1.62814 65.6465C1.94176 66.1367 2.33527 66.6137 2.69566 67.096C3.1716 67.7383 5.16609 69.2273 7.52927 70.9941C11.1992 73.7387 15.7412 77.1203 17.2103 79.0549C19.612 82.2084 23.5103 87.3857 26.0991 89.1184C28.7319 90.8748 40.2479 97.8608 41.3621 98.621C42.4075 99.334 43.6565 99.6931 43.6565 99.6931C43.8518 99.7482 43.995 99.908 44.0252 100.099L46.1875 114.386C47.1697 114.816 51.0129 116.394 55.8521 116.921C60.7407 117.45 66.6556 116.913 71.6461 112.989C68.1192 114.195 62.639 115.859 58.6197 116.119C52.2069 116.528 49.0569 114.396 48.2564 112.643C47.4448 110.886 46.1628 100.883 46.1628 100.883C46.1628 100.883 47.9565 100.805 47.9675 100.907C47.9813 101.009 50.9607 100.406 50.9882 100.498C51.0157 100.603 54.4849 98.7756 54.4849 98.7756L56.7241 97.0822C56.7241 97.0822 57.7394 96.2721 58.009 95.7138C58.2814 95.1554 58.5123 93.0688 58.5123 93.0688C58.5123 93.0688 54.2703 96.6758 52.5536 97.2919C50.8397 97.9053 45.2632 97.2684 41.1833 96.0048C37.098 94.7571 30.4925 89.8 28.6741 88.3661C26.8694 86.9322 21.4663 81.4298 20.0302 79.4009C18.5969 77.3562 12.7343 71.9509 12.7343 71.9509C12.7343 71.9509 7.35051 70.5459 4.90204 68.0818C3.31467 66.4827 1.91982 64.7394 1.13851 63.7145ZM31.2162 55.195C31.373 57.7927 31.4747 61.5072 31.1419 65.3449C30.7815 69.5024 29.6645 70.8446 28.8777 71.6782C29.1198 71.7333 29.4307 71.7909 29.8296 71.8486C31.3427 72.0767 34.6385 71.2745 34.6385 71.2745C34.6385 71.2745 35.6068 67.914 34.3138 62.6712C33.505 59.4049 32.1323 56.7363 31.2162 55.195ZM75.4756 23.2087C74.8401 22.1968 73.9323 21.4944 72.62 21.4262C72.2981 21.4079 71.9982 21.434 71.7204 21.4943C70.9583 21.8089 70.3476 22.2257 69.8524 22.7422C69.7368 22.8916 69.6296 23.0488 69.5305 23.214C68.8455 24.3543 68.5539 25.7776 68.5154 26.8209C68.3311 32.0794 68.2403 39.1521 68.3091 42.0094C68.4466 47.7974 68.5154 51.7924 68.5154 51.7924C68.5181 51.795 68.5181 51.7976 68.5181 51.8002C68.5181 51.8972 68.4988 51.9942 68.4658 52.0886C68.4741 52.2327 68.4823 52.3769 68.4905 52.5211L71.8002 54.0153C71.8002 54.0153 69.6323 50.0832 69.5497 47.4959C69.4755 44.8928 70.0477 43.5926 70.0477 43.5926C70.0477 43.5926 69.0435 41.6764 68.8344 38.9371C68.6171 36.0981 69.5497 33.8096 69.5497 33.8096C69.5497 33.8096 69.2417 30.0165 70.1771 25.4789C70.7245 22.8339 72.8868 22.0265 75.4756 23.2087ZM36.3689 12.8017C36.2836 12.7231 36.1956 12.6472 36.1048 12.5738C35.3648 11.9944 34.0607 11.7166 31.8323 13.0273C30.4458 13.8477 29.8213 14.9277 29.5462 16.9514C29.3481 18.4089 29.3317 20.3278 29.3757 22.9335C29.4857 29.5184 30.6328 47.9573 30.9905 52.2196L32.7044 52.3377C32.7044 52.3377 31.2327 44.9008 31.1804 42.3816C31.1309 39.8467 31.1804 35.7364 31.1804 35.7364C31.1804 35.7364 30.223 31.7624 30.3165 29.0938C30.4156 26.2365 31.0676 24.5142 31.0676 24.5142C31.0676 24.5142 30.0249 22.3462 31.0923 18.2909C31.7663 15.7455 33.8902 12.571 36.3689 12.8017ZM48.8754 6.37931C47.5576 5.25997 45.8657 5.54051 44.9248 5.97304C44.5094 6.16965 44.1187 6.55235 43.783 7.06614C43.2273 7.9181 42.834 9.11349 42.7405 10.5159C42.5864 13.001 42.6441 48.2089 42.7377 48.9979C42.8147 49.6166 42.7871 51.0925 42.5395 51.8527L44.6359 52.0545C44.6359 52.0545 43.2823 43.784 43.2273 41.2648C43.1805 38.7326 43.6483 32.9236 43.6483 32.9236C43.6483 32.9236 43.1008 29.7385 42.9275 27.0726C42.7459 24.3122 43.6483 19.9189 43.6483 19.9189C43.6483 19.9189 42.6194 15.625 43.5603 11.2001C44.094 8.69141 46.3719 6.11193 48.8754 6.37931ZM62.9444 11.4805C62.342 10.6889 61.4725 10.1306 60.2373 10.1017C59.1864 10.0781 58.0612 10.4189 57.1946 11.2211C54.8671 13.3601 55.1808 15.2947 55.2963 18.1258C55.5412 24.155 55.2441 35.815 55.3706 38.5439C55.5384 42.1352 56.0502 46.7515 55.7861 49.1972C55.7476 49.5642 55.687 49.8866 55.61 50.1593L58.8783 51.6351C58.8783 51.6351 57.2056 47.475 57.1231 44.8877C57.0461 42.2846 57.1231 34.9577 57.1231 34.9577C57.1231 34.9577 56.5179 31.5133 56.3088 28.7714C56.0915 25.935 56.9882 21.5991 56.9882 21.5991C56.9882 21.5991 56.1877 20.915 57.1231 16.3773C57.6541 13.8005 60.2319 11.1686 62.9444 11.4805Z" fill="#828282"/>
<path d="M76.2138 33.3307C76.3474 33.3185 76.4509 33.2123 76.4431 33.0972C76.4306 32.971 76.3191 32.8723 76.1862 32.8832L69.4718 33.2224C69.3476 33.2184 69.244 33.3246 69.2554 33.4512C69.2547 33.5811 69.3627 33.6682 69.5002 33.6686L76.2138 33.3307Z" fill="#4F4F4F"/>
<path d="M76.0905 43.2181C76.2194 43.2081 76.3087 43.1042 76.2988 42.9824C76.2994 42.8538 76.1837 42.7572 76.0559 42.7667L69.6189 43.2254C69.49 43.2354 69.4007 43.3393 69.4112 43.4621C69.4227 43.5844 69.5367 43.6805 69.6656 43.6705L76.0905 43.2181Z" fill="#4F4F4F"/>
<path d="M76.1678 54.5975C76.2506 54.6209 76.3337 54.4916 76.3536 54.3423C76.3705 54.1774 76.3042 54.0399 76.2124 54.0232C76.2124 54.0232 74.0598 53.7513 72.0497 53.5091C70.083 53.2866 68.7084 52.323 68.7056 52.3087C68.6281 52.2638 68.5251 52.3397 68.4942 52.4808C68.4542 52.6287 68.4887 52.8059 68.5663 52.8509C68.5773 52.859 69.9868 53.8473 72.0052 54.0834C73.9832 54.3153 76.1588 54.6042 76.1678 54.5975Z" fill="#4F4F4F"/>
<path d="M64.2215 52.3005C64.3592 52.3018 64.4719 52.1591 64.4736 51.9999C64.4609 51.8406 64.3522 51.7278 64.2145 51.7264C64.2 51.7263 60.8879 51.9321 59.1829 51.4376C57.4502 50.926 56.0796 50.2266 56.0796 50.2266C55.9559 50.1612 55.8042 50.2239 55.7471 50.3672C55.69 50.5104 55.7569 50.6857 55.8806 50.7511C55.8806 50.7511 57.2931 51.4816 59.0535 51.9948C60.8404 52.5223 64.2215 52.3005 64.2215 52.3005Z" fill="#4F4F4F"/>
<path d="M64.8231 35.562C64.9567 35.5633 65.0657 35.4552 65.0803 35.2998C65.082 35.1443 64.9898 35.0028 64.8563 35.0015C64.8434 35.0013 61.288 34.7175 60.3785 34.6293C58.534 34.4404 57.1298 34.4892 57.1298 34.4892C56.9962 34.4878 56.8871 34.6109 56.8982 34.7666C56.8965 34.9222 57.0029 35.0488 57.1365 35.0501C57.1365 35.0501 58.5277 35.0162 60.3326 35.1898C62.952 35.4506 64.8103 35.5619 64.8231 35.562Z" fill="#4F4F4F"/>
<path d="M64.1945 21.7607C64.3427 21.7488 64.4623 21.6244 64.4495 21.4854C64.4353 21.3598 64.3183 21.2477 64.1701 21.2596C64.1558 21.2595 60.9792 21.4374 59.7178 21.5638C58.4851 21.677 56.9886 21.5646 56.9886 21.5646C56.8407 21.5485 56.7058 21.6447 56.6887 21.7834C56.6872 21.9223 56.7898 22.0488 56.9391 22.0503C56.9534 22.0504 58.4939 22.1779 59.7863 22.0653C61.0334 21.9388 64.1945 21.7607 64.1945 21.7607Z" fill="#4F4F4F"/>
<path d="M50.6192 19.6335C50.7572 19.6133 50.8469 19.4911 50.8213 19.3668C50.7945 19.2423 50.6554 19.1578 50.5178 19.1769C50.5178 19.1769 47.7843 19.6188 45.7624 19.5335C43.6547 19.4416 43.5068 19.4457 43.5068 19.4457C43.3608 19.4376 43.2462 19.5413 43.2451 19.6592C43.254 19.7933 43.3599 19.8963 43.5047 19.9041C43.5047 19.9041 43.7527 19.9111 45.7603 19.9919C47.8414 20.0775 50.6047 19.63 50.6192 19.6335Z" fill="#4F4F4F"/>
<path d="M51.4766 31.9792C51.6075 31.9106 51.6632 31.7289 51.6096 31.588C51.5511 31.4629 51.4074 31.4004 51.275 31.4701C51.275 31.4701 50.2031 32.1166 47.1603 32.2865C44.1031 32.4535 43.9591 32.326 43.9591 32.326C43.842 32.2691 43.683 32.3333 43.62 32.4809C43.5569 32.6286 43.6083 32.7846 43.7254 32.8415C43.7254 32.8415 43.9869 33.0245 47.1466 32.8466C50.3195 32.6714 51.4766 31.9792 51.4766 31.9792Z" fill="#4F4F4F"/>
<path d="M51.9622 50.7915C52.022 50.6406 51.9837 50.4716 51.8503 50.4145C51.7187 50.342 51.5732 50.4133 51.5033 50.5453C51.5033 50.5453 51.1068 51.4296 48.6846 51.6335C46.1005 51.839 43.2501 51.72 43.2354 51.7173C43.0923 51.7081 42.9656 51.8311 42.9488 51.9899C42.9441 52.1509 43.0483 52.2836 43.1912 52.2943C43.1912 52.2943 46.0995 52.4224 48.6856 52.2003C51.4147 51.9888 51.9487 50.789 51.9622 50.7915Z" fill="#4F4F4F"/>
<path d="M40.5323 51.2683C40.6559 51.2255 40.7186 51.0905 40.688 50.9686C40.6575 50.8467 40.537 50.7849 40.4124 50.8271C40.4124 50.8271 37.828 51.7581 35.7529 51.8609C33.6624 51.969 31.3997 51.702 31.3997 51.702C31.2701 51.6806 31.1489 51.7696 31.1153 51.9037C31.0882 52.0265 31.1579 52.1539 31.2955 52.1635C31.2955 52.1635 33.608 52.4414 35.7286 52.3328C37.8768 52.2238 40.5153 51.2741 40.5323 51.2683Z" fill="#4F4F4F"/>
<path d="M39.0106 35.9495C39.1374 35.9135 39.2185 35.7959 39.1864 35.6644C39.1606 35.5501 39.0255 35.4668 38.8987 35.5028C38.8863 35.4965 36.8024 35.9847 34.6979 36.0011C32.5636 36.0161 31.0095 35.8096 31.0095 35.8096C30.8721 35.7821 30.7436 35.8753 30.734 36.0005C30.7126 36.1184 30.8104 36.2419 30.9359 36.2621C30.942 36.2514 32.5194 36.4685 34.7019 36.4504C36.8789 36.4422 38.9993 35.9437 39.0106 35.9495Z" fill="#4F4F4F"/>
<path d="M38.602 23.3615C38.7512 23.3325 38.8364 23.2099 38.8118 23.0772C38.7884 22.9451 38.6415 22.8552 38.4993 22.8719C38.493 22.8832 35.2689 23.3991 33.5574 23.4246C31.8272 23.455 30.3691 23.2647 30.3691 23.2647C30.2279 23.2516 30.0982 23.3354 30.0831 23.4795C30.0756 23.6102 30.1765 23.7227 30.3102 23.7465C30.3236 23.7534 31.8128 23.9451 33.5831 23.905C35.3459 23.8755 38.5897 23.3552 38.602 23.3615Z" fill="#4F4F4F"/>
<path d="M69.1697 81.9068C69.249 81.9965 69.4104 82.007 69.5046 81.9315C69.5987 81.8559 69.6179 81.7172 69.5308 81.6114C69.5096 81.5922 60.6825 71.536 54.3462 67.0112C48.0096 62.4874 38.5363 58.3764 38.5113 58.3687C38.3907 58.3191 38.2502 58.3678 38.1982 58.4827C38.1462 58.5975 38.1973 58.7314 38.3047 58.777C38.3429 58.7887 47.7779 62.888 54.0601 67.3698C60.3557 71.8546 69.1393 81.8722 69.1697 81.9068Z" fill="#4F4F4F"/>
<path d="M57.9839 92.9807C58.0115 93.1095 58.1502 93.1886 58.2861 93.1794C58.4361 93.1719 58.5398 93.0587 58.5121 92.9299C58.5028 92.8914 56.1635 78.7899 52.4589 72.4063C48.7452 65.9721 35.3323 60.6628 35.2901 60.6457C35.1482 60.5915 34.9934 60.6358 34.9335 60.7542C34.8738 60.8605 34.945 61.0065 35.0728 61.0591C35.1165 61.0643 48.3578 66.3159 51.9866 72.5892C55.6539 78.9178 57.9734 92.9409 57.9839 92.9807Z" fill="#4F4F4F"/>
<path d="M35.077 71.4588C35.1809 71.3709 35.185 71.2327 35.0928 71.1338C35.0114 71.0493 34.8666 71.0442 34.7642 71.1201C34.4073 71.4301 33.1138 71.6411 31.747 71.7048C30.3246 71.7884 28.8579 71.7148 28.3361 71.4647C28.2255 71.401 28.0877 71.4474 28.022 71.553C27.9676 71.6599 28.0022 71.8016 28.127 71.8549C28.7088 72.1495 30.2785 72.2474 31.7799 72.1611C33.2284 72.0818 34.6319 71.8331 35.077 71.4588Z" fill="#4F4F4F"/>
<path d="M18.375 66.2275C18.4527 66.1366 18.4318 65.9954 18.3353 65.9213C18.2261 65.8456 18.0791 65.8656 18.0013 65.9576L13.359 71.8168C13.2796 71.9207 13.3006 72.0608 13.4097 72.1365C13.5052 72.2105 13.6533 72.1906 13.7327 72.0867L18.375 66.2275Z" fill="#4F4F4F"/>
<path d="M73.6475 94.1616C73.7727 94.1137 73.8291 93.9828 73.7773 93.8754C73.727 93.7561 73.6021 93.7039 73.4769 93.7518C73.4644 93.7503 70.7981 94.7794 67.4395 95.1476C64.0948 95.5063 62.6002 94.9385 62.6002 94.9385C62.4736 94.8993 62.3332 94.9575 62.2909 95.078C62.2513 95.1867 62.3126 95.3194 62.439 95.3597C62.439 95.3597 64.0487 95.9654 67.4864 95.5934C70.9115 95.2199 73.6475 94.1616 73.6475 94.1616Z" fill="#4F4F4F"/>
<path d="M58.394 96.1375C58.4853 96.0482 58.4895 95.91 58.3956 95.824C58.3019 95.737 58.1553 95.7449 58.0651 95.8344C58.0514 95.8328 54.7097 99.1076 51.1268 99.5746C47.5018 100.063 43.5555 99.7837 43.5429 99.7823C43.4117 99.7788 43.294 99.8661 43.2916 99.9913C43.2754 100.115 43.3797 100.227 43.511 100.231C43.5235 100.232 47.5097 100.516 51.2011 100.024C54.93 99.5354 58.3923 96.1505 58.394 96.1375Z" fill="#4F4F4F"/>
<path d="M74.5406 68.2558C74.6731 68.2583 74.7791 68.1454 74.7685 68.0319C74.771 67.9067 74.6664 67.8051 74.5339 67.8026C74.4937 67.81 63.3458 68.1358 54.9871 63.7654C46.6267 59.4068 42.8868 53.5089 42.8747 53.4953C42.8102 53.3875 42.6701 53.3456 42.5553 53.42C42.441 53.4813 42.4107 53.6164 42.4752 53.7242C42.4873 53.7378 46.2803 59.7422 54.7638 64.166C63.2348 68.5882 74.5156 68.2528 74.5406 68.2558Z" fill="#4F4F4F"/>
</g>
<mask id="mask1" mask-type="alpha" maskUnits="userSpaceOnUse" x="23" y="40" width="65" height="65">
<rect x="23" y="40" width="65" height="65" rx="5" fill="#C4C4C4"/>
</mask>
<g mask="url(#mask1)">
<path fill-rule="evenodd" clip-rule="evenodd" d="M54.4505 50.1832L54.4447 50.1836C54.2671 50.19 54.1452 50.0966 54.0502 49.9481C53.8778 49.6753 53.7822 49.2744 53.7155 48.7848C53.4865 47.0776 53.7025 44.4146 53.6223 41.8779C53.5413 39.2851 52.5196 19.5553 51.3232 10.7236C51.1106 9.1478 50.8892 7.91339 50.6694 7.17187C50.5548 6.7841 50.4286 6.51127 50.3123 6.35813C48.5587 4.05999 45.894 4.41274 44.4974 5.05501C43.1495 5.6866 41.9086 7.70257 41.7279 10.4147C41.5745 12.9084 41.6502 48.1692 41.7445 48.9606C41.7973 49.3794 41.8025 50.2601 41.699 50.9293C41.5828 50.5622 41.4723 50.0806 41.3672 49.5052C40.2969 43.6732 39.7721 28.5289 39.6757 22.8583C39.6311 20.1733 39.5158 17.4623 38.9174 15.3185C38.4931 13.7978 37.821 12.555 36.8017 11.7583C35.8536 11.0184 34.1657 10.4574 31.3088 12.1317C29.9203 12.9505 29.1422 13.9711 28.7314 15.6925C28.352 17.2882 28.3022 19.5286 28.3594 22.8702C28.4757 29.5922 29.6813 48.6744 30.0131 52.391C30.1922 54.3918 30.6207 59.598 30.1471 65.0584C29.8365 68.632 28.9478 69.916 28.2491 70.6826C28.0873 70.6207 27.7439 70.4801 27.4468 70.3133C24.6043 68.7081 17.9944 63.5096 13.521 61.7211C10.6711 60.5804 8.23635 59.9683 6.23758 59.9028C4.11931 59.832 2.46951 60.3686 1.29642 61.5026C0.544611 62.2245 0.19842 62.9023 0.0992469 63.538C-0.0185773 64.29 0.209053 64.9984 0.607475 65.6821C0.956595 66.2831 1.44096 66.8661 1.87981 67.4524C2.37594 68.1224 4.44659 69.6998 6.92447 71.5482C10.5145 74.2252 14.9739 77.5021 16.4112 79.3897C18.875 82.6115 22.8994 87.8835 25.5534 89.6573C28.1872 91.4089 39.7046 98.3727 40.819 99.1312C41.6586 99.7014 42.6144 100.072 43.1011 100.24L45.2654 114.448C45.2906 114.609 45.3971 114.749 45.5505 114.822C45.5505 114.822 49.9837 116.927 55.8143 117.562C61.687 118.2 68.961 117.347 74.5867 111.434C74.6882 111.328 74.7358 111.186 74.7184 111.044L73.2625 98.9425C73.5962 97.8649 76.5479 88.1615 77.6382 78.1817C78.7779 67.7523 77.662 53.9491 77.6302 53.5646C77.231 46.1858 78.1007 34.8685 78.063 30.2178C78.0447 27.8354 77.7268 24.915 76.5914 22.9095C75.7698 21.4581 74.5321 20.4665 72.7291 20.3705C70.8033 20.2686 69.4958 21.2814 68.6697 22.6518C67.8966 23.9353 67.5605 25.536 67.5195 26.7086C67.3352 31.9706 67.2455 39.049 67.316 41.9083C67.4523 47.4497 67.523 51.3428 67.5282 51.6309C67.5174 51.6428 67.4813 51.6802 67.4547 51.6979C67.3904 51.7386 67.3104 51.7675 67.2254 51.7816C66.8417 51.8437 66.4786 51.5439 66.4776 50.7021C66.4771 48.493 65.5718 22.995 65.2686 15.385C65.2178 14.1017 64.9059 12.5778 64.1747 11.3631C63.3978 10.0728 62.1643 9.12018 60.3026 9.07639C58.9878 9.0469 57.5871 9.47251 56.5058 10.4704C53.9148 12.8433 54.1612 14.9652 54.2909 18.1058C54.539 24.1191 54.2456 35.7494 54.3733 38.4706C54.5408 42.0031 55.0564 46.5426 54.7967 48.9479C54.7478 49.402 54.6755 49.7698 54.5556 50.0245C54.5318 50.0743 54.5063 50.1185 54.4774 50.1546C54.4704 50.1636 54.4585 50.1754 54.4505 50.1832ZM46.2626 114.042L44.0927 99.7965C44.0633 99.6054 43.9199 99.4469 43.7249 99.3919C43.7249 99.3919 42.4739 99.0331 41.4286 98.3211C40.3142 97.5626 28.7903 90.5959 26.1555 88.843C23.5662 87.1131 19.664 81.9499 17.2604 78.8066C15.7906 76.8757 11.2443 73.5039 7.57109 70.7645C5.20681 69.002 3.20937 67.5188 2.7349 66.8777C2.37481 66.3961 1.98173 65.9194 1.66644 65.4311C1.34731 64.9368 1.10312 64.4349 1.11677 63.8966C1.13057 63.366 1.4035 62.8156 2.04292 62.2022C3.02817 61.25 4.42478 60.8382 6.20138 60.8972C8.09874 60.9605 10.4086 61.5556 13.1147 62.6387C17.5496 64.4116 24.0932 69.5781 26.911 71.1683C27.4987 71.5002 27.9581 71.6808 28.2365 71.7083C28.5482 71.7375 28.7614 71.6354 28.8958 71.4911C29.6822 70.6636 30.8272 69.3462 31.1914 65.1404C31.6709 59.6094 31.2385 54.3347 31.0583 52.3074C30.7265 48.5996 29.5243 29.5617 29.4073 22.8549C29.3628 20.2566 29.3791 18.3436 29.5773 16.8879C29.8509 14.8715 30.4758 13.7943 31.8617 12.9774C34.0916 11.6711 35.3947 11.9484 36.1363 12.5267C37.0035 13.2044 37.5427 14.2789 37.9042 15.5727C38.4838 17.6485 38.5847 20.2743 38.6279 22.8736C38.7246 28.5771 39.2586 43.8103 40.3339 49.6747C40.537 50.783 40.7741 51.5781 41.0148 51.9567C41.2379 52.3101 41.5206 52.4281 41.7587 52.4278C42.0348 52.4286 42.3252 52.2754 42.5083 51.8998C42.8291 51.2398 42.8704 49.5252 42.7867 48.847C42.6918 48.0599 42.6221 12.9568 42.7738 10.476C42.8672 9.07915 43.2611 7.88576 43.8153 7.03948C44.1516 6.52623 44.5423 6.14454 44.9585 5.9491C46.0378 5.45361 48.1063 5.16195 49.462 6.94C49.5626 7.07262 49.6467 7.35802 49.7478 7.76066C49.9291 8.48774 50.1084 9.54817 50.284 10.8496C51.4758 19.6544 52.493 39.3212 52.575 41.9064C52.6698 44.9332 52.3745 48.1333 52.8471 49.7541C53.1272 50.7156 53.6754 51.2074 54.4825 51.1779C54.8436 51.1735 55.1542 51.0072 55.3888 50.6531C55.6063 50.3233 55.7616 49.7711 55.8397 49.0495C56.1025 46.6116 55.5905 42.0089 55.4214 38.4269C55.2924 35.7066 55.5865 24.0797 55.3381 18.0685C55.2223 15.2466 54.9078 13.3186 57.2352 11.1855C58.1024 10.3851 59.2259 10.0473 60.2777 10.072C61.7179 10.1054 62.6633 10.8571 63.2655 11.8568C63.9121 12.932 64.177 14.2846 64.2214 15.4223C64.5234 23.0233 65.4287 48.4951 65.4295 50.702C65.4295 51.7105 65.8186 52.2624 66.2551 52.5391C66.7501 52.8545 67.3598 52.8411 67.818 52.6419C68.2873 52.4374 68.5766 52.0447 68.5763 51.6486C68.5767 51.6453 68.577 51.6432 68.5763 51.6398C68.5763 51.6398 68.5058 47.6568 68.3635 41.8864C68.294 39.0371 68.3838 31.9851 68.5667 26.7427C68.603 25.7034 68.8946 24.2839 69.5793 23.1469C70.2123 22.096 71.1951 21.2862 72.671 21.3644C74.0815 21.4392 75.0256 22.2457 75.669 23.3808C76.7311 25.2569 76.9975 27.9956 77.0151 30.2243C77.0515 34.8847 76.1832 46.2274 76.5839 53.6206C76.5845 53.6251 76.5851 53.6296 76.5845 53.6339C76.5845 53.6339 77.7432 67.5782 76.5955 78.0779C75.4487 88.5701 72.2274 98.7541 72.2274 98.7541C72.2073 98.8198 72.2008 98.887 72.2094 98.9539L73.6503 110.931C68.3172 116.41 61.4662 117.174 55.933 116.573C51.0904 116.045 47.2453 114.472 46.2626 114.042Z" fill="#EE7869"/>
<path fill-rule="evenodd" clip-rule="evenodd" d="M46.2008 114.038L44.0374 99.7949C44.0072 99.6042 43.8639 99.4448 43.6685 99.3899C43.6685 99.3899 42.419 99.0319 41.373 98.3211C40.2583 97.5632 28.7366 90.5984 26.1025 88.8474C23.5125 87.1199 19.6123 81.9584 17.2094 78.8144C15.7396 76.8857 11.1954 73.5144 7.52362 70.7781C5.15928 69.0167 3.16381 67.5322 2.68764 66.8919C2.32707 66.4111 1.93337 65.9355 1.61959 65.4468C1.30031 64.9528 1.05817 64.451 1.07193 63.9127C1.08569 63.3821 1.35814 62.8306 1.9967 62.2165C2.98208 61.2652 4.38035 60.8523 6.15842 60.9125C8.05484 60.9752 10.3641 61.5684 13.0697 62.6504C17.5039 64.4223 24.0465 69.5838 26.865 71.1754C27.4512 71.5047 27.9109 71.6876 28.1889 71.7138C28.5027 71.7425 28.7146 71.6406 28.8495 71.4968C29.6367 70.6684 30.7817 69.3511 31.1478 65.1461C31.6294 59.6161 31.2 54.3397 31.0183 52.3143C30.6881 48.6059 29.4936 29.5697 29.3807 22.8636C29.3367 20.2659 29.3531 18.3528 29.5513 16.8997C29.8265 14.8822 30.4513 13.8055 31.8386 12.9875C34.068 11.6808 35.3728 11.9578 36.1132 12.5354C36.9802 13.2123 37.5196 14.2863 37.8802 15.58C38.4582 17.655 38.5573 20.2815 38.6014 22.8792C38.695 28.5843 39.2233 43.8154 40.2968 49.6773C40.5005 50.788 40.7372 51.5799 40.9767 51.9615C41.1996 52.3117 41.4832 52.4318 41.7199 52.4318C41.9979 52.4318 42.2869 52.2777 42.4713 51.9014C42.7906 51.2428 42.8346 49.5283 42.7492 48.8488C42.6557 48.0622 42.5979 12.9613 42.7521 10.4838C42.8456 9.08563 43.2391 7.89386 43.7951 7.0445C44.1309 6.53227 44.5219 6.15073 44.9375 5.95472C46.0164 5.45817 48.0862 5.16809 49.4431 6.94522C49.5422 7.07851 49.6276 7.36341 49.7267 7.76587C49.9083 8.4924 50.0872 9.55073 50.2633 10.8522C51.4524 19.6568 52.4599 39.3229 52.5424 41.9076C52.636 44.9339 52.3387 48.1328 52.8093 49.7531C53.0901 50.7148 53.6406 51.2062 54.4471 51.1774C54.8077 51.1722 55.1159 51.0049 55.3526 50.6521C55.5701 50.3202 55.727 49.7688 55.8041 49.0475C56.0683 46.6092 55.5563 42.0069 55.3884 38.4265C55.2618 35.706 55.559 24.0814 55.3141 18.0705C55.1985 15.248 54.8847 13.3194 57.2132 11.1868C58.0802 10.3871 59.206 10.0473 60.2574 10.0709C61.697 10.1048 62.6438 10.8575 63.2439 11.8559C63.8907 12.9326 64.155 14.2838 64.199 15.4206C64.499 23.0204 65.3935 48.4909 65.3935 50.6966C65.3935 51.7054 65.7816 52.2568 66.2192 52.5338C66.7147 52.8474 67.323 52.8344 67.7827 52.6358C68.2506 52.4319 68.5423 52.0372 68.5423 51.6426C68.5423 51.64 68.5423 51.6374 68.5396 51.6348C68.5396 51.6348 68.4708 47.652 68.3332 41.8815C68.2644 39.0329 68.3552 31.9818 68.5396 26.7392C68.5781 25.6991 68.8699 24.2801 69.5552 23.1432C70.1883 22.0926 71.1709 21.2825 72.6462 21.3609C74.0582 21.4341 75.0023 22.239 75.6436 23.3759C76.7061 25.2497 76.9702 27.9885 76.9895 30.2177C77.0225 34.8775 76.15 46.2198 76.5491 53.6106C76.5491 53.6158 76.5491 53.621 76.5491 53.6236C76.5491 53.6236 77.7024 67.5663 76.5519 78.067C75.3986 88.5573 72.1755 98.7418 72.1755 98.7418C72.1535 98.8071 72.1479 98.8751 72.1562 98.943L73.593 110.918C68.2561 116.398 61.4052 117.164 55.8701 116.565C51.0285 116.04 47.1834 114.467 46.2008 114.038Z" fill="#FBCD9A"/>
<path fill-rule="evenodd" clip-rule="evenodd" d="M1.10014 63.5207C1.06435 63.654 1.0451 63.7847 1.04234 63.9128C1.02858 64.4511 1.27072 64.9529 1.59 65.4469C1.90379 65.9356 2.29749 66.4112 2.65805 66.892C3.13422 67.5323 5.12969 69.0168 7.49403 70.7782C11.1658 73.5145 15.71 76.8858 17.1798 78.8145C19.5827 81.9585 23.4829 87.12 26.073 88.8475C28.707 90.5985 40.2287 97.5633 41.3435 98.3212C42.3894 99.032 43.6389 99.39 43.6389 99.39C43.8344 99.4449 43.9776 99.6043 44.0079 99.795L46.1712 114.038C47.1539 114.467 50.999 116.04 55.8405 116.565C60.7316 117.093 66.6494 116.558 71.6423 112.645C68.1136 113.847 62.6308 115.507 58.6095 115.766C52.1935 116.173 49.042 114.049 48.2411 112.3C47.4291 110.549 46.1465 100.577 46.1465 100.577C46.1465 100.577 47.9411 100.498 47.9521 100.6C47.9659 100.702 50.9468 100.101 50.9743 100.192C51.0018 100.297 54.4726 98.4753 54.4726 98.4753L56.713 96.787C56.713 96.787 57.7288 95.9794 57.9985 95.4228C58.271 94.8661 58.5021 92.7859 58.5021 92.7859C58.5021 92.7859 54.2579 96.3819 52.5404 96.9961C50.8256 97.6076 45.2464 96.9726 41.1646 95.713C37.0772 94.469 30.4686 89.5269 28.6492 88.0974C26.8436 86.6679 21.4378 81.1822 20.0011 79.1594C18.5671 77.121 12.7016 71.7321 12.7016 71.7321C12.7016 71.7321 7.31518 70.3314 4.86551 67.8747C3.27736 66.2806 1.88182 64.5426 1.10014 63.5207ZM31.1925 55.0271C31.3494 57.617 31.4512 61.3202 31.1182 65.1462C30.7576 69.2911 29.6401 70.6292 28.8529 71.4603C29.0952 71.5152 29.4062 71.5726 29.8053 71.6301C31.3191 71.8575 34.6165 71.0578 34.6165 71.0578C34.6165 71.0578 35.5853 67.7074 34.2917 62.4806C33.4825 59.2243 32.1091 56.5638 31.1925 55.0271ZM75.4736 23.1381C74.8378 22.1293 73.9295 21.4289 72.6166 21.361C72.2946 21.3427 71.9946 21.3688 71.7166 21.4289C70.9542 21.7425 70.3431 22.1581 69.8477 22.6729C69.7321 22.8219 69.6247 22.9787 69.5257 23.1433C68.8403 24.2801 68.5486 25.6992 68.51 26.7393C68.3256 31.9819 68.2348 39.033 68.3036 41.8816C68.4412 47.6521 68.51 51.6349 68.51 51.6349C68.5128 51.6375 68.5127 51.64 68.5127 51.6427C68.5127 51.7394 68.4935 51.8361 68.4604 51.9302C68.4687 52.0739 68.4769 52.2176 68.4852 52.3614L71.7964 53.8511C71.7964 53.8511 69.6275 49.9309 69.5449 47.3514C69.4706 44.7563 70.0431 43.46 70.0431 43.46C70.0431 43.46 69.0384 41.5497 68.8292 38.8186C68.6118 35.9883 69.5449 33.7068 69.5449 33.7068C69.5449 33.7068 69.2367 29.9252 70.1725 25.4013C70.7202 22.7644 72.8836 21.9594 75.4736 23.1381ZM36.3478 12.7627C36.2625 12.6843 36.1744 12.6086 36.0836 12.5355C35.3432 11.9579 34.0385 11.6809 31.809 12.9876C30.4218 13.8056 29.7969 14.8822 29.5217 16.8998C29.3235 18.3529 29.3071 20.266 29.3512 22.8637C29.4612 29.4286 30.6089 47.8114 30.9667 52.0608L32.6815 52.1785C32.6815 52.1785 31.2091 44.7642 31.1568 42.2527C31.1072 39.7255 31.1568 35.6276 31.1568 35.6276C31.1568 35.6276 30.1989 31.6657 30.2925 29.0053C30.3915 26.1566 31.0439 24.4396 31.0439 24.4396C31.0439 24.4396 30.0007 22.2782 31.0686 18.2352C31.7429 15.6976 33.8679 12.5327 36.3478 12.7627ZM48.8604 6.35983C47.542 5.2439 45.8492 5.52358 44.9079 5.9548C44.4923 6.15081 44.1013 6.53235 43.7655 7.04458C43.2096 7.89394 42.8161 9.0857 42.7225 10.4839C42.5684 12.9614 42.6261 48.0623 42.7197 48.8489C42.7967 49.4657 42.7692 50.9371 42.5214 51.695L44.6188 51.8962C44.6188 51.8962 43.2646 43.6508 43.2095 41.1393C43.1628 38.6147 43.6307 32.8234 43.6307 32.8234C43.6307 32.8234 43.083 29.6481 42.9096 26.9902C42.7279 24.2383 43.6307 19.8583 43.6307 19.8583C43.6307 19.8583 42.6014 15.5774 43.5427 11.166C44.0767 8.66491 46.3557 6.09326 48.8604 6.35983ZM62.9364 11.4455C62.3336 10.6563 61.4637 10.0997 60.2279 10.0709C59.1764 10.0474 58.0507 10.3872 57.1837 11.1869C54.8551 13.3194 55.1689 15.2481 55.2845 18.0706C55.5295 24.0815 55.2322 35.706 55.3588 38.4266C55.5267 42.007 56.0387 46.6093 55.7745 49.0476C55.736 49.4135 55.6754 49.7349 55.5983 50.0067L58.8682 51.4781C58.8682 51.4781 57.1947 47.3306 57.1122 44.7512C57.0351 42.156 57.1122 34.8514 57.1122 34.8514C57.1122 34.8514 56.5066 31.4175 56.2974 28.6838C56.08 25.8561 56.9772 21.5334 56.9772 21.5334C56.9772 21.5334 56.1763 20.8513 57.1122 16.3275C57.6434 13.7585 60.2225 11.1345 62.9364 11.4455Z" fill="#FAB88F"/>
<path d="M76.0889 43.0867C76.2179 43.0767 76.3072 42.9731 76.2973 42.8517C76.2979 42.7235 76.1822 42.6272 76.0543 42.6366L69.6142 43.094C69.4852 43.1039 69.3959 43.2075 69.4063 43.3299C69.4178 43.4518 69.5319 43.5477 69.6609 43.5378L76.0889 43.0867Z" fill="#EF8870"/>
<path d="M76.1668 54.4318C76.2495 54.4551 76.3327 54.3261 76.3526 54.1773C76.3695 54.0129 76.3031 53.8758 76.2113 53.8592C76.2113 53.8592 74.0577 53.5881 72.0466 53.3466C70.0789 53.1249 68.7036 52.1641 68.7008 52.15C68.6233 52.1051 68.5203 52.1808 68.4893 52.3215C68.4493 52.4689 68.4839 52.6456 68.5614 52.6905C68.5725 52.6986 69.9826 53.6838 72.002 53.9192C73.981 54.1504 76.1577 54.4384 76.1668 54.4318Z" fill="#EF8870"/>
<path d="M64.2149 52.1417C64.3527 52.1431 64.4654 52.0008 64.4672 51.8421C64.4544 51.6833 64.3457 51.5708 64.2079 51.5695C64.1934 51.5693 60.8797 51.7745 59.1738 51.2814C57.4403 50.7714 56.0691 50.0742 56.0691 50.0742C55.9453 50.0089 55.7935 50.0715 55.7364 50.2143C55.6792 50.3571 55.7462 50.5318 55.8699 50.5971C55.8699 50.5971 57.2832 51.3253 59.0444 51.837C60.8321 52.3629 64.2149 52.1417 64.2149 52.1417Z" fill="#EF8870"/>
<path d="M51.9487 50.6372C52.0086 50.4868 51.9702 50.3184 51.8367 50.2614C51.7051 50.1891 51.5596 50.2602 51.4896 50.3918C51.4896 50.3918 51.0929 51.2734 48.6695 51.4767C46.0842 51.6816 43.2324 51.563 43.2177 51.5603C43.0745 51.551 42.9477 51.6737 42.9309 51.832C42.9263 51.9925 43.0305 52.1249 43.1734 52.1355C43.1734 52.1355 46.0831 52.2632 48.6706 52.0418C51.4009 51.831 51.9353 50.6348 51.9487 50.6372Z" fill="#EF8870"/>
<path d="M40.5122 51.1122C40.6359 51.0696 40.6986 50.9349 40.668 50.8134C40.6374 50.6919 40.5169 50.6303 40.3922 50.6724C40.3922 50.6724 37.8066 51.6005 35.7305 51.703C33.639 51.8107 31.3752 51.5446 31.3752 51.5446C31.2455 51.5232 31.1242 51.612 31.0906 51.7457C31.0635 51.8681 31.1332 51.9951 31.2709 52.0046C31.2709 52.0046 33.5845 52.2817 35.7061 52.1735C37.8554 52.0648 40.4952 51.118 40.5122 51.1122Z" fill="#EF8870"/>
<path d="M69.1644 81.6583C69.2437 81.7477 69.4052 81.7582 69.4994 81.6829C69.5936 81.6075 69.6128 81.4693 69.5257 81.3637C69.5044 81.3446 60.6729 71.319 54.3336 66.8079C47.9939 62.2979 38.516 58.1994 38.4909 58.1917C38.3703 58.1423 38.2297 58.1908 38.1777 58.3053C38.1256 58.4198 38.1767 58.5533 38.2842 58.5987C38.3224 58.6104 47.7621 62.6973 54.0473 67.1655C60.346 71.6366 69.1339 81.6238 69.1644 81.6583Z" fill="#EF8870"/>
<path d="M57.9727 92.6982C58.0004 92.8265 58.1391 92.9055 58.2751 92.8963C58.4252 92.8888 58.5289 92.7759 58.5012 92.6476C58.4919 92.6091 56.1514 78.5505 52.445 72.1863C48.7295 65.7717 35.3101 60.4785 35.2678 60.4615C35.1258 60.4074 34.9709 60.4516 34.911 60.5697C34.8513 60.6756 34.9225 60.8212 35.0504 60.8736C35.0942 60.8788 48.3419 66.1144 51.9725 72.3687C55.6416 78.678 57.9622 92.6585 57.9727 92.6982Z" fill="#EF8870"/>
<path d="M35.056 71.2418C35.1599 71.1542 35.164 71.0164 35.0718 70.9177C34.9904 70.8335 34.8454 70.8285 34.7431 70.9042C34.3859 71.2132 33.0918 71.4236 31.7244 71.4871C30.3012 71.5704 28.8339 71.497 28.3118 71.2477C28.2011 71.1842 28.0633 71.2304 27.9975 71.3357C27.9431 71.4423 27.9777 71.5835 28.1025 71.6367C28.6847 71.9304 30.2552 72.028 31.7572 71.942C33.2064 71.8629 34.6107 71.615 35.056 71.2418Z" fill="#EF8870"/>
<path d="M73.6441 93.8751C73.7694 93.8274 73.8258 93.6969 73.7739 93.5898C73.7236 93.4708 73.5987 93.4188 73.4734 93.4665C73.4609 93.4651 70.7933 94.491 67.433 94.8581C64.0867 95.2158 62.5914 94.6497 62.5914 94.6497C62.4648 94.6106 62.3243 94.6686 62.282 94.7887C62.2424 94.8971 62.3036 95.0294 62.4301 95.0696C62.4301 95.0696 64.0406 95.6734 67.48 95.3025C70.9068 94.9302 73.6441 93.8751 73.6441 93.8751Z" fill="#EF8870"/>
<path d="M58.3834 95.8451C58.4748 95.7561 58.479 95.6183 58.3851 95.5326C58.2913 95.4458 58.1446 95.4537 58.0543 95.5429C58.0407 95.5413 54.6973 98.8062 51.1127 99.2718C47.4859 99.7588 43.5376 99.4803 43.5251 99.4788C43.3938 99.4754 43.2761 99.5624 43.2736 99.6872C43.2575 99.8104 43.3618 99.9226 43.4931 99.926C43.5056 99.9275 47.4938 100.211 51.187 99.7195C54.9177 99.2327 58.3817 95.8581 58.3834 95.8451Z" fill="#EF8870"/>
<path d="M74.5387 68.0479C74.6713 68.0504 74.7773 67.9378 74.7667 67.8247C74.7692 67.6999 74.6646 67.5986 74.532 67.5961C74.4918 67.6034 63.3385 67.9283 54.9756 63.5711C46.6112 59.2258 42.8694 53.3458 42.8573 53.3323C42.7928 53.2248 42.6527 53.183 42.5378 53.2573C42.4235 53.3184 42.3931 53.4531 42.4576 53.5605C42.4697 53.574 46.2646 59.5602 54.7523 63.9705C63.2274 68.3793 74.5137 68.045 74.5387 68.0479Z" fill="#EF8870"/>
</g>
</g>
</svg>
