<svg width="104" height="130" viewBox="0 0 104 130" fill="none" xmlns="http://www.w3.org/2000/svg">
<mask id="mask0" mask-type="alpha" maskUnits="userSpaceOnUse" x="0" y="0" width="104" height="130">
<rect width="104" height="130" rx="5" fill="#EFEFEF"/>
</mask>
<g mask="url(#mask0)">
<rect x="88" y="105" width="65" height="65" rx="5" transform="rotate(-180 88 105)" fill="#C4C4C4"/>
<g opacity="0.3">
<path fill-rule="evenodd" clip-rule="evenodd" d="M54.4483 50.3157L54.4424 50.3161C54.2649 50.3226 54.1431 50.2289 54.0482 50.0801C53.8759 49.8065 53.7805 49.4045 53.7141 48.9134C53.4858 47.2013 53.7027 44.5304 53.6235 41.9861C53.5435 39.3857 52.5297 19.5979 51.3372 10.7405C51.1253 9.16013 50.9045 7.92214 50.685 7.17851C50.5706 6.78962 50.4446 6.51604 50.3283 6.36248C48.5763 4.05815 45.9126 4.41286 44.5162 5.05752C43.1686 5.69144 41.9275 7.71379 41.7458 10.434C41.5916 12.9351 41.6538 48.3002 41.7478 49.0939C41.8004 49.5139 41.8053 50.3973 41.7015 51.0685C41.5855 50.7003 41.4753 50.2173 41.3704 49.6402C40.3027 43.7914 39.7839 28.6024 39.6897 22.9152C39.6461 20.2222 39.5319 17.5032 38.9346 15.3533C38.511 13.8282 37.8396 12.582 36.8211 11.7833C35.8736 11.0415 34.1866 10.4795 31.3302 12.1597C29.9419 12.9814 29.1638 14.0053 28.7525 15.7319C28.3727 17.3324 28.322 19.5795 28.3779 22.931C28.4916 29.6728 29.6895 48.811 30.0197 52.5385C30.198 54.5452 30.6244 59.7666 30.1488 65.2433C29.8371 68.8275 28.9482 70.1157 28.2495 70.8848C28.0878 70.8227 27.7446 70.6819 27.4476 70.5146C24.6069 68.9057 18.0016 63.6941 13.5307 61.9019C10.6823 60.7587 8.24879 60.1457 6.25084 60.0807C4.13345 60.0104 2.4841 60.5491 1.31104 61.6869C0.559261 62.4112 0.21295 63.0911 0.113576 63.7287C-0.00448658 64.483 0.222783 65.1934 0.620786 65.879C0.969539 66.4816 1.45349 67.0662 1.89194 67.6542C2.38762 68.3259 4.45685 69.9073 6.93304 71.7603C10.5206 74.4439 14.977 77.729 16.413 79.6217C18.8746 82.8521 22.8954 88.1384 25.5477 89.9165C28.1798 91.6724 39.6899 98.6528 40.8035 99.4132C41.6427 99.9848 42.5979 100.357 43.0843 100.524L45.2424 114.774C45.2675 114.935 45.374 115.076 45.5273 115.149C45.5273 115.149 49.9579 117.259 55.7859 117.893C61.6561 118.531 68.9274 117.673 74.5531 111.74C74.6547 111.635 74.7022 111.492 74.6849 111.35L73.2342 99.2128C73.5682 98.1318 76.5224 88.3987 77.616 78.389C78.7593 67.9284 77.6491 54.0848 77.6174 53.6991C77.2212 46.2986 78.0948 34.9476 78.0589 30.2831C78.0415 27.8937 77.7248 24.9648 76.5907 22.9538C75.7699 21.4983 74.5331 20.5043 72.7309 20.4085C70.8059 20.307 69.4985 21.3232 68.6723 22.698C67.899 23.9855 67.5624 25.5911 67.521 26.7672C67.3348 32.0449 67.2424 39.1442 67.3117 42.0119C67.4459 47.5697 67.5151 51.4742 67.5201 51.7632C67.5093 51.7751 67.4733 51.8126 67.4467 51.8304C67.3824 51.8712 67.3024 51.9003 67.2174 51.9144C66.8338 51.9768 66.4711 51.6763 66.4703 50.832C66.4707 48.6164 65.5754 23.0432 65.2753 15.4109C65.2249 14.1238 64.9138 12.5955 64.1833 11.3775C63.4072 10.0836 62.1746 9.12862 60.3136 9.08533C58.9994 9.05621 57.5991 9.48356 56.5178 10.4847C53.9269 12.8656 54.1725 14.9936 54.3009 18.1435C54.5466 24.1745 54.2488 35.8393 54.3755 38.5685C54.5416 42.1114 55.0553 46.6641 54.7948 49.0767C54.7457 49.5321 54.6733 49.901 54.5534 50.1565C54.5295 50.2065 54.5041 50.2508 54.4751 50.287C54.4681 50.2961 54.4562 50.3078 54.4483 50.3157ZM46.2394 114.366L44.0757 100.079C44.0464 99.8877 43.9031 99.7287 43.7082 99.6737C43.7082 99.6737 42.4579 99.3142 41.4132 98.6005C40.2996 97.8401 28.7829 90.8567 26.1498 89.0996C23.5623 87.3655 19.6636 82.1884 17.2621 79.0366C15.7937 77.1005 11.2504 73.7203 7.5797 70.974C5.21702 69.2071 3.22095 67.7203 2.74691 67.0774C2.38715 66.5946 1.99441 66.1166 1.67943 65.6269C1.36061 65.1312 1.11671 64.6279 1.13056 64.0881C1.14455 63.5559 1.41759 63.0038 2.05698 62.3883C3.0422 61.433 4.43841 61.0195 6.21428 61.078C8.11086 61.1409 10.4196 61.7369 13.1241 62.8223C17.5567 64.5989 24.0956 69.7785 26.9117 71.3724C27.499 71.705 27.9583 71.886 28.2365 71.9135C28.5481 71.9427 28.7613 71.8403 28.8957 71.6955C29.6821 70.8652 30.8271 69.5436 31.1928 65.3251C31.6741 59.7776 31.244 54.4875 31.0646 52.4542C30.7343 48.7356 29.5399 29.6418 29.4254 22.9153C29.3819 20.3093 29.399 18.3907 29.5976 16.9305C29.8719 14.9081 30.4969 13.8275 31.8826 13.0077C34.1121 11.6968 35.4146 11.9744 36.1556 12.5542C37.0222 13.2336 37.5608 14.3111 37.9217 15.6086C38.5002 17.6903 38.6002 20.3239 38.6423 22.9308C38.7368 28.6512 39.2648 43.9293 40.3374 49.8106C40.5401 50.9221 40.7768 51.7195 41.0172 52.0991C41.2401 52.4535 41.5227 52.5717 41.7607 52.5713C42.0367 52.5721 42.327 52.4182 42.5102 52.0415C42.8311 51.3795 42.873 49.6597 42.7896 48.9796C42.6951 48.1902 42.6387 12.9833 42.7913 10.4951C42.8852 9.09411 43.2793 7.89706 43.8337 7.04809C44.17 6.5332 44.5608 6.15024 44.9768 5.95409C46.0559 5.45676 48.1237 5.16352 49.4782 6.94637C49.5786 7.07935 49.6626 7.36556 49.7635 7.76936C49.9444 8.49852 50.1233 9.56203 50.2984 10.8672C51.4863 19.6977 52.4957 39.4223 52.5766 42.0151C52.6703 45.0508 52.3739 48.2605 52.8456 49.8859C53.1252 50.8502 53.6731 51.3432 54.4798 51.3133C54.8408 51.3088 55.1513 51.1419 55.386 50.7867C55.6036 50.4559 55.759 49.902 55.8373 49.1782C56.1009 46.7329 55.5909 42.1169 55.4232 38.5243C55.2953 35.796 55.5937 24.1346 55.3477 18.1058C55.233 15.2756 54.9193 13.342 57.2466 11.2018C58.1138 10.3987 59.237 10.0595 60.2884 10.0839C61.728 10.1169 62.6727 10.8705 63.2742 11.873C63.9202 12.9511 64.1845 14.3076 64.2285 15.4487C64.5274 23.0721 65.4227 48.6188 65.4226 50.8323C65.4223 51.8437 65.811 52.3972 66.2472 52.6745C66.742 52.9907 67.3513 52.977 67.8095 52.777C68.2787 52.5718 68.568 52.1779 68.5679 51.7805C68.5683 51.7773 68.5686 51.7751 68.5679 51.7717C68.5679 51.7717 68.4989 47.777 68.3588 41.9896C68.2905 39.1319 68.3829 32.059 68.5677 26.801C68.6044 25.7586 68.8965 24.3349 69.5813 23.1943C70.2144 22.14 71.1972 21.3275 72.6725 21.4054C74.0824 21.48 75.0257 22.2885 75.6684 23.4267C76.7294 25.308 76.9947 28.0548 77.0115 30.29C77.0461 34.9642 76.1738 46.3407 76.5715 53.7557C76.5721 53.7602 76.5727 53.7646 76.5721 53.769C76.5721 53.769 77.7251 67.7541 76.5738 78.2853C75.4235 88.8089 72.1996 99.0241 72.1996 99.0241C72.1794 99.09 72.1729 99.1575 72.1815 99.2245L73.6173 111.237C68.2842 116.733 61.4357 117.502 55.9049 116.901C51.0645 116.374 47.2215 114.797 46.2394 114.366Z" fill="#4F4F4F"/>
<path fill-rule="evenodd" clip-rule="evenodd" d="M46.2179 114.386L44.0556 100.099C44.0253 99.9079 43.8821 99.7481 43.6868 99.693C43.6868 99.693 42.4379 99.3339 41.3925 98.6209C40.2783 97.8607 28.7622 90.8747 26.1294 89.1184C23.5407 87.3856 19.6424 82.2083 17.2407 79.0548C15.7716 77.1202 11.2296 73.7386 7.55962 70.994C5.19644 69.2272 3.20195 67.7382 2.72601 67.096C2.36562 66.6136 1.97211 66.1366 1.65849 65.6464C1.33936 65.1509 1.09734 64.6476 1.11109 64.1076C1.12485 63.5755 1.39717 63.0223 2.03542 62.4063C3.02031 61.4521 4.41789 61.038 6.19509 61.0982C8.09059 61.1612 10.3987 61.7562 13.103 62.8414C17.535 64.6188 24.0744 69.796 26.8915 71.3925C27.4775 71.7228 27.9369 71.9063 28.2148 71.9325C28.5284 71.9613 28.7402 71.8591 28.875 71.7149C29.6618 70.8839 30.8063 69.5626 31.1722 65.3448C31.6536 59.798 31.2244 54.5055 31.0429 52.4739C30.7127 48.7541 29.5188 29.6599 29.406 22.9334C29.362 20.3278 29.3784 18.4088 29.5765 16.9513C29.8516 14.9276 30.4761 13.8477 31.8627 13.0272C34.091 11.7165 35.3951 11.9944 36.1352 12.5737C37.0018 13.2526 37.541 14.33 37.9014 15.6276C38.4791 17.709 38.5782 20.3434 38.6222 22.949C38.7157 28.6715 39.2438 43.949 40.3167 49.8288C40.5203 50.9429 40.757 51.7373 40.9963 52.12C41.2192 52.4712 41.5026 52.5918 41.7392 52.5918C42.017 52.5918 42.3059 52.4372 42.4902 52.0597C42.8093 51.3991 42.8533 49.6794 42.768 48.9979C42.6745 48.2088 42.6168 13.0009 42.7708 10.5159C42.8644 9.11342 43.2576 7.91802 43.8134 7.06607C44.149 6.55227 44.5398 6.16957 44.9552 5.97297C46.0336 5.4749 48.1023 5.18394 49.4586 6.96649C49.5576 7.10018 49.643 7.38594 49.742 7.78964C49.9236 8.51839 50.1023 9.57994 50.2784 10.8854C51.4669 19.7169 52.4739 39.4429 52.5564 42.0354C52.6499 45.071 52.3527 48.2796 52.8232 49.9049C53.1038 50.8695 53.654 51.3624 54.4601 51.3336C54.8205 51.3283 55.1286 51.1605 55.3652 50.8066C55.5826 50.4737 55.7394 49.9207 55.8164 49.1972C56.0806 46.7514 55.5688 42.1351 55.401 38.5438C55.2744 35.8149 55.5715 24.1549 55.3267 18.1257C55.2111 15.2946 54.8975 13.3601 57.2249 11.221C58.0915 10.4189 59.2167 10.0781 60.2676 10.1017C61.7064 10.1357 62.6528 10.8907 63.2526 11.8921C63.8991 12.9721 64.1632 14.3274 64.2073 15.4677C64.5071 23.0907 65.4012 48.6388 65.4012 50.8513C65.4012 51.8631 65.7891 52.4162 66.2265 52.694C66.7217 53.0086 67.3297 52.9955 67.7892 52.7963C68.2569 52.5919 68.5484 52.1959 68.5484 51.8001C68.5484 51.7975 68.5485 51.7949 68.5457 51.7923C68.5457 51.7923 68.4769 47.7973 68.3394 42.0093C68.2706 39.152 68.3614 32.0794 68.5457 26.8208C68.5842 25.7775 68.8758 24.3542 69.5609 23.2139C70.1936 22.1601 71.1757 21.3475 72.6503 21.4261C74.0616 21.4995 75.0053 22.3069 75.6463 23.4472C76.7082 25.3268 76.9722 28.0739 76.9915 30.3099C77.0245 34.9839 76.1524 46.3608 76.5513 53.7741C76.5513 53.7793 76.5513 53.7845 76.5513 53.7871C76.5513 53.7871 77.704 67.7724 76.5541 78.3051C75.4014 88.8274 72.1799 99.0429 72.1799 99.0429C72.1579 99.1084 72.1523 99.1766 72.1606 99.2448L73.5967 111.256C68.2623 116.753 61.4148 117.521 55.8824 116.921C51.0432 116.394 47.2 114.816 46.2179 114.386Z" fill="#BDBDBD"/>
<path fill-rule="evenodd" clip-rule="evenodd" d="M1.13851 63.7145C1.10275 63.8482 1.0835 63.9792 1.08075 64.1077C1.06699 64.6477 1.30901 65.151 1.62814 65.6465C1.94176 66.1367 2.33527 66.6137 2.69566 67.096C3.1716 67.7383 5.16609 69.2273 7.52927 70.9941C11.1992 73.7387 15.7412 77.1203 17.2103 79.0549C19.612 82.2084 23.5103 87.3857 26.0991 89.1184C28.7319 90.8748 40.2479 97.8608 41.3621 98.621C42.4075 99.334 43.6565 99.6931 43.6565 99.6931C43.8518 99.7482 43.995 99.908 44.0252 100.099L46.1875 114.386C47.1697 114.816 51.0129 116.394 55.8521 116.921C60.7407 117.45 66.6556 116.913 71.6461 112.989C68.1192 114.195 62.639 115.859 58.6197 116.119C52.2069 116.528 49.0569 114.396 48.2564 112.643C47.4448 110.886 46.1628 100.883 46.1628 100.883C46.1628 100.883 47.9565 100.805 47.9675 100.907C47.9813 101.009 50.9607 100.406 50.9882 100.498C51.0157 100.603 54.4849 98.7756 54.4849 98.7756L56.7241 97.0822C56.7241 97.0822 57.7394 96.2721 58.009 95.7138C58.2814 95.1554 58.5123 93.0688 58.5123 93.0688C58.5123 93.0688 54.2703 96.6758 52.5536 97.2919C50.8397 97.9053 45.2632 97.2684 41.1833 96.0048C37.098 94.7571 30.4925 89.8 28.6741 88.3661C26.8694 86.9322 21.4663 81.4298 20.0302 79.4009C18.5969 77.3562 12.7343 71.9509 12.7343 71.9509C12.7343 71.9509 7.35051 70.5459 4.90204 68.0818C3.31467 66.4827 1.91982 64.7394 1.13851 63.7145ZM31.2162 55.195C31.373 57.7927 31.4747 61.5072 31.1419 65.3449C30.7815 69.5024 29.6645 70.8446 28.8777 71.6782C29.1198 71.7333 29.4307 71.7909 29.8296 71.8486C31.3427 72.0767 34.6385 71.2745 34.6385 71.2745C34.6385 71.2745 35.6068 67.914 34.3138 62.6712C33.505 59.4049 32.1323 56.7363 31.2162 55.195ZM75.4756 23.2087C74.8401 22.1968 73.9323 21.4944 72.62 21.4262C72.2981 21.4079 71.9982 21.434 71.7204 21.4943C70.9583 21.8089 70.3476 22.2257 69.8524 22.7422C69.7368 22.8916 69.6296 23.0488 69.5305 23.214C68.8455 24.3543 68.5539 25.7776 68.5154 26.8209C68.3311 32.0794 68.2403 39.1521 68.3091 42.0094C68.4466 47.7974 68.5154 51.7924 68.5154 51.7924C68.5181 51.795 68.5181 51.7976 68.5181 51.8002C68.5181 51.8972 68.4988 51.9942 68.4658 52.0886C68.4741 52.2327 68.4823 52.3769 68.4905 52.5211L71.8002 54.0153C71.8002 54.0153 69.6323 50.0832 69.5497 47.4959C69.4755 44.8928 70.0477 43.5926 70.0477 43.5926C70.0477 43.5926 69.0435 41.6764 68.8344 38.9371C68.6171 36.0981 69.5497 33.8096 69.5497 33.8096C69.5497 33.8096 69.2417 30.0165 70.1771 25.4789C70.7245 22.8339 72.8868 22.0265 75.4756 23.2087ZM36.3689 12.8017C36.2836 12.7231 36.1956 12.6472 36.1048 12.5738C35.3648 11.9944 34.0607 11.7166 31.8323 13.0273C30.4458 13.8477 29.8213 14.9277 29.5462 16.9514C29.3481 18.4089 29.3317 20.3278 29.3757 22.9335C29.4857 29.5184 30.6328 47.9573 30.9905 52.2196L32.7044 52.3377C32.7044 52.3377 31.2327 44.9008 31.1804 42.3816C31.1309 39.8467 31.1804 35.7364 31.1804 35.7364C31.1804 35.7364 30.223 31.7624 30.3165 29.0938C30.4156 26.2365 31.0676 24.5142 31.0676 24.5142C31.0676 24.5142 30.0249 22.3462 31.0923 18.2909C31.7663 15.7455 33.8902 12.571 36.3689 12.8017ZM48.8754 6.37931C47.5576 5.25997 45.8657 5.54051 44.9248 5.97304C44.5094 6.16965 44.1187 6.55235 43.783 7.06614C43.2273 7.9181 42.834 9.11349 42.7405 10.5159C42.5864 13.001 42.6441 48.2089 42.7377 48.9979C42.8147 49.6166 42.7871 51.0925 42.5395 51.8527L44.6359 52.0545C44.6359 52.0545 43.2823 43.784 43.2273 41.2648C43.1805 38.7326 43.6483 32.9236 43.6483 32.9236C43.6483 32.9236 43.1008 29.7385 42.9275 27.0726C42.7459 24.3122 43.6483 19.9189 43.6483 19.9189C43.6483 19.9189 42.6194 15.625 43.5603 11.2001C44.094 8.69141 46.3719 6.11193 48.8754 6.37931ZM62.9444 11.4805C62.342 10.6889 61.4725 10.1306 60.2373 10.1017C59.1864 10.0781 58.0612 10.4189 57.1946 11.2211C54.8671 13.3601 55.1808 15.2947 55.2963 18.1258C55.5412 24.155 55.2441 35.815 55.3706 38.5439C55.5384 42.1352 56.0502 46.7515 55.7861 49.1972C55.7476 49.5642 55.687 49.8866 55.61 50.1593L58.8783 51.6351C58.8783 51.6351 57.2056 47.475 57.1231 44.8877C57.0461 42.2846 57.1231 34.9577 57.1231 34.9577C57.1231 34.9577 56.5179 31.5133 56.3088 28.7714C56.0915 25.935 56.9882 21.5991 56.9882 21.5991C56.9882 21.5991 56.1877 20.915 57.1231 16.3773C57.6541 13.8005 60.2319 11.1686 62.9444 11.4805Z" fill="#828282"/>
<path d="M76.2138 33.3307C76.3474 33.3185 76.4509 33.2123 76.4431 33.0972C76.4306 32.971 76.3191 32.8723 76.1862 32.8832L69.4718 33.2224C69.3476 33.2184 69.244 33.3246 69.2554 33.4512C69.2547 33.5811 69.3627 33.6682 69.5002 33.6686L76.2138 33.3307Z" fill="#4F4F4F"/>
<path d="M76.0905 43.2181C76.2194 43.2081 76.3087 43.1042 76.2988 42.9824C76.2994 42.8538 76.1837 42.7572 76.0559 42.7667L69.6189 43.2254C69.49 43.2354 69.4007 43.3393 69.4112 43.4621C69.4227 43.5844 69.5367 43.6805 69.6656 43.6705L76.0905 43.2181Z" fill="#4F4F4F"/>
<path d="M76.1678 54.5975C76.2506 54.6209 76.3337 54.4916 76.3536 54.3423C76.3705 54.1774 76.3042 54.0399 76.2124 54.0232C76.2124 54.0232 74.0598 53.7513 72.0497 53.5091C70.083 53.2866 68.7084 52.323 68.7056 52.3087C68.6281 52.2638 68.5251 52.3397 68.4942 52.4808C68.4542 52.6287 68.4887 52.8059 68.5663 52.8509C68.5773 52.859 69.9868 53.8473 72.0052 54.0834C73.9832 54.3153 76.1588 54.6042 76.1678 54.5975Z" fill="#4F4F4F"/>
<path d="M64.2215 52.3005C64.3592 52.3018 64.4719 52.1591 64.4736 51.9999C64.4609 51.8406 64.3522 51.7278 64.2145 51.7264C64.2 51.7263 60.8879 51.9321 59.1829 51.4376C57.4502 50.926 56.0796 50.2266 56.0796 50.2266C55.9559 50.1612 55.8042 50.2239 55.7471 50.3672C55.69 50.5104 55.7569 50.6857 55.8806 50.7511C55.8806 50.7511 57.2931 51.4816 59.0535 51.9948C60.8404 52.5223 64.2215 52.3005 64.2215 52.3005Z" fill="#4F4F4F"/>
<path d="M64.8231 35.562C64.9567 35.5633 65.0657 35.4552 65.0803 35.2998C65.082 35.1443 64.9898 35.0028 64.8563 35.0015C64.8434 35.0013 61.288 34.7175 60.3785 34.6293C58.534 34.4404 57.1298 34.4892 57.1298 34.4892C56.9962 34.4878 56.8871 34.6109 56.8982 34.7666C56.8965 34.9222 57.0029 35.0488 57.1365 35.0501C57.1365 35.0501 58.5277 35.0162 60.3326 35.1898C62.952 35.4506 64.8103 35.5619 64.8231 35.562Z" fill="#4F4F4F"/>
<path d="M64.1945 21.7607C64.3427 21.7488 64.4623 21.6244 64.4495 21.4854C64.4353 21.3598 64.3183 21.2477 64.1701 21.2596C64.1558 21.2595 60.9792 21.4374 59.7178 21.5638C58.4851 21.677 56.9886 21.5646 56.9886 21.5646C56.8407 21.5485 56.7058 21.6447 56.6887 21.7834C56.6872 21.9223 56.7898 22.0488 56.9391 22.0503C56.9534 22.0504 58.4939 22.1779 59.7863 22.0653C61.0334 21.9388 64.1945 21.7607 64.1945 21.7607Z" fill="#4F4F4F"/>
<path d="M50.6192 19.6335C50.7572 19.6133 50.8469 19.4911 50.8213 19.3668C50.7945 19.2423 50.6554 19.1578 50.5178 19.1769C50.5178 19.1769 47.7843 19.6188 45.7624 19.5335C43.6547 19.4416 43.5068 19.4457 43.5068 19.4457C43.3608 19.4376 43.2462 19.5413 43.2451 19.6592C43.254 19.7933 43.3599 19.8963 43.5047 19.9041C43.5047 19.9041 43.7527 19.9111 45.7603 19.9919C47.8414 20.0775 50.6047 19.63 50.6192 19.6335Z" fill="#4F4F4F"/>
<path d="M51.4766 31.9792C51.6075 31.9106 51.6632 31.7289 51.6096 31.588C51.5511 31.4629 51.4074 31.4004 51.275 31.4701C51.275 31.4701 50.2031 32.1166 47.1603 32.2865C44.1031 32.4535 43.9591 32.326 43.9591 32.326C43.842 32.2691 43.683 32.3333 43.62 32.4809C43.5569 32.6286 43.6083 32.7846 43.7254 32.8415C43.7254 32.8415 43.9869 33.0245 47.1466 32.8466C50.3195 32.6714 51.4766 31.9792 51.4766 31.9792Z" fill="#4F4F4F"/>
<path d="M51.9622 50.7915C52.022 50.6406 51.9837 50.4716 51.8503 50.4145C51.7187 50.342 51.5732 50.4133 51.5033 50.5453C51.5033 50.5453 51.1068 51.4296 48.6846 51.6335C46.1005 51.839 43.2501 51.72 43.2354 51.7173C43.0923 51.7081 42.9656 51.8311 42.9488 51.9899C42.9441 52.1509 43.0483 52.2836 43.1912 52.2943C43.1912 52.2943 46.0995 52.4224 48.6856 52.2003C51.4147 51.9888 51.9487 50.789 51.9622 50.7915Z" fill="#4F4F4F"/>
<path d="M40.5323 51.2683C40.6559 51.2255 40.7186 51.0905 40.688 50.9686C40.6575 50.8467 40.537 50.7849 40.4124 50.8271C40.4124 50.8271 37.828 51.7581 35.7529 51.8609C33.6624 51.969 31.3997 51.702 31.3997 51.702C31.2701 51.6806 31.1489 51.7696 31.1153 51.9037C31.0882 52.0265 31.1579 52.1539 31.2955 52.1635C31.2955 52.1635 33.608 52.4414 35.7286 52.3328C37.8768 52.2238 40.5153 51.2741 40.5323 51.2683Z" fill="#4F4F4F"/>
<path d="M39.0106 35.9495C39.1374 35.9135 39.2185 35.7959 39.1864 35.6644C39.1606 35.5501 39.0255 35.4668 38.8987 35.5028C38.8863 35.4965 36.8024 35.9847 34.6979 36.0011C32.5636 36.0161 31.0095 35.8096 31.0095 35.8096C30.8721 35.7821 30.7436 35.8753 30.734 36.0005C30.7126 36.1184 30.8104 36.2419 30.9359 36.2621C30.942 36.2514 32.5194 36.4685 34.7019 36.4504C36.8789 36.4422 38.9993 35.9437 39.0106 35.9495Z" fill="#4F4F4F"/>
<path d="M38.602 23.3615C38.7512 23.3325 38.8364 23.2099 38.8118 23.0772C38.7884 22.9451 38.6415 22.8552 38.4993 22.8719C38.493 22.8832 35.2689 23.3991 33.5574 23.4246C31.8272 23.455 30.3691 23.2647 30.3691 23.2647C30.2279 23.2516 30.0982 23.3354 30.0831 23.4795C30.0756 23.6102 30.1765 23.7227 30.3102 23.7465C30.3236 23.7534 31.8128 23.9451 33.5831 23.905C35.3459 23.8755 38.5897 23.3552 38.602 23.3615Z" fill="#4F4F4F"/>
<path d="M69.1697 81.9068C69.249 81.9965 69.4104 82.007 69.5046 81.9315C69.5987 81.8559 69.6179 81.7172 69.5308 81.6114C69.5096 81.5922 60.6825 71.536 54.3462 67.0112C48.0096 62.4874 38.5363 58.3764 38.5113 58.3687C38.3907 58.3191 38.2502 58.3678 38.1982 58.4827C38.1462 58.5975 38.1973 58.7314 38.3047 58.777C38.3429 58.7887 47.7779 62.888 54.0601 67.3698C60.3557 71.8546 69.1393 81.8722 69.1697 81.9068Z" fill="#4F4F4F"/>
<path d="M57.9839 92.9807C58.0115 93.1095 58.1502 93.1886 58.2861 93.1794C58.4361 93.1719 58.5398 93.0587 58.5121 92.9299C58.5028 92.8914 56.1635 78.7899 52.4589 72.4063C48.7452 65.9721 35.3323 60.6628 35.2901 60.6457C35.1482 60.5915 34.9934 60.6358 34.9335 60.7542C34.8738 60.8605 34.945 61.0065 35.0728 61.0591C35.1165 61.0643 48.3578 66.3159 51.9866 72.5892C55.6539 78.9178 57.9734 92.9409 57.9839 92.9807Z" fill="#4F4F4F"/>
<path d="M35.077 71.4588C35.1809 71.3709 35.185 71.2327 35.0928 71.1338C35.0114 71.0493 34.8666 71.0442 34.7642 71.1201C34.4073 71.4301 33.1138 71.6411 31.747 71.7048C30.3246 71.7884 28.8579 71.7148 28.3361 71.4647C28.2255 71.401 28.0877 71.4474 28.022 71.553C27.9676 71.6599 28.0022 71.8016 28.127 71.8549C28.7088 72.1495 30.2785 72.2474 31.7799 72.1611C33.2284 72.0818 34.6319 71.8331 35.077 71.4588Z" fill="#4F4F4F"/>
<path d="M18.375 66.2275C18.4527 66.1366 18.4318 65.9954 18.3353 65.9213C18.2261 65.8456 18.0791 65.8656 18.0013 65.9576L13.359 71.8168C13.2796 71.9207 13.3006 72.0608 13.4097 72.1365C13.5052 72.2105 13.6533 72.1906 13.7327 72.0867L18.375 66.2275Z" fill="#4F4F4F"/>
<path d="M73.6475 94.1616C73.7727 94.1137 73.8291 93.9828 73.7773 93.8754C73.727 93.7561 73.6021 93.7039 73.4769 93.7518C73.4644 93.7503 70.7981 94.7794 67.4395 95.1476C64.0948 95.5063 62.6002 94.9385 62.6002 94.9385C62.4736 94.8993 62.3332 94.9575 62.2909 95.078C62.2513 95.1867 62.3126 95.3194 62.439 95.3597C62.439 95.3597 64.0487 95.9654 67.4864 95.5934C70.9115 95.2199 73.6475 94.1616 73.6475 94.1616Z" fill="#4F4F4F"/>
<path d="M58.394 96.1375C58.4853 96.0482 58.4895 95.91 58.3956 95.824C58.3019 95.737 58.1553 95.7449 58.0651 95.8344C58.0514 95.8328 54.7097 99.1076 51.1268 99.5746C47.5018 100.063 43.5555 99.7837 43.5429 99.7823C43.4117 99.7788 43.294 99.8661 43.2916 99.9913C43.2754 100.115 43.3797 100.227 43.511 100.231C43.5235 100.232 47.5097 100.516 51.2011 100.024C54.93 99.5354 58.3923 96.1505 58.394 96.1375Z" fill="#4F4F4F"/>
<path d="M74.5406 68.2558C74.6731 68.2583 74.7791 68.1454 74.7685 68.0319C74.771 67.9067 74.6664 67.8051 74.5339 67.8026C74.4937 67.81 63.3458 68.1358 54.9871 63.7654C46.6267 59.4068 42.8868 53.5089 42.8747 53.4953C42.8102 53.3875 42.6701 53.3456 42.5553 53.42C42.441 53.4813 42.4107 53.6164 42.4752 53.7242C42.4873 53.7378 46.2803 59.7422 54.7638 64.166C63.2348 68.5882 74.5156 68.2528 74.5406 68.2558Z" fill="#4F4F4F"/>
</g>
</g>
</svg>
