<svg width="104" height="130" viewBox="0 0 104 130" fill="none" xmlns="http://www.w3.org/2000/svg">
<mask id="mask0" mask-type="alpha" maskUnits="userSpaceOnUse" x="0" y="0" width="104" height="130">
<rect width="104" height="130" rx="5" transform="matrix(-1 0 0 1 104 0)" fill="#EFEFEF"/>
</mask>
<g mask="url(#mask0)">
<rect width="65" height="65" rx="5" transform="matrix(1 0 0 -1 16 105)" fill="#C4C4C4"/>
<g opacity="0.3">
<path fill-rule="evenodd" clip-rule="evenodd" d="M49.5517 50.3157L49.5576 50.3161C49.7351 50.3226 49.8569 50.2289 49.9518 50.0801C50.1241 49.8065 50.2195 49.4045 50.2859 48.9134C50.5142 47.2013 50.2973 44.5304 50.3765 41.9861C50.4565 39.3857 51.4703 19.5979 52.6628 10.7405C52.8747 9.16013 53.0955 7.92214 53.315 7.17851C53.4294 6.78962 53.5554 6.51604 53.6717 6.36248C55.4237 4.05815 58.0874 4.41286 59.4838 5.05752C60.8314 5.69144 62.0725 7.71379 62.2542 10.434C62.4084 12.9351 62.3462 48.3002 62.2522 49.0939C62.1996 49.5139 62.1947 50.3973 62.2985 51.0685C62.4145 50.7003 62.5247 50.2173 62.6296 49.6402C63.6973 43.7914 64.2161 28.6024 64.3103 22.9152C64.3539 20.2222 64.4681 17.5032 65.0654 15.3533C65.489 13.8282 66.1604 12.582 67.1789 11.7833C68.1264 11.0415 69.8134 10.4795 72.6698 12.1597C74.0581 12.9814 74.8362 14.0053 75.2475 15.7319C75.6273 17.3324 75.678 19.5795 75.6221 22.931C75.5084 29.6728 74.3105 48.811 73.9803 52.5385C73.802 54.5452 73.3756 59.7666 73.8512 65.2433C74.1629 68.8275 75.0518 70.1157 75.7505 70.8848C75.9122 70.8227 76.2554 70.6819 76.5524 70.5146C79.3931 68.9057 85.9984 63.6941 90.4693 61.9019C93.3177 60.7587 95.7512 60.1457 97.7492 60.0807C99.8666 60.0104 101.516 60.5491 102.689 61.6869C103.441 62.4112 103.787 63.0911 103.886 63.7287C104.004 64.483 103.777 65.1934 103.379 65.879C103.03 66.4816 102.547 67.0662 102.108 67.6542C101.612 68.3259 99.5432 69.9073 97.067 71.7603C93.4794 74.4439 89.023 77.729 87.587 79.6217C85.1254 82.8521 81.1046 88.1384 78.4523 89.9165C75.8202 91.6724 64.3101 98.6528 63.1965 99.4132C62.3573 99.9848 61.4021 100.357 60.9157 100.524L58.7576 114.774C58.7325 114.935 58.626 115.076 58.4727 115.149C58.4727 115.149 54.0421 117.259 48.2141 117.893C42.3439 118.531 35.0726 117.673 29.4469 111.74C29.3453 111.635 29.2978 111.492 29.3151 111.35L30.7658 99.2128C30.4318 98.1318 27.4776 88.3987 26.384 78.389C25.2407 67.9284 26.3509 54.0848 26.3826 53.6991C26.7788 46.2986 25.9052 34.9476 25.9411 30.2831C25.9585 27.8937 26.2752 24.9648 27.4093 22.9538C28.2301 21.4983 29.4669 20.5043 31.2691 20.4085C33.1941 20.307 34.5015 21.3232 35.3277 22.698C36.101 23.9855 36.4376 25.5911 36.479 26.7672C36.6652 32.0449 36.7576 39.1442 36.6883 42.0119C36.5541 47.5697 36.4849 51.4742 36.4799 51.7632C36.4907 51.7751 36.5267 51.8126 36.5533 51.8304C36.6176 51.8712 36.6976 51.9003 36.7826 51.9144C37.1662 51.9768 37.5289 51.6763 37.5297 50.832C37.5293 48.6164 38.4246 23.0432 38.7247 15.4109C38.7751 14.1238 39.0862 12.5955 39.8167 11.3775C40.5928 10.0836 41.8254 9.12862 43.6864 9.08533C45.0006 9.05621 46.4009 9.48356 47.4822 10.4847C50.0731 12.8656 49.8275 14.9936 49.6991 18.1435C49.4534 24.1745 49.7512 35.8393 49.6245 38.5685C49.4584 42.1114 48.9447 46.6641 49.2052 49.0767C49.2543 49.5321 49.3267 49.901 49.4466 50.1565C49.4705 50.2065 49.4959 50.2508 49.5249 50.287C49.5319 50.2961 49.5438 50.3078 49.5517 50.3157ZM57.7606 114.366L59.9243 100.079C59.9536 99.8877 60.0969 99.7287 60.2918 99.6737C60.2918 99.6737 61.5421 99.3142 62.5868 98.6005C63.7004 97.8401 75.2171 90.8567 77.8502 89.0996C80.4377 87.3655 84.3364 82.1884 86.7379 79.0366C88.2063 77.1005 92.7496 73.7203 96.4203 70.974C98.783 69.2071 100.779 67.7203 101.253 67.0774C101.613 66.5946 102.006 66.1166 102.321 65.6269C102.639 65.1312 102.883 64.6279 102.869 64.0881C102.855 63.5559 102.582 63.0038 101.943 62.3883C100.958 61.433 99.5616 61.0195 97.7857 61.078C95.8891 61.1409 93.5804 61.7369 90.8759 62.8223C86.4433 64.5989 79.9044 69.7785 77.0883 71.3724C76.501 71.705 76.0417 71.886 75.7635 71.9135C75.4519 71.9427 75.2387 71.8403 75.1043 71.6955C74.3179 70.8652 73.1729 69.5436 72.8072 65.3251C72.3259 59.7776 72.756 54.4875 72.9354 52.4542C73.2657 48.7356 74.4601 29.6418 74.5746 22.9153C74.6181 20.3093 74.601 18.3907 74.4024 16.9305C74.1281 14.9081 73.5031 13.8275 72.1174 13.0077C69.8879 11.6968 68.5854 11.9744 67.8444 12.5542C66.9778 13.2336 66.4392 14.3111 66.0783 15.6086C65.4998 17.6903 65.3998 20.3239 65.3577 22.9308C65.2632 28.6512 64.7352 43.9293 63.6626 49.8106C63.4599 50.9221 63.2232 51.7195 62.9828 52.0991C62.7599 52.4535 62.4773 52.5717 62.2393 52.5713C61.9633 52.5721 61.673 52.4182 61.4898 52.0415C61.1689 51.3795 61.127 49.6597 61.2104 48.9796C61.3049 48.1902 61.3613 12.9833 61.2087 10.4951C61.1148 9.09411 60.7207 7.89706 60.1663 7.04809C59.83 6.5332 59.4392 6.15024 59.0232 5.95409C57.9441 5.45676 55.8763 5.16352 54.5218 6.94637C54.4214 7.07935 54.3374 7.36556 54.2365 7.76936C54.0556 8.49852 53.8767 9.56203 53.7016 10.8672C52.5137 19.6977 51.5043 39.4223 51.4234 42.0151C51.3297 45.0508 51.6261 48.2605 51.1544 49.8859C50.8748 50.8502 50.3269 51.3432 49.5202 51.3133C49.1592 51.3088 48.8487 51.1419 48.614 50.7867C48.3964 50.4559 48.241 49.902 48.1627 49.1782C47.8991 46.7329 48.4091 42.1169 48.5768 38.5243C48.7047 35.796 48.4063 24.1346 48.6523 18.1058C48.767 15.2756 49.0807 13.342 46.7534 11.2018C45.8862 10.3987 44.763 10.0595 43.7116 10.0839C42.272 10.1169 41.3273 10.8705 40.7258 11.873C40.0798 12.9511 39.8155 14.3076 39.7715 15.4487C39.4726 23.0721 38.5773 48.6188 38.5774 50.8323C38.5777 51.8437 38.189 52.3972 37.7528 52.6745C37.258 52.9907 36.6487 52.977 36.1905 52.777C35.7213 52.5718 35.432 52.1779 35.4321 51.7805C35.4317 51.7773 35.4314 51.7751 35.4321 51.7717C35.4321 51.7717 35.5011 47.777 35.6412 41.9896C35.7095 39.1319 35.6171 32.059 35.4323 26.801C35.3956 25.7586 35.1035 24.3349 34.4187 23.1943C33.7856 22.14 32.8028 21.3275 31.3275 21.4054C29.9176 21.48 28.9743 22.2885 28.3316 23.4267C27.2706 25.308 27.0053 28.0548 26.9885 30.29C26.9539 34.9642 27.8262 46.3407 27.4285 53.7557C27.4279 53.7602 27.4273 53.7646 27.4279 53.769C27.4279 53.769 26.2749 67.7541 27.4262 78.2853C28.5765 88.8089 31.8004 99.0241 31.8004 99.0241C31.8206 99.09 31.8271 99.1575 31.8185 99.2245L30.3827 111.237C35.7158 116.733 42.5643 117.502 48.0951 116.901C52.9355 116.374 56.7785 114.797 57.7606 114.366Z" fill="#4F4F4F"/>
<path fill-rule="evenodd" clip-rule="evenodd" d="M57.7821 114.386L59.9444 100.099C59.9747 99.9079 60.1179 99.7481 60.3132 99.693C60.3132 99.693 61.5621 99.3339 62.6075 98.6209C63.7217 97.8607 75.2378 90.8747 77.8706 89.1184C80.4593 87.3856 84.3576 82.2083 86.7593 79.0548C88.2284 77.1202 92.7704 73.7386 96.4404 70.994C98.8036 69.2272 100.798 67.7382 101.274 67.096C101.634 66.6136 102.028 66.1366 102.342 65.6464C102.661 65.1509 102.903 64.6476 102.889 64.1076C102.875 63.5755 102.603 63.0223 101.965 62.4063C100.98 61.4521 99.5821 61.038 97.8049 61.0982C95.9094 61.1612 93.6013 61.7562 90.897 62.8414C86.465 64.6188 79.9256 69.796 77.1085 71.3925C76.5225 71.7228 76.0631 71.9063 75.7852 71.9325C75.4716 71.9613 75.2598 71.8591 75.125 71.7149C74.3382 70.8839 73.1937 69.5626 72.8278 65.3448C72.3464 59.798 72.7756 54.5055 72.9571 52.4739C73.2873 48.7541 74.4812 29.6599 74.594 22.9334C74.638 20.3278 74.6216 18.4088 74.4235 16.9513C74.1484 14.9276 73.5239 13.8477 72.1373 13.0272C69.909 11.7165 68.6049 11.9944 67.8648 12.5737C66.9982 13.2526 66.459 14.33 66.0986 15.6276C65.5209 17.709 65.4218 20.3434 65.3778 22.949C65.2843 28.6715 64.7562 43.949 63.6833 49.8288C63.4797 50.9429 63.243 51.7373 63.0037 52.12C62.7808 52.4712 62.4974 52.5918 62.2608 52.5918C61.983 52.5918 61.6941 52.4372 61.5098 52.0597C61.1907 51.3991 61.1467 49.6794 61.232 48.9979C61.3255 48.2088 61.3832 13.0009 61.2292 10.5159C61.1356 9.11342 60.7424 7.91802 60.1866 7.06607C59.851 6.55227 59.4602 6.16957 59.0448 5.97297C57.9664 5.4749 55.8977 5.18394 54.5414 6.96649C54.4424 7.10018 54.357 7.38594 54.258 7.78964C54.0764 8.51839 53.8977 9.57994 53.7216 10.8854C52.5331 19.7169 51.5261 39.4429 51.4436 42.0354C51.3501 45.071 51.6473 48.2796 51.1768 49.9049C50.8962 50.8695 50.346 51.3624 49.5399 51.3336C49.1795 51.3283 48.8714 51.1605 48.6348 50.8066C48.4174 50.4737 48.2606 49.9207 48.1836 49.1972C47.9194 46.7514 48.4312 42.1351 48.599 38.5438C48.7256 35.8149 48.4285 24.1549 48.6733 18.1257C48.7889 15.2946 49.1025 13.3601 46.7751 11.221C45.9085 10.4189 44.7833 10.0781 43.7324 10.1017C42.2936 10.1357 41.3472 10.8907 40.7474 11.8921C40.1009 12.9721 39.8368 14.3274 39.7927 15.4677C39.4929 23.0907 38.5988 48.6388 38.5988 50.8513C38.5988 51.8631 38.2109 52.4162 37.7735 52.694C37.2783 53.0086 36.6703 52.9955 36.2108 52.7963C35.7431 52.5919 35.4516 52.1959 35.4516 51.8001C35.4516 51.7975 35.4515 51.7949 35.4543 51.7923C35.4543 51.7923 35.5231 47.7973 35.6606 42.0093C35.7294 39.152 35.6386 32.0794 35.4543 26.8208C35.4158 25.7775 35.1242 24.3542 34.4391 23.2139C33.8064 22.1601 32.8243 21.3475 31.3497 21.4261C29.9384 21.4995 28.9947 22.3069 28.3537 23.4472C27.2918 25.3268 27.0278 28.0739 27.0085 30.3099C26.9755 34.9839 27.8476 46.3608 27.4487 53.7741C27.4487 53.7793 27.4487 53.7845 27.4487 53.7871C27.4487 53.7871 26.296 67.7724 27.4459 78.3051C28.5986 88.8274 31.8201 99.0429 31.8201 99.0429C31.8421 99.1084 31.8477 99.1766 31.8394 99.2448L30.4033 111.256C35.7377 116.753 42.5852 117.521 48.1176 116.921C52.9568 116.394 56.8 114.816 57.7821 114.386Z" fill="#BDBDBD"/>
<path fill-rule="evenodd" clip-rule="evenodd" d="M102.861 63.7145C102.897 63.8482 102.917 63.9792 102.919 64.1077C102.933 64.6477 102.691 65.151 102.372 65.6465C102.058 66.1367 101.665 66.6137 101.304 67.096C100.828 67.7383 98.8339 69.2273 96.4707 70.9941C92.8008 73.7387 88.2588 77.1203 86.7897 79.0549C84.388 82.2084 80.4897 87.3857 77.9009 89.1184C75.2681 90.8748 63.7521 97.8608 62.6379 98.621C61.5925 99.334 60.3435 99.6931 60.3435 99.6931C60.1482 99.7482 60.005 99.908 59.9748 100.099L57.8125 114.386C56.8303 114.816 52.9871 116.394 48.1479 116.921C43.2593 117.45 37.3444 116.913 32.3539 112.989C35.8808 114.195 41.361 115.859 45.3803 116.119C51.7931 116.528 54.9431 114.396 55.7436 112.643C56.5552 110.886 57.8372 100.883 57.8372 100.883C57.8372 100.883 56.0435 100.805 56.0325 100.907C56.0187 101.009 53.0393 100.406 53.0118 100.498C52.9843 100.603 49.5151 98.7756 49.5151 98.7756L47.2759 97.0822C47.2759 97.0822 46.2606 96.2721 45.991 95.7138C45.7186 95.1554 45.4877 93.0688 45.4877 93.0688C45.4877 93.0688 49.7297 96.6758 51.4464 97.2919C53.1603 97.9053 58.7368 97.2684 62.8167 96.0048C66.902 94.7571 73.5075 89.8 75.3259 88.3661C77.1306 86.9322 82.5337 81.4298 83.9698 79.4009C85.4031 77.3562 91.2657 71.9509 91.2657 71.9509C91.2657 71.9509 96.6495 70.5459 99.098 68.0818C100.685 66.4827 102.08 64.7394 102.861 63.7145ZM72.7838 55.195C72.627 57.7927 72.5253 61.5072 72.8581 65.3449C73.2185 69.5024 74.3355 70.8446 75.1223 71.6782C74.8802 71.7333 74.5693 71.7909 74.1704 71.8486C72.6573 72.0767 69.3615 71.2745 69.3615 71.2745C69.3615 71.2745 68.3932 67.914 69.6862 62.6712C70.495 59.4049 71.8677 56.7363 72.7838 55.195ZM28.5244 23.2087C29.1599 22.1968 30.0677 21.4944 31.38 21.4262C31.7019 21.4079 32.0018 21.434 32.2796 21.4943C33.0417 21.8089 33.6524 22.2257 34.1476 22.7422C34.2632 22.8916 34.3704 23.0488 34.4695 23.214C35.1545 24.3543 35.4461 25.7776 35.4846 26.8209C35.6689 32.0794 35.7597 39.1521 35.6909 42.0094C35.5534 47.7974 35.4846 51.7924 35.4846 51.7924C35.4819 51.795 35.4819 51.7976 35.4819 51.8002C35.4819 51.8972 35.5012 51.9942 35.5342 52.0886C35.5259 52.2327 35.5177 52.3769 35.5095 52.5211L32.1998 54.0153C32.1998 54.0153 34.3677 50.0832 34.4503 47.4959C34.5245 44.8928 33.9523 43.5926 33.9523 43.5926C33.9523 43.5926 34.9565 41.6764 35.1656 38.9371C35.3829 36.0981 34.4503 33.8096 34.4503 33.8096C34.4503 33.8096 34.7583 30.0165 33.8229 25.4789C33.2755 22.8339 31.1132 22.0265 28.5244 23.2087ZM67.6311 12.8017C67.7164 12.7231 67.8044 12.6472 67.8952 12.5738C68.6352 11.9944 69.9393 11.7166 72.1677 13.0273C73.5542 13.8477 74.1787 14.9277 74.4538 16.9514C74.6519 18.4089 74.6683 20.3278 74.6243 22.9335C74.5143 29.5184 73.3672 47.9573 73.0095 52.2196L71.2956 52.3377C71.2956 52.3377 72.7673 44.9008 72.8196 42.3816C72.8691 39.8467 72.8196 35.7364 72.8196 35.7364C72.8196 35.7364 73.777 31.7624 73.6835 29.0938C73.5844 26.2365 72.9324 24.5142 72.9324 24.5142C72.9324 24.5142 73.9751 22.3462 72.9077 18.2909C72.2337 15.7455 70.1098 12.571 67.6311 12.8017ZM55.1246 6.37931C56.4424 5.25997 58.1343 5.54051 59.0752 5.97304C59.4906 6.16965 59.8813 6.55235 60.217 7.06614C60.7727 7.9181 61.166 9.11349 61.2595 10.5159C61.4136 13.001 61.3559 48.2089 61.2623 48.9979C61.1853 49.6166 61.2129 51.0925 61.4605 51.8527L59.3641 52.0545C59.3641 52.0545 60.7177 43.784 60.7727 41.2648C60.8195 38.7326 60.3517 32.9236 60.3517 32.9236C60.3517 32.9236 60.8992 29.7385 61.0725 27.0726C61.2541 24.3122 60.3517 19.9189 60.3517 19.9189C60.3517 19.9189 61.3806 15.625 60.4397 11.2001C59.906 8.69141 57.6281 6.11193 55.1246 6.37931ZM41.0556 11.4805C41.658 10.6889 42.5275 10.1306 43.7627 10.1017C44.8136 10.0781 45.9388 10.4189 46.8054 11.2211C49.1329 13.3601 48.8192 15.2947 48.7037 18.1258C48.4588 24.155 48.7559 35.815 48.6294 38.5439C48.4616 42.1352 47.9498 46.7515 48.2139 49.1972C48.2524 49.5642 48.313 49.8866 48.39 50.1593L45.1217 51.6351C45.1217 51.6351 46.7944 47.475 46.8769 44.8877C46.9539 42.2846 46.8769 34.9577 46.8769 34.9577C46.8769 34.9577 47.4821 31.5133 47.6912 28.7714C47.9085 25.935 47.0118 21.5991 47.0118 21.5991C47.0118 21.5991 47.8123 20.915 46.8769 16.3773C46.3459 13.8005 43.7681 11.1686 41.0556 11.4805Z" fill="#828282"/>
<path d="M27.7862 33.3307C27.6526 33.3185 27.5491 33.2123 27.5569 33.0972C27.5694 32.971 27.6809 32.8723 27.8138 32.8832L34.5282 33.2224C34.6524 33.2184 34.756 33.3246 34.7446 33.4512C34.7453 33.5811 34.6373 33.6682 34.4998 33.6686L27.7862 33.3307Z" fill="#4F4F4F"/>
<path d="M27.9095 43.2181C27.7806 43.2081 27.6913 43.1042 27.7012 42.9824C27.7006 42.8538 27.8163 42.7572 27.9441 42.7667L34.3811 43.2254C34.51 43.2354 34.5993 43.3393 34.5888 43.4621C34.5773 43.5844 34.4633 43.6805 34.3344 43.6705L27.9095 43.2181Z" fill="#4F4F4F"/>
<path d="M27.8322 54.5975C27.7494 54.6209 27.6663 54.4916 27.6464 54.3423C27.6295 54.1774 27.6958 54.0399 27.7876 54.0232C27.7876 54.0232 29.9402 53.7513 31.9503 53.5091C33.917 53.2866 35.2916 52.323 35.2944 52.3087C35.3719 52.2638 35.4749 52.3397 35.5058 52.4808C35.5458 52.6287 35.5113 52.8059 35.4337 52.8509C35.4227 52.859 34.0132 53.8473 31.9948 54.0834C30.0168 54.3153 27.8412 54.6042 27.8322 54.5975Z" fill="#4F4F4F"/>
<path d="M39.7785 52.3005C39.6408 52.3018 39.5281 52.1591 39.5264 51.9999C39.5391 51.8406 39.6478 51.7278 39.7855 51.7264C39.8 51.7263 43.1121 51.9321 44.8171 51.4376C46.5498 50.926 47.9204 50.2266 47.9204 50.2266C48.0441 50.1612 48.1958 50.2239 48.2529 50.3672C48.31 50.5104 48.2431 50.6857 48.1194 50.7511C48.1194 50.7511 46.7069 51.4816 44.9465 51.9948C43.1596 52.5223 39.7785 52.3005 39.7785 52.3005Z" fill="#4F4F4F"/>
<path d="M39.1769 35.562C39.0433 35.5633 38.9343 35.4552 38.9197 35.2998C38.918 35.1443 39.0102 35.0028 39.1437 35.0015C39.1566 35.0013 42.712 34.7175 43.6215 34.6293C45.466 34.4404 46.8702 34.4892 46.8702 34.4892C47.0038 34.4878 47.1129 34.6109 47.1018 34.7666C47.1035 34.9222 46.9971 35.0488 46.8635 35.0501C46.8635 35.0501 45.4723 35.0162 43.6674 35.1898C41.048 35.4506 39.1897 35.5619 39.1769 35.562Z" fill="#4F4F4F"/>
<path d="M39.8055 21.7607C39.6573 21.7488 39.5377 21.6244 39.5505 21.4854C39.5647 21.3598 39.6817 21.2477 39.8299 21.2596C39.8442 21.2595 43.0208 21.4374 44.2822 21.5638C45.5149 21.677 47.0114 21.5646 47.0114 21.5646C47.1593 21.5485 47.2942 21.6447 47.3113 21.7834C47.3128 21.9223 47.2102 22.0488 47.0609 22.0503C47.0466 22.0504 45.5061 22.1779 44.2137 22.0653C42.9666 21.9388 39.8055 21.7607 39.8055 21.7607Z" fill="#4F4F4F"/>
<path d="M53.3808 19.6335C53.2428 19.6133 53.1531 19.4911 53.1787 19.3668C53.2055 19.2423 53.3446 19.1578 53.4822 19.1769C53.4822 19.1769 56.2157 19.6188 58.2376 19.5335C60.3453 19.4416 60.4932 19.4457 60.4932 19.4457C60.6392 19.4376 60.7538 19.5413 60.7549 19.6592C60.746 19.7933 60.6401 19.8963 60.4953 19.9041C60.4953 19.9041 60.2473 19.9111 58.2397 19.9919C56.1586 20.0775 53.3953 19.63 53.3808 19.6335Z" fill="#4F4F4F"/>
<path d="M52.5234 31.9792C52.3925 31.9106 52.3368 31.7289 52.3904 31.588C52.4489 31.4629 52.5926 31.4004 52.725 31.4701C52.725 31.4701 53.7969 32.1166 56.8397 32.2865C59.8969 32.4535 60.0409 32.326 60.0409 32.326C60.158 32.2691 60.317 32.3333 60.38 32.4809C60.4431 32.6286 60.3917 32.7846 60.2746 32.8415C60.2746 32.8415 60.0131 33.0245 56.8534 32.8466C53.6805 32.6714 52.5234 31.9792 52.5234 31.9792Z" fill="#4F4F4F"/>
<path d="M52.0378 50.7915C51.978 50.6406 52.0163 50.4716 52.1497 50.4145C52.2813 50.342 52.4268 50.4133 52.4967 50.5453C52.4967 50.5453 52.8932 51.4296 55.3154 51.6335C57.8995 51.839 60.7499 51.72 60.7646 51.7173C60.9077 51.7081 61.0344 51.8311 61.0512 51.9899C61.0559 52.1509 60.9517 52.2836 60.8088 52.2943C60.8088 52.2943 57.9005 52.4224 55.3144 52.2003C52.5853 51.9888 52.0513 50.789 52.0378 50.7915Z" fill="#4F4F4F"/>
<path d="M63.4677 51.2683C63.3441 51.2255 63.2814 51.0905 63.312 50.9686C63.3425 50.8467 63.463 50.7849 63.5876 50.8271C63.5876 50.8271 66.172 51.7581 68.2471 51.8609C70.3376 51.969 72.6003 51.702 72.6003 51.702C72.7299 51.6806 72.8511 51.7696 72.8847 51.9037C72.9118 52.0265 72.8421 52.1539 72.7045 52.1635C72.7045 52.1635 70.392 52.4414 68.2714 52.3328C66.1232 52.2238 63.4847 51.2741 63.4677 51.2683Z" fill="#4F4F4F"/>
<path d="M64.9894 35.9495C64.8626 35.9135 64.7815 35.7959 64.8136 35.6644C64.8394 35.5501 64.9745 35.4668 65.1013 35.5028C65.1137 35.4965 67.1976 35.9847 69.3021 36.0011C71.4364 36.0161 72.9905 35.8096 72.9905 35.8096C73.1279 35.7821 73.2564 35.8753 73.266 36.0005C73.2874 36.1184 73.1896 36.2419 73.0641 36.2621C73.058 36.2514 71.4806 36.4685 69.2981 36.4504C67.1211 36.4422 65.0007 35.9437 64.9894 35.9495Z" fill="#4F4F4F"/>
<path d="M65.398 23.3615C65.2488 23.3325 65.1636 23.2099 65.1882 23.0772C65.2116 22.9451 65.3585 22.8552 65.5007 22.8719C65.507 22.8832 68.7311 23.3991 70.4426 23.4246C72.1728 23.455 73.6309 23.2647 73.6309 23.2647C73.7721 23.2516 73.9018 23.3354 73.9169 23.4795C73.9244 23.6102 73.8235 23.7227 73.6898 23.7465C73.6764 23.7534 72.1872 23.9451 70.4169 23.905C68.6541 23.8755 65.4103 23.3552 65.398 23.3615Z" fill="#4F4F4F"/>
<path d="M34.8303 81.9068C34.751 81.9965 34.5896 82.007 34.4954 81.9315C34.4013 81.8559 34.3821 81.7172 34.4692 81.6114C34.4904 81.5922 43.3175 71.536 49.6538 67.0112C55.9904 62.4874 65.4637 58.3764 65.4887 58.3687C65.6093 58.3191 65.7498 58.3678 65.8018 58.4827C65.8538 58.5975 65.8027 58.7314 65.6953 58.777C65.6571 58.7887 56.2221 62.888 49.9399 67.3698C43.6443 71.8546 34.8607 81.8722 34.8303 81.9068Z" fill="#4F4F4F"/>
<path d="M46.0161 92.9807C45.9885 93.1095 45.8498 93.1886 45.7139 93.1794C45.5639 93.1719 45.4602 93.0587 45.4879 92.9299C45.4972 92.8914 47.8365 78.7899 51.5411 72.4063C55.2548 65.9721 68.6677 60.6628 68.7099 60.6457C68.8518 60.5915 69.0066 60.6358 69.0665 60.7542C69.1262 60.8605 69.055 61.0065 68.9272 61.0591C68.8835 61.0643 55.6422 66.3159 52.0134 72.5892C48.3461 78.9178 46.0266 92.9409 46.0161 92.9807Z" fill="#4F4F4F"/>
<path d="M68.923 71.4588C68.8191 71.3709 68.815 71.2327 68.9072 71.1338C68.9886 71.0493 69.1334 71.0442 69.2358 71.1201C69.5927 71.4301 70.8862 71.6411 72.253 71.7048C73.6754 71.7884 75.1421 71.7148 75.6639 71.4647C75.7745 71.401 75.9123 71.4474 75.978 71.553C76.0324 71.6599 75.9978 71.8016 75.873 71.8549C75.2912 72.1495 73.7215 72.2474 72.2201 72.1611C70.7716 72.0818 69.3681 71.8331 68.923 71.4588Z" fill="#4F4F4F"/>
<path d="M85.625 66.2275C85.5473 66.1366 85.5682 65.9954 85.6647 65.9213C85.7739 65.8456 85.9209 65.8656 85.9987 65.9576L90.641 71.8168C90.7204 71.9207 90.6994 72.0608 90.5903 72.1365C90.4948 72.2105 90.3467 72.1906 90.2673 72.0867L85.625 66.2275Z" fill="#4F4F4F"/>
<path d="M30.3525 94.1616C30.2273 94.1137 30.1709 93.9828 30.2227 93.8754C30.273 93.7561 30.3979 93.7039 30.5231 93.7518C30.5356 93.7503 33.2019 94.7794 36.5605 95.1476C39.9052 95.5063 41.3998 94.9385 41.3998 94.9385C41.5264 94.8993 41.6668 94.9575 41.7091 95.078C41.7487 95.1867 41.6874 95.3194 41.561 95.3597C41.561 95.3597 39.9513 95.9654 36.5136 95.5934C33.0885 95.2199 30.3525 94.1616 30.3525 94.1616Z" fill="#4F4F4F"/>
<path d="M45.606 96.1375C45.5147 96.0482 45.5105 95.91 45.6044 95.824C45.6981 95.737 45.8447 95.7449 45.9349 95.8344C45.9486 95.8328 49.2903 99.1076 52.8732 99.5746C56.4982 100.063 60.4445 99.7837 60.4571 99.7823C60.5883 99.7788 60.706 99.8661 60.7084 99.9913C60.7246 100.115 60.6203 100.227 60.489 100.231C60.4765 100.232 56.4903 100.516 52.7989 100.024C49.07 99.5354 45.6077 96.1505 45.606 96.1375Z" fill="#4F4F4F"/>
<path d="M29.4594 68.2558C29.3269 68.2583 29.2209 68.1454 29.2315 68.0319C29.229 67.9067 29.3336 67.8051 29.4661 67.8026C29.5063 67.81 40.6542 68.1358 49.0129 63.7654C57.3733 59.4068 61.1132 53.5089 61.1253 53.4953C61.1898 53.3875 61.3299 53.3456 61.4447 53.42C61.559 53.4813 61.5893 53.6164 61.5248 53.7242C61.5127 53.7378 57.7197 59.7422 49.2362 64.166C40.7652 68.5882 29.4844 68.2528 29.4594 68.2558Z" fill="#4F4F4F"/>
</g>
<mask id="mask1" mask-type="alpha" maskUnits="userSpaceOnUse" x="16" y="40" width="65" height="65">
<rect width="65" height="65" rx="5" transform="matrix(-1 0 0 1 81 40)" fill="#C4C4C4"/>
</mask>
<g mask="url(#mask1)">
<path fill-rule="evenodd" clip-rule="evenodd" d="M49.5495 50.1832L49.5553 50.1836C49.7329 50.19 49.8548 50.0966 49.9498 49.9481C50.1222 49.6753 50.2178 49.2744 50.2845 48.7848C50.5135 47.0776 50.2975 44.4146 50.3777 41.8779C50.4587 39.2851 51.4804 19.5553 52.6768 10.7236C52.8894 9.1478 53.1108 7.91339 53.3306 7.17187C53.4452 6.7841 53.5714 6.51127 53.6877 6.35813C55.4413 4.05999 58.106 4.41274 59.5026 5.05501C60.8505 5.6866 62.0914 7.70257 62.2721 10.4147C62.4255 12.9084 62.3498 48.1692 62.2555 48.9606C62.2027 49.3794 62.1975 50.2601 62.301 50.9293C62.4172 50.5622 62.5277 50.0806 62.6328 49.5052C63.7031 43.6732 64.2279 28.5289 64.3243 22.8583C64.3689 20.1733 64.4842 17.4623 65.0826 15.3185C65.5069 13.7978 66.179 12.555 67.1983 11.7583C68.1464 11.0184 69.8343 10.4574 72.6912 12.1317C74.0797 12.9505 74.8578 13.9711 75.2686 15.6925C75.648 17.2882 75.6978 19.5286 75.6406 22.8702C75.5243 29.5922 74.3187 48.6744 73.9869 52.391C73.8078 54.3918 73.3793 59.598 73.8529 65.0584C74.1635 68.632 75.0522 69.916 75.7509 70.6826C75.9127 70.6207 76.2561 70.4801 76.5532 70.3133C79.3957 68.7081 86.0056 63.5096 90.479 61.7211C93.3289 60.5804 95.7636 59.9683 97.7624 59.9028C99.8807 59.832 101.53 60.3686 102.704 61.5026C103.455 62.2245 103.802 62.9023 103.901 63.538C104.019 64.29 103.791 64.9984 103.393 65.6821C103.043 66.2831 102.559 66.8661 102.12 67.4524C101.624 68.1224 99.5534 69.6998 97.0755 71.5482C93.4855 74.2252 89.0261 77.5021 87.5888 79.3897C85.125 82.6115 81.1006 87.8835 78.4466 89.6573C75.8128 91.4089 64.2954 98.3727 63.181 99.1312C62.3414 99.7014 61.3856 100.072 60.8989 100.24L58.7346 114.448C58.7094 114.609 58.6029 114.749 58.4495 114.822C58.4495 114.822 54.0163 116.927 48.1857 117.562C42.313 118.2 35.039 117.347 29.4133 111.434C29.3118 111.328 29.2642 111.186 29.2816 111.044L30.7375 98.9425C30.4038 97.8649 27.4521 88.1615 26.3618 78.1817C25.2221 67.7523 26.338 53.9491 26.3698 53.5646C26.769 46.1858 25.8993 34.8685 25.937 30.2178C25.9553 27.8354 26.2732 24.915 27.4086 22.9095C28.2302 21.4581 29.4679 20.4665 31.2709 20.3705C33.1967 20.2686 34.5042 21.2814 35.3303 22.6518C36.1034 23.9353 36.4395 25.536 36.4805 26.7086C36.6648 31.9706 36.7545 39.049 36.684 41.9083C36.5477 47.4497 36.477 51.3428 36.4718 51.6309C36.4826 51.6428 36.5187 51.6802 36.5453 51.6979C36.6096 51.7386 36.6896 51.7675 36.7746 51.7816C37.1583 51.8437 37.5214 51.5439 37.5224 50.7021C37.5229 48.493 38.4282 22.995 38.7314 15.385C38.7822 14.1017 39.0941 12.5778 39.8253 11.3631C40.6022 10.0728 41.8357 9.12018 43.6974 9.07639C45.0122 9.0469 46.4129 9.47251 47.4942 10.4704C50.0852 12.8433 49.8388 14.9652 49.7091 18.1058C49.461 24.1191 49.7544 35.7494 49.6267 38.4706C49.4592 42.0031 48.9436 46.5426 49.2033 48.9479C49.2522 49.402 49.3245 49.7698 49.4444 50.0245C49.4682 50.0743 49.4937 50.1185 49.5226 50.1546C49.5296 50.1636 49.5415 50.1754 49.5495 50.1832ZM57.7374 114.042L59.9073 99.7965C59.9367 99.6054 60.0801 99.4469 60.2751 99.3919C60.2751 99.3919 61.5261 99.0331 62.5714 98.3211C63.6858 97.5626 75.2097 90.5959 77.8445 88.843C80.4338 87.1131 84.336 81.9499 86.7396 78.8066C88.2094 76.8757 92.7557 73.5039 96.4289 70.7645C98.7932 69.002 100.791 67.5188 101.265 66.8777C101.625 66.3961 102.018 65.9194 102.334 65.4311C102.653 64.9368 102.897 64.4349 102.883 63.8966C102.869 63.366 102.596 62.8156 101.957 62.2022C100.972 61.25 99.5752 60.8382 97.7986 60.8972C95.9013 60.9605 93.5914 61.5556 90.8853 62.6387C86.4504 64.4116 79.9068 69.5781 77.089 71.1683C76.5013 71.5002 76.0419 71.6808 75.7635 71.7083C75.4518 71.7375 75.2386 71.6354 75.1042 71.4911C74.3178 70.6636 73.1728 69.3462 72.8086 65.1404C72.3291 59.6094 72.7615 54.3347 72.9417 52.3074C73.2735 48.5996 74.4757 29.5617 74.5927 22.8549C74.6372 20.2566 74.6209 18.3436 74.4227 16.8879C74.1491 14.8715 73.5242 13.7943 72.1383 12.9774C69.9084 11.6711 68.6053 11.9484 67.8637 12.5267C66.9965 13.2044 66.4573 14.2789 66.0958 15.5727C65.5162 17.6485 65.4153 20.2743 65.3721 22.8736C65.2754 28.5771 64.7414 43.8103 63.6661 49.6747C63.463 50.783 63.2259 51.5781 62.9852 51.9567C62.7621 52.3101 62.4794 52.4281 62.2413 52.4278C61.9652 52.4286 61.6748 52.2754 61.4917 51.8998C61.1709 51.2398 61.1296 49.5252 61.2133 48.847C61.3082 48.0599 61.3779 12.9568 61.2262 10.476C61.1328 9.07915 60.7389 7.88576 60.1847 7.03948C59.8484 6.52623 59.4577 6.14454 59.0415 5.9491C57.9622 5.45361 55.8937 5.16195 54.538 6.94C54.4374 7.07262 54.3533 7.35802 54.2522 7.76066C54.0709 8.48774 53.8916 9.54817 53.716 10.8496C52.5242 19.6544 51.507 39.3212 51.425 41.9064C51.3302 44.9332 51.6255 48.1333 51.1529 49.7541C50.8728 50.7156 50.3246 51.2074 49.5175 51.1779C49.1564 51.1735 48.8458 51.0072 48.6112 50.6531C48.3937 50.3233 48.2384 49.7711 48.1603 49.0495C47.8975 46.6116 48.4095 42.0089 48.5786 38.4269C48.7076 35.7066 48.4135 24.0797 48.6619 18.0685C48.7777 15.2466 49.0922 13.3186 46.7648 11.1855C45.8976 10.3851 44.7741 10.0473 43.7223 10.072C42.2821 10.1054 41.3367 10.8571 40.7345 11.8568C40.0879 12.932 39.823 14.2846 39.7786 15.4223C39.4766 23.0233 38.5713 48.4951 38.5705 50.702C38.5705 51.7105 38.1814 52.2624 37.7449 52.5391C37.2499 52.8545 36.6402 52.8411 36.182 52.6419C35.7127 52.4374 35.4234 52.0447 35.4237 51.6486C35.4233 51.6453 35.423 51.6432 35.4237 51.6398C35.4237 51.6398 35.4942 47.6568 35.6365 41.8864C35.706 39.0371 35.6162 31.9851 35.4333 26.7427C35.397 25.7034 35.1054 24.2839 34.4207 23.1469C33.7877 22.096 32.8049 21.2862 31.329 21.3644C29.9185 21.4392 28.9744 22.2457 28.331 23.3808C27.2689 25.2569 27.0025 27.9956 26.9849 30.2243C26.9485 34.8847 27.8168 46.2274 27.4161 53.6206C27.4155 53.6251 27.4149 53.6296 27.4155 53.6339C27.4155 53.6339 26.2568 67.5782 27.4045 78.0779C28.5513 88.5701 31.7726 98.7541 31.7726 98.7541C31.7927 98.8198 31.7992 98.887 31.7906 98.9539L30.3497 110.931C35.6828 116.41 42.5338 117.174 48.067 116.573C52.9096 116.045 56.7547 114.472 57.7374 114.042Z" fill="#EE7869"/>
<path fill-rule="evenodd" clip-rule="evenodd" d="M57.7992 114.038L59.9626 99.7949C59.9928 99.6042 60.1361 99.4448 60.3315 99.3899C60.3315 99.3899 61.581 99.0319 62.627 98.3211C63.7417 97.5632 75.2634 90.5984 77.8975 88.8474C80.4875 87.1199 84.3877 81.9584 86.7906 78.8144C88.2604 76.8857 92.8046 73.5144 96.4764 70.7781C98.8407 69.0167 100.836 67.5322 101.312 66.8919C101.673 66.4111 102.067 65.9355 102.38 65.4468C102.7 64.9528 102.942 64.451 102.928 63.9127C102.914 63.3821 102.642 62.8306 102.003 62.2165C101.018 61.2652 99.6197 60.8523 97.8416 60.9125C95.9452 60.9752 93.6359 61.5684 90.9303 62.6504C86.4961 64.4223 79.9535 69.5838 77.135 71.1754C76.5488 71.5047 76.0891 71.6876 75.8111 71.7138C75.4973 71.7425 75.2854 71.6406 75.1505 71.4968C74.3633 70.6684 73.2183 69.3511 72.8522 65.1461C72.3706 59.6161 72.8 54.3397 72.9817 52.3143C73.3119 48.6059 74.5064 29.5697 74.6193 22.8636C74.6633 20.2659 74.6469 18.3528 74.4487 16.8997C74.1735 14.8822 73.5487 13.8055 72.1614 12.9875C69.932 11.6808 68.6272 11.9578 67.8868 12.5354C67.0198 13.2123 66.4804 14.2863 66.1198 15.58C65.5418 17.655 65.4427 20.2815 65.3986 22.8792C65.305 28.5843 64.7767 43.8154 63.7032 49.6773C63.4995 50.788 63.2628 51.5799 63.0233 51.9615C62.8004 52.3117 62.5168 52.4318 62.2801 52.4318C62.0021 52.4318 61.7131 52.2777 61.5287 51.9014C61.2094 51.2428 61.1654 49.5283 61.2508 48.8488C61.3443 48.0622 61.4021 12.9613 61.2479 10.4838C61.1544 9.08563 60.7609 7.89386 60.2049 7.0445C59.8691 6.53227 59.4781 6.15073 59.0625 5.95472C57.9836 5.45817 55.9138 5.16809 54.5569 6.94522C54.4578 7.07851 54.3724 7.36341 54.2733 7.76587C54.0917 8.4924 53.9128 9.55073 53.7367 10.8522C52.5476 19.6568 51.5401 39.3229 51.4576 41.9076C51.364 44.9339 51.6613 48.1328 51.1907 49.7531C50.9099 50.7148 50.3594 51.2062 49.5529 51.1774C49.1923 51.1722 48.8841 51.0049 48.6474 50.6521C48.4299 50.3202 48.273 49.7688 48.1959 49.0475C47.9317 46.6092 48.4437 42.0069 48.6116 38.4265C48.7382 35.706 48.441 24.0814 48.6859 18.0705C48.8015 15.248 49.1153 13.3194 46.7868 11.1868C45.9198 10.3871 44.794 10.0473 43.7426 10.0709C42.303 10.1048 41.3562 10.8575 40.7561 11.8559C40.1093 12.9326 39.845 14.2838 39.801 15.4206C39.501 23.0204 38.6065 48.4909 38.6065 50.6966C38.6065 51.7054 38.2184 52.2568 37.7808 52.5338C37.2853 52.8474 36.677 52.8344 36.2173 52.6358C35.7494 52.4319 35.4577 52.0372 35.4577 51.6426C35.4577 51.64 35.4577 51.6374 35.4604 51.6348C35.4604 51.6348 35.5292 47.652 35.6668 41.8815C35.7356 39.0329 35.6448 31.9818 35.4604 26.7392C35.4219 25.6991 35.1301 24.2801 34.4448 23.1432C33.8117 22.0926 32.8291 21.2825 31.3538 21.3609C29.9418 21.4341 28.9977 22.239 28.3564 23.3759C27.2939 25.2497 27.0298 27.9885 27.0105 30.2177C26.9775 34.8775 27.85 46.2198 27.4509 53.6106C27.4509 53.6158 27.4509 53.621 27.4509 53.6236C27.4509 53.6236 26.2976 67.5663 27.4481 78.067C28.6014 88.5573 31.8245 98.7418 31.8245 98.7418C31.8465 98.8071 31.8521 98.8751 31.8438 98.943L30.407 110.918C35.7439 116.398 42.5948 117.164 48.1299 116.565C52.9715 116.04 56.8166 114.467 57.7992 114.038Z" fill="#FBCD9A"/>
<path fill-rule="evenodd" clip-rule="evenodd" d="M102.9 63.5207C102.936 63.654 102.955 63.7847 102.958 63.9128C102.971 64.4511 102.729 64.9529 102.41 65.4469C102.096 65.9356 101.703 66.4112 101.342 66.892C100.866 67.5323 98.8703 69.0168 96.506 70.7782C92.8342 73.5145 88.29 76.8858 86.8202 78.8145C84.4173 81.9585 80.5171 87.12 77.927 88.8475C75.293 90.5985 63.7713 97.5633 62.6565 98.3212C61.6106 99.032 60.3611 99.39 60.3611 99.39C60.1656 99.4449 60.0224 99.6043 59.9921 99.795L57.8288 114.038C56.8461 114.467 53.001 116.04 48.1595 116.565C43.2684 117.093 37.3506 116.558 32.3577 112.645C35.8864 113.847 41.3692 115.507 45.3905 115.766C51.8065 116.173 54.958 114.049 55.7589 112.3C56.5709 110.549 57.8535 100.577 57.8535 100.577C57.8535 100.577 56.0589 100.498 56.0479 100.6C56.0341 100.702 53.0532 100.101 53.0257 100.192C52.9982 100.297 49.5274 98.4753 49.5274 98.4753L47.287 96.787C47.287 96.787 46.2712 95.9794 46.0015 95.4228C45.729 94.8661 45.4979 92.7859 45.4979 92.7859C45.4979 92.7859 49.7421 96.3819 51.4596 96.9961C53.1744 97.6076 58.7536 96.9726 62.8354 95.713C66.9228 94.469 73.5314 89.5269 75.3508 88.0974C77.1564 86.6679 82.5622 81.1822 83.9989 79.1594C85.4329 77.121 91.2984 71.7321 91.2984 71.7321C91.2984 71.7321 96.6848 70.3314 99.1345 67.8747C100.723 66.2806 102.118 64.5426 102.9 63.5207ZM72.8075 55.0271C72.6506 57.617 72.5488 61.3202 72.8818 65.1462C73.2424 69.2911 74.3599 70.6292 75.1471 71.4603C74.9048 71.5152 74.5938 71.5726 74.1947 71.6301C72.6809 71.8575 69.3835 71.0578 69.3835 71.0578C69.3835 71.0578 68.4147 67.7074 69.7083 62.4806C70.5175 59.2243 71.8909 56.5638 72.8075 55.0271ZM28.5264 23.1381C29.1622 22.1293 30.0705 21.4289 31.3834 21.361C31.7054 21.3427 32.0054 21.3688 32.2834 21.4289C33.0458 21.7425 33.6569 22.1581 34.1523 22.6729C34.2679 22.8219 34.3753 22.9787 34.4743 23.1433C35.1597 24.2801 35.4514 25.6992 35.49 26.7393C35.6744 31.9819 35.7652 39.033 35.6964 41.8816C35.5588 47.6521 35.49 51.6349 35.49 51.6349C35.4872 51.6375 35.4873 51.64 35.4873 51.6427C35.4873 51.7394 35.5065 51.8361 35.5396 51.9302C35.5313 52.0739 35.5231 52.2176 35.5148 52.3614L32.2036 53.8511C32.2036 53.8511 34.3725 49.9309 34.4551 47.3514C34.5294 44.7563 33.9569 43.46 33.9569 43.46C33.9569 43.46 34.9616 41.5497 35.1708 38.8186C35.3882 35.9883 34.4551 33.7068 34.4551 33.7068C34.4551 33.7068 34.7633 29.9252 33.8275 25.4013C33.2798 22.7644 31.1164 21.9594 28.5264 23.1381ZM67.6522 12.7627C67.7375 12.6843 67.8256 12.6086 67.9164 12.5355C68.6568 11.9579 69.9615 11.6809 72.191 12.9876C73.5782 13.8056 74.2031 14.8822 74.4783 16.8998C74.6765 18.3529 74.6929 20.266 74.6488 22.8637C74.5388 29.4286 73.3911 47.8114 73.0333 52.0608L71.3185 52.1785C71.3185 52.1785 72.7909 44.7642 72.8432 42.2527C72.8928 39.7255 72.8432 35.6276 72.8432 35.6276C72.8432 35.6276 73.8011 31.6657 73.7075 29.0053C73.6085 26.1566 72.9561 24.4396 72.9561 24.4396C72.9561 24.4396 73.9993 22.2782 72.9314 18.2352C72.2571 15.6976 70.1321 12.5327 67.6522 12.7627ZM55.1396 6.35983C56.458 5.2439 58.1508 5.52358 59.0921 5.9548C59.5077 6.15081 59.8987 6.53235 60.2345 7.04458C60.7904 7.89394 61.1839 9.0857 61.2775 10.4839C61.4316 12.9614 61.3739 48.0623 61.2803 48.8489C61.2033 49.4657 61.2308 50.9371 61.4786 51.695L59.3812 51.8962C59.3812 51.8962 60.7354 43.6508 60.7905 41.1393C60.8372 38.6147 60.3693 32.8234 60.3693 32.8234C60.3693 32.8234 60.917 29.6481 61.0904 26.9902C61.2721 24.2383 60.3693 19.8583 60.3693 19.8583C60.3693 19.8583 61.3986 15.5774 60.4573 11.166C59.9233 8.66491 57.6443 6.09326 55.1396 6.35983ZM41.0636 11.4455C41.6664 10.6563 42.5363 10.0997 43.7721 10.0709C44.8236 10.0474 45.9493 10.3872 46.8163 11.1869C49.1449 13.3194 48.8311 15.2481 48.7155 18.0706C48.4705 24.0815 48.7678 35.706 48.6412 38.4266C48.4733 42.007 47.9613 46.6093 48.2255 49.0476C48.264 49.4135 48.3246 49.7349 48.4017 50.0067L45.1318 51.4781C45.1318 51.4781 46.8053 47.3306 46.8878 44.7512C46.9649 42.156 46.8878 34.8514 46.8878 34.8514C46.8878 34.8514 47.4934 31.4175 47.7026 28.6838C47.92 25.8561 47.0228 21.5334 47.0228 21.5334C47.0228 21.5334 47.8237 20.8513 46.8878 16.3275C46.3566 13.7585 43.7775 11.1345 41.0636 11.4455Z" fill="#FAB88F"/>
<path d="M27.9111 43.0867C27.7821 43.0767 27.6928 42.9731 27.7027 42.8517C27.7021 42.7235 27.8178 42.6272 27.9457 42.6366L34.3858 43.094C34.5148 43.1039 34.6041 43.2075 34.5937 43.3299C34.5822 43.4518 34.4681 43.5477 34.3391 43.5378L27.9111 43.0867Z" fill="#EF8870"/>
<path d="M27.8332 54.4318C27.7505 54.4551 27.6673 54.3261 27.6474 54.1773C27.6305 54.0129 27.6969 53.8758 27.7887 53.8592C27.7887 53.8592 29.9423 53.5881 31.9534 53.3466C33.9211 53.1249 35.2964 52.1641 35.2992 52.15C35.3767 52.1051 35.4797 52.1808 35.5107 52.3215C35.5507 52.4689 35.5161 52.6456 35.4386 52.6905C35.4275 52.6986 34.0174 53.6838 31.998 53.9192C30.019 54.1504 27.8423 54.4384 27.8332 54.4318Z" fill="#EF8870"/>
<path d="M39.7851 52.1417C39.6473 52.1431 39.5346 52.0008 39.5328 51.8421C39.5456 51.6833 39.6543 51.5708 39.7921 51.5695C39.8066 51.5693 43.1203 51.7745 44.8262 51.2814C46.5597 50.7714 47.9309 50.0742 47.9309 50.0742C48.0547 50.0089 48.2065 50.0715 48.2636 50.2143C48.3208 50.3571 48.2538 50.5318 48.1301 50.5971C48.1301 50.5971 46.7168 51.3253 44.9556 51.837C43.1679 52.3629 39.7851 52.1417 39.7851 52.1417Z" fill="#EF8870"/>
<path d="M52.0513 50.6372C51.9914 50.4868 52.0298 50.3184 52.1633 50.2614C52.2949 50.1891 52.4404 50.2602 52.5104 50.3918C52.5104 50.3918 52.9071 51.2734 55.3305 51.4767C57.9158 51.6816 60.7676 51.563 60.7823 51.5603C60.9255 51.551 61.0523 51.6737 61.0691 51.832C61.0737 51.9925 60.9695 52.1249 60.8266 52.1355C60.8266 52.1355 57.9169 52.2632 55.3294 52.0418C52.5991 51.831 52.0647 50.6348 52.0513 50.6372Z" fill="#EF8870"/>
<path d="M63.4878 51.1122C63.3641 51.0696 63.3014 50.9349 63.332 50.8134C63.3626 50.6919 63.4831 50.6303 63.6078 50.6724C63.6078 50.6724 66.1934 51.6005 68.2695 51.703C70.361 51.8107 72.6248 51.5446 72.6248 51.5446C72.7545 51.5232 72.8758 51.612 72.9094 51.7457C72.9365 51.8681 72.8668 51.9951 72.7291 52.0046C72.7291 52.0046 70.4155 52.2817 68.2939 52.1735C66.1446 52.0648 63.5048 51.118 63.4878 51.1122Z" fill="#EF8870"/>
<path d="M34.8356 81.6583C34.7563 81.7477 34.5948 81.7582 34.5006 81.6829C34.4064 81.6075 34.3872 81.4693 34.4743 81.3637C34.4956 81.3446 43.3271 71.319 49.6664 66.8079C56.0061 62.2979 65.484 58.1994 65.5091 58.1917C65.6297 58.1423 65.7703 58.1908 65.8223 58.3053C65.8744 58.4198 65.8233 58.5533 65.7158 58.5987C65.6776 58.6104 56.2379 62.6973 49.9527 67.1655C43.654 71.6366 34.8661 81.6238 34.8356 81.6583Z" fill="#EF8870"/>
<path d="M46.0273 92.6982C45.9996 92.8265 45.8609 92.9055 45.7249 92.8963C45.5748 92.8888 45.4711 92.7759 45.4988 92.6476C45.5081 92.6091 47.8486 78.5505 51.555 72.1863C55.2705 65.7717 68.6899 60.4785 68.7322 60.4615C68.8742 60.4074 69.0291 60.4516 69.089 60.5697C69.1487 60.6756 69.0775 60.8212 68.9496 60.8736C68.9058 60.8788 55.6581 66.1144 52.0275 72.3687C48.3584 78.678 46.0378 92.6585 46.0273 92.6982Z" fill="#EF8870"/>
<path d="M68.944 71.2418C68.8401 71.1542 68.836 71.0164 68.9282 70.9177C69.0096 70.8335 69.1546 70.8285 69.2569 70.9042C69.6141 71.2132 70.9082 71.4236 72.2756 71.4871C73.6988 71.5704 75.1661 71.497 75.6882 71.2477C75.7989 71.1842 75.9367 71.2304 76.0025 71.3357C76.0569 71.4423 76.0223 71.5835 75.8975 71.6367C75.3153 71.9304 73.7448 72.028 72.2428 71.942C70.7936 71.8629 69.3893 71.615 68.944 71.2418Z" fill="#EF8870"/>
<path d="M30.3559 93.8751C30.2306 93.8274 30.1742 93.6969 30.2261 93.5898C30.2764 93.4708 30.4013 93.4188 30.5266 93.4665C30.5391 93.4651 33.2067 94.491 36.567 94.8581C39.9133 95.2158 41.4086 94.6497 41.4086 94.6497C41.5352 94.6106 41.6757 94.6686 41.718 94.7887C41.7576 94.8971 41.6964 95.0294 41.5699 95.0696C41.5699 95.0696 39.9594 95.6734 36.52 95.3025C33.0932 94.9302 30.3559 93.8751 30.3559 93.8751Z" fill="#EF8870"/>
<path d="M45.6166 95.8451C45.5252 95.7561 45.521 95.6183 45.6149 95.5326C45.7087 95.4458 45.8554 95.4537 45.9457 95.5429C45.9593 95.5413 49.3027 98.8062 52.8873 99.2718C56.5141 99.7588 60.4624 99.4803 60.4749 99.4788C60.6062 99.4754 60.7239 99.5624 60.7264 99.6872C60.7425 99.8104 60.6382 99.9226 60.5069 99.926C60.4944 99.9275 56.5062 100.211 52.813 99.7195C49.0823 99.2327 45.6183 95.8581 45.6166 95.8451Z" fill="#EF8870"/>
<path d="M29.4613 68.0479C29.3287 68.0504 29.2227 67.9378 29.2333 67.8247C29.2308 67.6999 29.3354 67.5986 29.468 67.5961C29.5082 67.6034 40.6615 67.9283 49.0244 63.5711C57.3888 59.2258 61.1306 53.3458 61.1427 53.3323C61.2072 53.2248 61.3473 53.183 61.4622 53.2573C61.5765 53.3184 61.6069 53.4531 61.5424 53.5605C61.5303 53.574 57.7354 59.5602 49.2477 63.9705C40.7726 68.3793 29.4863 68.045 29.4613 68.0479Z" fill="#EF8870"/>
</g>
</g>
</svg>
