<svg width="42" height="54" viewBox="0 0 42 54" fill="none" xmlns="http://www.w3.org/2000/svg">
<path fill-rule="evenodd" clip-rule="evenodd" d="M31.2085 3.66667H38.5002C40.1043 3.66667 41.4168 4.97917 41.4168 6.58333C41.4168 8.1875 40.1043 9.5 38.5002 9.5H3.50016C1.896 9.5 0.583496 8.1875 0.583496 6.58333C0.583496 4.97917 1.896 3.66667 3.50016 3.66667H10.7918L12.8627 1.59583C13.3877 1.07083 14.146 0.75 14.9043 0.75H27.096C27.8543 0.75 28.6127 1.07083 29.1377 1.59583L31.2085 3.66667ZM9.3335 53.25C6.12516 53.25 3.50016 50.625 3.50016 47.4167V18.25C3.50016 15.0417 6.12516 12.4167 9.3335 12.4167H32.6668C35.8752 12.4167 38.5002 15.0417 38.5002 18.25V47.4167C38.5002 50.625 35.8752 53.25 32.6668 53.25H9.3335Z" fill="#FF4B4B"/>
</svg>
