<svg width="185" height="139" viewBox="0 0 185 139" fill="none" xmlns="http://www.w3.org/2000/svg">
<mask id="mask0" mask-type="alpha" maskUnits="userSpaceOnUse" x="0" y="0" width="185" height="139">
<path d="M185 5C185 2.23858 182.761 0 180 0H0V138.94H180C182.761 138.94 185 136.701 185 133.94V5Z" fill="#EB5757"/>
</mask>
<g mask="url(#mask0)">
<path d="M4.90675 191.204C4.90675 191.204 5.40481 191.312 6.33744 191.517C7.28313 191.68 8.68209 191.916 10.4933 191.922C12.3082 191.955 14.5577 191.767 17.1112 190.975C18.374 190.557 19.6946 189.947 20.9891 189.211C22.2612 188.526 23.5725 187.511 24.3298 187.273C24.5126 187.207 24.6171 187.217 24.701 187.224L24.8241 187.249L24.8987 187.277L25.1897 187.335L25.4937 187.389L25.9489 187.439C26.2827 187.478 26.473 187.474 26.7453 187.49C27.2452 187.493 27.7265 187.464 28.2077 187.422C30.1122 187.228 31.9662 186.734 33.8166 185.919C35.6576 185.112 37.5117 183.919 39.0207 182.114C40.5427 180.355 41.6544 177.933 41.8838 175.452C42.0237 174.221 41.9603 172.979 41.7495 171.823C41.5425 170.613 41.2646 169.625 40.8076 168.399L40.2555 167.007L39.5299 165.481C39.0393 164.47 38.5804 163.647 38.1029 162.721C36.2283 159.174 34.3855 155.663 32.8187 151.97C31.2276 148.296 29.8417 144.518 28.6703 140.721C27.4877 136.927 26.4562 133.135 25.5907 129.423C25.1823 127.558 24.7812 125.724 24.3877 123.929C24.0612 122.118 23.7385 120.345 23.427 118.619C22.7462 115.172 22.3881 111.861 21.9012 108.824C21.5356 105.765 21.1999 102.964 20.9014 100.48C20.575 97.9952 20.4743 95.8109 20.2729 94.0196C19.9408 90.4274 19.7506 88.3766 19.7506 88.3766C19.7506 88.3766 19.7226 90.437 19.6779 94.0467C19.6741 95.8515 19.5752 98.0495 19.6927 100.563C19.7879 103.077 19.8065 105.923 19.9931 109.02C20.2579 112.109 20.3792 115.478 20.8156 119.014C21.0208 120.786 21.2316 122.606 21.4499 124.466C21.7446 126.317 22.0467 128.207 22.3545 130.13C23.0409 133.966 23.8206 137.932 24.895 141.9C25.9452 145.872 27.2229 149.863 28.7281 153.771C30.1961 157.692 31.9979 161.505 33.8147 165.1C34.2381 165.973 34.7231 166.914 35.0812 167.708L35.6203 168.883L36.1314 170.268C36.5996 171.722 36.7152 173.45 36.5249 174.763C36.2153 177.489 34.1243 179.401 31.5745 180.661C30.3061 181.269 28.9202 181.678 27.6388 181.843C27.3198 181.879 27.0102 181.907 26.7192 181.916L26.3406 181.93L26.2137 181.938L25.9395 181.914L25.1617 181.845C24.8185 181.843 24.479 181.847 24.1414 181.903C23.4755 182.001 22.8432 182.214 22.3489 182.466C20.3959 183.531 19.5435 184.509 18.5251 185.321C17.5551 186.136 16.5983 186.789 15.6339 187.344C13.7295 188.512 11.8027 189.184 10.1929 189.738C8.56829 190.253 7.23649 190.6 6.32624 190.846C5.40107 191.08 4.90675 191.204 4.90675 191.204Z" fill="#092A17"/>
<path d="M30.9409 76.4982C30.9409 76.4982 52.5745 41.7863 87.6394 41.9843C122.707 42.1797 150.14 70.8379 150.14 70.8379C150.14 70.8379 120.524 99.0868 89.1034 99.0684C57.6826 99.0472 30.9409 76.4982 30.9409 76.4982Z" fill="white"/>
<path d="M63.0119 68.631C62.3101 84.0834 73.8093 97.2047 88.6932 97.9334C103.582 98.6594 116.216 86.7209 116.917 71.2658C117.619 55.816 106.12 42.6947 91.2362 41.9661C76.3472 41.2348 63.7113 53.1759 63.0119 68.631Z" fill="#8DD0C5"/>
<path d="M99.6167 91.8643C105.018 87.9358 108.67 81.5442 109.005 74.1784C109.577 61.5429 100.176 50.8188 88.0132 50.2248C87.6623 50.209 87.3088 50.1984 86.9605 50.1984C84.5803 50.1984 82.2814 50.5944 80.125 51.3257C83.7157 48.712 88.0819 47.1887 92.7584 47.1887C93.1093 47.1887 93.4602 47.1965 93.8137 47.215C105.979 47.8064 115.381 58.5304 114.806 71.1633C114.363 80.9395 108.077 88.9971 99.6167 91.8643Z" fill="#C7EBE2"/>
<path d="M86.9866 96.002C86.6382 96.002 86.2873 95.9914 85.9338 95.9755C73.7683 95.3815 64.3695 84.6575 64.9391 72.022C65.3816 62.2484 71.6653 54.1962 80.1257 51.3264C74.7244 55.2549 71.0753 61.6439 70.7422 69.0097C70.17 81.6452 79.5713 92.3693 91.7343 92.9633C92.0877 92.9791 92.4412 92.9897 92.7896 92.9897C95.1672 92.9897 97.461 92.5963 99.6174 91.865C96.0268 94.476 91.6631 96.002 86.9866 96.002Z" fill="#8FC39B"/>
<path d="M92.789 92.9883C92.4406 92.9883 92.0871 92.9777 91.7337 92.9619C79.5707 92.3678 70.1694 81.6438 70.7416 69.0083C71.0747 61.6425 74.7239 55.2535 80.1251 51.325C82.2815 50.5937 84.5804 50.1977 86.9606 50.1977C87.3089 50.1977 87.6624 50.2083 88.0133 50.2241C100.176 50.8181 109.578 61.5422 109.005 74.1776C108.67 81.5435 105.018 87.9351 99.6168 91.8635C97.4604 92.5948 95.1667 92.9883 92.789 92.9883Z" fill="#B7D4AB"/>
<path d="M76.4412 69.1048C76.0852 76.9643 81.934 83.6332 89.5044 84.0001C97.0747 84.375 103.498 78.3029 103.854 70.446C104.213 62.5838 98.364 55.9148 90.7962 55.5426C83.2258 55.173 76.7998 61.2452 76.4412 69.1048Z" fill="#373031"/>
<path d="M79.0177 75.085C78.8702 78.3112 81.2682 81.0489 84.3731 81.1993L87.6892 81.3605C90.7916 81.5136 93.4311 79.0239 93.5786 75.7977L93.6193 74.8764C93.7668 71.6555 91.3612 68.915 88.2588 68.7672L84.9478 68.6009C81.8404 68.4478 79.2033 70.94 79.0533 74.1662L79.0177 75.085Z" fill="white"/>
<path d="M88.8451 63.2266C88.7485 65.3149 90.3022 67.0837 92.3137 67.1867L97.1682 67.4216C99.1797 67.5192 100.886 65.9089 100.98 63.8206C101.074 61.7349 99.523 59.9608 97.5115 59.8604L92.6595 59.6254C90.6455 59.5251 88.9443 61.1409 88.8451 63.2266Z" fill="white"/>
<path d="M30.9399 76.4971C30.9399 76.4971 31.6418 74.2424 33.5134 70.5727C35.3876 66.9162 38.4188 61.7997 43.1309 56.472C45.478 53.8028 48.2117 51.0518 51.4285 48.52C54.625 45.9723 58.2208 43.4985 62.2539 41.529C66.2718 39.549 70.6253 37.8197 75.2306 36.798C79.8257 35.7578 84.6014 35.2007 89.3643 35.1981C90.5544 35.2007 91.742 35.3037 92.927 35.3565L93.8171 35.4041L94.7351 35.4912L96.4058 35.6654C98.7377 35.9294 101.169 36.3254 103.427 36.8244C108.032 37.8013 112.449 39.4962 116.472 41.5713C120.526 43.5989 124.073 46.2178 127.176 48.8447C130.308 51.4505 132.948 54.1645 135.354 56.6198C137.775 59.0487 139.923 61.2849 141.925 63.1515C143.944 64.989 145.754 66.5413 147.349 67.6898C148.943 68.8329 150.243 69.7041 151.161 70.2427C152.084 70.7866 152.577 71.077 152.577 71.077C152.577 71.077 152.023 70.9423 150.985 70.6914C149.958 70.401 148.432 69.9682 146.571 69.1682C142.812 67.666 137.762 64.5295 132.335 60.3291C129.589 58.283 126.682 56.0601 123.585 53.9374C120.465 51.8333 117.088 49.9193 113.474 48.33C109.866 46.701 105.924 45.6767 101.876 44.816C99.7981 44.412 97.8197 44.1295 95.6989 43.9315L94.0256 43.7969L93.2703 43.7388L92.4795 43.7151L89.3135 43.6279C85.0922 43.5355 80.8861 43.9394 76.8276 44.7631C72.7792 45.6132 68.8249 46.7195 65.1529 48.293C61.491 49.8717 58.0122 51.6485 54.8691 53.6656C51.7413 55.6984 48.8627 57.8211 46.3223 59.9622C41.2542 64.2682 37.4067 68.4554 34.8383 71.5126C32.2674 74.5778 30.9399 76.4971 30.9399 76.4971Z" fill="#092A17"/>
<path d="M148.257 72.3059C148.257 72.3059 147.036 73.7818 144.615 76.076C143.397 77.2139 141.897 78.5788 140.104 80.0493C138.316 81.5304 136.259 83.1646 133.876 84.7302C132.706 85.5539 131.458 86.3564 130.138 87.1458C128.836 87.9695 127.47 88.7828 126.023 89.5405C124.592 90.3351 123.117 91.1429 121.553 91.8478C120.004 92.595 118.415 93.3421 116.739 93.9441C113.431 95.2773 109.921 96.4285 106.285 97.3129C104.452 97.6851 102.626 98.1841 100.752 98.4561C98.8749 98.7069 96.9905 98.9576 95.1037 99.2111C93.2041 99.285 91.3045 99.3615 89.4125 99.4381C87.3731 99.4645 85.6617 99.2586 83.785 99.1794C80.1155 98.918 76.5325 98.8943 73.0003 98.0891C69.4987 97.3947 66.0453 96.9961 62.9811 95.845C59.8787 94.8365 56.9034 94.063 54.3376 92.7799C53.0381 92.2043 51.7921 91.6525 50.607 91.1271C49.4398 90.5648 48.4074 89.8599 47.4029 89.2896C46.4112 88.6877 45.4626 88.1729 44.6311 87.6106C43.8199 87.0192 43.0748 86.4727 42.4035 85.9816C41.0252 85.055 40.1199 84.0701 39.4409 83.4999C38.7849 82.8953 38.4746 82.531 38.4746 82.531C38.4746 82.531 38.8281 82.8557 39.5452 83.3706C40.2826 83.8643 41.2947 84.6694 42.729 85.4746C43.4308 85.897 44.2064 86.3618 45.0532 86.8687C45.9153 87.3386 46.8969 87.761 47.9166 88.2573C48.9516 88.7193 50.0069 89.3107 51.197 89.7516C52.3871 90.1925 53.6357 90.6546 54.9402 91.1351C57.4934 92.2439 60.4585 92.83 63.5227 93.6379C66.5666 94.591 69.9081 94.7361 73.2749 95.3513C76.6062 96.0614 80.2935 95.9109 83.9427 96.167C85.7329 96.2251 87.7164 96.4178 89.3846 96.365C91.2028 96.2779 93.0312 96.1882 94.8545 96.0984C96.6701 95.874 98.4883 95.6497 100.294 95.4252C102.102 95.1824 103.867 94.7151 105.639 94.3745C109.148 93.5323 112.589 92.5871 115.829 91.3674C117.477 90.842 119.025 90.1238 120.576 89.5061C122.138 88.9094 123.615 88.2046 125.052 87.5103C126.504 86.8502 127.882 86.1321 129.2 85.3982C130.535 84.6986 131.801 83.9831 132.989 83.2386C135.394 81.805 137.558 80.4004 139.448 79.1147C141.342 77.8316 142.939 76.6251 144.241 75.6113C146.85 73.5863 148.257 72.3059 148.257 72.3059Z" fill="#092A17"/>
<path d="M38.4014 75.7741C38.3302 75.3675 38.2412 74.9636 38.2056 74.5359C38.0658 72.9809 38.4853 71.8958 39.1287 70.5176C39.6399 69.4247 41.3436 69.6438 41.8014 70.6497C42.2032 71.5341 42.8491 72.2786 43.3017 73.1499C43.8078 74.1188 44.3774 75.0666 44.9114 76.0197C45.5878 77.2262 45.3056 79.1086 44.2375 79.9851C42.9381 81.0491 41.2623 81.5955 39.6602 80.8959C37.8166 80.0906 36.8655 77.2156 38.4014 75.7741Z" fill="#092A17" fill-opacity="0.3"/>
</g>
</svg>
