<svg width="153" height="104" viewBox="0 0 153 104" fill="none" xmlns="http://www.w3.org/2000/svg">
<path d="M4.90675 156.204C4.90675 156.204 5.40481 156.312 6.33744 156.517C7.28313 156.68 8.68209 156.916 10.4933 156.922C12.3082 156.955 14.5577 156.767 17.1112 155.975C18.374 155.557 19.6946 154.947 20.9891 154.211C22.2612 153.526 23.5725 152.511 24.3298 152.273C24.5126 152.207 24.6171 152.217 24.701 152.224L24.8241 152.249L24.8987 152.277L25.1897 152.335L25.4937 152.389L25.9489 152.439C26.2827 152.478 26.473 152.474 26.7453 152.49C27.2452 152.493 27.7265 152.464 28.2077 152.422C30.1122 152.228 31.9662 151.734 33.8166 150.919C35.6576 150.112 37.5117 148.919 39.0207 147.114C40.5427 145.355 41.6544 142.933 41.8838 140.452C42.0237 139.221 41.9603 137.979 41.7495 136.823C41.5425 135.613 41.2646 134.625 40.8076 133.399L40.2555 132.007L39.5299 130.481C39.0393 129.47 38.5804 128.647 38.1029 127.721C36.2283 124.174 34.3855 120.663 32.8187 116.97C31.2276 113.296 29.8417 109.518 28.6703 105.721C27.4877 101.927 26.4562 98.1354 25.5907 94.423C25.1823 92.5582 24.7812 90.7243 24.3877 88.9291C24.0612 87.1185 23.7385 85.3446 23.427 83.6192C22.7462 80.1722 22.3881 76.8607 21.9012 73.8243C21.5356 70.7646 21.1999 67.9644 20.9014 65.4798C20.575 62.9952 20.4743 60.8109 20.2729 59.0196C19.9408 55.4274 19.7506 53.3766 19.7506 53.3766C19.7506 53.3766 19.7226 55.437 19.6779 59.0467C19.6741 60.8515 19.5752 63.0495 19.6927 65.5631C19.7879 68.0767 19.8065 70.9234 19.9931 74.0199C20.2579 77.1086 20.3792 80.4782 20.8156 84.0143C21.0208 85.7862 21.2316 87.6065 21.4499 89.4655C21.7446 91.3169 22.0467 93.2069 22.3545 95.1299C23.0409 98.9661 23.8206 102.932 24.895 106.9C25.9452 110.872 27.2229 114.863 28.7281 118.771C30.1961 122.692 31.9979 126.505 33.8147 130.1C34.2381 130.973 34.7231 131.914 35.0812 132.708L35.6203 133.883L36.1314 135.268C36.5996 136.722 36.7152 138.45 36.5249 139.763C36.2153 142.489 34.1243 144.401 31.5745 145.661C30.3061 146.269 28.9202 146.678 27.6388 146.843C27.3198 146.879 27.0102 146.907 26.7192 146.916L26.3406 146.93L26.2137 146.938L25.9395 146.914L25.1617 146.845C24.8185 146.843 24.479 146.847 24.1414 146.903C23.4755 147.001 22.8432 147.214 22.3489 147.466C20.3959 148.531 19.5435 149.509 18.5251 150.321C17.5551 151.136 16.5983 151.789 15.6339 152.344C13.7295 153.512 11.8027 154.184 10.1929 154.738C8.56829 155.253 7.23649 155.6 6.32624 155.846C5.40107 156.08 4.90675 156.204 4.90675 156.204Z" fill="#092A17"/>
<path d="M30.9409 41.4982C30.9409 41.4982 52.5745 6.78632 87.6394 6.98433C122.707 7.1797 150.14 35.8379 150.14 35.8379C150.14 35.8379 120.524 64.0868 89.1034 64.0684C57.6826 64.0472 30.9409 41.4982 30.9409 41.4982Z" fill="white"/>
<path d="M63.0119 33.631C62.3101 49.0834 73.8093 62.2047 88.6932 62.9334C103.582 63.6594 116.216 51.7209 116.917 36.2658C117.619 20.816 106.12 7.69473 91.2362 6.96607C76.3472 6.23476 63.7113 18.1759 63.0119 33.631Z" fill="#8DD0C5"/>
<path d="M99.6167 56.8643C105.018 52.9358 108.67 46.5442 109.005 39.1784C109.577 26.5429 100.176 15.8188 88.0132 15.2248C87.6623 15.209 87.3088 15.1984 86.9605 15.1984C84.5803 15.1984 82.2814 15.5944 80.125 16.3257C83.7157 13.712 88.0819 12.1887 92.7584 12.1887C93.1093 12.1887 93.4602 12.1965 93.8137 12.215C105.979 12.8064 115.381 23.5304 114.806 36.1633C114.363 45.9395 108.077 53.9971 99.6167 56.8643Z" fill="#C7EBE2"/>
<path d="M86.9866 61.002C86.6382 61.002 86.2873 60.9914 85.9338 60.9755C73.7683 60.3815 64.3695 49.6575 64.9391 37.022C65.3816 27.2484 71.6653 19.1962 80.1257 16.3264C74.7244 20.2549 71.0753 26.6439 70.7422 34.0097C70.17 46.6452 79.5713 57.3693 91.7343 57.9633C92.0877 57.9791 92.4412 57.9897 92.7896 57.9897C95.1672 57.9897 97.461 57.5963 99.6174 56.865C96.0268 59.476 91.6631 61.002 86.9866 61.002Z" fill="#8FC39B"/>
<path d="M92.789 57.9883C92.4406 57.9883 92.0871 57.9777 91.7337 57.9619C79.5707 57.3678 70.1694 46.6438 70.7416 34.0083C71.0747 26.6425 74.7239 20.2535 80.1251 16.325C82.2815 15.5937 84.5804 15.1977 86.9606 15.1977C87.3089 15.1977 87.6624 15.2083 88.0133 15.2241C100.176 15.8181 109.578 26.5422 109.005 39.1776C108.67 46.5435 105.018 52.9351 99.6168 56.8635C97.4604 57.5948 95.1667 57.9883 92.789 57.9883Z" fill="#B7D4AB"/>
<path d="M76.4412 34.1048C76.0852 41.9643 81.934 48.6332 89.5044 49.0001C97.0747 49.375 103.498 43.3029 103.854 35.446C104.213 27.5838 98.364 20.9148 90.7962 20.5426C83.2258 20.173 76.7998 26.2452 76.4412 34.1048Z" fill="#373031"/>
<path d="M79.0177 40.085C78.8702 43.3112 81.2682 46.0489 84.3731 46.1993L87.6892 46.3605C90.7916 46.5136 93.4311 44.0239 93.5786 40.7977L93.6193 39.8764C93.7668 36.6555 91.3612 33.915 88.2588 33.7672L84.9478 33.6009C81.8404 33.4478 79.2033 35.94 79.0533 39.1662L79.0177 40.085Z" fill="white"/>
<path d="M88.8451 28.2266C88.7485 30.3149 90.3022 32.0837 92.3137 32.1867L97.1682 32.4216C99.1797 32.5192 100.886 30.9089 100.98 28.8206C101.074 26.7349 99.523 24.9608 97.5115 24.8604L92.6595 24.6254C90.6455 24.5251 88.9443 26.1409 88.8451 28.2266Z" fill="white"/>
<path d="M30.9399 41.4971C30.9399 41.4971 31.6418 39.2424 33.5134 35.5727C35.3876 31.9162 38.4188 26.7997 43.1309 21.472C45.478 18.8028 48.2117 16.0518 51.4285 13.52C54.625 10.9723 58.2208 8.49853 62.2539 6.52902C66.2718 4.54895 70.6253 2.81971 75.2306 1.798C79.8257 0.757801 84.6014 0.200726 89.3643 0.198086C90.5544 0.200726 91.742 0.303715 92.927 0.356518L93.8171 0.404087L94.7351 0.49123L96.4058 0.665386C98.7377 0.929398 101.169 1.32545 103.427 1.82442C108.032 2.80126 112.449 4.49619 116.472 6.5713C120.526 8.59889 124.073 11.2178 127.176 13.8447C130.308 16.4505 132.948 19.1645 135.354 21.6198C137.775 24.0487 139.923 26.2849 141.925 28.1515C143.944 29.989 145.754 31.5413 147.349 32.6898C148.943 33.8329 150.243 34.7041 151.161 35.2427C152.084 35.7866 152.577 36.077 152.577 36.077C152.577 36.077 152.023 35.9423 150.985 35.6914C149.958 35.401 148.432 34.9682 146.571 34.1682C142.812 32.666 137.762 29.5295 132.335 25.3291C129.589 23.283 126.682 21.0601 123.585 18.9374C120.465 16.8333 117.088 14.9193 113.474 13.33C109.866 11.701 105.924 10.6767 101.876 9.81598C99.7981 9.41205 97.8197 9.12954 95.6989 8.93153L94.0256 8.79694L93.2703 8.7388L92.4795 8.71509L89.3135 8.62794C85.0922 8.53554 80.8861 8.93942 76.8276 9.76313C72.7792 10.6132 68.8249 11.7195 65.1529 13.293C61.491 14.8717 58.0122 16.6485 54.8691 18.6656C51.7413 20.6984 48.8627 22.8211 46.3223 24.9622C41.2542 29.2682 37.4067 33.4554 34.8383 36.5126C32.2674 39.5778 30.9399 41.4971 30.9399 41.4971Z" fill="#092A17"/>
<path d="M148.257 37.3059C148.257 37.3059 147.036 38.7818 144.615 41.076C143.397 42.2139 141.897 43.5788 140.104 45.0493C138.316 46.5304 136.259 48.1646 133.876 49.7302C132.706 50.5539 131.458 51.3564 130.138 52.1458C128.836 52.9695 127.47 53.7828 126.023 54.5405C124.592 55.3351 123.117 56.1429 121.553 56.8478C120.004 57.595 118.415 58.3421 116.739 58.9441C113.431 60.2773 109.921 61.4285 106.285 62.3129C104.452 62.6851 102.626 63.1841 100.752 63.4561C98.8749 63.7069 96.9905 63.9576 95.1037 64.2111C93.2041 64.285 91.3045 64.3615 89.4125 64.4381C87.3731 64.4645 85.6617 64.2586 83.785 64.1794C80.1155 63.918 76.5325 63.8943 73.0003 63.0891C69.4987 62.3947 66.0453 61.9961 62.9811 60.845C59.8787 59.8365 56.9034 59.063 54.3376 57.7799C53.0381 57.2043 51.7921 56.6525 50.607 56.1271C49.4398 55.5648 48.4074 54.8599 47.4029 54.2896C46.4112 53.6877 45.4626 53.1729 44.6311 52.6106C43.8199 52.0192 43.0748 51.4727 42.4035 50.9816C41.0252 50.055 40.1199 49.0701 39.4409 48.4999C38.7849 47.8953 38.4746 47.531 38.4746 47.531C38.4746 47.531 38.8281 47.8557 39.5452 48.3706C40.2826 48.8643 41.2947 49.6694 42.729 50.4746C43.4308 50.897 44.2064 51.3618 45.0532 51.8687C45.9153 52.3386 46.8969 52.761 47.9166 53.2573C48.9516 53.7193 50.0069 54.3107 51.197 54.7516C52.3871 55.1925 53.6357 55.6546 54.9402 56.1351C57.4934 57.2439 60.4585 57.83 63.5227 58.6379C66.5666 59.591 69.9081 59.7361 73.2749 60.3513C76.6062 61.0614 80.2935 60.9109 83.9427 61.167C85.7329 61.2251 87.7164 61.4178 89.3846 61.365C91.2028 61.2779 93.0312 61.1882 94.8545 61.0984C96.6701 60.874 98.4883 60.6497 100.294 60.4252C102.102 60.1824 103.867 59.7151 105.639 59.3745C109.148 58.5323 112.589 57.5871 115.829 56.3674C117.477 55.842 119.025 55.1238 120.576 54.5061C122.138 53.9094 123.615 53.2046 125.052 52.5103C126.504 51.8502 127.882 51.1321 129.2 50.3982C130.535 49.6986 131.801 48.9831 132.989 48.2386C135.394 46.805 137.558 45.4004 139.448 44.1147C141.342 42.8316 142.939 41.6251 144.241 40.6113C146.85 38.5863 148.257 37.3059 148.257 37.3059Z" fill="#092A17"/>
<path d="M38.4014 40.7741C38.3302 40.3675 38.2412 39.9636 38.2056 39.5359C38.0658 37.9809 38.4853 36.8958 39.1287 35.5176C39.6399 34.4247 41.3436 34.6438 41.8014 35.6497C42.2032 36.5341 42.8491 37.2786 43.3017 38.1499C43.8078 39.1188 44.3774 40.0666 44.9114 41.0197C45.5878 42.2262 45.3056 44.1086 44.2375 44.9851C42.9381 46.0491 41.2623 46.5955 39.6602 45.8959C37.8166 45.0906 36.8655 42.2156 38.4014 40.7741Z" fill="#092A17" fill-opacity="0.3"/>
</svg>
