<svg width="104" height="130" viewBox="0 0 104 130" fill="none" xmlns="http://www.w3.org/2000/svg">
<mask id="mask0" mask-type="alpha" maskUnits="userSpaceOnUse" x="0" y="0" width="104" height="130">
<rect width="104" height="130" rx="5" transform="matrix(-1 0 0 1 104 0)" fill="#EFEFEF"/>
</mask>
<g mask="url(#mask0)">
<rect x="19" y="9" width="65" height="65" rx="5" fill="#C4C4C4"/>
<g opacity="0.2">
<path d="M67.7352 63.6895C67.779 62.5615 67.5652 60.3394 66.0352 56.7052C64.6932 53.5228 62.7124 47.1087 62.7227 41.6317C62.7304 38.1447 63.5211 35.032 65.963 33.522C68.4048 32.0121 70.396 31.7154 71.9131 31.927C73.6363 32.1645 74.7156 33.0522 75.0942 33.4162C74.9964 34.8048 74.6022 41.5801 75.563 48.2031C76.4259 54.1602 79.2903 59.041 80.4365 60.8013L67.7352 63.6895Z" fill="#BDBDBD"/>
<path d="M77.4228 61.4879L80.4365 60.8013C79.2903 59.041 76.4259 54.1602 75.563 48.2031C74.6022 41.5801 74.9964 34.8048 75.0942 33.4162C74.7156 33.0522 73.6363 32.1645 71.9131 31.927C70.396 31.7154 68.4048 32.0121 65.963 33.522C65.1748 34.0099 64.5592 34.6655 64.0852 35.445C67.0113 33.855 71.5989 31.9992 72.758 35.1791C73.8373 38.1318 72.7142 44.3186 73.7137 51.6979C74.4581 57.2007 76.4543 60.2774 77.4228 61.4879Z" fill="#828282"/>
<path fill-rule="evenodd" clip-rule="evenodd" d="M81.8207 60.8167C81.9342 60.9709 81.9623 61.1722 81.8956 61.3518C81.829 61.5315 81.6762 61.6653 81.4897 61.7077L67.1831 64.9588C66.9831 65.0042 66.7742 64.938 66.6368 64.7854C66.4994 64.6329 66.455 64.4179 66.5206 64.2233C66.5206 64.2233 67.1299 62.2319 64.9801 57.129C63.5999 53.853 61.5668 47.2491 61.5792 41.6115C61.588 37.6876 62.6092 34.2374 65.357 32.5376C68.1034 30.8386 70.3535 30.5455 72.0591 30.7827C74.7133 31.1519 76.1006 32.8182 76.1006 32.8182C76.1975 32.9331 76.2452 33.082 76.2327 33.2321C76.2327 33.2321 75.6155 40.7195 76.6747 48.0204C77.7216 55.2413 81.8207 60.8167 81.8207 60.8167ZM67.7239 63.6708C67.7682 62.5443 67.5556 60.3208 66.0246 56.6869C64.6839 53.5046 62.7009 47.0906 62.7131 41.6138C62.7207 38.1278 63.5115 35.0146 65.9527 33.5044C68.3948 31.9936 70.3864 31.6972 71.9032 31.9083C73.625 32.1477 74.7058 33.0351 75.0837 33.397C74.9866 34.7877 74.5917 41.5612 75.5525 48.1839C76.4163 54.1421 79.2806 59.0223 80.4273 60.7842L67.7239 63.6708Z" fill="#4F4F4F"/>
<path d="M57.8069 67.9889C58.6878 67.6689 72.8033 62.5222 77.5428 61.3169C82.1637 60.1399 85.757 62.6591 87.2716 64.7833C88.1757 66.0557 88.9664 67.9915 88.9845 69.806C88.9973 70.9365 88.7037 72.0232 87.9001 72.8336C87.6605 73.0762 87.3514 73.3292 86.9727 73.5951C86.8182 73.7009 86.7254 73.8789 86.728 74.0673C86.7306 74.2531 86.8233 74.4287 86.9804 74.5345C88.4976 75.5514 89.2652 76.2018 89.9118 77.1104C91.4135 79.2191 91.7663 82.3783 90.5403 85.1555C90.0251 86.3196 88.5388 87.3159 87.6733 87.8373C87.5033 87.938 87.3977 88.1212 87.3977 88.32C87.3951 88.5187 87.4982 88.702 87.6656 88.8078C88.7294 89.466 89.631 89.5383 90.4115 91.0508L90.4294 91.0843C94.3035 97.506 89.6438 101.736 88.7603 102.617C88.6367 102.743 88.562 102.836 88.5337 102.885C88.4641 103.001 88.4486 103.104 88.446 103.174C88.4435 103.241 88.4538 103.303 88.4693 103.36C88.6084 104.036 88.8633 104.674 89.0951 105.319C89.3012 105.897 89.4945 106.48 89.5202 107.113C89.564 108.171 89.4352 109.25 89.0565 110.246C88.5002 111.71 87.3384 113.405 86.0583 114.26C82.3594 114.915 75.8426 114.933 65.1994 113.003C64.4498 112.866 62.9507 111.996 62.5695 110.373C62.2372 108.953 62.3661 107.995 62.8349 107.41C63.1131 107.064 63.5097 106.868 63.9476 106.785C66.3895 106.32 72.8471 105.789 77.3599 105.107C79.3716 104.803 81.0071 104.459 81.7902 104.093C82.0555 103.966 82.2384 103.827 82.3414 103.703C82.5012 103.507 82.5474 103.303 82.5217 103.107C82.4959 102.908 82.3878 102.699 82.1148 102.557C81.8212 102.405 81.02 102.327 79.8763 102.374C76.3887 102.518 69.2744 103.515 64.9342 103.855C63.8446 103.941 62.9379 103.984 62.3119 103.961C62.0492 103.951 61.753 103.897 61.7169 103.889C60.6763 103.223 59.9216 101.78 59.6614 99.607C59.3832 97.253 61.3538 95.405 62.9534 95.0488C67.1674 94.1067 75.9818 92.7207 79.1964 91.6702C79.8738 91.4508 80.3297 91.2159 80.5281 91.0249C80.7908 90.772 80.8268 90.5036 80.765 90.2713C80.7084 90.0674 80.5487 89.8402 80.1803 89.7318C79.8789 89.644 79.2994 89.6234 78.5164 89.6879C74.5754 90.0079 64.8389 92.2019 62.3893 92.8085C61.3409 93.0666 60.2848 92.7594 59.3652 91.8973C58.3529 90.9449 57.5132 89.355 56.9878 87.125C56.7405 86.0797 56.5963 84.6987 56.8951 83.483C57.1681 82.3757 57.8327 81.4157 59.2005 81.0802C64.1357 79.8696 73.4008 78.0834 76.7261 76.8961C77.4216 76.6484 77.8852 76.398 78.0784 76.2018C78.3489 75.9308 78.3696 75.6495 78.2846 75.4147C78.2408 75.2934 78.1738 75.1824 78.0759 75.0869C77.9162 74.9294 77.6689 74.8003 77.3186 74.7332C76.7854 74.63 75.9251 74.6687 74.8175 74.8288C71.3943 75.3217 65.4261 76.9556 59.6022 78.3545C57.6008 78.8346 56.2537 78.6488 55.3676 77.8977C54.4712 77.1388 54.0746 75.8482 53.8994 74.2764C53.7243 72.7097 54.3141 71.4037 55.0714 70.3971C56.1507 68.962 57.5777 68.118 57.8069 67.9889Z" fill="#BDBDBD"/>
<path d="M88.4849 103.437C89.0877 107.701 87.8203 112.45 85.6978 114.319C85.8215 114.298 85.9399 114.28 86.0584 114.26C87.3386 113.405 88.5003 111.71 89.0567 110.246C89.4353 109.25 89.5642 108.171 89.5204 107.113C89.4946 106.48 89.3013 105.897 89.0953 105.319C88.8712 104.699 88.6292 104.085 88.4849 103.437ZM82.205 103.837C82.102 103.923 81.9629 104.01 81.7903 104.093C81.0073 104.459 79.3717 104.803 77.36 105.107C72.8472 105.789 66.3896 106.32 63.9478 106.785C63.5099 106.868 63.1132 107.064 62.835 107.41C62.3663 107.995 62.2374 108.953 62.5697 110.373C62.8144 111.418 63.5228 112.151 64.1977 112.577C61.5703 110.664 63.4584 108.233 65.0734 107.492C69.1973 105.598 80.2423 108.176 82.4832 103.799L82.205 103.837ZM80.3479 91.1668C80.1032 91.3243 79.7143 91.5024 79.1966 91.6702C75.982 92.7207 67.1675 94.1067 62.9535 95.0488C61.354 95.405 59.3834 97.253 59.6616 99.607C59.9217 101.78 60.6764 103.223 61.7171 103.889C61.7531 103.897 62.0494 103.951 62.3121 103.961H62.3327C59.3886 102.601 60.1871 98.3319 62.0211 96.951C66.369 93.6757 77.0611 95.2269 80.3479 91.1668ZM88.4771 103.001C88.4617 103.014 88.4437 103.027 88.4257 103.04C88.4334 103.084 88.441 103.127 88.4462 103.174C88.4488 103.127 88.4539 103.068 88.4771 103.001ZM88.32 89.1665C91.8927 93.1956 90.9782 99.4883 89.2705 102.105C90.7129 100.596 93.7987 96.6671 90.4296 91.0843L90.4116 91.0508C89.796 89.8583 89.1056 89.5614 88.32 89.1665ZM77.8082 76.4058C77.5609 76.5606 77.1976 76.7284 76.7263 76.8961C73.4009 78.0834 64.1359 79.8696 59.2006 81.0802C57.8329 81.4157 57.1683 82.3757 56.8952 83.483C56.5964 84.6987 56.7406 86.0797 56.9879 87.125C57.5134 89.355 58.3531 90.9449 59.3654 91.8973C59.8496 92.3516 60.3726 92.651 60.9135 92.7955C49.5362 78.3183 73.4576 80.8968 77.8365 76.4006L77.8082 76.4058ZM87.5628 74.932C91.2204 78.9662 90.646 84.5206 88.6162 87.2204C89.3709 86.6784 90.1849 85.9582 90.5404 85.1555C91.7665 82.3783 91.4136 79.2191 89.9119 77.1104C89.353 76.3257 88.7064 75.7321 87.5628 74.932ZM87.1197 73.4892C87.4339 73.2621 87.6916 73.0427 87.9002 72.8336C88.7039 72.0232 88.9975 70.9365 88.9846 69.806C88.9666 67.9915 88.1758 66.0557 87.2717 64.7833C85.7572 62.6591 82.1639 60.1399 77.5429 61.3169C72.8034 62.5222 58.688 67.6689 57.8071 67.9889C57.5778 68.118 56.1508 68.962 55.0715 70.3971C54.3143 71.4037 53.7244 72.7097 53.8996 74.2764C54.0748 75.8482 54.4714 77.1388 55.3677 77.8977C55.512 78.0216 55.6691 78.1274 55.8391 78.2203C53.5776 75.5799 55.1617 72.2838 57.1914 70.9365C65.7714 65.2401 82.218 59.874 86.195 67.4314C87.3902 69.7001 87.591 72.3613 87.1197 73.4892ZM86.7333 73.9796C86.7024 73.9977 86.6664 74.0106 86.6329 74.0209C86.6664 74.0493 86.6973 74.0777 86.7308 74.1086C86.7282 74.0932 86.7281 74.0802 86.7281 74.0673C86.7281 74.0363 86.7307 74.008 86.7333 73.9796Z" fill="#828282"/>
<path fill-rule="evenodd" clip-rule="evenodd" d="M88.268 74.0684C88.4318 73.9314 88.578 73.7974 88.7073 73.667C89.7321 72.6352 90.1382 71.2652 90.1233 69.8245C90.1021 67.7783 89.2206 65.5911 88.1981 64.1555C86.4968 61.7668 82.4609 58.924 77.2685 60.2464C72.3492 61.4989 57.3805 66.9691 57.3805 66.9691C57.3549 66.9784 57.33 66.9897 57.306 67.0026C57.306 67.0026 55.5021 67.9741 54.1702 69.7442C53.2557 70.9598 52.5661 72.543 52.7762 74.4345C52.9882 76.3413 53.551 77.8734 54.6385 78.7962C55.7359 79.7279 57.3922 80.0869 59.8697 79.4917C65.6563 78.1021 71.5843 76.4747 74.985 75.9838C75.5252 75.9056 75.9976 75.856 76.3898 75.8439L76.3501 75.8584C73.0468 77.0371 63.8389 78.8044 58.9359 80.0077C57.0843 80.4622 56.1688 81.7445 55.7995 83.2429C55.4564 84.6347 55.6065 86.2205 55.8886 87.4174C57.1065 92.5858 59.9876 94.6044 62.6647 93.9429C64.9246 93.3844 73.4534 91.4527 77.7533 90.9396C73.9751 91.9318 66.4845 93.1285 62.711 93.9704C60.6769 94.4243 58.1855 96.7802 58.5413 99.7729C58.854 102.401 59.8705 104.093 61.1325 104.891C61.2449 104.962 61.4204 105.03 61.6606 105.071C62.0229 105.133 62.5983 105.149 63.3319 105.123C67.2021 104.985 75.7979 103.727 79.8259 103.545C79.0933 103.709 78.1935 103.864 77.196 104.014C72.6672 104.699 66.1918 105.234 63.7415 105.7C62.8515 105.869 62.0928 106.348 61.6502 107.203C61.2473 107.981 61.1061 109.108 61.4706 110.664C61.9782 112.83 64.0022 113.97 65.0035 114.152C75.9581 116.138 82.6287 116.078 86.3767 115.388C86.4481 115.375 86.5162 115.348 86.5774 115.31C88.0782 114.358 89.4716 112.391 90.1216 110.682C90.555 109.543 90.7072 108.309 90.6567 107.096C90.6257 106.347 90.4127 105.652 90.1658 104.965C89.9783 104.443 89.7702 103.926 89.6354 103.384C90.771 102.261 95.6429 97.5747 91.4151 90.5441C90.7069 89.1824 89.9485 88.7867 89.0646 88.3193C90.0137 87.6532 91.1189 86.6941 91.5806 85.6483C92.9785 82.483 92.5504 78.8854 90.8383 76.4815C90.2243 75.619 89.5214 74.9535 88.268 74.0684ZM57.8121 68.021C58.6912 67.6998 72.8084 62.5544 77.5478 61.3476C82.1674 60.1712 85.7617 62.6902 87.275 64.8154C88.1812 66.0878 88.9707 68.0231 88.9894 69.8362C89.0011 70.9684 88.7089 72.0546 87.9035 72.8656C87.6641 73.1068 87.3566 73.3611 86.9764 73.6258C86.8223 73.7331 86.7312 73.9098 86.7329 74.0976C86.7345 74.2855 86.8288 74.4603 86.9848 74.5648C88.5029 75.5817 89.2694 76.2345 89.9153 77.1414C91.4179 79.2514 91.7707 82.4104 90.5438 85.1884C90.0299 86.3518 88.5433 87.3482 87.6773 87.8681C87.5075 87.97 87.4029 88.1534 87.4016 88.3517C87.4004 88.5502 87.5024 88.7348 87.6708 88.839C88.7349 89.4966 89.6346 89.5695 90.4171 91.0833L90.4352 91.1158C94.3071 97.5365 89.6471 101.766 88.765 102.649C88.64 102.774 88.5658 102.868 88.5374 102.916C88.4674 103.033 88.4535 103.135 88.4511 103.205C88.4489 103.273 88.4573 103.335 88.4743 103.391C88.6139 104.068 88.8678 104.706 89.0988 105.35C89.3069 105.929 89.4975 106.512 89.5237 107.144C89.5677 108.203 89.4407 109.282 89.062 110.278C88.505 111.742 87.3422 113.435 86.0615 114.29C82.3653 114.947 75.846 114.964 65.2053 113.034C64.4552 112.898 62.9549 112.027 62.5746 110.405C62.2419 108.985 62.3719 108.027 62.8403 107.442C63.1185 107.094 63.5132 106.9 63.9525 106.816C66.3952 106.352 72.8505 105.82 77.3652 105.138C79.3747 104.834 81.0116 104.491 81.794 104.124C82.061 103.999 82.2416 103.859 82.3451 103.733C82.5057 103.538 82.5511 103.335 82.5257 103.139C82.4997 102.939 82.3917 102.731 82.1184 102.589C81.8246 102.436 81.0244 102.358 79.8819 102.405C76.3924 102.55 69.2795 103.547 64.9378 103.887C63.8503 103.973 62.9414 104.017 62.3168 103.993C62.0529 103.982 61.7569 103.927 61.7227 103.921C60.6821 103.254 59.9257 101.811 59.6674 99.6384C59.3872 97.2836 61.3569 95.4368 62.9576 95.0796C67.1707 94.1393 75.9869 92.7531 79.2008 91.7028C79.8772 91.4817 80.3352 91.2478 80.5332 91.0563C80.794 90.8037 80.8317 90.5354 80.7692 90.3036C80.7142 90.0995 80.5529 89.8724 80.1843 89.764C79.884 89.6755 79.3034 89.6557 78.5205 89.7191C74.5798 90.0383 64.8432 92.2342 62.3931 92.8396C61.3459 93.0986 60.2895 92.7902 59.3708 91.9281C58.3571 90.9765 57.5179 89.3874 56.9922 87.1564C56.7461 86.112 56.6011 84.7293 56.9003 83.5153C57.1733 82.4077 57.837 81.4471 59.2056 81.1113C64.14 79.9001 73.4059 78.1151 76.7307 76.9288C77.4251 76.6809 77.8899 76.43 78.0843 76.2332C78.3525 75.9616 78.3729 75.6816 78.2899 75.4466C78.2466 75.3242 78.1774 75.2142 78.0801 75.1183C77.9218 74.9623 77.6732 74.8307 77.3235 74.7642C76.7889 74.6625 75.9292 74.6993 74.8231 74.8591C71.3997 75.3535 65.431 76.9876 59.6055 78.3869C57.606 78.867 56.2571 78.681 55.3712 77.9294C54.4754 77.1689 54.0777 75.8795 53.9032 74.3086C53.729 72.7417 54.3178 71.4354 55.0756 70.4283C56.1548 68.994 57.5827 68.1507 57.8121 68.021ZM89.5755 103.118C89.5566 103.022 89.5131 102.933 89.4495 102.859C89.5111 102.931 89.5572 103.016 89.5755 103.118Z" fill="#4F4F4F"/>
<path d="M64.413 50.1872C64.2359 50.1797 64.0409 50.0531 63.9643 49.874C63.8953 49.7189 63.9791 49.5702 64.1562 49.5778C64.165 49.5658 66.9876 49.5561 69.4264 48.9326C71.8983 48.2981 73.5105 47.5562 73.5105 47.5562C73.645 47.4786 73.8736 47.5592 73.9929 47.7176C74.1194 47.8628 74.1133 48.0518 73.9861 48.1163C73.9698 48.1043 72.3401 48.8671 69.8099 49.5125C67.2945 50.1687 64.4211 50.1762 64.413 50.1872Z" fill="#4F4F4F"/>
<path d="M36.8351 63.6895C36.7913 62.5615 37.0051 60.3394 38.5351 56.7052C39.8771 53.5228 41.8579 47.1087 41.8476 41.6317C41.8399 38.1447 41.0492 35.032 38.6073 33.522C36.1655 32.0121 34.1744 31.7154 32.6572 31.927C30.934 32.1645 29.8547 33.0522 29.4761 33.4162C29.5739 34.8048 29.9681 41.5801 29.0073 48.2031C28.1444 54.1602 25.28 59.041 24.1338 60.8013L36.8351 63.6895Z" fill="#BDBDBD"/>
<path d="M27.1475 61.4879L24.1338 60.8013C25.28 59.041 28.1444 54.1602 29.0073 48.2031C29.9681 41.5801 29.5739 34.8048 29.4761 33.4162C29.8547 33.0522 30.934 32.1645 32.6572 31.927C34.1744 31.7154 36.1655 32.0121 38.6073 33.522C39.3955 34.0099 40.0112 34.6655 40.4851 35.445C37.559 33.855 32.9714 31.9992 31.8123 35.1791C30.733 38.1318 31.8561 44.3186 30.8567 51.6979C30.1123 57.2007 28.116 60.2774 27.1475 61.4879Z" fill="#828282"/>
<path fill-rule="evenodd" clip-rule="evenodd" d="M22.7497 60.8167C22.6361 60.9709 22.608 61.1722 22.6747 61.3518C22.7413 61.5315 22.8941 61.6653 23.0806 61.7077L37.3872 64.9588C37.5872 65.0042 37.7961 64.938 37.9336 64.7854C38.0709 64.6329 38.1153 64.4179 38.0497 64.2233C38.0497 64.2233 37.4404 62.2319 39.5902 57.129C40.9705 53.853 43.0035 47.2491 42.9912 41.6115C42.9824 37.6876 41.9611 34.2374 39.2133 32.5376C36.4669 30.8386 34.2168 30.5455 32.5113 30.7827C29.857 31.1519 28.4697 32.8182 28.4697 32.8182C28.3729 32.9331 28.3251 33.082 28.3376 33.2321C28.3376 33.2321 28.9548 40.7195 27.8956 48.0204C26.8487 55.2413 22.7497 60.8167 22.7497 60.8167ZM36.8464 63.6708C36.8021 62.5443 37.0147 60.3208 38.5457 56.6869C39.8864 53.5046 41.8694 47.0906 41.8572 41.6138C41.8496 38.1278 41.0588 35.0146 38.6176 33.5044C36.1755 31.9936 34.1839 31.6972 32.6671 31.9083C30.9454 32.1477 29.8645 33.0351 29.4866 33.397C29.5837 34.7877 29.9786 41.5612 29.0179 48.1839C28.154 54.1421 25.2897 59.0223 24.143 60.7842L36.8464 63.6708Z" fill="#4F4F4F"/>
<path d="M46.7634 67.9889C45.8825 67.6689 31.767 62.5222 27.0276 61.3169C22.4066 60.1399 18.8133 62.6591 17.2987 64.7833C16.3946 66.0557 15.6039 67.9915 15.5859 69.806C15.573 70.9365 15.8666 72.0232 16.6703 72.8336C16.9098 73.0762 17.2189 73.3292 17.5976 73.5951C17.7521 73.7009 17.8449 73.8789 17.8423 74.0673C17.8397 74.2531 17.747 74.4287 17.5899 74.5345C16.0728 75.5514 15.3051 76.2018 14.6585 77.1104C13.1568 79.2191 12.804 82.3783 14.0301 85.1555C14.5452 86.3196 16.0316 87.3159 16.897 87.8373C17.067 87.938 17.1726 88.1212 17.1726 88.32C17.1752 88.5187 17.0721 88.702 16.9047 88.8078C15.8409 89.466 14.9393 89.5383 14.1589 91.0508L14.1409 91.0843C10.2669 97.506 14.9265 101.736 15.81 102.617C15.9336 102.743 16.0083 102.836 16.0366 102.885C16.1062 103.001 16.1217 103.104 16.1243 103.174C16.1269 103.241 16.1165 103.303 16.101 103.36C15.9619 104.036 15.707 104.674 15.4752 105.319C15.2691 105.897 15.0758 106.48 15.0501 107.113C15.0063 108.171 15.1351 109.25 15.5138 110.246C16.0702 111.71 17.2319 113.405 18.5121 114.26C22.2109 114.915 28.7277 114.933 39.3709 113.003C40.1205 112.866 41.6196 111.996 42.0008 110.373C42.3331 108.953 42.2042 107.995 41.7354 107.41C41.4572 107.064 41.0606 106.868 40.6227 106.785C38.1809 106.32 31.7232 105.789 27.2104 105.107C25.1987 104.803 23.5632 104.459 22.7801 104.093C22.5148 103.966 22.3319 103.827 22.2289 103.703C22.0692 103.507 22.0229 103.303 22.0486 103.107C22.0744 102.908 22.1825 102.699 22.4555 102.557C22.7491 102.405 23.5503 102.327 24.694 102.374C28.1816 102.518 35.2959 103.515 39.6362 103.855C40.7257 103.941 41.6325 103.984 42.2584 103.961C42.5211 103.951 42.8173 103.897 42.8534 103.889C43.894 103.223 44.6487 101.78 44.9089 99.607C45.1871 97.253 43.2165 95.405 41.6169 95.0488C37.4029 94.1067 28.5885 92.7207 25.3739 91.6702C24.6965 91.4508 24.2406 91.2159 24.0422 91.0249C23.7795 90.772 23.7435 90.5036 23.8053 90.2713C23.862 90.0674 24.0217 89.8402 24.39 89.7318C24.6914 89.644 25.2709 89.6234 26.054 89.6879C29.9949 90.0079 39.7314 92.2019 42.181 92.8085C43.2294 93.0666 44.2855 92.7594 45.2051 91.8973C46.2174 90.9449 47.0571 89.355 47.5825 87.125C47.8298 86.0797 47.974 84.6987 47.6752 83.483C47.4022 82.3757 46.7376 81.4157 45.3698 81.0802C40.4346 79.8696 31.1696 78.0834 27.8442 76.8961C27.1487 76.6484 26.6851 76.398 26.4919 76.2018C26.2214 75.9308 26.2008 75.6495 26.2858 75.4147C26.3295 75.2934 26.3965 75.1824 26.4944 75.0869C26.6541 74.9294 26.9014 74.8003 27.2517 74.7332C27.7849 74.63 28.6452 74.6687 29.7528 74.8288C33.176 75.3217 39.1442 76.9556 44.9681 78.3545C46.9695 78.8346 48.3167 78.6488 49.2027 77.8977C50.0991 77.1388 50.4957 75.8482 50.6709 74.2764C50.846 72.7097 50.2562 71.4037 49.4989 70.3971C48.4197 68.962 46.9926 68.118 46.7634 67.9889Z" fill="#BDBDBD"/>
<path d="M16.0854 103.437C15.4827 107.701 16.75 112.45 18.8725 114.319C18.7489 114.298 18.6304 114.28 18.5119 114.26C17.2317 113.405 16.07 111.71 15.5136 110.246C15.135 109.25 15.0061 108.171 15.0499 107.113C15.0757 106.48 15.269 105.897 15.475 105.319C15.6991 104.699 15.9412 104.085 16.0854 103.437ZM22.3653 103.837C22.4683 103.923 22.6074 104.01 22.78 104.093C23.563 104.459 25.1986 104.803 27.2103 105.107C31.7231 105.789 38.1807 106.32 40.6226 106.785C41.0604 106.868 41.4571 107.064 41.7353 107.41C42.2041 107.995 42.3329 108.953 42.0006 110.373C41.7559 111.418 41.0475 112.151 40.3727 112.577C43 110.664 41.1119 108.233 39.4969 107.492C35.373 105.598 24.328 108.176 22.0871 103.799L22.3653 103.837ZM24.2224 91.1668C24.4671 91.3243 24.856 91.5024 25.3738 91.6702C28.5884 92.7207 37.4028 94.1067 41.6168 95.0488C43.2164 95.405 45.1869 97.253 44.9087 99.607C44.6486 101.78 43.8939 103.223 42.8532 103.889C42.8172 103.897 42.521 103.951 42.2582 103.961H42.2376C45.1817 102.601 44.3832 98.3319 42.5493 96.951C38.2013 93.6757 27.5092 95.2269 24.2224 91.1668ZM16.0932 103.001C16.1086 103.014 16.1266 103.027 16.1446 103.04C16.1369 103.084 16.1293 103.127 16.1241 103.174C16.1216 103.127 16.1164 103.068 16.0932 103.001ZM16.2503 89.1665C12.6776 93.1956 13.5921 99.4883 15.2998 102.105C13.8574 100.596 10.7716 96.6671 14.1407 91.0843L14.1587 91.0508C14.7743 89.8583 15.4647 89.5614 16.2503 89.1665ZM26.7622 76.4058C27.0094 76.5606 27.3727 76.7284 27.844 76.8961C31.1694 78.0834 40.4344 79.8696 45.3697 81.0802C46.7374 81.4157 47.402 82.3757 47.6751 83.483C47.9739 84.6987 47.8297 86.0797 47.5824 87.125C47.0569 89.355 46.2172 90.9449 45.2049 91.8973C44.7207 92.3516 44.1977 92.651 43.6568 92.7955C55.0341 78.3183 31.1127 80.8968 26.7339 76.4006L26.7622 76.4058ZM17.0076 74.932C13.3499 78.9662 13.9244 84.5206 15.9541 87.2204C15.1994 86.6784 14.3854 85.9582 14.0299 85.1555C12.8038 82.3783 13.1567 79.2191 14.6584 77.1104C15.2173 76.3257 15.8639 75.7321 17.0076 74.932ZM17.4506 73.4892C17.1364 73.2621 16.8787 73.0427 16.6701 72.8336C15.8665 72.0232 15.5728 70.9365 15.5857 69.806C15.6037 67.9915 16.3945 66.0557 17.2986 64.7833C18.8132 62.6591 22.4064 60.1399 27.0274 61.3169C31.7669 62.5222 45.8823 67.6689 46.7632 67.9889C46.9925 68.118 48.4195 68.962 49.4988 70.3971C50.2561 71.4037 50.8459 72.7097 50.6707 74.2764C50.4956 75.8482 50.099 77.1388 49.2026 77.8977C49.0583 78.0216 48.9012 78.1274 48.7312 78.2203C50.9927 75.5799 49.4086 72.2838 47.3789 70.9365C38.7989 65.2401 22.3524 59.874 18.3753 67.4314C17.1801 69.7001 16.9793 72.3613 17.4506 73.4892ZM17.837 73.9796C17.8679 73.9977 17.9039 74.0106 17.9374 74.0209C17.9039 74.0493 17.873 74.0777 17.8395 74.1086C17.8421 74.0932 17.8422 74.0802 17.8422 74.0673C17.8422 74.0363 17.8396 74.008 17.837 73.9796Z" fill="#828282"/>
<path fill-rule="evenodd" clip-rule="evenodd" d="M16.3023 74.0684C16.1385 73.9314 15.9923 73.7974 15.863 73.667C14.8382 72.6352 14.4321 71.2652 14.447 69.8245C14.4682 67.7783 15.3497 65.5911 16.3722 64.1555C18.0735 61.7668 22.1094 58.924 27.3018 60.2464C32.2211 61.4989 47.1898 66.9691 47.1898 66.9691C47.2154 66.9784 47.2404 66.9897 47.2643 67.0026C47.2643 67.0026 49.0682 67.9741 50.4001 69.7442C51.3146 70.9598 52.0042 72.543 51.7941 74.4345C51.5821 76.3413 51.0193 77.8734 49.9319 78.7962C48.8344 79.7279 47.1781 80.0869 44.7006 79.4917C38.914 78.1021 32.986 76.4747 29.5853 75.9838C29.0451 75.9056 28.5727 75.856 28.1805 75.8439L28.2202 75.8584C31.5235 77.0371 40.7314 78.8044 45.6344 80.0077C47.486 80.4622 48.4015 81.7445 48.7708 83.2429C49.1139 84.6347 48.9638 86.2205 48.6817 87.4174C47.4638 92.5858 44.5827 94.6044 41.9056 93.9429C39.6457 93.3844 31.1169 91.4527 26.817 90.9396C30.5952 91.9318 38.0858 93.1285 41.8593 93.9704C43.8934 94.4243 46.3848 96.7802 46.029 99.7729C45.7164 102.401 44.6998 104.093 43.4378 104.891C43.3254 104.962 43.15 105.03 42.9097 105.071C42.5474 105.133 41.972 105.149 41.2384 105.123C37.3683 104.985 28.7724 103.727 24.7445 103.545C25.4771 103.709 26.3768 103.864 27.3743 104.014C31.9032 104.699 38.3785 105.234 40.8288 105.7C41.7188 105.869 42.4775 106.348 42.9201 107.203C43.323 107.981 43.4642 109.108 43.0997 110.664C42.5921 112.83 40.5681 113.97 39.5669 114.152C28.6122 116.138 21.9416 116.078 18.1936 115.388C18.1222 115.375 18.0541 115.348 17.9929 115.31C16.4921 114.358 15.0987 112.391 14.4487 110.682C14.0154 109.543 13.8631 108.309 13.9136 107.096C13.9446 106.347 14.1576 105.652 14.4045 104.965C14.592 104.443 14.8002 103.926 14.9349 103.384C13.7994 102.261 8.92745 97.5747 13.1552 90.5441C13.8634 89.1824 14.6218 88.7867 15.5057 88.3193C14.5566 87.6532 13.4514 86.6941 12.9897 85.6483C11.5918 82.483 12.0199 78.8854 13.732 76.4815C14.346 75.619 15.0489 74.9535 16.3023 74.0684ZM46.7582 68.021C45.8791 67.6998 31.7619 62.5544 27.0225 61.3476C22.4029 60.1712 18.8087 62.6902 17.2953 64.8154C16.3891 66.0878 15.5997 68.0231 15.5809 69.8362C15.5692 70.9684 15.8614 72.0546 16.6669 72.8656C16.9062 73.1068 17.2137 73.3611 17.5939 73.6258C17.748 73.7331 17.8391 73.9098 17.8375 74.0976C17.8358 74.2855 17.7415 74.4603 17.5855 74.5648C16.0674 75.5817 15.3009 76.2345 14.655 77.1414C13.1524 79.2514 12.7996 82.4104 14.0266 85.1884C14.5404 86.3518 16.027 87.3482 16.893 87.8681C17.0629 87.97 17.1674 88.1534 17.1687 88.3517C17.1699 88.5502 17.0679 88.7348 16.8995 88.839C15.8355 89.4966 14.9357 89.5695 14.1533 91.0833L14.1351 91.1158C10.2632 97.5365 14.9232 101.766 15.8053 102.649C15.9303 102.774 16.0045 102.868 16.033 102.916C16.1029 103.033 16.1168 103.135 16.1192 103.205C16.1214 103.273 16.113 103.335 16.096 103.391C15.9564 104.068 15.7026 104.706 15.4715 105.35C15.2634 105.929 15.0728 106.512 15.0467 107.144C15.0026 108.203 15.1296 109.282 15.5083 110.278C16.0653 111.742 17.2281 113.435 18.5089 114.29C22.205 114.947 28.7243 114.964 39.365 113.034C40.1151 112.898 41.6154 112.027 41.9957 110.405C42.3284 108.985 42.1985 108.027 41.7301 107.442C41.4518 107.094 41.0571 106.9 40.6178 106.816C38.1751 106.352 31.7198 105.82 27.2052 105.138C25.1956 104.834 23.5588 104.491 22.7763 104.124C22.5094 103.999 22.3287 103.859 22.2252 103.733C22.0646 103.538 22.0192 103.335 22.0446 103.139C22.0706 102.939 22.1786 102.731 22.4519 102.589C22.7457 102.436 23.5459 102.358 24.6884 102.405C28.1779 102.55 35.2908 103.547 39.6325 103.887C40.72 103.973 41.6289 104.017 42.2535 103.993C42.5175 103.982 42.8134 103.927 42.8476 103.921C43.8882 103.254 44.6446 101.811 44.9029 99.6384C45.1831 97.2836 43.2134 95.4368 41.6127 95.0796C37.3996 94.1393 28.5835 92.7531 25.3695 91.7028C24.6931 91.4817 24.2351 91.2478 24.0371 91.0563C23.7763 90.8037 23.7387 90.5354 23.8011 90.3036C23.8561 90.0995 24.0174 89.8724 24.386 89.764C24.6863 89.6755 25.2669 89.6557 26.0498 89.7191C29.9905 90.0383 39.7271 92.2342 42.1773 92.8396C43.2244 93.0986 44.2808 92.7902 45.1996 91.9281C46.2132 90.9765 47.0524 89.3874 47.5781 87.1564C47.8242 86.112 47.9692 84.7293 47.6701 83.5153C47.397 82.4077 46.7333 81.4471 45.3648 81.1113C40.4303 79.9001 31.1644 78.1151 27.8396 76.9288C27.1452 76.6809 26.6804 76.43 26.4861 76.2332C26.2178 75.9616 26.1974 75.6816 26.2804 75.4466C26.3237 75.3242 26.3929 75.2142 26.4902 75.1183C26.6485 74.9623 26.8971 74.8307 27.2468 74.7642C27.7814 74.6625 28.6411 74.6993 29.7472 74.8591C33.1706 75.3535 39.1393 76.9876 44.9648 78.3869C46.9643 78.867 48.3133 78.681 49.1991 77.9294C50.0949 77.1689 50.4927 75.8795 50.6671 74.3086C50.8413 72.7417 50.2525 71.4354 49.4947 70.4283C48.4155 68.994 46.9876 68.1507 46.7582 68.021ZM14.9948 103.118C15.0137 103.022 15.0573 102.933 15.1208 102.859C15.0592 102.931 15.0131 103.016 14.9948 103.118Z" fill="#4F4F4F"/>
<path d="M40.1573 50.1872C40.3345 50.1797 40.5294 50.0531 40.606 49.874C40.675 49.7189 40.5912 49.5702 40.4141 49.5778C40.4053 49.5658 37.5828 49.5561 35.1439 48.9326C32.672 48.2981 31.0598 47.5562 31.0598 47.5562C30.9253 47.4786 30.6967 47.5592 30.5775 47.7176C30.451 47.8628 30.457 48.0518 30.5842 48.1163C30.6005 48.1043 32.2303 48.8671 34.7604 49.5125C37.2758 50.1687 40.1493 50.1762 40.1573 50.1872Z" fill="#4F4F4F"/>
</g>
</g>
</svg>
