<svg width="10" height="10" viewBox="0 0 10 10" fill="none" xmlns="http://www.w3.org/2000/svg">
<path d="M8.50008 5.58342H5.58342V8.50008C5.58342 8.82092 5.32092 9.08342 5.00008 9.08342C4.67925 9.08342 4.41675 8.82092 4.41675 8.50008V5.58342H1.50008C1.17925 5.58342 0.916748 5.32092 0.916748 5.00008C0.916748 4.67925 1.17925 4.41675 1.50008 4.41675H4.41675V1.50008C4.41675 1.17925 4.67925 0.916748 5.00008 0.916748C5.32092 0.916748 5.58342 1.17925 5.58342 1.50008V4.41675H8.50008C8.82092 4.41675 9.08342 4.67925 9.08342 5.00008C9.08342 5.32092 8.82092 5.58342 8.50008 5.58342Z" fill="#1479FF"/>
</svg>
