<svg width="25" height="25" viewBox="0 0 25 25" fill="none" xmlns="http://www.w3.org/2000/svg">
<path fill-rule="evenodd" clip-rule="evenodd" d="M10.4167 13.5417H4.16667C3.59375 13.5417 3.125 13.0729 3.125 12.5V4.16667C3.125 3.59375 3.59375 3.125 4.16667 3.125H10.4167C10.9896 3.125 11.4583 3.59375 11.4583 4.16667V12.5C11.4583 13.0729 10.9896 13.5417 10.4167 13.5417ZM10.4167 21.875H4.16667C3.59375 21.875 3.125 21.4062 3.125 20.8333V16.6667C3.125 16.0938 3.59375 15.625 4.16667 15.625H10.4167C10.9896 15.625 11.4583 16.0938 11.4583 16.6667V20.8333C11.4583 21.4062 10.9896 21.875 10.4167 21.875ZM14.5833 21.875H20.8333C21.4062 21.875 21.875 21.4062 21.875 20.8333V12.5C21.875 11.9271 21.4062 11.4583 20.8333 11.4583H14.5833C14.0104 11.4583 13.5416 11.9271 13.5416 12.5V20.8333C13.5416 21.4062 14.0104 21.875 14.5833 21.875ZM13.5416 8.33333V4.16667C13.5416 3.59375 14.0104 3.125 14.5833 3.125H20.8333C21.4062 3.125 21.875 3.59375 21.875 4.16667V8.33333C21.875 8.90625 21.4062 9.375 20.8333 9.375H14.5833C14.0104 9.375 13.5416 8.90625 13.5416 8.33333Z" fill="#18A0FB"/>
</svg>
