<svg width="16" height="16" viewBox="0 0 16 16" fill="none" xmlns="http://www.w3.org/2000/svg">
<path fill-rule="evenodd" clip-rule="evenodd" d="M8 15.5C12.14 15.5 15.5 12.14 15.5 8C15.5 3.86 12.14 0.5 8 0.500001C3.86 0.500001 0.499999 3.86 0.499999 8C0.5 12.14 3.86 15.5 8 15.5ZM8 7.25C8.4125 7.25 8.75 7.5875 8.75 8L8.75 11C8.75 11.4125 8.4125 11.75 8 11.75C7.5875 11.75 7.25 11.4125 7.25 11L7.25 8C7.25 7.5875 7.5875 7.25 8 7.25ZM8.75 5.75L8.75 4.25L7.25 4.25L7.25 5.75L8.75 5.75Z" fill="#828282"/>
</svg>
