<svg width="22" height="25" viewBox="0 0 22 25" fill="none" xmlns="http://www.w3.org/2000/svg">
<path fill-rule="evenodd" clip-rule="evenodd" d="M14.29 3.16634H19.1667C20.45 3.16634 21.5 4.21634 21.5 5.49967V21.833C21.5 23.1163 20.45 24.1663 19.1667 24.1663H2.83333C1.55 24.1663 0.5 23.1163 0.5 21.833V5.49967C0.5 4.21634 1.55 3.16634 2.83333 3.16634H7.71C8.2 1.81301 9.48333 0.833008 11 0.833008C12.5167 0.833008 13.8 1.81301 14.29 3.16634ZM12.1654 4.33366C12.1654 3.69199 11.6404 3.16699 10.9987 3.16699C10.357 3.16699 9.83203 3.69199 9.83203 4.33366C9.83203 4.97533 10.357 5.50033 10.9987 5.50033C11.6404 5.50033 12.1654 4.97533 12.1654 4.33366ZM11 7.83301C12.9367 7.83301 14.5 9.39634 14.5 11.333C14.5 13.2697 12.9367 14.833 11 14.833C9.06333 14.833 7.5 13.2697 7.5 11.333C7.5 9.39634 9.06333 7.83301 11 7.83301ZM4 20.1997V21.833H18V20.1997C18 17.8663 13.3333 16.583 11 16.583C8.66667 16.583 4 17.8663 4 20.1997Z" fill="#18A0FB"/>
</svg>
