<svg width="25" height="25" viewBox="0 0 25 25" fill="none" xmlns="http://www.w3.org/2000/svg">
<path fill-rule="evenodd" clip-rule="evenodd" d="M2.0835 10.9374C2.0835 15.8367 6.03836 19.7916 10.9377 19.7916C13.1407 19.7916 15.1528 18.9919 16.7002 17.6663L17.0394 18.0179V19.1073L21.2555 23.3207C21.8212 23.8861 22.7457 23.8861 23.3114 23.3207C23.8771 22.7553 23.8771 21.8315 23.3114 21.2661L19.1091 17.0389H18.0191L17.6669 16.6995C18.9923 15.1522 19.7918 13.1403 19.7918 10.9374C19.7918 6.03811 15.837 2.08325 10.9377 2.08325C6.03836 2.08325 2.0835 6.03811 2.0835 10.9374ZM13.1129 7.65678C13.1129 6.30193 12.0182 5.20825 10.662 5.20825C9.30575 5.20825 8.21098 6.30193 8.21098 7.65678C8.21098 9.01164 9.30575 10.1053 10.662 10.1053C12.0182 10.1053 13.1129 9.01164 13.1129 7.65678ZM6.25012 13.8762V14.5833H15.0737V13.8762C15.0737 12.2135 12.0546 11.2744 10.6619 11.2744C9.26913 11.2744 6.25012 12.2135 6.25012 13.8762Z" fill="#18A0FB"/>
</svg>
