<svg width="25" height="24" viewBox="0 0 25 24" fill="none" xmlns="http://www.w3.org/2000/svg">
<path fill-rule="evenodd" clip-rule="evenodd" d="M13.9596 2.11488C14.3096 2.15488 14.4796 2.55488 14.3096 2.85488L10.2796 9.84488C10.0796 10.1749 9.59962 10.1749 9.40962 9.84488L6.39962 4.62488C6.26962 4.40488 6.32962 4.12488 6.51962 3.97488C8.65962 2.39488 11.3396 1.74488 13.9596 2.11488ZM16.4496 2.82488C18.8796 3.86488 20.8196 5.85488 21.7996 8.32488C21.9296 8.64488 21.6796 8.99488 21.3296 8.99488H13.2496C12.8596 8.99488 12.6196 8.57488 12.8096 8.25488L15.8196 3.04488C15.9496 2.82488 16.2196 2.72488 16.4496 2.82488ZM21.8696 9.99488H15.6696C15.2896 9.99488 15.0396 10.4149 15.2396 10.7449L19.4996 18.1349C19.6696 18.4349 20.0996 18.4849 20.3196 18.2149C22.0596 16.0349 22.7996 13.1849 22.3696 10.4249C22.3396 10.1749 22.1196 9.99488 21.8696 9.99488ZM2.62962 13.5749C2.19962 10.8049 2.94962 7.97488 4.67962 5.78488C4.88962 5.51488 5.31962 5.56488 5.49962 5.86488L9.75962 13.2449C9.95962 13.5749 9.70962 13.9949 9.32962 13.9949H3.12962C2.87962 13.9949 2.65962 13.8149 2.62962 13.5749ZM3.19962 15.6649C4.17962 18.1349 6.11962 20.1249 8.54962 21.1649C8.77962 21.2649 9.04962 21.1649 9.17962 20.9449L12.1896 15.7349C12.3796 15.4049 12.1396 14.9849 11.7596 14.9849H3.66962C3.31962 14.9949 3.06962 15.3449 3.19962 15.6649ZM18.4696 20.0249C16.3296 21.6049 13.6496 22.2549 11.0296 21.8849C10.6896 21.8349 10.5096 21.4349 10.6796 21.1349L14.7196 14.1449C14.9196 13.8149 15.3996 13.8149 15.5896 14.1449L18.5996 19.3649C18.7296 19.5849 18.6696 19.8749 18.4696 20.0249Z" fill="#18A0FB"/>
</svg>
