<svg width="15" height="15" viewBox="0 0 15 15" fill="none" xmlns="http://www.w3.org/2000/svg">
<path fill-rule="evenodd" clip-rule="evenodd" d="M10 4.0625H12.5C13.1938 4.0625 13.75 4.61875 13.75 5.3125V12.1875C13.75 12.8813 13.1938 13.4375 12.5 13.4375H2.5C1.80625 13.4375 1.25 12.8813 1.25 12.1875L1.25625 5.3125C1.25625 4.61875 1.80625 4.0625 2.5 4.0625H5V2.8125C5 2.11875 5.55625 1.5625 6.25 1.5625H8.75C9.44375 1.5625 10 2.11875 10 2.8125V4.0625ZM8.75 4.0625H6.25V2.8125H8.75V4.0625ZM11.25 10.625H3.75C3.40482 10.625 3.125 10.9048 3.125 11.25C3.125 11.5952 3.40482 11.875 3.75 11.875H11.25C11.5952 11.875 11.875 11.5952 11.875 11.25C11.875 10.9048 11.5952 10.625 11.25 10.625Z" fill="#2870CE"/>
</svg>
