<svg width="18" height="18" viewBox="0 0 18 18" fill="none" xmlns="http://www.w3.org/2000/svg">
<path fill-rule="evenodd" clip-rule="evenodd" d="M9 15C12.3137 15 15 12.3137 15 9C15 5.6863 12.3137 3 9 3C5.6863 3 3 5.6863 3 9C3 12.3137 5.6863 15 9 15ZM7.52273 6.72725C7.30307 6.50759 6.94693 6.50759 6.72725 6.72725C6.50757 6.94693 6.50757 7.30307 6.72725 7.52273L8.20447 9L6.72725 10.4773C6.50757 10.6969 6.50757 11.0531 6.72725 11.2727C6.94693 11.4924 7.30307 11.4924 7.52273 11.2727L9 9.79553L10.4773 11.2727C10.6969 11.4924 11.0531 11.4924 11.2727 11.2727C11.4924 11.0531 11.4924 10.6969 11.2727 10.4773L9.79553 9L11.2727 7.52273C11.4924 7.30307 11.4924 6.94693 11.2727 6.72725C11.0531 6.50759 10.6969 6.50759 10.4773 6.72725L9 8.20447L7.52273 6.72725Z" fill="#193B68" fill-opacity="0.24"/>
</svg>
