<svg width="24" height="24" viewBox="0 0 24 24" fill="none" xmlns="http://www.w3.org/2000/svg">
<mask id="mask0" mask-type="alpha" maskUnits="userSpaceOnUse" x="0" y="0" width="24" height="24">
<rect width="24" height="24" fill="#757575"/>
</mask>
<g mask="url(#mask0)">
<path fill-rule="evenodd" clip-rule="evenodd" d="M5 3C3.89543 3 3 3.89543 3 5V18C3 19.1046 3.89543 20 5 20H8.00042L8 19.9996C8 17.9164 9.78436 16 12 16C14.2156 16 16 17.9164 16 19.9996L15.9996 20H19C20.1046 20 21 19.1046 21 18V5C21 3.89543 20.1046 3 19 3H5ZM11.4944 9.66671C11.8241 9.17336 12 8.59334 12 8H9V5C8.40666 5 7.82664 5.17595 7.33329 5.50559C6.83994 5.83524 6.45543 6.30377 6.22836 6.85195C6.0013 7.40013 5.94189 8.00333 6.05765 8.58527C6.1734 9.16721 6.45912 9.70176 6.87868 10.1213C7.29824 10.5409 7.83279 10.8266 8.41473 10.9424C8.99667 11.0581 9.59987 10.9987 10.1481 10.7716C10.6962 10.5446 11.1648 10.1601 11.4944 9.66671ZM16 5C15.4477 5 15 5.44772 15 6C15 6.55228 15.4477 7 16 7H17C17.5523 7 18 6.55228 18 6C18 5.44772 17.5523 5 17 5H16ZM15 9C14.4477 9 14 9.44772 14 10C14 10.5523 14.4477 11 15 11H17C17.5523 11 18 10.5523 18 10C18 9.44772 17.5523 9 17 9H15ZM6 14C6 13.4477 6.44772 13 7 13H17C17.5523 13 18 13.4477 18 14C18 14.5523 17.5523 15 17 15H7C6.44772 15 6 14.5523 6 14ZM9 20.1997C9 18.5331 10.3383 17 12 17C13.6617 17 15 18.5331 15 20.1997C14.379 20.762 13.2068 21 12 21C10.7929 21 9.62127 20.762 9 20.1997Z" fill="white"/>
</g>
</svg>
