<svg width="25" height="24" viewBox="0 0 25 24" fill="none" xmlns="http://www.w3.org/2000/svg">
<path fill-rule="evenodd" clip-rule="evenodd" d="M15.75 4H18.25C18.8 4 19.25 4.45 19.25 5C19.25 5.55 18.8 6 18.25 6H6.25C5.7 6 5.25 5.55 5.25 5C5.25 4.45 5.7 4 6.25 4H8.75L9.46 3.29C9.64 3.11 9.9 3 10.16 3H14.34C14.6 3 14.86 3.11 15.04 3.29L15.75 4ZM8.25 21C7.15 21 6.25 20.1 6.25 19V9C6.25 7.9 7.15 7 8.25 7H16.25C17.35 7 18.25 7.9 18.25 9V19C18.25 20.1 17.35 21 16.25 21H8.25Z" fill="white"/>
</svg>
