<svg width="10" height="12" viewBox="0 0 10 12" fill="none" xmlns="http://www.w3.org/2000/svg">
<path fill-rule="evenodd" clip-rule="evenodd" d="M7.04175 1.33333H8.50008C8.82092 1.33333 9.08342 1.59583 9.08342 1.91667C9.08342 2.2375 8.82092 2.5 8.50008 2.5H1.50008C1.17925 2.5 0.916748 2.2375 0.916748 1.91667C0.916748 1.59583 1.17925 1.33333 1.50008 1.33333H2.95842L3.37258 0.919167C3.47758 0.814167 3.62925 0.75 3.78092 0.75H6.21925C6.37092 0.75 6.52258 0.814167 6.62758 0.919167L7.04175 1.33333ZM2.66675 11.25C2.02508 11.25 1.50008 10.725 1.50008 10.0833V4.25C1.50008 3.60833 2.02508 3.08333 2.66675 3.08333H7.33341C7.97508 3.08333 8.50008 3.60833 8.50008 4.25V10.0833C8.50008 10.725 7.97508 11.25 7.33341 11.25H2.66675Z" fill="#FF4B4B"/>
</svg>
