<svg width="28" height="31" viewBox="0 0 28 31" fill="none" xmlns="http://www.w3.org/2000/svg">
<path fill-rule="evenodd" clip-rule="evenodd" d="M24.5 -0.000976562H3.5C1.835 -0.000976562 0.5 1.34902 0.5 2.99902V23.999C0.5 25.649 1.85 26.999 3.5 26.999H9.5L12.935 30.434C13.52 31.019 14.465 31.019 15.05 30.434L18.5 26.999H24.5C26.15 26.999 27.5 25.649 27.5 23.999V2.99902C27.5 1.34902 26.15 -0.000976562 24.5 -0.000976562ZM14.0001 4.94824C16.2351 4.94824 18.0501 6.76324 18.0501 8.99824C18.0501 11.2332 16.2351 13.0482 14.0001 13.0482C11.7651 13.0482 9.95007 11.2332 9.95007 8.99824C9.95007 6.76324 11.7651 4.94824 14.0001 4.94824ZM5 19.649V20.999H23V19.649C23 16.649 17 14.999 14 14.999C11 14.999 5 16.649 5 19.649Z" fill="#757575"/>
</svg>
