<svg width="20" height="22" viewBox="0 0 20 22" fill="none" xmlns="http://www.w3.org/2000/svg">
<path fill-rule="evenodd" clip-rule="evenodd" d="M15 8.35446C15 11.1239 12.7625 13.3671 10 13.3671C7.2375 13.3671 5 11.1239 5 8.35446C5 5.58496 7.2375 3.3418 10 3.3418C12.7625 3.3418 15 5.58496 15 8.35446ZM0 19.4936C0 16.1601 6.6625 14.4809 10 14.4809C13.3375 14.4809 20 16.1601 20 19.4936V20.7467C20 21.436 19.4375 21.9999 18.75 21.9999H1.25C0.5625 21.9999 0 21.436 0 20.7467V19.4936Z" fill="#219653"/>
<path d="M2.83972 2.59916C2.83972 2.12264 3.22861 1.73277 3.70392 1.73277H8.02491C8.50022 1.73277 8.88911 1.3429 8.88911 0.866385C8.88911 0.389873 8.50022 0 8.02491 0H2.83972C1.88911 0 1.11133 0.779747 1.11133 1.73277V6.93108C1.11133 7.4076 1.50022 7.79747 1.97553 7.79747C2.45083 7.79747 2.83972 7.4076 2.83972 6.93108V2.59916Z" fill="#6FCF97"/>
<path d="M17.1607 0H11.9755C11.5002 0 11.1113 0.389873 11.1113 0.866385C11.1113 1.3429 11.5002 1.73277 11.9755 1.73277H16.2965C16.7718 1.73277 17.1607 2.12264 17.1607 2.59916V6.93108C17.1607 7.4076 17.5496 7.79747 18.0249 7.79747C18.5002 7.79747 18.8891 7.4076 18.8891 6.93108V1.73277C18.8891 0.779747 18.1113 0 17.1607 0Z" fill="#6FCF97"/>
<path d="M17.1607 15.2237C17.1607 15.7002 16.7718 16.0901 16.2965 16.0901H11.9755C11.5002 16.0901 11.1113 16.48 11.1113 16.9565C11.1113 17.433 11.5002 17.8229 11.9755 17.8229H17.1607C18.1113 17.8229 18.8891 17.0431 18.8891 16.0901V10.8918C18.8891 10.4153 18.5002 10.0254 18.0249 10.0254C17.5496 10.0254 17.1607 10.4153 17.1607 10.8918V15.2237Z" fill="#6FCF97"/>
<path d="M1.97553 10.0254C1.50022 10.0254 1.11133 10.4153 1.11133 10.8918V16.0901C1.11133 17.0431 1.88911 17.8229 2.83972 17.8229H8.02491C8.50022 17.8229 8.88911 17.433 8.88911 16.9565C8.88911 16.48 8.50022 16.0901 8.02491 16.0901H3.70392C3.22861 16.0901 2.83972 15.7002 2.83972 15.2237V10.8918C2.83972 10.4153 2.45083 10.0254 1.97553 10.0254Z" fill="#6FCF97"/>
</svg>
