<svg width="24" height="24" viewBox="0 0 24 24" fill="none" xmlns="http://www.w3.org/2000/svg">
<mask id="mask0" mask-type="alpha" maskUnits="userSpaceOnUse" x="0" y="0" width="24" height="24">
<rect width="24" height="24" fill="#C4C4C4"/>
</mask>
<g mask="url(#mask0)">
<path fill-rule="evenodd" clip-rule="evenodd" d="M17 9.35446C17 12.1239 14.7625 14.3671 12 14.3671C9.2375 14.3671 7 12.1239 7 9.35446C7 6.58496 9.2375 4.3418 12 4.3418C14.7625 4.3418 17 6.58496 17 9.35446ZM2 20.4936C2 17.1601 8.6625 15.4809 12 15.4809C15.3375 15.4809 22 17.1601 22 20.4936V21.7467C22 22.436 21.4375 22.9999 20.75 22.9999H3.25C2.5625 22.9999 2 22.436 2 21.7467V20.4936Z" fill="white"/>
<path d="M4.83972 3.59916C4.83972 3.12264 5.22861 2.73277 5.70392 2.73277H10.0249C10.5002 2.73277 10.8891 2.3429 10.8891 1.86639C10.8891 1.38987 10.5002 1 10.0249 1H4.83972C3.88911 1 3.11133 1.77975 3.11133 2.73277V7.93108C3.11133 8.4076 3.50022 8.79747 3.97553 8.79747C4.45083 8.79747 4.83972 8.4076 4.83972 7.93108V3.59916Z" fill="#176839"/>
<path d="M19.1607 1H13.9755C13.5002 1 13.1113 1.38987 13.1113 1.86639C13.1113 2.3429 13.5002 2.73277 13.9755 2.73277H18.2965C18.7718 2.73277 19.1607 3.12264 19.1607 3.59916V7.93108C19.1607 8.4076 19.5496 8.79747 20.0249 8.79747C20.5002 8.79747 20.8891 8.4076 20.8891 7.93108V2.73277C20.8891 1.77975 20.1113 1 19.1607 1Z" fill="#176839"/>
<path d="M19.1607 16.2237C19.1607 16.7002 18.7718 17.0901 18.2965 17.0901H13.9755C13.5002 17.0901 13.1113 17.48 13.1113 17.9565C13.1113 18.433 13.5002 18.8229 13.9755 18.8229H19.1607C20.1113 18.8229 20.8891 18.0431 20.8891 17.0901V11.8918C20.8891 11.4153 20.5002 11.0254 20.0249 11.0254C19.5496 11.0254 19.1607 11.4153 19.1607 11.8918V16.2237Z" fill="#176839"/>
<path d="M3.97553 11.0254C3.50022 11.0254 3.11133 11.4153 3.11133 11.8918V17.0901C3.11133 18.0431 3.88911 18.8229 4.83972 18.8229H10.0249C10.5002 18.8229 10.8891 18.433 10.8891 17.9565C10.8891 17.48 10.5002 17.0901 10.0249 17.0901H5.70392C5.22861 17.0901 4.83972 16.7002 4.83972 16.2237V11.8918C4.83972 11.4153 4.45083 11.0254 3.97553 11.0254Z" fill="#176839"/>
</g>
</svg>
