<svg width="20" height="20" viewBox="0 0 20 20" fill="none" xmlns="http://www.w3.org/2000/svg">
<path d="M14.2276 6C13.8002 6 13.4552 6.335 13.4552 6.75V9.25C13.4552 9.39 13.3419 9.5 13.1977 9.5C13.0535 9.5 12.9402 9.39 12.9402 9.25V5.25C12.9402 4.835 12.5952 4.5 12.1678 4.5C11.7404 4.5 11.3954 4.835 11.3954 5.25V9.25C11.3954 9.39 11.2821 9.5 11.1379 9.5C10.9937 9.5 10.8804 9.39 10.8804 9.25V4.75C10.8804 4.335 10.5354 4 10.108 4C9.6806 4 9.33559 4.335 9.33559 4.75V9.245C9.33559 9.385 9.2223 9.495 9.07812 9.495C8.93393 9.495 8.82064 9.385 8.82064 9.245V6.25C8.82064 5.835 8.47563 5.5 8.04822 5.5C7.62082 5.5 7.2758 5.835 7.2758 6.25V11.955L5.15423 10.78C4.85556 10.615 4.48479 10.66 4.23762 10.89C3.92865 11.18 3.91835 11.66 4.22217 11.955L7.71351 15.4C8.09972 15.785 8.62496 16 9.18111 16H12.9402C14.0782 16 15 15.105 15 14V6.75C15 6.335 14.655 6 14.2276 6Z" fill="#219653"/>
<path fill-rule="evenodd" clip-rule="evenodd" d="M3 2C2.45 2 2 2.45 2 3V8C2 8.55 1.55 9 1 9C0.45 9 0 8.55 0 8V2C0 0.9 0.9 0 2 0H8C8.55 0 9 0.45 9 1C9 1.55 8.55 2 8 2H3ZM12 0H18C19.1 0 20 0.9 20 2V8C20 8.55 19.55 9 19 9C18.45 9 18 8.55 18 8V3C18 2.45 17.55 2 17 2H12C11.45 2 11 1.55 11 1C11 0.45 11.45 0 12 0ZM18 17C18 17.55 17.55 18 17 18H12C11.45 18 11 18.45 11 19C11 19.55 11.45 20 12 20H18C19.1 20 20 19.1 20 18V12C20 11.45 19.55 11 19 11C18.45 11 18 11.45 18 12V17ZM0 12C0 11.45 0.45 11 1 11C1.55 11 2 11.45 2 12V17C2 17.55 2.45 18 3 18H8C8.55 18 9 18.45 9 19C9 19.55 8.55 20 8 20H2C0.9 20 0 19.1 0 18V12Z" fill="#6FCF97"/>
</svg>
