<svg width="24" height="24" viewBox="0 0 24 24" fill="none" xmlns="http://www.w3.org/2000/svg">
<mask id="mask0" mask-type="alpha" maskUnits="userSpaceOnUse" x="0" y="0" width="24" height="24">
<rect width="24" height="24" fill="#C4C4C4"/>
</mask>
<g mask="url(#mask0)">
<path d="M16.2276 8C15.8002 8 15.4552 8.335 15.4552 8.75V11.25C15.4552 11.39 15.3419 11.5 15.1977 11.5C15.0535 11.5 14.9402 11.39 14.9402 11.25V7.25C14.9402 6.835 14.5952 6.5 14.1678 6.5C13.7404 6.5 13.3954 6.835 13.3954 7.25V11.25C13.3954 11.39 13.2821 11.5 13.1379 11.5C12.9937 11.5 12.8804 11.39 12.8804 11.25V6.75C12.8804 6.335 12.5354 6 12.108 6C11.6806 6 11.3356 6.335 11.3356 6.75V11.245C11.3356 11.385 11.2223 11.495 11.0781 11.495C10.9339 11.495 10.8206 11.385 10.8206 11.245V8.25C10.8206 7.835 10.4756 7.5 10.0482 7.5C9.62082 7.5 9.2758 7.835 9.2758 8.25V13.955L7.15423 12.78C6.85556 12.615 6.48479 12.66 6.23762 12.89C5.92865 13.18 5.91835 13.66 6.22217 13.955L9.71351 17.4C10.0997 17.785 10.625 18 11.1811 18H14.9402C16.0782 18 17 17.105 17 16V8.75C17 8.335 16.655 8 16.2276 8Z" fill="white"/>
<path fill-rule="evenodd" clip-rule="evenodd" d="M5 4C4.45 4 4 4.45 4 5V10C4 10.55 3.55 11 3 11C2.45 11 2 10.55 2 10V4C2 2.9 2.9 2 4 2H10C10.55 2 11 2.45 11 3C11 3.55 10.55 4 10 4H5ZM14 2H20C21.1 2 22 2.9 22 4V10C22 10.55 21.55 11 21 11C20.45 11 20 10.55 20 10V5C20 4.45 19.55 4 19 4H14C13.45 4 13 3.55 13 3C13 2.45 13.45 2 14 2ZM20 19C20 19.55 19.55 20 19 20H14C13.45 20 13 20.45 13 21C13 21.55 13.45 22 14 22H20C21.1 22 22 21.1 22 20V14C22 13.45 21.55 13 21 13C20.45 13 20 13.45 20 14V19ZM2 14C2 13.45 2.45 13 3 13C3.55 13 4 13.45 4 14V19C4 19.55 4.45 20 5 20H10C10.55 20 11 20.45 11 21C11 21.55 10.55 22 10 22H4C2.9 22 2 21.1 2 20V14Z" fill="#176839"/>
</g>
</svg>
