<svg width="18" height="18" viewBox="0 0 18 18" fill="none" xmlns="http://www.w3.org/2000/svg">
<path fill-rule="evenodd" clip-rule="evenodd" d="M8.28426 6.16699C8.28426 7.34283 7.34217 8.29199 6.16634 8.29199C4.99051 8.29199 4.04134 7.34283 4.04134 6.16699C4.04134 4.99116 4.99051 4.04199 6.16634 4.04199C7.34217 4.04199 8.28426 4.99116 8.28426 6.16699ZM13.9509 6.16699C13.9509 7.34283 13.0088 8.29199 11.833 8.29199C10.6572 8.29199 9.70801 7.34283 9.70801 6.16699C9.70801 4.99116 10.6572 4.04199 11.833 4.04199C13.0088 4.04199 13.9509 4.99116 13.9509 6.16699ZM6.16634 9.70866C4.51592 9.70866 1.20801 10.5374 1.20801 12.1878V13.2503C1.20801 13.6399 1.52676 13.9587 1.91634 13.9587H10.4163C10.8059 13.9587 11.1247 13.6399 11.1247 13.2503V12.1878C11.1247 10.5374 7.81676 9.70866 6.16634 9.70866ZM11.1459 9.74408C11.3938 9.72283 11.6276 9.70866 11.833 9.70866C13.4834 9.70866 16.7913 10.5374 16.7913 12.1878V13.2503C16.7913 13.6399 16.4726 13.9587 16.083 13.9587H12.4138C12.4918 13.7391 12.5413 13.4982 12.5413 13.2503V12.1878C12.5413 11.1466 11.9818 10.3603 11.1743 9.77241C11.1721 9.77026 11.17 9.76747 11.1676 9.76442C11.1622 9.7574 11.1558 9.74901 11.1459 9.74408Z" fill="#505F79"/>
</svg>
