<svg width="26" height="25" viewBox="0 0 26 25" fill="none" xmlns="http://www.w3.org/2000/svg">
<path d="M10.9167 5.00833C10.9167 5.11879 10.8271 5.20833 10.7167 5.20833H6.73957C6.16666 5.20833 5.69791 5.67708 5.69791 6.25V15.625H8.96874C9.45832 15.625 9.85416 15.9792 9.98957 16.4583C10.3542 17.7812 11.5729 18.75 13 18.75C14.4271 18.75 15.6458 17.7812 16.0104 16.4583C16.1458 15.9792 16.5417 15.625 17.0312 15.625H20.2917V6.25C20.2917 5.67708 19.8229 5.20833 19.25 5.20833H10.5958C10.4854 5.20833 10.3958 5.11879 10.3958 5.00833V3.325C10.3958 3.21454 10.4854 3.125 10.5958 3.125L20.2917 3.125C21.4375 3.125 22.375 4.0625 22.375 5.20833V19.7917C22.375 20.9375 21.4375 21.875 20.2917 21.875H5.69792C4.54167 21.875 3.625 20.9375 3.625 19.7917V5.20833C3.625 4.0625 4.54167 3.125 5.69792 3.125H10.7167C10.8271 3.125 10.9167 3.21454 10.9167 3.325V5.00833Z" fill="#46B3FC"/>
</svg>
