<svg width="36" height="35" viewBox="0 0 36 35" fill="none" xmlns="http://www.w3.org/2000/svg">
<path d="M15.0833 7.09167C15.0833 7.20212 14.9938 7.29167 14.8833 7.29167H9.2354C8.43332 7.29167 7.77707 7.94792 7.77707 8.75V21.875H12.3562C13.0417 21.875 13.5958 22.3708 13.7854 23.0417C14.2958 24.8937 16.0021 26.25 18 26.25C19.9979 26.25 21.7042 24.8937 22.2146 23.0417C22.4042 22.3708 22.9583 21.875 23.6437 21.875H28.2083V8.75C28.2083 7.94792 27.5521 7.29167 26.75 7.29167H14.5542C14.4437 7.29167 14.3542 7.20212 14.3542 7.09167V4.575C14.3542 4.46454 14.4437 4.375 14.5542 4.375L28.2083 4.375C29.8125 4.375 31.125 5.6875 31.125 7.29167V27.7083C31.125 29.3125 29.8125 30.625 28.2083 30.625H7.77708C6.15833 30.625 4.875 29.3125 4.875 27.7083V7.29167C4.875 5.6875 6.15833 4.375 7.77708 4.375H14.8833C14.9938 4.375 15.0833 4.46454 15.0833 4.575V7.09167Z" fill="#18A0FB"/>
</svg>
