<svg width="26" height="25" viewBox="0 0 26 25" fill="none" xmlns="http://www.w3.org/2000/svg">
<path fill-rule="evenodd" clip-rule="evenodd" d="M14.2186 2.08325C14.7707 2.08325 15.3019 2.302 15.6978 2.69784L20.7186 7.72909C21.1144 8.1145 21.3332 8.64575 21.3332 9.19784V20.8333C21.3332 21.9791 20.3957 22.9166 19.2498 22.9166H6.73942C5.59359 22.9166 4.6665 21.9791 4.6665 20.8333V4.16659C4.6665 3.02075 5.604 2.08325 6.74984 2.08325H14.2186ZM14.0415 8.33325V3.64575L19.7707 9.37492H15.0832C14.5103 9.37492 14.0415 8.90617 14.0415 8.33325ZM9.87479 14.5833H16.1248C16.6977 14.5833 17.1665 14.1145 17.1665 13.5416C17.1665 12.9687 16.6977 12.4999 16.1248 12.4999H9.87479C9.30187 12.4999 8.83312 12.9687 8.83312 13.5416C8.83312 14.1145 9.30187 14.5833 9.87479 14.5833ZM9.87479 18.7499H16.1248C16.6977 18.7499 17.1665 18.2811 17.1665 17.7082C17.1665 17.1353 16.6977 16.6666 16.1248 16.6666H9.87479C9.30187 16.6666 8.83312 17.1353 8.83312 17.7082C8.83312 18.2811 9.30187 18.7499 9.87479 18.7499Z" fill="#46B3FC"/>
</svg>
