<svg width="15" height="16" viewBox="0 0 15 16" fill="none" xmlns="http://www.w3.org/2000/svg">
<path fill-rule="evenodd" clip-rule="evenodd" d="M8.23125 1.75C8.5625 1.75 8.88125 1.88125 9.11875 2.11875L12.1313 5.1375C12.3687 5.36875 12.5 5.6875 12.5 6.01875V13C12.5 13.6875 11.9375 14.25 11.25 14.25H3.74375C3.05625 14.25 2.5 13.6875 2.5 13V3C2.5 2.3125 3.0625 1.75 3.75 1.75H8.23125ZM8.125 5.5V2.6875L11.5625 6.125H8.75C8.40625 6.125 8.125 5.84375 8.125 5.5ZM5.625 9.25H9.375C9.71875 9.25 10 8.96875 10 8.625C10 8.28125 9.71875 8 9.375 8H5.625C5.28125 8 5 8.28125 5 8.625C5 8.96875 5.28125 9.25 5.625 9.25ZM5.625 11.75H9.375C9.71875 11.75 10 11.4688 10 11.125C10 10.7812 9.71875 10.5 9.375 10.5H5.625C5.28125 10.5 5 10.7812 5 11.125C5 11.4688 5.28125 11.75 5.625 11.75Z" fill="#2870CE"/>
</svg>
