<svg width="24" height="24" viewBox="0 0 24 24" fill="none" xmlns="http://www.w3.org/2000/svg">
<mask id="mask0" mask-type="alpha" maskUnits="userSpaceOnUse" x="0" y="0" width="24" height="24">
<rect width="24" height="24" fill="#C4C4C4"/>
</mask>
<g mask="url(#mask0)">
<path fill-rule="evenodd" clip-rule="evenodd" d="M12 7.68164C9.27273 7.68164 6.94364 9.378 6 11.7726C6.94364 14.1671 9.27273 15.8635 12 15.8635C14.7273 15.8635 17.0564 14.1671 18 11.7726C17.0564 9.378 14.7273 7.68164 12 7.68164ZM11.9997 14.5C10.4943 14.5 9.27246 13.2781 9.27246 11.7727C9.27246 10.2672 10.4943 9.04541 11.9997 9.04541C13.5052 9.04541 14.727 10.2672 14.727 11.7727C14.727 13.2781 13.5052 14.5 11.9997 14.5ZM10.3633 11.7726C10.3633 10.8671 11.0942 10.1362 11.9996 10.1362C12.9051 10.1362 13.636 10.8671 13.636 11.7726C13.636 12.678 12.9051 13.409 11.9996 13.409C11.0942 13.409 10.3633 12.678 10.3633 11.7726Z" fill="#219653"/>
<path d="M4 5C4 4.45 4.45 4 5 4H10C10.55 4 11 3.55 11 3C11 2.45 10.55 2 10 2H4C2.9 2 2 2.9 2 4V10C2 10.55 2.45 11 3 11C3.55 11 4 10.55 4 10V5Z" fill="#6FCF97"/>
<path d="M20 2H14C13.45 2 13 2.45 13 3C13 3.55 13.45 4 14 4H19C19.55 4 20 4.45 20 5V10C20 10.55 20.45 11 21 11C21.55 11 22 10.55 22 10V4C22 2.9 21.1 2 20 2Z" fill="#6FCF97"/>
<path d="M20 19C20 19.55 19.55 20 19 20H14C13.45 20 13 20.45 13 21C13 21.55 13.45 22 14 22H20C21.1 22 22 21.1 22 20V14C22 13.45 21.55 13 21 13C20.45 13 20 13.45 20 14V19Z" fill="#6FCF97"/>
<path d="M3 13C2.45 13 2 13.45 2 14V20C2 21.1 2.9 22 4 22H10C10.55 22 11 21.55 11 21C11 20.45 10.55 20 10 20H5C4.45 20 4 19.55 4 19V14C4 13.45 3.55 13 3 13Z" fill="#6FCF97"/>
</g>
</svg>
