<svg width="30" height="30" viewBox="0 0 30 30" fill="none" xmlns="http://www.w3.org/2000/svg">
<path fill-rule="evenodd" clip-rule="evenodd" d="M14.9993 8.52246C10.9084 8.52246 7.41472 11.067 5.99927 14.6588C7.41472 18.2506 10.9084 20.7952 14.9993 20.7952C19.0902 20.7952 22.5838 18.2506 23.9993 14.6588C22.5838 11.067 19.0902 8.52246 14.9993 8.52246ZM15.0003 18.7492C12.7422 18.7492 10.9094 16.9165 10.9094 14.6583C10.9094 12.4001 12.7422 10.5674 15.0003 10.5674C17.2585 10.5674 19.0912 12.4001 19.0912 14.6583C19.0912 16.9165 17.2585 18.7492 15.0003 18.7492ZM12.5422 14.6586C12.5422 13.3005 13.6386 12.2041 14.9968 12.2041C16.355 12.2041 17.4513 13.3005 17.4513 14.6586C17.4513 16.0168 16.355 17.1132 14.9968 17.1132C13.6386 17.1132 12.5422 16.0168 12.5422 14.6586Z" fill="#333333"/>
<path d="M3 4.5C3 3.675 3.675 3 4.5 3H12C12.825 3 13.5 2.325 13.5 1.5C13.5 0.675 12.825 0 12 0H3C1.35 0 0 1.35 0 3V12C0 12.825 0.675 13.5 1.5 13.5C2.325 13.5 3 12.825 3 12V4.5Z" fill="#BDBDBD"/>
<path d="M26.9995 0H17.9995C17.1745 0 16.4995 0.675 16.4995 1.5C16.4995 2.325 17.1745 3 17.9995 3H25.4995C26.3245 3 26.9995 3.675 26.9995 4.5V12C26.9995 12.825 27.6745 13.5 28.4995 13.5C29.3245 13.5 29.9995 12.825 29.9995 12V3C29.9995 1.35 28.6495 0 26.9995 0Z" fill="#BDBDBD"/>
<path d="M26.9995 25.5C26.9995 26.325 26.3245 27 25.4995 27H17.9995C17.1745 27 16.4995 27.675 16.4995 28.5C16.4995 29.325 17.1745 30 17.9995 30H26.9995C28.6495 30 29.9995 28.65 29.9995 27V18C29.9995 17.175 29.3245 16.5 28.4995 16.5C27.6745 16.5 26.9995 17.175 26.9995 18V25.5Z" fill="#BDBDBD"/>
<path d="M1.49951 16.5C0.674512 16.5 -0.000488281 17.175 -0.000488281 18V27C-0.000488281 28.65 1.34951 30 2.99951 30H11.9995C12.8245 30 13.4995 29.325 13.4995 28.5C13.4995 27.675 12.8245 27 11.9995 27H4.49951C3.67451 27 2.99951 26.325 2.99951 25.5V18C2.99951 17.175 2.32451 16.5 1.49951 16.5Z" fill="#BDBDBD"/>
</svg>
