<svg width="26" height="25" viewBox="0 0 26 25" fill="none" xmlns="http://www.w3.org/2000/svg">
<path fill-rule="evenodd" clip-rule="evenodd" d="M17.1668 6.77092H21.3335C22.4897 6.77092 23.4168 7.698 23.4168 8.85425V20.3126C23.4168 21.4688 22.4897 22.3959 21.3335 22.3959H4.66683C3.51058 22.3959 2.5835 21.4688 2.5835 20.3126L2.59391 8.85425C2.59391 7.698 3.51058 6.77092 4.66683 6.77092H8.8335V4.68758C8.8335 3.53133 9.76058 2.60425 10.9168 2.60425H15.0835C16.2397 2.60425 17.1668 3.53133 17.1668 4.68758V6.77092ZM15.0835 6.77089H10.9169V4.68756H15.0835V6.77089ZM19.2502 17.7084H6.75016C6.17487 17.7084 5.7085 18.1747 5.7085 18.75C5.7085 19.3253 6.17487 19.7917 6.75016 19.7917H19.2502C19.8255 19.7917 20.2918 19.3253 20.2918 18.75C20.2918 18.1747 19.8255 17.7084 19.2502 17.7084Z" fill="#46B3FC"/>
</svg>
