<svg width="21" height="21" viewBox="0 0 21 21" fill="none" xmlns="http://www.w3.org/2000/svg">
<path d="M0 6.1694C0 5.24903 0.746314 4.50293 1.66694 4.50293H14.3363C15.2569 4.50293 16.0032 5.24904 16.0032 6.1694V18.8344C16.0032 19.7548 15.2569 20.5009 14.3363 20.5009H1.66694C0.746314 20.5009 0 19.7548 0 18.8344V6.1694Z" fill="#E0E0E0"/>
<path d="M3.99902 2.16647C3.99902 1.24611 4.74534 0.5 5.66596 0.5H18.3353C19.2559 0.5 20.0022 1.24611 20.0022 2.16647V14.8315C20.0022 15.7519 19.2559 16.498 18.3353 16.498H5.66596C4.74534 16.498 3.99902 15.7519 3.99902 14.8315V2.16647Z" fill="#E0E0E0"/>
<path d="M3.99805 6.16941C3.99805 5.24904 4.74436 4.50293 5.66499 4.50293H14.3335C15.2541 4.50293 16.0005 5.24904 16.0005 6.1694V14.8349C16.0005 15.7553 15.2541 16.5014 14.3335 16.5014H5.66498C4.74436 16.5014 3.99805 15.7553 3.99805 14.8349V6.16941Z" fill="#828282"/>
<path d="M6.87237 7.76162C6.87237 7.54644 7.04844 7.37038 7.26363 7.37038H9.21995C9.43514 7.37038 9.61121 7.19432 9.61121 6.97913C9.61121 6.76395 9.43514 6.58789 9.21995 6.58789H6.87237C6.44198 6.58789 6.08984 6.94001 6.08984 7.37038V9.71784C6.08984 9.93302 6.26591 10.1091 6.48111 10.1091C6.6963 10.1091 6.87237 9.93302 6.87237 9.71784V7.76162Z" fill="white"/>
<path d="M13.1343 6.58789H10.7868C10.5716 6.58789 10.3955 6.76395 10.3955 6.97913C10.3955 7.19432 10.5716 7.37038 10.7868 7.37038H12.7431C12.9583 7.37038 13.1343 7.54644 13.1343 7.76162V9.71784C13.1343 9.93302 13.3104 10.1091 13.5256 10.1091C13.7408 10.1091 13.9169 9.93302 13.9169 9.71784V7.37038C13.9169 6.94001 13.5647 6.58789 13.1343 6.58789Z" fill="white"/>
<path d="M13.1343 13.2371C13.1343 13.4523 12.9583 13.6284 12.7431 13.6284H10.7868C10.5716 13.6284 10.3955 13.8044 10.3955 14.0196C10.3955 14.2348 10.5716 14.4108 10.7868 14.4108H13.1343C13.5647 14.4108 13.9169 14.0587 13.9169 13.6284V11.2809C13.9169 11.0657 13.7408 10.8896 13.5256 10.8896C13.3104 10.8896 13.1343 11.0657 13.1343 11.2809V13.2371Z" fill="white"/>
<path d="M6.48111 10.8896C6.26591 10.8896 6.08984 11.0657 6.08984 11.2809V13.6284C6.08984 14.0587 6.44198 14.4108 6.87237 14.4108H9.21995C9.43514 14.4108 9.61121 14.2348 9.61121 14.0196C9.61121 13.8044 9.43514 13.6284 9.21995 13.6284H7.26363C7.04844 13.6284 6.87237 13.4523 6.87237 13.2371V11.2809C6.87237 11.0657 6.6963 10.8896 6.48111 10.8896Z" fill="white"/>
</svg>
