<svg width="18" height="18" viewBox="0 0 18 18" fill="none" xmlns="http://www.w3.org/2000/svg">
<path d="M7.5 3.55C7.5 3.66046 7.41046 3.75 7.3 3.75H4.49249C4.07999 3.75 3.74249 4.0875 3.74249 4.5V11.25H6.09749C6.44999 11.25 6.73499 11.505 6.83249 11.85C7.09499 12.8025 7.97249 13.5 8.99999 13.5C10.0275 13.5 10.905 12.8025 11.1675 11.85C11.265 11.505 11.55 11.25 11.9025 11.25H14.25V4.5C14.25 4.0875 13.9125 3.75 13.5 3.75H7.325C7.21454 3.75 7.125 3.66046 7.125 3.55V2.45C7.125 2.33954 7.21454 2.25 7.325 2.25L14.25 2.25C15.075 2.25 15.75 2.925 15.75 3.75V14.25C15.75 15.075 15.075 15.75 14.25 15.75H3.7425C2.91 15.75 2.25 15.075 2.25 14.25V3.75C2.25 2.925 2.91 2.25 3.7425 2.25H7.3C7.41046 2.25 7.5 2.33954 7.5 2.45V3.55Z" fill="#2870CE"/>
</svg>
