<svg width="30" height="30" viewBox="0 0 18 18" fill="#EEEEEE" xmlns="http://www.w3.org/2000/svg">
<path d="M0 3C0 1.34315 1.34315 0 3 0H15C16.6569 0 18 1.34315 18 3V15C18 16.6569 16.6569 18 15 18H3C1.34315 18 0 16.6569 0 15V3Z" fill="#EEEEEE"/>
<path fill-rule="evenodd" clip-rule="evenodd" d="M8.99999 6.66683C9.64166 6.66683 10.1667 6.14183 10.1667 5.50016C10.1667 4.8585 9.64166 4.3335 8.99999 4.3335C8.35833 4.3335 7.83333 4.8585 7.83333 5.50016C7.83333 6.14183 8.35833 6.66683 8.99999 6.66683ZM8.99999 7.8335C8.35833 7.8335 7.83333 8.3585 7.83333 9.00016C7.83333 9.64183 8.35833 10.1668 8.99999 10.1668C9.64166 10.1668 10.1667 9.64183 10.1667 9.00016C10.1667 8.3585 9.64166 7.8335 8.99999 7.8335ZM7.83333 12.5002C7.83333 11.8585 8.35833 11.3335 8.99999 11.3335C9.64166 11.3335 10.1667 11.8585 10.1667 12.5002C10.1667 13.1418 9.64166 13.6668 8.99999 13.6668C8.35833 13.6668 7.83333 13.1418 7.83333 12.5002Z" fill="#8396AF"/>
</svg>
