<svg width="16" height="20" viewBox="0 0 16 20" fill="none" xmlns="http://www.w3.org/2000/svg">
<path fill-rule="evenodd" clip-rule="evenodd" d="M14.001 8.75V13.75L15.291 15.04C15.921 15.67 15.471 16.75 14.581 16.75H1.41103C0.521028 16.75 0.081028 15.67 0.711028 15.04L2.00103 13.75V8.75C2.00103 5.67 3.63103 3.11 6.50103 2.43V1.75C6.50103 0.92 7.17103 0.25 8.00103 0.25C8.83103 0.25 9.50103 0.92 9.50103 1.75V2.43C12.361 3.11 14.001 5.68 14.001 8.75ZM10.001 17.75C10.001 18.85 9.10103 19.75 8.00103 19.75C6.89103 19.75 6.00103 18.85 6.00103 17.75H10.001Z" fill="#18A0FB"/>
</svg>
