<svg width="16" height="20" viewBox="0 0 16 20" fill="none" xmlns="http://www.w3.org/2000/svg">
<path fill-rule="evenodd" clip-rule="evenodd" d="M14.0015 8.75V13.75L15.2915 15.04C15.9215 15.67 15.4715 16.75 14.5815 16.75H1.41152C0.521516 16.75 0.0815163 15.67 0.711516 15.04L2.00152 13.75V8.75C2.00152 5.67 3.63152 3.11 6.50152 2.43V1.75C6.50152 0.92 7.17152 0.25 8.00152 0.25C8.83152 0.25 9.50152 0.92 9.50152 1.75V2.43C12.3615 3.11 14.0015 5.68 14.0015 8.75ZM10.0015 17.75C10.0015 18.85 9.10152 19.75 8.00152 19.75C6.89152 19.75 6.00152 18.85 6.00152 17.75H10.0015Z" fill="#828282"/>
</svg>
