<svg width="18" height="16" viewBox="0 0 18 16" fill="none" xmlns="http://www.w3.org/2000/svg">
<path fill-rule="evenodd" clip-rule="evenodd" d="M2 0H16C17.11 0 18 0.9 18 2V14C18 15.1 17.1 16 16 16H13C12.45 16 12 15.55 12 15C12 14.45 12.45 14 13 14H16V4H2V14H5C5.55 14 6 14.45 6 15C6 15.55 5.55 16 5 16H2C0.9 16 0 15.1 0 14V2C0 0.9 0.89 0 2 0ZM5.85857 9.14026L8.64857 6.35026C8.83857 6.16026 9.15857 6.16026 9.34857 6.36026L12.1386 9.15026C12.4586 9.46026 12.2386 10.0003 11.7886 10.0003H9.99857V15.0003C9.99857 15.5503 9.54857 16.0003 8.99857 16.0003C8.44857 16.0003 7.99857 15.5503 7.99857 15.0003V10.0003H6.20857C5.75857 10.0003 5.53857 9.46026 5.85857 9.14026Z" fill="#18A0FB"/>
</svg>
