<svg width="16" height="10" viewBox="0 0 16 10" fill="none" xmlns="http://www.w3.org/2000/svg">
<path fill-rule="evenodd" clip-rule="evenodd" d="M7.28462 2.16675C7.28462 3.34258 6.34254 4.29175 5.16671 4.29175C3.99087 4.29175 3.04171 3.34258 3.04171 2.16675C3.04171 0.990915 3.99087 0.041748 5.16671 0.041748C6.34254 0.041748 7.28462 0.990915 7.28462 2.16675ZM12.9513 2.16675C12.9513 3.34258 12.0092 4.29175 10.8334 4.29175C9.65754 4.29175 8.70837 3.34258 8.70837 2.16675C8.70837 0.990915 9.65754 0.041748 10.8334 0.041748C12.0092 0.041748 12.9513 0.990915 12.9513 2.16675ZM5.16671 5.70842C3.51629 5.70842 0.208374 6.53717 0.208374 8.18758V9.25008C0.208374 9.63967 0.527124 9.95842 0.916707 9.95842H9.41671C9.80629 9.95842 10.125 9.63967 10.125 9.25008V8.18758C10.125 6.53717 6.81712 5.70842 5.16671 5.70842ZM10.1463 5.74383C10.3942 5.72258 10.628 5.70842 10.8334 5.70842C12.4838 5.70842 15.7917 6.53717 15.7917 8.18758V9.25008C15.7917 9.63967 15.473 9.95842 15.0834 9.95842H11.4142C11.4921 9.73883 11.5417 9.498 11.5417 9.25008V8.18758C11.5417 7.14633 10.9821 6.36008 10.1746 5.77217C10.1725 5.77002 10.1703 5.76723 10.168 5.76418C10.1626 5.75715 10.1562 5.74877 10.1463 5.74383Z" fill="#8396AF"/>
</svg>
