<svg width="30" height="30" viewBox="0 0 30 30" fill="none" xmlns="http://www.w3.org/2000/svg">
<path d="M21.3406 9C20.6995 9 20.182 9.5025 20.182 10.125V13.875C20.182 14.085 20.0121 14.25 19.7958 14.25C19.5795 14.25 19.4096 14.085 19.4096 13.875V7.875C19.4096 7.2525 18.8921 6.75 18.251 6.75C17.6099 6.75 17.0923 7.2525 17.0923 7.875V13.875C17.0923 14.085 16.9224 14.25 16.7061 14.25C16.4898 14.25 16.3199 14.085 16.3199 13.875V7.125C16.3199 6.5025 15.8024 6 15.1613 6C14.5202 6 14.0027 6.5025 14.0027 7.125V13.8675C14.0027 14.0775 13.8327 14.2425 13.6164 14.2425C13.4002 14.2425 13.2302 14.0775 13.2302 13.8675V9.375C13.2302 8.7525 12.7127 8.25 12.0716 8.25C11.4305 8.25 10.913 8.7525 10.913 9.375V17.9325L7.73061 16.17C7.2826 15.9225 6.72646 15.99 6.3557 16.335C5.89225 16.77 5.8768 17.49 6.33253 17.9325L11.5695 23.1C12.1488 23.6775 12.9367 24 13.7709 24H19.4096C21.1166 24 22.4993 22.6575 22.4993 21V10.125C22.4993 9.5025 21.9817 9 21.3406 9Z" fill="#747474"/>
<path fill-rule="evenodd" clip-rule="evenodd" d="M4.50006 3C3.67506 3 3.00006 3.675 3.00006 4.5V12C3.00006 12.825 2.32506 13.5 1.50006 13.5C0.675055 13.5 5.53131e-05 12.825 5.53131e-05 12V3C5.53131e-05 1.35 1.35006 0 3.00006 0H12.0001C12.8251 0 13.5001 0.675 13.5001 1.5C13.5001 2.325 12.8251 3 12.0001 3H4.50006ZM17.9996 0.000335693H26.9996C28.6496 0.000335693 29.9996 1.35034 29.9996 3.00034V12.0003C29.9996 12.8253 29.3246 13.5003 28.4996 13.5003C27.6746 13.5003 26.9996 12.8253 26.9996 12.0003V4.50034C26.9996 3.67534 26.3246 3.00034 25.4996 3.00034H17.9996C17.1746 3.00034 16.4996 2.32534 16.4996 1.50034C16.4996 0.675336 17.1746 0.000335693 17.9996 0.000335693ZM26.9996 25.5002C26.9996 26.3252 26.3246 27.0002 25.4996 27.0002H17.9996C17.1746 27.0002 16.4996 27.6752 16.4996 28.5002C16.4996 29.3252 17.1746 30.0002 17.9996 30.0002H26.9996C28.6496 30.0002 29.9996 28.6502 29.9996 27.0002V18.0002C29.9996 17.1752 29.3246 16.5002 28.4996 16.5002C27.6746 16.5002 26.9996 17.1752 26.9996 18.0002V25.5002ZM-0.000488281 18.0002C-0.000488281 17.1752 0.674512 16.5002 1.49951 16.5002C2.32451 16.5002 2.99951 17.1752 2.99951 18.0002V25.5002C2.99951 26.3252 3.67451 27.0002 4.49951 27.0002H11.9995C12.8245 27.0002 13.4995 27.6752 13.4995 28.5002C13.4995 29.3252 12.8245 30.0002 11.9995 30.0002H2.99951C1.34951 30.0002 -0.000488281 28.6502 -0.000488281 27.0002V18.0002Z" fill="#BDBDBD"/>
</svg>
