<svg width="26" height="25" viewBox="0 0 26 25" fill="none" xmlns="http://www.w3.org/2000/svg">
<path fill-rule="evenodd" clip-rule="evenodd" d="M5.70833 3.125H20.2917C21.4375 3.125 22.375 4.0625 22.375 5.20833V19.7917C22.375 20.9375 21.4375 21.875 20.2917 21.875H5.70833C4.5625 21.875 3.625 20.9375 3.625 19.7917V5.20833C3.625 4.0625 4.5625 3.125 5.70833 3.125ZM11.9582 16.6667C11.9582 17.2396 12.427 17.7084 12.9999 17.7084C13.5728 17.7084 14.0416 17.2396 14.0416 16.6667V8.33336C14.0416 7.76044 13.5728 7.29169 12.9999 7.29169C12.427 7.29169 11.9582 7.76044 11.9582 8.33336V16.6667ZM7.79162 16.6667C7.79162 17.2396 8.26037 17.7084 8.83329 17.7084C9.4062 17.7084 9.87495 17.2396 9.87495 16.6667V11.4584C9.87495 10.8854 9.4062 10.4167 8.83329 10.4167C8.26037 10.4167 7.79162 10.8854 7.79162 11.4584V16.6667ZM17.1667 17.7084C16.5938 17.7084 16.125 17.2396 16.125 16.6667V14.5834C16.125 14.0104 16.5938 13.5417 17.1667 13.5417C17.7396 13.5417 18.2083 14.0104 18.2083 14.5834V16.6667C18.2083 17.2396 17.7396 17.7084 17.1667 17.7084Z" fill="#46B3FC"/>
</svg>
