<svg width="53" height="53" viewBox="0 0 53 53" fill="none" xmlns="http://www.w3.org/2000/svg">
<path d="M48 42L19 42C13.4771 42 9 37.5228 9 32L9 17C9 11.4772 13.4772 7 19 7L48 7L48 42Z" fill="white"/>
<path d="M32.1251 30.0097C32.5963 29.6034 32.5963 28.9472 32.1251 28.5409L27.4367 24.4993L32.1251 20.4576C32.5963 20.0513 32.5963 19.3951 32.1251 18.9888C31.6538 18.5826 30.8926 18.5826 30.4213 18.9888L24.8751 23.7701C24.4038 24.1763 24.4038 24.8326 24.8751 25.2388L30.4213 30.0201C30.8805 30.4159 31.6538 30.4159 32.1251 30.0097Z" fill="#8396AF"/>

</svg>
