<svg width="24" height="25" viewBox="0 0 24 25" fill="none" xmlns="http://www.w3.org/2000/svg">
<path fill-rule="evenodd" clip-rule="evenodd" d="M14 16.7956H10C9.45 16.7956 9 16.3456 9 15.7956V10.7956H7.41C6.52 10.7956 6.08 9.71561 6.71 9.08561L11.3 4.49561C11.4868 4.30836 11.7405 4.20312 12.005 4.20312C12.2695 4.20312 12.5232 4.30836 12.71 4.49561L17.3 9.08561C17.93 9.71561 17.48 10.7956 16.59 10.7956H15V15.7956C15 16.3456 14.55 16.7956 14 16.7956ZM18 18.7956H6C5.45 18.7956 5 19.2456 5 19.7956C5 20.3456 5.45 20.7956 6 20.7956H18C18.55 20.7956 19 20.3456 19 19.7956C19 19.2456 18.55 18.7956 18 18.7956Z" fill="#18A0FB"/>
</svg>
