<svg width="105" height="31" viewBox="0 0 105 31" fill="none" xmlns="http://www.w3.org/2000/svg">
<path d="M43.8 14.336C43.8 15.4773 43.5653 16.4747 43.096 17.328C42.6373 18.1707 41.96 18.8267 41.064 19.296C40.1787 19.7653 39.1173 20 37.88 20H34.104V8.704H37.88C39.1173 8.704 40.1787 8.93867 41.064 9.408C41.96 9.86667 42.6373 10.5173 43.096 11.36C43.5653 12.2027 43.8 13.1947 43.8 14.336ZM37.736 18.352C39.0907 18.352 40.1307 18 40.856 17.296C41.5813 16.592 41.944 15.6053 41.944 14.336C41.944 13.0667 41.5813 12.08 40.856 11.376C40.1307 10.672 39.0907 10.32 37.736 10.32H35.928V18.352H37.736ZM53.9273 15.168C53.9273 15.4667 53.9059 15.728 53.8633 15.952H47.0793C47.1113 16.8587 47.3619 17.5307 47.8313 17.968C48.3006 18.4053 48.8819 18.624 49.5753 18.624C50.1833 18.624 50.6953 18.4693 51.1113 18.16C51.5379 17.8507 51.7993 17.44 51.8953 16.928H53.8473C53.7299 17.5467 53.4846 18.096 53.1113 18.576C52.7379 19.056 52.2526 19.4347 51.6553 19.712C51.0579 19.9787 50.3913 20.112 49.6553 20.112C48.8019 20.112 48.0446 19.9307 47.3833 19.568C46.7326 19.2053 46.2206 18.6827 45.8473 18C45.4739 17.3173 45.2873 16.512 45.2873 15.584C45.2873 14.6667 45.4739 13.8667 45.8473 13.184C46.2206 12.5013 46.7326 11.9787 47.3833 11.616C48.0446 11.2533 48.8019 11.072 49.6553 11.072C50.5193 11.072 51.2713 11.2533 51.9113 11.616C52.5619 11.968 53.0579 12.4587 53.3993 13.088C53.7513 13.7067 53.9273 14.4 53.9273 15.168ZM52.0873 15.12C52.1086 14.544 52.0073 14.064 51.7833 13.68C51.5699 13.2853 51.2713 12.9973 50.8873 12.816C50.5139 12.624 50.1033 12.528 49.6553 12.528C48.9406 12.528 48.3433 12.7467 47.8633 13.184C47.3833 13.6213 47.1219 14.2667 47.0793 15.12H52.0873ZM59.4044 18.112L61.9004 11.184H63.8524L60.4924 20H58.2844L54.9244 11.184H56.8764L59.4044 18.112ZM65.0386 8.624C65.0386 8.31467 65.1453 8.05867 65.3586 7.856C65.572 7.65333 65.8546 7.552 66.2066 7.552C66.5586 7.552 66.8413 7.65333 67.0546 7.856C67.2786 8.05867 67.3906 8.31467 67.3906 8.624C67.3906 8.93333 67.2786 9.184 67.0546 9.376C66.8413 9.568 66.5586 9.664 66.2066 9.664C65.8546 9.664 65.572 9.568 65.3586 9.376C65.1453 9.184 65.0386 8.93333 65.0386 8.624ZM67.1186 11.184V20H65.2946V11.184H67.1186ZM73.3459 11.072C74.4872 11.072 75.4312 11.376 76.1779 11.984C76.9245 12.5813 77.3885 13.3973 77.5699 14.432H75.6339C75.5272 13.8773 75.2659 13.4453 74.8499 13.136C74.4445 12.816 73.9325 12.656 73.3139 12.656C72.6099 12.656 72.0232 12.9067 71.5539 13.408C71.0845 13.8987 70.8499 14.624 70.8499 15.584C70.8499 16.544 71.0845 17.2747 71.5539 17.776C72.0232 18.2773 72.6099 18.528 73.3139 18.528C73.9325 18.528 74.4445 18.368 74.8499 18.048C75.2659 17.728 75.5272 17.2907 75.6339 16.736H77.5699C77.3885 17.7707 76.9245 18.592 76.1779 19.2C75.4312 19.808 74.4872 20.112 73.3459 20.112C72.4925 20.112 71.7352 19.9307 71.0739 19.568C70.4232 19.2053 69.9112 18.6827 69.5379 18C69.1645 17.3173 68.9779 16.512 68.9779 15.584C68.9779 14.6667 69.1645 13.8667 69.5379 13.184C69.9112 12.5013 70.4232 11.9787 71.0739 11.616C71.7352 11.2533 72.4925 11.072 73.3459 11.072ZM87.6241 15.168C87.6241 15.4667 87.6028 15.728 87.5601 15.952H80.7761C80.8081 16.8587 81.0588 17.5307 81.5281 17.968C81.9975 18.4053 82.5788 18.624 83.2721 18.624C83.8801 18.624 84.3921 18.4693 84.8081 18.16C85.2348 17.8507 85.4961 17.44 85.5921 16.928H87.5441C87.4268 17.5467 87.1815 18.096 86.8081 18.576C86.4348 19.056 85.9495 19.4347 85.3521 19.712C84.7548 19.9787 84.0881 20.112 83.3521 20.112C82.4988 20.112 81.7415 19.9307 81.0801 19.568C80.4295 19.2053 79.9175 18.6827 79.5441 18C79.1708 17.3173 78.9841 16.512 78.9841 15.584C78.9841 14.6667 79.1708 13.8667 79.5441 13.184C79.9175 12.5013 80.4295 11.9787 81.0801 11.616C81.7415 11.2533 82.4988 11.072 83.3521 11.072C84.2161 11.072 84.9681 11.2533 85.6081 11.616C86.2588 11.968 86.7548 12.4587 87.0961 13.088C87.4481 13.7067 87.6241 14.4 87.6241 15.168ZM85.7841 15.12C85.8055 14.544 85.7041 14.064 85.4801 13.68C85.2668 13.2853 84.9681 12.9973 84.5841 12.816C84.2108 12.624 83.8001 12.528 83.3521 12.528C82.6375 12.528 82.0401 12.7467 81.5601 13.184C81.0801 13.6213 80.8188 14.2667 80.7761 15.12H85.7841ZM92.3812 11.072C93.4159 11.072 94.2426 11.3387 94.8612 11.872C95.4906 12.3947 95.8746 13.0987 96.0132 13.984H94.2852C94.2106 13.504 94.0026 13.12 93.6612 12.832C93.3306 12.5333 92.8879 12.384 92.3332 12.384C91.8746 12.384 91.5172 12.496 91.2612 12.72C91.0159 12.9333 90.8932 13.2267 90.8932 13.6C90.8932 13.8773 90.9839 14.1013 91.1652 14.272C91.3466 14.4427 91.5706 14.576 91.8372 14.672C92.1146 14.768 92.5039 14.8747 93.0052 14.992C93.6666 15.1413 94.1999 15.296 94.6052 15.456C95.0212 15.616 95.3732 15.872 95.6612 16.224C95.9599 16.5653 96.1092 17.0347 96.1092 17.632C96.1092 18.368 95.8266 18.9653 95.2612 19.424C94.7066 19.8827 93.9546 20.112 93.0052 20.112C91.9066 20.112 91.0159 19.856 90.3332 19.344C89.6612 18.832 89.2559 18.1173 89.1172 17.2H90.8932C90.9466 17.68 91.1599 18.0693 91.5332 18.368C91.9066 18.6667 92.3972 18.816 93.0052 18.816C93.4426 18.816 93.7839 18.704 94.0292 18.48C94.2852 18.2453 94.4132 17.952 94.4132 17.6C94.4132 17.2907 94.3172 17.0453 94.1252 16.864C93.9332 16.6827 93.6932 16.544 93.4052 16.448C93.1172 16.3413 92.7226 16.2347 92.2212 16.128C91.5812 15.9787 91.0586 15.8293 90.6532 15.68C90.2586 15.5307 89.9172 15.2907 89.6292 14.96C89.3519 14.6187 89.2132 14.16 89.2132 13.584C89.2132 12.8373 89.4906 12.2347 90.0452 11.776C90.6106 11.3067 91.3892 11.072 92.3812 11.072Z" fill="#18A0FB"/>
<path d="M18.095 10.237H16.095C15.545 10.237 15.095 10.687 15.095 11.237V13.237C15.095 13.787 15.545 14.237 16.095 14.237V16.237H13.095V8.23695H14.095C14.505 8.23695 14.745 7.76695 14.495 7.43695L12.495 4.76695C12.295 4.49695 11.895 4.49695 11.695 4.76695L9.69502 7.43695C9.44502 7.76695 9.68502 8.23695 10.095 8.23695H11.095V16.237H8.09502V14.167C8.92502 13.727 9.47502 12.807 9.23502 11.737C9.06502 10.967 8.46502 10.337 7.71502 10.127C6.24502 9.71695 4.89502 10.827 4.89502 12.237C4.89502 13.087 5.39502 13.797 6.09502 14.167V16.237C6.09502 17.337 6.99502 18.237 8.09502 18.237H11.095V21.287C10.235 21.737 9.70502 22.707 9.96502 23.777C10.145 24.527 10.755 25.157 11.505 25.357C12.965 25.747 14.305 24.657 14.305 23.237C14.305 22.387 13.815 21.657 13.105 21.287V18.237H16.105C17.205 18.237 18.105 17.337 18.105 16.237V14.237C18.655 14.237 19.105 13.787 19.105 13.237V11.237C19.095 10.687 18.645 10.237 18.095 10.237Z" fill="#18A0FB"/>
</svg>
