<svg width="18" height="21" viewBox="0 0 18 21" fill="none" xmlns="http://www.w3.org/2000/svg">
<path fill-rule="evenodd" clip-rule="evenodd" d="M16 0H2C0.89 0 0 0.9 0 2V16C0 17.1 0.9 18 2 18H6L8.29 20.29C8.68 20.68 9.31 20.68 9.7 20.29L12 18H16C17.1 18 18 17.1 18 16V2C18 0.9 17.1 0 16 0ZM8.9998 3.2998C10.4898 3.2998 11.6998 4.5098 11.6998 5.9998C11.6998 7.4898 10.4898 8.6998 8.9998 8.6998C7.5098 8.6998 6.2998 7.4898 6.2998 5.9998C6.2998 4.5098 7.5098 3.2998 8.9998 3.2998ZM3 13.1V14H15V13.1C15 11.1 11 10 9 10C7 10 3 11.1 3 13.1Z" fill="white"/>
</svg>
