<svg width="12" height="12" viewBox="0 0 12 12" fill="none" xmlns="http://www.w3.org/2000/svg">
<path fill-rule="evenodd" clip-rule="evenodd" d="M3 9.5C2.725 9.5 2.5 9.275 2.5 9L2.5 3C2.5 2.725 2.725 2.5 3 2.5L5.5 2.5C5.775 2.5 6 2.275 6 2C6 1.725 5.775 1.5 5.5 1.5L2.5 1.5C1.95 1.5 1.5 1.95 1.5 2.5L1.5 9.5C1.5 10.05 1.95 10.5 2.5 10.5L9.5 10.5C10.05 10.5 10.5 10.055 10.5 9.5L10.5 6.5C10.5 6.225 10.275 6 10 6C9.725 6 9.5 6.225 9.5 6.5L9.5 9C9.5 9.275 9.275 9.5 9 9.5L3 9.5ZM9.5 4.49999C9.5 4.77499 9.725 4.99999 10 4.99999C10.275 4.99999 10.5 4.77499 10.5 4.49999L10.5 1.99999C10.5 1.72499 10.275 1.49999 10 1.49999L7.5 1.49999C7.225 1.49999 7 1.72499 7 1.99999C7 2.27499 7.225 2.49999 7.5 2.49999L8.795 2.49999L4.23 7.06499C4.035 7.25999 4.035 7.57499 4.23 7.76999C4.425 7.96499 4.74 7.96499 4.935 7.76999L9.5 3.20499L9.5 4.49999Z" fill="#18A0FB"/>
</svg>
