<svg width="24" height="24" viewBox="0 0 24 24" fill="none" xmlns="http://www.w3.org/2000/svg">
<path fill-rule="evenodd" clip-rule="evenodd" d="M5 1.70898H19C20.1 1.70898 21 2.60898 21 3.70898V17.709C21 18.809 20.1 19.709 19 19.709H15L12.7 21.999C12.31 22.389 11.68 22.389 11.29 21.999L9 19.709H5C3.9 19.709 3 18.809 3 17.709V3.70898C3 2.60898 3.9 1.70898 5 1.70898ZM12 16.709L13.88 12.589L18 10.709L13.88 8.82898L12 4.70898L10.12 8.82898L6 10.709L10.12 12.589L12 16.709Z" fill="#8993A4"/>
</svg>
