<svg width="6" height="10" viewBox="0 0 6 10" fill="none" xmlns="http://www.w3.org/2000/svg">
<path fill-rule="evenodd" clip-rule="evenodd" d="M1.25001 0.333496C0.608344 0.333496 0.0833435 0.858496 0.0833435 1.50016C0.0833435 2.14183 0.608344 2.66683 1.25001 2.66683C1.89168 2.66683 2.41668 2.14183 2.41668 1.50016C2.41668 0.858496 1.89168 0.333496 1.25001 0.333496ZM0.0833435 5.00016C0.0833435 4.3585 0.608344 3.8335 1.25001 3.8335C1.89168 3.8335 2.41668 4.3585 2.41668 5.00016C2.41668 5.64183 1.89168 6.16683 1.25001 6.16683C0.608344 6.16683 0.0833435 5.64183 0.0833435 5.00016ZM1.25001 9.66683C1.89168 9.66683 2.41668 9.14183 2.41668 8.50016C2.41668 7.8585 1.89168 7.3335 1.25001 7.3335C0.608344 7.3335 0.0833435 7.8585 0.0833435 8.50016C0.0833435 9.14183 0.608344 9.66683 1.25001 9.66683ZM5.91668 1.50016C5.91668 2.14183 5.39168 2.66683 4.75001 2.66683C4.10834 2.66683 3.58334 2.14183 3.58334 1.50016C3.58334 0.858496 4.10834 0.333496 4.75001 0.333496C5.39168 0.333496 5.91668 0.858496 5.91668 1.50016ZM4.75001 3.8335C4.10834 3.8335 3.58334 4.3585 3.58334 5.00016C3.58334 5.64183 4.10834 6.16683 4.75001 6.16683C5.39168 6.16683 5.91668 5.64183 5.91668 5.00016C5.91668 4.3585 5.39168 3.8335 4.75001 3.8335ZM3.58334 8.50016C3.58334 7.8585 4.10834 7.3335 4.75001 7.3335C5.39168 7.3335 5.91668 7.8585 5.91668 8.50016C5.91668 9.14183 5.39168 9.66683 4.75001 9.66683C4.10834 9.66683 3.58334 9.14183 3.58334 8.50016Z" fill="#193B68"/>
</svg>
