<svg width="18" height="18" viewBox="0 0 18 18" fill="none" xmlns="http://www.w3.org/2000/svg">
<path fill-rule="evenodd" clip-rule="evenodd" d="M9.00004 6.66683C9.64171 6.66683 10.1667 6.14183 10.1667 5.50016C10.1667 4.8585 9.64171 4.3335 9.00004 4.3335C8.35837 4.3335 7.83337 4.8585 7.83337 5.50016C7.83337 6.14183 8.35837 6.66683 9.00004 6.66683ZM9.00004 7.8335C8.35837 7.8335 7.83337 8.3585 7.83337 9.00016C7.83337 9.64183 8.35837 10.1668 9.00004 10.1668C9.64171 10.1668 10.1667 9.64183 10.1667 9.00016C10.1667 8.3585 9.64171 7.8335 9.00004 7.8335ZM7.83337 12.5002C7.83337 11.8585 8.35837 11.3335 9.00004 11.3335C9.64171 11.3335 10.1667 11.8585 10.1667 12.5002C10.1667 13.1418 9.64171 13.6668 9.00004 13.6668C8.35837 13.6668 7.83337 13.1418 7.83337 12.5002Z" fill="#8396AF"/>
</svg>
