<svg width="4" height="10" viewBox="0 0 4 10" fill="none" xmlns="http://www.w3.org/2000/svg">
<path fill-rule="evenodd" clip-rule="evenodd" d="M2.00001 2.66683C2.64167 2.66683 3.16667 2.14183 3.16667 1.50016C3.16667 0.858496 2.64167 0.333496 2.00001 0.333496C1.35834 0.333496 0.83334 0.858496 0.83334 1.50016C0.83334 2.14183 1.35834 2.66683 2.00001 2.66683ZM2.00001 3.8335C1.35834 3.8335 0.83334 4.3585 0.83334 5.00016C0.83334 5.64183 1.35834 6.16683 2.00001 6.16683C2.64167 6.16683 3.16667 5.64183 3.16667 5.00016C3.16667 4.3585 2.64167 3.8335 2.00001 3.8335ZM0.83334 8.50016C0.83334 7.8585 1.35834 7.3335 2.00001 7.3335C2.64167 7.3335 3.16667 7.8585 3.16667 8.50016C3.16667 9.14183 2.64167 9.66683 2.00001 9.66683C1.35834 9.66683 0.83334 9.14183 0.83334 8.50016Z" fill="#8396AF"/>
</svg>
