<svg width="16" height="16" viewBox="0 0 16 16" fill="none" xmlns="http://www.w3.org/2000/svg">
<path fill-rule="evenodd" clip-rule="evenodd" d="M8 16C12.4183 16 16 12.4183 16 8C16 3.58173 12.4183 0 8 0C3.58173 0 0 3.58173 0 8C0 12.4183 3.58173 16 8 16ZM6.0303 4.96967C5.73743 4.67679 5.26257 4.67679 4.96967 4.96967C4.67676 5.26257 4.67676 5.73743 4.96967 6.0303L6.9393 8L4.96967 9.9697C4.67676 10.2626 4.67676 10.7374 4.96967 11.0303C5.26257 11.3232 5.73743 11.3232 6.0303 11.0303L8 9.0607L9.9697 11.0303C10.2626 11.3232 10.7374 11.3232 11.0303 11.0303C11.3232 10.7374 11.3232 10.2626 11.0303 9.9697L9.0607 8L11.0303 6.0303C11.3232 5.73743 11.3232 5.26257 11.0303 4.96967C10.7374 4.67679 10.2626 4.67679 9.9697 4.96967L8 6.9393L6.0303 4.96967Z" fill="white"/>
</svg>
